G04 #@! TF.GenerationSoftware,KiCad,Pcbnew,(5.1.5)-3*
G04 #@! TF.CreationDate,2020-11-24T12:16:53+03:00*
G04 #@! TF.ProjectId,fast-pwm,66617374-2d70-4776-9d2e-6b696361645f,rev?*
G04 #@! TF.SameCoordinates,Original*
G04 #@! TF.FileFunction,Legend,Bot*
G04 #@! TF.FilePolarity,Positive*
%FSLAX46Y46*%
G04 Gerber Fmt 4.6, Leading zero omitted, Abs format (unit mm)*
G04 Created by KiCad (PCBNEW (5.1.5)-3) date 2020-11-24 12:16:53*
%MOMM*%
%LPD*%
G04 APERTURE LIST*
%ADD10C,0.150000*%
%ADD11C,0.120000*%
G04 APERTURE END LIST*
D10*
X82452380Y-160452380D02*
X82452380Y-160547619D01*
X82500000Y-160642857D01*
X82547619Y-160690476D01*
X82642857Y-160738095D01*
X82833333Y-160785714D01*
X83071428Y-160785714D01*
X83261904Y-160738095D01*
X83357142Y-160690476D01*
X83404761Y-160642857D01*
X83452380Y-160547619D01*
X83452380Y-160452380D01*
X83404761Y-160357142D01*
X83357142Y-160309523D01*
X83261904Y-160261904D01*
X83071428Y-160214285D01*
X82833333Y-160214285D01*
X82642857Y-160261904D01*
X82547619Y-160309523D01*
X82500000Y-160357142D01*
X82452380Y-160452380D01*
X82547619Y-157714285D02*
X82547619Y-158285714D01*
X82547619Y-158000000D02*
X83547619Y-158000000D01*
X83404761Y-158095238D01*
X83309523Y-158190476D01*
X83261904Y-158285714D01*
D11*
X79500000Y-157200000D02*
X79500000Y-161300000D01*
X79500000Y-161300000D02*
X81500000Y-161300000D01*
X81500000Y-161300000D02*
X81500000Y-157200000D01*
X81500000Y-157200000D02*
X79500000Y-157200000D01*
X81700000Y-157950000D02*
X82000000Y-157650000D01*
X82000000Y-157650000D02*
X82000000Y-158250000D01*
X81700000Y-157950000D02*
X82000000Y-158250000D01*
X72642270Y-150381022D02*
X72642270Y-149858518D01*
X74062270Y-150381022D02*
X74062270Y-149858518D01*
X78790000Y-154511252D02*
X78790000Y-153988748D01*
X80210000Y-154511252D02*
X80210000Y-153988748D01*
X76325012Y-149858518D02*
X76325012Y-150381022D01*
X74905012Y-149858518D02*
X74905012Y-150381022D01*
X70379529Y-150381022D02*
X70379529Y-149858518D01*
X71799529Y-150381022D02*
X71799529Y-149858518D01*
X60690000Y-144530000D02*
X62150000Y-144530000D01*
X60690000Y-141370000D02*
X63850000Y-141370000D01*
X60690000Y-141370000D02*
X60690000Y-142300000D01*
X60690000Y-144530000D02*
X60690000Y-143600000D01*
X51740000Y-144530000D02*
X53200000Y-144530000D01*
X51740000Y-141370000D02*
X54900000Y-141370000D01*
X51740000Y-141370000D02*
X51740000Y-142300000D01*
X51740000Y-144530000D02*
X51740000Y-143600000D01*
X42440000Y-144530000D02*
X43900000Y-144530000D01*
X42440000Y-141370000D02*
X45600000Y-141370000D01*
X42440000Y-141370000D02*
X42440000Y-142300000D01*
X42440000Y-144530000D02*
X42440000Y-143600000D01*
X33490000Y-144530000D02*
X34950000Y-144530000D01*
X33490000Y-141370000D02*
X36650000Y-141370000D01*
X33490000Y-141370000D02*
X33490000Y-142300000D01*
X33490000Y-144530000D02*
X33490000Y-143600000D01*
X74661252Y-128360000D02*
X74138748Y-128360000D01*
X74661252Y-126940000D02*
X74138748Y-126940000D01*
X73690000Y-130861252D02*
X73690000Y-130338748D01*
X75110000Y-130861252D02*
X75110000Y-130338748D01*
D10*
X78178571Y-157416666D02*
X78226190Y-157559523D01*
X78273809Y-157607142D01*
X78369047Y-157654761D01*
X78511904Y-157654761D01*
X78607142Y-157607142D01*
X78654761Y-157559523D01*
X78702380Y-157464285D01*
X78702380Y-157083333D01*
X77702380Y-157083333D01*
X77702380Y-157416666D01*
X77750000Y-157511904D01*
X77797619Y-157559523D01*
X77892857Y-157607142D01*
X77988095Y-157607142D01*
X78083333Y-157559523D01*
X78130952Y-157511904D01*
X78178571Y-157416666D01*
X78178571Y-157083333D01*
X77702380Y-158273809D02*
X77702380Y-158464285D01*
X77750000Y-158559523D01*
X77845238Y-158654761D01*
X78035714Y-158702380D01*
X78369047Y-158702380D01*
X78559523Y-158654761D01*
X78654761Y-158559523D01*
X78702380Y-158464285D01*
X78702380Y-158273809D01*
X78654761Y-158178571D01*
X78559523Y-158083333D01*
X78369047Y-158035714D01*
X78035714Y-158035714D01*
X77845238Y-158083333D01*
X77750000Y-158178571D01*
X77702380Y-158273809D01*
X77702380Y-159321428D02*
X77702380Y-159511904D01*
X77750000Y-159607142D01*
X77845238Y-159702380D01*
X78035714Y-159750000D01*
X78369047Y-159750000D01*
X78559523Y-159702380D01*
X78654761Y-159607142D01*
X78702380Y-159511904D01*
X78702380Y-159321428D01*
X78654761Y-159226190D01*
X78559523Y-159130952D01*
X78369047Y-159083333D01*
X78035714Y-159083333D01*
X77845238Y-159130952D01*
X77750000Y-159226190D01*
X77702380Y-159321428D01*
X77702380Y-160035714D02*
X77702380Y-160607142D01*
X78702380Y-160321428D02*
X77702380Y-160321428D01*
X77702380Y-161130952D02*
X77702380Y-161226190D01*
X77750000Y-161321428D01*
X77797619Y-161369047D01*
X77892857Y-161416666D01*
X78083333Y-161464285D01*
X78321428Y-161464285D01*
X78511904Y-161416666D01*
X78607142Y-161369047D01*
X78654761Y-161321428D01*
X78702380Y-161226190D01*
X78702380Y-161130952D01*
X78654761Y-161035714D01*
X78607142Y-160988095D01*
X78511904Y-160940476D01*
X78321428Y-160892857D01*
X78083333Y-160892857D01*
X77892857Y-160940476D01*
X77797619Y-160988095D01*
X77750000Y-161035714D01*
X77702380Y-161130952D01*
X75142857Y-146666666D02*
X75095238Y-146714285D01*
X75047619Y-146857142D01*
X75047619Y-146952380D01*
X75095238Y-147095238D01*
X75190476Y-147190476D01*
X75285714Y-147238095D01*
X75476190Y-147285714D01*
X75619047Y-147285714D01*
X75809523Y-147238095D01*
X75904761Y-147190476D01*
X76000000Y-147095238D01*
X76047619Y-146952380D01*
X76047619Y-146857142D01*
X76000000Y-146714285D01*
X75952380Y-146666666D01*
X75047619Y-145714285D02*
X75047619Y-146285714D01*
X75047619Y-146000000D02*
X76047619Y-146000000D01*
X75904761Y-146095238D01*
X75809523Y-146190476D01*
X75761904Y-146285714D01*
X81952380Y-153607142D02*
X81476190Y-153273809D01*
X81952380Y-153035714D02*
X80952380Y-153035714D01*
X80952380Y-153416666D01*
X81000000Y-153511904D01*
X81047619Y-153559523D01*
X81142857Y-153607142D01*
X81285714Y-153607142D01*
X81380952Y-153559523D01*
X81428571Y-153511904D01*
X81476190Y-153416666D01*
X81476190Y-153035714D01*
X81952380Y-154559523D02*
X81952380Y-153988095D01*
X81952380Y-154273809D02*
X80952380Y-154273809D01*
X81095238Y-154178571D01*
X81190476Y-154083333D01*
X81238095Y-153988095D01*
X81047619Y-154940476D02*
X81000000Y-154988095D01*
X80952380Y-155083333D01*
X80952380Y-155321428D01*
X81000000Y-155416666D01*
X81047619Y-155464285D01*
X81142857Y-155511904D01*
X81238095Y-155511904D01*
X81380952Y-155464285D01*
X81952380Y-154892857D01*
X81952380Y-155511904D01*
X73607142Y-146333333D02*
X73654761Y-146285714D01*
X73702380Y-146142857D01*
X73702380Y-146047619D01*
X73654761Y-145904761D01*
X73559523Y-145809523D01*
X73464285Y-145761904D01*
X73273809Y-145714285D01*
X73130952Y-145714285D01*
X72940476Y-145761904D01*
X72845238Y-145809523D01*
X72750000Y-145904761D01*
X72702380Y-146047619D01*
X72702380Y-146142857D01*
X72750000Y-146285714D01*
X72797619Y-146333333D01*
X72702380Y-146666666D02*
X72702380Y-147285714D01*
X73083333Y-146952380D01*
X73083333Y-147095238D01*
X73130952Y-147190476D01*
X73178571Y-147238095D01*
X73273809Y-147285714D01*
X73511904Y-147285714D01*
X73607142Y-147238095D01*
X73654761Y-147190476D01*
X73702380Y-147095238D01*
X73702380Y-146809523D01*
X73654761Y-146714285D01*
X73607142Y-146666666D01*
X70392857Y-146666666D02*
X70345238Y-146714285D01*
X70297619Y-146857142D01*
X70297619Y-146952380D01*
X70345238Y-147095238D01*
X70440476Y-147190476D01*
X70535714Y-147238095D01*
X70726190Y-147285714D01*
X70869047Y-147285714D01*
X71059523Y-147238095D01*
X71154761Y-147190476D01*
X71250000Y-147095238D01*
X71297619Y-146952380D01*
X71297619Y-146857142D01*
X71250000Y-146714285D01*
X71202380Y-146666666D01*
X71202380Y-146285714D02*
X71250000Y-146238095D01*
X71297619Y-146142857D01*
X71297619Y-145904761D01*
X71250000Y-145809523D01*
X71202380Y-145761904D01*
X71107142Y-145714285D01*
X71011904Y-145714285D01*
X70869047Y-145761904D01*
X70297619Y-146333333D01*
X70297619Y-145714285D01*
X61845238Y-140797619D02*
X61940476Y-140750000D01*
X62035714Y-140654761D01*
X62178571Y-140511904D01*
X62273809Y-140464285D01*
X62369047Y-140464285D01*
X62321428Y-140702380D02*
X62416666Y-140654761D01*
X62511904Y-140559523D01*
X62559523Y-140369047D01*
X62559523Y-140035714D01*
X62511904Y-139845238D01*
X62416666Y-139750000D01*
X62321428Y-139702380D01*
X62130952Y-139702380D01*
X62035714Y-139750000D01*
X61940476Y-139845238D01*
X61892857Y-140035714D01*
X61892857Y-140369047D01*
X61940476Y-140559523D01*
X62035714Y-140654761D01*
X62130952Y-140702380D01*
X62321428Y-140702380D01*
X61321428Y-140130952D02*
X61416666Y-140083333D01*
X61464285Y-140035714D01*
X61511904Y-139940476D01*
X61511904Y-139892857D01*
X61464285Y-139797619D01*
X61416666Y-139750000D01*
X61321428Y-139702380D01*
X61130952Y-139702380D01*
X61035714Y-139750000D01*
X60988095Y-139797619D01*
X60940476Y-139892857D01*
X60940476Y-139940476D01*
X60988095Y-140035714D01*
X61035714Y-140083333D01*
X61130952Y-140130952D01*
X61321428Y-140130952D01*
X61416666Y-140178571D01*
X61464285Y-140226190D01*
X61511904Y-140321428D01*
X61511904Y-140511904D01*
X61464285Y-140607142D01*
X61416666Y-140654761D01*
X61321428Y-140702380D01*
X61130952Y-140702380D01*
X61035714Y-140654761D01*
X60988095Y-140607142D01*
X60940476Y-140511904D01*
X60940476Y-140321428D01*
X60988095Y-140226190D01*
X61035714Y-140178571D01*
X61130952Y-140130952D01*
X53095238Y-140797619D02*
X53190476Y-140750000D01*
X53285714Y-140654761D01*
X53428571Y-140511904D01*
X53523809Y-140464285D01*
X53619047Y-140464285D01*
X53571428Y-140702380D02*
X53666666Y-140654761D01*
X53761904Y-140559523D01*
X53809523Y-140369047D01*
X53809523Y-140035714D01*
X53761904Y-139845238D01*
X53666666Y-139750000D01*
X53571428Y-139702380D01*
X53380952Y-139702380D01*
X53285714Y-139750000D01*
X53190476Y-139845238D01*
X53142857Y-140035714D01*
X53142857Y-140369047D01*
X53190476Y-140559523D01*
X53285714Y-140654761D01*
X53380952Y-140702380D01*
X53571428Y-140702380D01*
X52285714Y-139702380D02*
X52476190Y-139702380D01*
X52571428Y-139750000D01*
X52619047Y-139797619D01*
X52714285Y-139940476D01*
X52761904Y-140130952D01*
X52761904Y-140511904D01*
X52714285Y-140607142D01*
X52666666Y-140654761D01*
X52571428Y-140702380D01*
X52380952Y-140702380D01*
X52285714Y-140654761D01*
X52238095Y-140607142D01*
X52190476Y-140511904D01*
X52190476Y-140273809D01*
X52238095Y-140178571D01*
X52285714Y-140130952D01*
X52380952Y-140083333D01*
X52571428Y-140083333D01*
X52666666Y-140130952D01*
X52714285Y-140178571D01*
X52761904Y-140273809D01*
X43595238Y-140797619D02*
X43690476Y-140750000D01*
X43785714Y-140654761D01*
X43928571Y-140511904D01*
X44023809Y-140464285D01*
X44119047Y-140464285D01*
X44071428Y-140702380D02*
X44166666Y-140654761D01*
X44261904Y-140559523D01*
X44309523Y-140369047D01*
X44309523Y-140035714D01*
X44261904Y-139845238D01*
X44166666Y-139750000D01*
X44071428Y-139702380D01*
X43880952Y-139702380D01*
X43785714Y-139750000D01*
X43690476Y-139845238D01*
X43642857Y-140035714D01*
X43642857Y-140369047D01*
X43690476Y-140559523D01*
X43785714Y-140654761D01*
X43880952Y-140702380D01*
X44071428Y-140702380D01*
X42785714Y-140035714D02*
X42785714Y-140702380D01*
X43023809Y-139654761D02*
X43261904Y-140369047D01*
X42642857Y-140369047D01*
X34345238Y-140997619D02*
X34440476Y-140950000D01*
X34535714Y-140854761D01*
X34678571Y-140711904D01*
X34773809Y-140664285D01*
X34869047Y-140664285D01*
X34821428Y-140902380D02*
X34916666Y-140854761D01*
X35011904Y-140759523D01*
X35059523Y-140569047D01*
X35059523Y-140235714D01*
X35011904Y-140045238D01*
X34916666Y-139950000D01*
X34821428Y-139902380D01*
X34630952Y-139902380D01*
X34535714Y-139950000D01*
X34440476Y-140045238D01*
X34392857Y-140235714D01*
X34392857Y-140569047D01*
X34440476Y-140759523D01*
X34535714Y-140854761D01*
X34630952Y-140902380D01*
X34821428Y-140902380D01*
X34011904Y-139997619D02*
X33964285Y-139950000D01*
X33869047Y-139902380D01*
X33630952Y-139902380D01*
X33535714Y-139950000D01*
X33488095Y-139997619D01*
X33440476Y-140092857D01*
X33440476Y-140188095D01*
X33488095Y-140330952D01*
X34059523Y-140902380D01*
X33440476Y-140902380D01*
X71972080Y-127023242D02*
X71495890Y-126689909D01*
X71972080Y-126451814D02*
X70972080Y-126451814D01*
X70972080Y-126832766D01*
X71019700Y-126928004D01*
X71067319Y-126975623D01*
X71162557Y-127023242D01*
X71305414Y-127023242D01*
X71400652Y-126975623D01*
X71448271Y-126928004D01*
X71495890Y-126832766D01*
X71495890Y-126451814D01*
X71067319Y-127404195D02*
X71019700Y-127451814D01*
X70972080Y-127547052D01*
X70972080Y-127785147D01*
X71019700Y-127880385D01*
X71067319Y-127928004D01*
X71162557Y-127975623D01*
X71257795Y-127975623D01*
X71400652Y-127928004D01*
X71972080Y-127356576D01*
X71972080Y-127975623D01*
X71305414Y-128832766D02*
X71972080Y-128832766D01*
X70924461Y-128594671D02*
X71638747Y-128356576D01*
X71638747Y-128975623D01*
X74666666Y-133857142D02*
X74714285Y-133904761D01*
X74857142Y-133952380D01*
X74952380Y-133952380D01*
X75095238Y-133904761D01*
X75190476Y-133809523D01*
X75238095Y-133714285D01*
X75285714Y-133523809D01*
X75285714Y-133380952D01*
X75238095Y-133190476D01*
X75190476Y-133095238D01*
X75095238Y-133000000D01*
X74952380Y-132952380D01*
X74857142Y-132952380D01*
X74714285Y-133000000D01*
X74666666Y-133047619D01*
X74333333Y-132952380D02*
X73666666Y-132952380D01*
X74095238Y-133952380D01*
M02*
