G04 #@! TF.GenerationSoftware,KiCad,Pcbnew,(5.1.5)-3*
G04 #@! TF.CreationDate,2020-11-24T12:16:53+03:00*
G04 #@! TF.ProjectId,fast-pwm,66617374-2d70-4776-9d2e-6b696361645f,rev?*
G04 #@! TF.SameCoordinates,Original*
G04 #@! TF.FileFunction,Soldermask,Top*
G04 #@! TF.FilePolarity,Negative*
%FSLAX46Y46*%
G04 Gerber Fmt 4.6, Leading zero omitted, Abs format (unit mm)*
G04 Created by KiCad (PCBNEW (5.1.5)-3) date 2020-11-24 12:16:53*
%MOMM*%
%LPD*%
G04 APERTURE LIST*
%ADD10C,0.100000*%
G04 APERTURE END LIST*
D10*
G36*
X64660915Y-158102934D02*
G01*
X64693424Y-158112795D01*
X64723382Y-158128809D01*
X64749641Y-158150359D01*
X64771191Y-158176618D01*
X64787205Y-158206576D01*
X64797066Y-158239085D01*
X64801000Y-158279029D01*
X64801000Y-161320971D01*
X64797066Y-161360915D01*
X64787205Y-161393424D01*
X64771191Y-161423382D01*
X64749641Y-161449641D01*
X64723382Y-161471191D01*
X64693424Y-161487205D01*
X64660915Y-161497066D01*
X64620971Y-161501000D01*
X63079029Y-161501000D01*
X63039085Y-161497066D01*
X63006576Y-161487205D01*
X62976618Y-161471191D01*
X62950359Y-161449641D01*
X62928809Y-161423382D01*
X62912795Y-161393424D01*
X62902934Y-161360915D01*
X62899000Y-161320971D01*
X62899000Y-158279029D01*
X62902934Y-158239085D01*
X62912795Y-158206576D01*
X62928809Y-158176618D01*
X62950359Y-158150359D01*
X62976618Y-158128809D01*
X63006576Y-158112795D01*
X63039085Y-158102934D01*
X63079029Y-158099000D01*
X64620971Y-158099000D01*
X64660915Y-158102934D01*
G37*
G36*
X41960915Y-158102934D02*
G01*
X41993424Y-158112795D01*
X42023382Y-158128809D01*
X42049641Y-158150359D01*
X42071191Y-158176618D01*
X42087205Y-158206576D01*
X42097066Y-158239085D01*
X42101000Y-158279029D01*
X42101000Y-161320971D01*
X42097066Y-161360915D01*
X42087205Y-161393424D01*
X42071191Y-161423382D01*
X42049641Y-161449641D01*
X42023382Y-161471191D01*
X41993424Y-161487205D01*
X41960915Y-161497066D01*
X41920971Y-161501000D01*
X40379029Y-161501000D01*
X40339085Y-161497066D01*
X40306576Y-161487205D01*
X40276618Y-161471191D01*
X40250359Y-161449641D01*
X40228809Y-161423382D01*
X40212795Y-161393424D01*
X40202934Y-161360915D01*
X40199000Y-161320971D01*
X40199000Y-158279029D01*
X40202934Y-158239085D01*
X40212795Y-158206576D01*
X40228809Y-158176618D01*
X40250359Y-158150359D01*
X40276618Y-158128809D01*
X40306576Y-158112795D01*
X40339085Y-158102934D01*
X40379029Y-158099000D01*
X41920971Y-158099000D01*
X41960915Y-158102934D01*
G37*
G36*
X51660915Y-158102934D02*
G01*
X51693424Y-158112795D01*
X51723382Y-158128809D01*
X51749641Y-158150359D01*
X51771191Y-158176618D01*
X51787205Y-158206576D01*
X51797066Y-158239085D01*
X51801000Y-158279029D01*
X51801000Y-161320971D01*
X51797066Y-161360915D01*
X51787205Y-161393424D01*
X51771191Y-161423382D01*
X51749641Y-161449641D01*
X51723382Y-161471191D01*
X51693424Y-161487205D01*
X51660915Y-161497066D01*
X51620971Y-161501000D01*
X50079029Y-161501000D01*
X50039085Y-161497066D01*
X50006576Y-161487205D01*
X49976618Y-161471191D01*
X49950359Y-161449641D01*
X49928809Y-161423382D01*
X49912795Y-161393424D01*
X49902934Y-161360915D01*
X49899000Y-161320971D01*
X49899000Y-158279029D01*
X49902934Y-158239085D01*
X49912795Y-158206576D01*
X49928809Y-158176618D01*
X49950359Y-158150359D01*
X49976618Y-158128809D01*
X50006576Y-158112795D01*
X50039085Y-158102934D01*
X50079029Y-158099000D01*
X51620971Y-158099000D01*
X51660915Y-158102934D01*
G37*
G36*
X54960915Y-158102934D02*
G01*
X54993424Y-158112795D01*
X55023382Y-158128809D01*
X55049641Y-158150359D01*
X55071191Y-158176618D01*
X55087205Y-158206576D01*
X55097066Y-158239085D01*
X55101000Y-158279029D01*
X55101000Y-161320971D01*
X55097066Y-161360915D01*
X55087205Y-161393424D01*
X55071191Y-161423382D01*
X55049641Y-161449641D01*
X55023382Y-161471191D01*
X54993424Y-161487205D01*
X54960915Y-161497066D01*
X54920971Y-161501000D01*
X53379029Y-161501000D01*
X53339085Y-161497066D01*
X53306576Y-161487205D01*
X53276618Y-161471191D01*
X53250359Y-161449641D01*
X53228809Y-161423382D01*
X53212795Y-161393424D01*
X53202934Y-161360915D01*
X53199000Y-161320971D01*
X53199000Y-158279029D01*
X53202934Y-158239085D01*
X53212795Y-158206576D01*
X53228809Y-158176618D01*
X53250359Y-158150359D01*
X53276618Y-158128809D01*
X53306576Y-158112795D01*
X53339085Y-158102934D01*
X53379029Y-158099000D01*
X54920971Y-158099000D01*
X54960915Y-158102934D01*
G37*
G36*
X90360915Y-159402934D02*
G01*
X90393424Y-159412795D01*
X90423382Y-159428809D01*
X90449641Y-159450359D01*
X90471191Y-159476618D01*
X90487205Y-159506576D01*
X90497066Y-159539085D01*
X90501000Y-159579029D01*
X90501000Y-161120971D01*
X90497066Y-161160915D01*
X90487205Y-161193424D01*
X90471191Y-161223382D01*
X90449641Y-161249641D01*
X90423382Y-161271191D01*
X90393424Y-161287205D01*
X90360915Y-161297066D01*
X90320971Y-161301000D01*
X87279029Y-161301000D01*
X87239085Y-161297066D01*
X87206576Y-161287205D01*
X87176618Y-161271191D01*
X87150359Y-161249641D01*
X87128809Y-161223382D01*
X87112795Y-161193424D01*
X87102934Y-161160915D01*
X87099000Y-161120971D01*
X87099000Y-159579029D01*
X87102934Y-159539085D01*
X87112795Y-159506576D01*
X87128809Y-159476618D01*
X87150359Y-159450359D01*
X87176618Y-159428809D01*
X87206576Y-159412795D01*
X87239085Y-159402934D01*
X87279029Y-159399000D01*
X90320971Y-159399000D01*
X90360915Y-159402934D01*
G37*
G36*
X73401000Y-160401000D02*
G01*
X71599000Y-160401000D01*
X71599000Y-158599000D01*
X73401000Y-158599000D01*
X73401000Y-160401000D01*
G37*
G36*
X75153512Y-158603927D02*
G01*
X75302812Y-158633624D01*
X75466784Y-158701544D01*
X75614354Y-158800147D01*
X75739853Y-158925646D01*
X75838456Y-159073216D01*
X75906376Y-159237188D01*
X75941000Y-159411259D01*
X75941000Y-159588741D01*
X75906376Y-159762812D01*
X75838456Y-159926784D01*
X75739853Y-160074354D01*
X75614354Y-160199853D01*
X75466784Y-160298456D01*
X75302812Y-160366376D01*
X75153512Y-160396073D01*
X75128742Y-160401000D01*
X74951258Y-160401000D01*
X74926488Y-160396073D01*
X74777188Y-160366376D01*
X74613216Y-160298456D01*
X74465646Y-160199853D01*
X74340147Y-160074354D01*
X74241544Y-159926784D01*
X74173624Y-159762812D01*
X74139000Y-159588741D01*
X74139000Y-159411259D01*
X74173624Y-159237188D01*
X74241544Y-159073216D01*
X74340147Y-158925646D01*
X74465646Y-158800147D01*
X74613216Y-158701544D01*
X74777188Y-158633624D01*
X74926488Y-158603927D01*
X74951258Y-158599000D01*
X75128742Y-158599000D01*
X75153512Y-158603927D01*
G37*
G36*
X67438674Y-158503465D02*
G01*
X67476367Y-158514899D01*
X67511103Y-158533466D01*
X67541548Y-158558452D01*
X67566534Y-158588897D01*
X67585101Y-158623633D01*
X67596535Y-158661326D01*
X67601000Y-158706661D01*
X67601000Y-159793339D01*
X67596535Y-159838674D01*
X67585101Y-159876367D01*
X67566534Y-159911103D01*
X67541548Y-159941548D01*
X67511103Y-159966534D01*
X67476367Y-159985101D01*
X67438674Y-159996535D01*
X67393339Y-160001000D01*
X66556661Y-160001000D01*
X66511326Y-159996535D01*
X66473633Y-159985101D01*
X66438897Y-159966534D01*
X66408452Y-159941548D01*
X66383466Y-159911103D01*
X66364899Y-159876367D01*
X66353465Y-159838674D01*
X66349000Y-159793339D01*
X66349000Y-158706661D01*
X66353465Y-158661326D01*
X66364899Y-158623633D01*
X66383466Y-158588897D01*
X66408452Y-158558452D01*
X66438897Y-158533466D01*
X66473633Y-158514899D01*
X66511326Y-158503465D01*
X66556661Y-158499000D01*
X67393339Y-158499000D01*
X67438674Y-158503465D01*
G37*
G36*
X69488674Y-158503465D02*
G01*
X69526367Y-158514899D01*
X69561103Y-158533466D01*
X69591548Y-158558452D01*
X69616534Y-158588897D01*
X69635101Y-158623633D01*
X69646535Y-158661326D01*
X69651000Y-158706661D01*
X69651000Y-159793339D01*
X69646535Y-159838674D01*
X69635101Y-159876367D01*
X69616534Y-159911103D01*
X69591548Y-159941548D01*
X69561103Y-159966534D01*
X69526367Y-159985101D01*
X69488674Y-159996535D01*
X69443339Y-160001000D01*
X68606661Y-160001000D01*
X68561326Y-159996535D01*
X68523633Y-159985101D01*
X68488897Y-159966534D01*
X68458452Y-159941548D01*
X68433466Y-159911103D01*
X68414899Y-159876367D01*
X68403465Y-159838674D01*
X68399000Y-159793339D01*
X68399000Y-158706661D01*
X68403465Y-158661326D01*
X68414899Y-158623633D01*
X68433466Y-158588897D01*
X68458452Y-158558452D01*
X68488897Y-158533466D01*
X68523633Y-158514899D01*
X68561326Y-158503465D01*
X68606661Y-158499000D01*
X69443339Y-158499000D01*
X69488674Y-158503465D01*
G37*
G36*
X33571563Y-152799000D02*
G01*
X33948282Y-152873934D01*
X34539926Y-153119001D01*
X34829523Y-153312504D01*
X35072391Y-153474783D01*
X35525217Y-153927609D01*
X35592027Y-154027597D01*
X35880999Y-154460074D01*
X36126066Y-155051718D01*
X36172433Y-155284821D01*
X36251000Y-155679803D01*
X36251000Y-156320197D01*
X36208885Y-156531925D01*
X36126066Y-156948282D01*
X35880999Y-157539926D01*
X35633265Y-157910685D01*
X35525217Y-158072391D01*
X35072391Y-158525217D01*
X35022651Y-158558452D01*
X34539926Y-158880999D01*
X33948282Y-159126066D01*
X33634239Y-159188533D01*
X33320197Y-159251000D01*
X32679803Y-159251000D01*
X32365761Y-159188533D01*
X32051718Y-159126066D01*
X31460074Y-158880999D01*
X30977349Y-158558452D01*
X30927609Y-158525217D01*
X30474783Y-158072391D01*
X30366735Y-157910685D01*
X30119001Y-157539926D01*
X29873934Y-156948282D01*
X29791115Y-156531925D01*
X29749000Y-156320197D01*
X29749000Y-155679803D01*
X29827567Y-155284821D01*
X29873934Y-155051718D01*
X30119001Y-154460074D01*
X30407973Y-154027597D01*
X30474783Y-153927609D01*
X30927609Y-153474783D01*
X31170477Y-153312504D01*
X31460074Y-153119001D01*
X32051718Y-152873934D01*
X32428437Y-152799000D01*
X32679803Y-152749000D01*
X33320197Y-152749000D01*
X33571563Y-152799000D01*
G37*
G36*
X84869683Y-157302725D02*
G01*
X84900143Y-157311966D01*
X84928223Y-157326974D01*
X84952831Y-157347169D01*
X84973026Y-157371777D01*
X84988034Y-157399857D01*
X84997275Y-157430317D01*
X85001000Y-157468140D01*
X85001000Y-158031860D01*
X84997275Y-158069683D01*
X84988034Y-158100143D01*
X84973026Y-158128223D01*
X84952831Y-158152831D01*
X84928223Y-158173026D01*
X84900143Y-158188034D01*
X84869683Y-158197275D01*
X84831860Y-158201000D01*
X82668140Y-158201000D01*
X82630317Y-158197275D01*
X82599857Y-158188034D01*
X82571777Y-158173026D01*
X82547169Y-158152831D01*
X82526974Y-158128223D01*
X82511966Y-158100143D01*
X82502725Y-158069683D01*
X82499000Y-158031860D01*
X82499000Y-157468140D01*
X82502725Y-157430317D01*
X82511966Y-157399857D01*
X82526974Y-157371777D01*
X82547169Y-157347169D01*
X82571777Y-157326974D01*
X82599857Y-157311966D01*
X82630317Y-157302725D01*
X82668140Y-157299000D01*
X84831860Y-157299000D01*
X84869683Y-157302725D01*
G37*
G36*
X69488674Y-155253465D02*
G01*
X69526367Y-155264899D01*
X69561103Y-155283466D01*
X69591548Y-155308452D01*
X69616534Y-155338897D01*
X69635101Y-155373633D01*
X69646535Y-155411326D01*
X69651000Y-155456661D01*
X69651000Y-156543339D01*
X69646535Y-156588674D01*
X69635101Y-156626367D01*
X69616534Y-156661103D01*
X69591548Y-156691548D01*
X69561103Y-156716534D01*
X69526367Y-156735101D01*
X69488674Y-156746535D01*
X69443339Y-156751000D01*
X68606661Y-156751000D01*
X68561326Y-156746535D01*
X68523633Y-156735101D01*
X68488897Y-156716534D01*
X68458452Y-156691548D01*
X68433466Y-156661103D01*
X68414899Y-156626367D01*
X68403465Y-156588674D01*
X68399000Y-156543339D01*
X68399000Y-155456661D01*
X68403465Y-155411326D01*
X68414899Y-155373633D01*
X68433466Y-155338897D01*
X68458452Y-155308452D01*
X68488897Y-155283466D01*
X68523633Y-155264899D01*
X68561326Y-155253465D01*
X68606661Y-155249000D01*
X69443339Y-155249000D01*
X69488674Y-155253465D01*
G37*
G36*
X67438674Y-155253465D02*
G01*
X67476367Y-155264899D01*
X67511103Y-155283466D01*
X67541548Y-155308452D01*
X67566534Y-155338897D01*
X67585101Y-155373633D01*
X67596535Y-155411326D01*
X67601000Y-155456661D01*
X67601000Y-156543339D01*
X67596535Y-156588674D01*
X67585101Y-156626367D01*
X67566534Y-156661103D01*
X67541548Y-156691548D01*
X67511103Y-156716534D01*
X67476367Y-156735101D01*
X67438674Y-156746535D01*
X67393339Y-156751000D01*
X66556661Y-156751000D01*
X66511326Y-156746535D01*
X66473633Y-156735101D01*
X66438897Y-156716534D01*
X66408452Y-156691548D01*
X66383466Y-156661103D01*
X66364899Y-156626367D01*
X66353465Y-156588674D01*
X66349000Y-156543339D01*
X66349000Y-155456661D01*
X66353465Y-155411326D01*
X66364899Y-155373633D01*
X66383466Y-155338897D01*
X66408452Y-155308452D01*
X66438897Y-155283466D01*
X66473633Y-155264899D01*
X66511326Y-155253465D01*
X66556661Y-155249000D01*
X67393339Y-155249000D01*
X67438674Y-155253465D01*
G37*
G36*
X84869683Y-155802725D02*
G01*
X84900143Y-155811966D01*
X84928223Y-155826974D01*
X84952831Y-155847169D01*
X84973026Y-155871777D01*
X84988034Y-155899857D01*
X84997275Y-155930317D01*
X85001000Y-155968140D01*
X85001000Y-156531860D01*
X84997275Y-156569683D01*
X84988034Y-156600143D01*
X84973026Y-156628223D01*
X84952831Y-156652831D01*
X84928223Y-156673026D01*
X84900143Y-156688034D01*
X84869683Y-156697275D01*
X84831860Y-156701000D01*
X82668140Y-156701000D01*
X82630317Y-156697275D01*
X82599857Y-156688034D01*
X82571777Y-156673026D01*
X82547169Y-156652831D01*
X82526974Y-156628223D01*
X82511966Y-156600143D01*
X82502725Y-156569683D01*
X82499000Y-156531860D01*
X82499000Y-155968140D01*
X82502725Y-155930317D01*
X82511966Y-155899857D01*
X82526974Y-155871777D01*
X82547169Y-155847169D01*
X82571777Y-155826974D01*
X82599857Y-155811966D01*
X82630317Y-155802725D01*
X82668140Y-155799000D01*
X84831860Y-155799000D01*
X84869683Y-155802725D01*
G37*
G36*
X57069683Y-153502725D02*
G01*
X57100143Y-153511966D01*
X57128223Y-153526974D01*
X57152831Y-153547169D01*
X57173026Y-153571777D01*
X57188034Y-153599857D01*
X57197275Y-153630317D01*
X57201000Y-153668140D01*
X57201000Y-155831860D01*
X57197275Y-155869683D01*
X57188034Y-155900143D01*
X57173026Y-155928223D01*
X57152831Y-155952831D01*
X57128223Y-155973026D01*
X57100143Y-155988034D01*
X57069683Y-155997275D01*
X57031860Y-156001000D01*
X56468140Y-156001000D01*
X56430317Y-155997275D01*
X56399857Y-155988034D01*
X56371777Y-155973026D01*
X56347169Y-155952831D01*
X56326974Y-155928223D01*
X56311966Y-155900143D01*
X56302725Y-155869683D01*
X56299000Y-155831860D01*
X56299000Y-153668140D01*
X56302725Y-153630317D01*
X56311966Y-153599857D01*
X56326974Y-153571777D01*
X56347169Y-153547169D01*
X56371777Y-153526974D01*
X56399857Y-153511966D01*
X56430317Y-153502725D01*
X56468140Y-153499000D01*
X57031860Y-153499000D01*
X57069683Y-153502725D01*
G37*
G36*
X58569683Y-153502725D02*
G01*
X58600143Y-153511966D01*
X58628223Y-153526974D01*
X58652831Y-153547169D01*
X58673026Y-153571777D01*
X58688034Y-153599857D01*
X58697275Y-153630317D01*
X58701000Y-153668140D01*
X58701000Y-155831860D01*
X58697275Y-155869683D01*
X58688034Y-155900143D01*
X58673026Y-155928223D01*
X58652831Y-155952831D01*
X58628223Y-155973026D01*
X58600143Y-155988034D01*
X58569683Y-155997275D01*
X58531860Y-156001000D01*
X57968140Y-156001000D01*
X57930317Y-155997275D01*
X57899857Y-155988034D01*
X57871777Y-155973026D01*
X57847169Y-155952831D01*
X57826974Y-155928223D01*
X57811966Y-155900143D01*
X57802725Y-155869683D01*
X57799000Y-155831860D01*
X57799000Y-153668140D01*
X57802725Y-153630317D01*
X57811966Y-153599857D01*
X57826974Y-153571777D01*
X57847169Y-153547169D01*
X57871777Y-153526974D01*
X57899857Y-153511966D01*
X57930317Y-153502725D01*
X57968140Y-153499000D01*
X58531860Y-153499000D01*
X58569683Y-153502725D01*
G37*
G36*
X60069683Y-153502725D02*
G01*
X60100143Y-153511966D01*
X60128223Y-153526974D01*
X60152831Y-153547169D01*
X60173026Y-153571777D01*
X60188034Y-153599857D01*
X60197275Y-153630317D01*
X60201000Y-153668140D01*
X60201000Y-155831860D01*
X60197275Y-155869683D01*
X60188034Y-155900143D01*
X60173026Y-155928223D01*
X60152831Y-155952831D01*
X60128223Y-155973026D01*
X60100143Y-155988034D01*
X60069683Y-155997275D01*
X60031860Y-156001000D01*
X59468140Y-156001000D01*
X59430317Y-155997275D01*
X59399857Y-155988034D01*
X59371777Y-155973026D01*
X59347169Y-155952831D01*
X59326974Y-155928223D01*
X59311966Y-155900143D01*
X59302725Y-155869683D01*
X59299000Y-155831860D01*
X59299000Y-153668140D01*
X59302725Y-153630317D01*
X59311966Y-153599857D01*
X59326974Y-153571777D01*
X59347169Y-153547169D01*
X59371777Y-153526974D01*
X59399857Y-153511966D01*
X59430317Y-153502725D01*
X59468140Y-153499000D01*
X60031860Y-153499000D01*
X60069683Y-153502725D01*
G37*
G36*
X61569683Y-153502725D02*
G01*
X61600143Y-153511966D01*
X61628223Y-153526974D01*
X61652831Y-153547169D01*
X61673026Y-153571777D01*
X61688034Y-153599857D01*
X61697275Y-153630317D01*
X61701000Y-153668140D01*
X61701000Y-155831860D01*
X61697275Y-155869683D01*
X61688034Y-155900143D01*
X61673026Y-155928223D01*
X61652831Y-155952831D01*
X61628223Y-155973026D01*
X61600143Y-155988034D01*
X61569683Y-155997275D01*
X61531860Y-156001000D01*
X60968140Y-156001000D01*
X60930317Y-155997275D01*
X60899857Y-155988034D01*
X60871777Y-155973026D01*
X60847169Y-155952831D01*
X60826974Y-155928223D01*
X60811966Y-155900143D01*
X60802725Y-155869683D01*
X60799000Y-155831860D01*
X60799000Y-153668140D01*
X60802725Y-153630317D01*
X60811966Y-153599857D01*
X60826974Y-153571777D01*
X60847169Y-153547169D01*
X60871777Y-153526974D01*
X60899857Y-153511966D01*
X60930317Y-153502725D01*
X60968140Y-153499000D01*
X61531860Y-153499000D01*
X61569683Y-153502725D01*
G37*
G36*
X44069683Y-153502725D02*
G01*
X44100143Y-153511966D01*
X44128223Y-153526974D01*
X44152831Y-153547169D01*
X44173026Y-153571777D01*
X44188034Y-153599857D01*
X44197275Y-153630317D01*
X44201000Y-153668140D01*
X44201000Y-155831860D01*
X44197275Y-155869683D01*
X44188034Y-155900143D01*
X44173026Y-155928223D01*
X44152831Y-155952831D01*
X44128223Y-155973026D01*
X44100143Y-155988034D01*
X44069683Y-155997275D01*
X44031860Y-156001000D01*
X43468140Y-156001000D01*
X43430317Y-155997275D01*
X43399857Y-155988034D01*
X43371777Y-155973026D01*
X43347169Y-155952831D01*
X43326974Y-155928223D01*
X43311966Y-155900143D01*
X43302725Y-155869683D01*
X43299000Y-155831860D01*
X43299000Y-153668140D01*
X43302725Y-153630317D01*
X43311966Y-153599857D01*
X43326974Y-153571777D01*
X43347169Y-153547169D01*
X43371777Y-153526974D01*
X43399857Y-153511966D01*
X43430317Y-153502725D01*
X43468140Y-153499000D01*
X44031860Y-153499000D01*
X44069683Y-153502725D01*
G37*
G36*
X48569683Y-153502725D02*
G01*
X48600143Y-153511966D01*
X48628223Y-153526974D01*
X48652831Y-153547169D01*
X48673026Y-153571777D01*
X48688034Y-153599857D01*
X48697275Y-153630317D01*
X48701000Y-153668140D01*
X48701000Y-155831860D01*
X48697275Y-155869683D01*
X48688034Y-155900143D01*
X48673026Y-155928223D01*
X48652831Y-155952831D01*
X48628223Y-155973026D01*
X48600143Y-155988034D01*
X48569683Y-155997275D01*
X48531860Y-156001000D01*
X47968140Y-156001000D01*
X47930317Y-155997275D01*
X47899857Y-155988034D01*
X47871777Y-155973026D01*
X47847169Y-155952831D01*
X47826974Y-155928223D01*
X47811966Y-155900143D01*
X47802725Y-155869683D01*
X47799000Y-155831860D01*
X47799000Y-153668140D01*
X47802725Y-153630317D01*
X47811966Y-153599857D01*
X47826974Y-153571777D01*
X47847169Y-153547169D01*
X47871777Y-153526974D01*
X47899857Y-153511966D01*
X47930317Y-153502725D01*
X47968140Y-153499000D01*
X48531860Y-153499000D01*
X48569683Y-153502725D01*
G37*
G36*
X47069683Y-153502725D02*
G01*
X47100143Y-153511966D01*
X47128223Y-153526974D01*
X47152831Y-153547169D01*
X47173026Y-153571777D01*
X47188034Y-153599857D01*
X47197275Y-153630317D01*
X47201000Y-153668140D01*
X47201000Y-155831860D01*
X47197275Y-155869683D01*
X47188034Y-155900143D01*
X47173026Y-155928223D01*
X47152831Y-155952831D01*
X47128223Y-155973026D01*
X47100143Y-155988034D01*
X47069683Y-155997275D01*
X47031860Y-156001000D01*
X46468140Y-156001000D01*
X46430317Y-155997275D01*
X46399857Y-155988034D01*
X46371777Y-155973026D01*
X46347169Y-155952831D01*
X46326974Y-155928223D01*
X46311966Y-155900143D01*
X46302725Y-155869683D01*
X46299000Y-155831860D01*
X46299000Y-153668140D01*
X46302725Y-153630317D01*
X46311966Y-153599857D01*
X46326974Y-153571777D01*
X46347169Y-153547169D01*
X46371777Y-153526974D01*
X46399857Y-153511966D01*
X46430317Y-153502725D01*
X46468140Y-153499000D01*
X47031860Y-153499000D01*
X47069683Y-153502725D01*
G37*
G36*
X45569683Y-153502725D02*
G01*
X45600143Y-153511966D01*
X45628223Y-153526974D01*
X45652831Y-153547169D01*
X45673026Y-153571777D01*
X45688034Y-153599857D01*
X45697275Y-153630317D01*
X45701000Y-153668140D01*
X45701000Y-155831860D01*
X45697275Y-155869683D01*
X45688034Y-155900143D01*
X45673026Y-155928223D01*
X45652831Y-155952831D01*
X45628223Y-155973026D01*
X45600143Y-155988034D01*
X45569683Y-155997275D01*
X45531860Y-156001000D01*
X44968140Y-156001000D01*
X44930317Y-155997275D01*
X44899857Y-155988034D01*
X44871777Y-155973026D01*
X44847169Y-155952831D01*
X44826974Y-155928223D01*
X44811966Y-155900143D01*
X44802725Y-155869683D01*
X44799000Y-155831860D01*
X44799000Y-153668140D01*
X44802725Y-153630317D01*
X44811966Y-153599857D01*
X44826974Y-153571777D01*
X44847169Y-153547169D01*
X44871777Y-153526974D01*
X44899857Y-153511966D01*
X44930317Y-153502725D01*
X44968140Y-153499000D01*
X45531860Y-153499000D01*
X45569683Y-153502725D01*
G37*
G36*
X68790804Y-150351545D02*
G01*
X68807196Y-150356518D01*
X68822308Y-150364595D01*
X68840317Y-150379375D01*
X68880162Y-150419220D01*
X68880173Y-150419229D01*
X69093013Y-150632069D01*
X69093022Y-150632080D01*
X69132867Y-150671925D01*
X69147647Y-150689934D01*
X69155724Y-150705046D01*
X69160697Y-150721438D01*
X69162376Y-150738489D01*
X69160697Y-150755540D01*
X69158176Y-150763849D01*
X69153395Y-150787882D01*
X69153395Y-150812386D01*
X69158175Y-150836419D01*
X69167552Y-150859058D01*
X69181166Y-150879433D01*
X69198493Y-150896760D01*
X69218867Y-150910374D01*
X69241506Y-150919751D01*
X69265539Y-150924532D01*
X69290043Y-150924532D01*
X69314077Y-150919752D01*
X69322391Y-150917230D01*
X69339439Y-150915551D01*
X69356490Y-150917230D01*
X69372882Y-150922203D01*
X69387994Y-150930280D01*
X69406003Y-150945060D01*
X69445848Y-150984905D01*
X69445859Y-150984914D01*
X69658699Y-151197754D01*
X69658708Y-151197765D01*
X69698553Y-151237610D01*
X69713333Y-151255619D01*
X69721410Y-151270731D01*
X69726383Y-151287123D01*
X69728062Y-151304174D01*
X69726383Y-151321222D01*
X69723861Y-151329536D01*
X69719081Y-151353570D01*
X69719081Y-151378074D01*
X69723862Y-151402107D01*
X69733239Y-151424746D01*
X69746853Y-151445120D01*
X69764180Y-151462447D01*
X69784555Y-151476061D01*
X69807193Y-151485438D01*
X69831227Y-151490218D01*
X69855731Y-151490218D01*
X69879764Y-151485437D01*
X69888073Y-151482916D01*
X69905124Y-151481237D01*
X69922175Y-151482916D01*
X69938567Y-151487889D01*
X69953679Y-151495966D01*
X69971688Y-151510746D01*
X70011533Y-151550591D01*
X70011544Y-151550600D01*
X70224384Y-151763440D01*
X70224393Y-151763451D01*
X70264238Y-151803296D01*
X70279018Y-151821305D01*
X70287095Y-151836417D01*
X70292068Y-151852809D01*
X70293747Y-151869860D01*
X70292068Y-151886911D01*
X70289547Y-151895220D01*
X70284766Y-151919253D01*
X70284766Y-151943757D01*
X70289546Y-151967790D01*
X70298923Y-151990429D01*
X70312537Y-152010804D01*
X70329864Y-152028131D01*
X70350238Y-152041745D01*
X70372877Y-152051122D01*
X70396910Y-152055903D01*
X70421414Y-152055903D01*
X70445449Y-152051122D01*
X70453758Y-152048601D01*
X70470809Y-152046922D01*
X70487860Y-152048601D01*
X70504252Y-152053574D01*
X70519364Y-152061651D01*
X70537373Y-152076431D01*
X70577218Y-152116276D01*
X70577229Y-152116285D01*
X70790069Y-152329125D01*
X70790078Y-152329136D01*
X70829923Y-152368981D01*
X70844703Y-152386990D01*
X70852780Y-152402102D01*
X70857753Y-152418494D01*
X70859432Y-152435545D01*
X70857753Y-152452593D01*
X70855231Y-152460907D01*
X70850451Y-152484941D01*
X70850451Y-152509445D01*
X70855232Y-152533478D01*
X70864609Y-152556117D01*
X70878223Y-152576491D01*
X70895550Y-152593818D01*
X70915925Y-152607432D01*
X70938563Y-152616809D01*
X70962597Y-152621589D01*
X70987101Y-152621589D01*
X71011133Y-152616809D01*
X71019447Y-152614287D01*
X71036495Y-152612608D01*
X71053546Y-152614287D01*
X71069938Y-152619260D01*
X71085050Y-152627337D01*
X71103059Y-152642117D01*
X71142904Y-152681962D01*
X71142915Y-152681971D01*
X71355755Y-152894811D01*
X71355764Y-152894822D01*
X71395609Y-152934667D01*
X71410389Y-152952676D01*
X71418466Y-152967788D01*
X71423439Y-152984180D01*
X71425118Y-153001231D01*
X71423439Y-153018282D01*
X71420918Y-153026591D01*
X71416137Y-153050624D01*
X71416137Y-153075128D01*
X71420917Y-153099161D01*
X71430294Y-153121800D01*
X71443908Y-153142175D01*
X71461235Y-153159502D01*
X71481609Y-153173116D01*
X71504248Y-153182493D01*
X71528281Y-153187274D01*
X71552785Y-153187274D01*
X71576820Y-153182493D01*
X71585129Y-153179972D01*
X71602180Y-153178293D01*
X71619231Y-153179972D01*
X71635623Y-153184945D01*
X71650735Y-153193022D01*
X71668744Y-153207802D01*
X71708589Y-153247647D01*
X71708600Y-153247656D01*
X71921440Y-153460496D01*
X71921449Y-153460507D01*
X71961294Y-153500352D01*
X71976074Y-153518361D01*
X71984151Y-153533473D01*
X71989124Y-153549865D01*
X71990803Y-153566916D01*
X71989124Y-153583967D01*
X71986603Y-153592276D01*
X71981822Y-153616309D01*
X71981822Y-153640813D01*
X71986602Y-153664846D01*
X71995979Y-153687485D01*
X72009593Y-153707860D01*
X72026920Y-153725187D01*
X72047294Y-153738801D01*
X72069933Y-153748178D01*
X72093966Y-153752959D01*
X72118470Y-153752959D01*
X72142504Y-153748179D01*
X72150818Y-153745657D01*
X72167866Y-153743978D01*
X72184917Y-153745657D01*
X72201309Y-153750630D01*
X72216421Y-153758707D01*
X72234430Y-153773487D01*
X72274275Y-153813332D01*
X72274286Y-153813341D01*
X72487126Y-154026181D01*
X72487135Y-154026192D01*
X72526980Y-154066037D01*
X72541760Y-154084046D01*
X72549837Y-154099158D01*
X72554810Y-154115550D01*
X72556489Y-154132601D01*
X72554810Y-154149649D01*
X72552288Y-154157963D01*
X72547508Y-154181997D01*
X72547508Y-154206501D01*
X72552289Y-154230534D01*
X72561666Y-154253173D01*
X72575280Y-154273547D01*
X72592607Y-154290874D01*
X72612982Y-154304488D01*
X72635620Y-154313865D01*
X72659654Y-154318645D01*
X72684158Y-154318645D01*
X72708191Y-154313864D01*
X72716500Y-154311343D01*
X72733551Y-154309664D01*
X72750602Y-154311343D01*
X72766994Y-154316316D01*
X72782106Y-154324393D01*
X72800115Y-154339173D01*
X72839960Y-154379018D01*
X72839971Y-154379027D01*
X73052811Y-154591867D01*
X73052820Y-154591878D01*
X73092665Y-154631723D01*
X73107445Y-154649732D01*
X73115522Y-154664844D01*
X73120495Y-154681236D01*
X73122174Y-154698287D01*
X73120495Y-154715338D01*
X73115522Y-154731730D01*
X73107445Y-154746842D01*
X73092665Y-154764851D01*
X73052820Y-154804696D01*
X73052811Y-154804707D01*
X72132865Y-155724653D01*
X72132854Y-155724662D01*
X72093009Y-155764507D01*
X72075000Y-155779287D01*
X72059888Y-155787364D01*
X72043496Y-155792337D01*
X72026445Y-155794016D01*
X72009394Y-155792337D01*
X71993002Y-155787364D01*
X71977890Y-155779287D01*
X71959881Y-155764507D01*
X71920036Y-155724662D01*
X71920025Y-155724653D01*
X71707185Y-155511813D01*
X71707176Y-155511802D01*
X71667331Y-155471957D01*
X71652551Y-155453948D01*
X71644474Y-155438836D01*
X71639501Y-155422444D01*
X71637822Y-155405393D01*
X71639501Y-155388345D01*
X71642023Y-155380031D01*
X71646803Y-155355997D01*
X71646803Y-155331493D01*
X71642022Y-155307460D01*
X71632645Y-155284821D01*
X71619031Y-155264447D01*
X71601704Y-155247120D01*
X71581329Y-155233506D01*
X71558691Y-155224129D01*
X71534657Y-155219349D01*
X71510153Y-155219349D01*
X71486120Y-155224130D01*
X71477811Y-155226651D01*
X71460760Y-155228330D01*
X71443709Y-155226651D01*
X71427317Y-155221678D01*
X71412205Y-155213601D01*
X71394196Y-155198821D01*
X71354351Y-155158976D01*
X71354340Y-155158967D01*
X71141500Y-154946127D01*
X71141491Y-154946116D01*
X71101646Y-154906271D01*
X71086866Y-154888262D01*
X71078789Y-154873150D01*
X71073816Y-154856758D01*
X71072137Y-154839707D01*
X71073816Y-154822656D01*
X71076337Y-154814347D01*
X71081118Y-154790314D01*
X71081118Y-154765810D01*
X71076338Y-154741777D01*
X71066961Y-154719138D01*
X71053347Y-154698763D01*
X71036020Y-154681436D01*
X71015646Y-154667822D01*
X70993007Y-154658445D01*
X70968974Y-154653664D01*
X70944470Y-154653664D01*
X70920436Y-154658444D01*
X70912122Y-154660966D01*
X70895074Y-154662645D01*
X70878023Y-154660966D01*
X70861631Y-154655993D01*
X70846519Y-154647916D01*
X70828510Y-154633136D01*
X70788665Y-154593291D01*
X70788654Y-154593282D01*
X70575814Y-154380442D01*
X70575805Y-154380431D01*
X70535960Y-154340586D01*
X70521180Y-154322577D01*
X70513103Y-154307465D01*
X70508130Y-154291073D01*
X70506451Y-154274022D01*
X70508130Y-154256971D01*
X70510651Y-154248662D01*
X70515432Y-154224629D01*
X70515432Y-154200125D01*
X70510652Y-154176092D01*
X70501275Y-154153453D01*
X70487661Y-154133078D01*
X70470334Y-154115751D01*
X70449960Y-154102137D01*
X70427321Y-154092760D01*
X70403288Y-154087979D01*
X70378784Y-154087979D01*
X70354749Y-154092760D01*
X70346440Y-154095281D01*
X70329389Y-154096960D01*
X70312338Y-154095281D01*
X70295946Y-154090308D01*
X70280834Y-154082231D01*
X70262825Y-154067451D01*
X70222980Y-154027606D01*
X70222969Y-154027597D01*
X70010129Y-153814757D01*
X70010120Y-153814746D01*
X69970275Y-153774901D01*
X69955495Y-153756892D01*
X69947418Y-153741780D01*
X69942445Y-153725388D01*
X69940766Y-153708337D01*
X69942445Y-153691289D01*
X69944967Y-153682975D01*
X69949747Y-153658941D01*
X69949747Y-153634437D01*
X69944966Y-153610404D01*
X69935589Y-153587765D01*
X69921975Y-153567391D01*
X69904648Y-153550064D01*
X69884273Y-153536450D01*
X69861635Y-153527073D01*
X69837601Y-153522293D01*
X69813097Y-153522293D01*
X69789065Y-153527073D01*
X69780751Y-153529595D01*
X69763703Y-153531274D01*
X69746652Y-153529595D01*
X69730260Y-153524622D01*
X69715148Y-153516545D01*
X69697139Y-153501765D01*
X69657294Y-153461920D01*
X69657283Y-153461911D01*
X69444443Y-153249071D01*
X69444434Y-153249060D01*
X69404589Y-153209215D01*
X69389809Y-153191206D01*
X69381732Y-153176094D01*
X69376759Y-153159702D01*
X69375080Y-153142651D01*
X69376759Y-153125600D01*
X69379280Y-153117291D01*
X69384061Y-153093258D01*
X69384061Y-153068754D01*
X69379281Y-153044721D01*
X69369904Y-153022082D01*
X69356290Y-153001707D01*
X69338963Y-152984380D01*
X69318589Y-152970766D01*
X69295950Y-152961389D01*
X69271917Y-152956608D01*
X69247413Y-152956608D01*
X69223378Y-152961389D01*
X69215069Y-152963910D01*
X69198018Y-152965589D01*
X69180967Y-152963910D01*
X69164575Y-152958937D01*
X69149463Y-152950860D01*
X69131454Y-152936080D01*
X69091609Y-152896235D01*
X69091598Y-152896226D01*
X68878758Y-152683386D01*
X68878749Y-152683375D01*
X68838904Y-152643530D01*
X68824124Y-152625521D01*
X68816047Y-152610409D01*
X68811074Y-152594017D01*
X68809395Y-152576966D01*
X68811074Y-152559918D01*
X68813596Y-152551604D01*
X68818376Y-152527570D01*
X68818376Y-152503066D01*
X68813595Y-152479033D01*
X68804218Y-152456394D01*
X68790604Y-152436020D01*
X68773277Y-152418693D01*
X68752902Y-152405079D01*
X68730264Y-152395702D01*
X68706230Y-152390922D01*
X68681726Y-152390922D01*
X68657693Y-152395703D01*
X68649384Y-152398224D01*
X68632333Y-152399903D01*
X68615282Y-152398224D01*
X68598890Y-152393251D01*
X68583778Y-152385174D01*
X68565769Y-152370394D01*
X68525924Y-152330549D01*
X68525913Y-152330540D01*
X68313073Y-152117700D01*
X68313064Y-152117689D01*
X68273219Y-152077844D01*
X68258439Y-152059835D01*
X68250362Y-152044723D01*
X68245389Y-152028331D01*
X68243710Y-152011280D01*
X68245389Y-151994229D01*
X68247910Y-151985920D01*
X68252691Y-151961887D01*
X68252691Y-151937383D01*
X68247911Y-151913350D01*
X68238534Y-151890711D01*
X68224920Y-151870336D01*
X68207593Y-151853009D01*
X68187219Y-151839395D01*
X68164580Y-151830018D01*
X68140547Y-151825237D01*
X68116043Y-151825237D01*
X68092009Y-151830017D01*
X68083695Y-151832539D01*
X68066647Y-151834218D01*
X68049596Y-151832539D01*
X68033204Y-151827566D01*
X68018092Y-151819489D01*
X68000083Y-151804709D01*
X67960238Y-151764864D01*
X67960227Y-151764855D01*
X67747387Y-151552015D01*
X67747378Y-151552004D01*
X67707533Y-151512159D01*
X67692753Y-151494150D01*
X67684676Y-151479038D01*
X67679703Y-151462646D01*
X67678024Y-151445595D01*
X67679703Y-151428544D01*
X67684676Y-151412152D01*
X67692753Y-151397040D01*
X67707533Y-151379031D01*
X67747378Y-151339186D01*
X67747387Y-151339175D01*
X68667333Y-150419229D01*
X68667344Y-150419220D01*
X68707189Y-150379375D01*
X68725198Y-150364595D01*
X68740310Y-150356518D01*
X68756702Y-150351545D01*
X68773753Y-150349866D01*
X68790804Y-150351545D01*
G37*
G36*
X77947838Y-150351545D02*
G01*
X77964230Y-150356518D01*
X77979342Y-150364595D01*
X77997351Y-150379375D01*
X78037196Y-150419220D01*
X78037207Y-150419229D01*
X78957153Y-151339175D01*
X78957162Y-151339186D01*
X78997007Y-151379031D01*
X79011787Y-151397040D01*
X79019864Y-151412152D01*
X79024837Y-151428544D01*
X79026516Y-151445595D01*
X79024837Y-151462646D01*
X79019864Y-151479038D01*
X79011787Y-151494150D01*
X78997007Y-151512159D01*
X78957162Y-151552004D01*
X78957153Y-151552015D01*
X78744313Y-151764855D01*
X78744302Y-151764864D01*
X78704457Y-151804709D01*
X78686448Y-151819489D01*
X78671336Y-151827566D01*
X78654944Y-151832539D01*
X78637893Y-151834218D01*
X78620845Y-151832539D01*
X78612531Y-151830017D01*
X78588497Y-151825237D01*
X78563993Y-151825237D01*
X78539960Y-151830018D01*
X78517321Y-151839395D01*
X78496947Y-151853009D01*
X78479620Y-151870336D01*
X78466006Y-151890711D01*
X78456629Y-151913349D01*
X78451849Y-151937383D01*
X78451849Y-151961887D01*
X78456630Y-151985920D01*
X78459151Y-151994229D01*
X78460830Y-152011280D01*
X78459151Y-152028331D01*
X78454178Y-152044723D01*
X78446101Y-152059835D01*
X78431321Y-152077844D01*
X78391476Y-152117689D01*
X78391467Y-152117700D01*
X78178627Y-152330540D01*
X78178616Y-152330549D01*
X78138771Y-152370394D01*
X78120762Y-152385174D01*
X78105650Y-152393251D01*
X78089258Y-152398224D01*
X78072207Y-152399903D01*
X78055156Y-152398224D01*
X78046847Y-152395703D01*
X78022814Y-152390922D01*
X77998310Y-152390922D01*
X77974277Y-152395702D01*
X77951638Y-152405079D01*
X77931263Y-152418693D01*
X77913936Y-152436020D01*
X77900322Y-152456394D01*
X77890945Y-152479033D01*
X77886164Y-152503066D01*
X77886164Y-152527570D01*
X77890944Y-152551604D01*
X77893466Y-152559918D01*
X77895145Y-152576966D01*
X77893466Y-152594017D01*
X77888493Y-152610409D01*
X77880416Y-152625521D01*
X77865636Y-152643530D01*
X77825791Y-152683375D01*
X77825782Y-152683386D01*
X77612942Y-152896226D01*
X77612931Y-152896235D01*
X77573086Y-152936080D01*
X77555077Y-152950860D01*
X77539965Y-152958937D01*
X77523573Y-152963910D01*
X77506522Y-152965589D01*
X77489471Y-152963910D01*
X77481162Y-152961389D01*
X77457129Y-152956608D01*
X77432625Y-152956608D01*
X77408592Y-152961388D01*
X77385953Y-152970765D01*
X77365578Y-152984379D01*
X77348251Y-153001706D01*
X77334637Y-153022080D01*
X77325260Y-153044719D01*
X77320479Y-153068752D01*
X77320479Y-153093256D01*
X77325260Y-153117291D01*
X77327781Y-153125600D01*
X77329460Y-153142651D01*
X77327781Y-153159702D01*
X77322808Y-153176094D01*
X77314731Y-153191206D01*
X77299951Y-153209215D01*
X77260106Y-153249060D01*
X77260097Y-153249071D01*
X77047257Y-153461911D01*
X77047246Y-153461920D01*
X77007401Y-153501765D01*
X76989392Y-153516545D01*
X76974280Y-153524622D01*
X76957888Y-153529595D01*
X76940837Y-153531274D01*
X76923789Y-153529595D01*
X76915475Y-153527073D01*
X76891441Y-153522293D01*
X76866937Y-153522293D01*
X76842904Y-153527074D01*
X76820265Y-153536451D01*
X76799891Y-153550065D01*
X76782564Y-153567392D01*
X76768950Y-153587767D01*
X76759573Y-153610405D01*
X76754793Y-153634439D01*
X76754793Y-153658943D01*
X76759573Y-153682975D01*
X76762095Y-153691289D01*
X76763774Y-153708337D01*
X76762095Y-153725388D01*
X76757122Y-153741780D01*
X76749045Y-153756892D01*
X76734265Y-153774901D01*
X76694420Y-153814746D01*
X76694411Y-153814757D01*
X76481571Y-154027597D01*
X76481560Y-154027606D01*
X76441715Y-154067451D01*
X76423706Y-154082231D01*
X76408594Y-154090308D01*
X76392202Y-154095281D01*
X76375151Y-154096960D01*
X76358100Y-154095281D01*
X76349791Y-154092760D01*
X76325758Y-154087979D01*
X76301254Y-154087979D01*
X76277221Y-154092759D01*
X76254582Y-154102136D01*
X76234207Y-154115750D01*
X76216880Y-154133077D01*
X76203266Y-154153451D01*
X76193889Y-154176090D01*
X76189108Y-154200123D01*
X76189108Y-154224627D01*
X76193889Y-154248662D01*
X76196410Y-154256971D01*
X76198089Y-154274022D01*
X76196410Y-154291073D01*
X76191437Y-154307465D01*
X76183360Y-154322577D01*
X76168580Y-154340586D01*
X76128735Y-154380431D01*
X76128726Y-154380442D01*
X75915886Y-154593282D01*
X75915875Y-154593291D01*
X75876030Y-154633136D01*
X75858021Y-154647916D01*
X75842909Y-154655993D01*
X75826517Y-154660966D01*
X75809466Y-154662645D01*
X75792418Y-154660966D01*
X75784104Y-154658444D01*
X75760070Y-154653664D01*
X75735566Y-154653664D01*
X75711533Y-154658445D01*
X75688894Y-154667822D01*
X75668520Y-154681436D01*
X75651193Y-154698763D01*
X75637579Y-154719138D01*
X75628202Y-154741776D01*
X75623422Y-154765810D01*
X75623422Y-154790314D01*
X75628203Y-154814347D01*
X75630724Y-154822656D01*
X75632403Y-154839707D01*
X75630724Y-154856758D01*
X75625751Y-154873150D01*
X75617674Y-154888262D01*
X75602894Y-154906271D01*
X75563049Y-154946116D01*
X75563040Y-154946127D01*
X75350200Y-155158967D01*
X75350189Y-155158976D01*
X75310344Y-155198821D01*
X75292335Y-155213601D01*
X75277223Y-155221678D01*
X75260831Y-155226651D01*
X75243780Y-155228330D01*
X75226729Y-155226651D01*
X75218420Y-155224130D01*
X75194387Y-155219349D01*
X75169883Y-155219349D01*
X75145850Y-155224129D01*
X75123211Y-155233506D01*
X75102836Y-155247120D01*
X75085509Y-155264447D01*
X75071895Y-155284821D01*
X75062518Y-155307460D01*
X75057737Y-155331493D01*
X75057737Y-155355997D01*
X75062517Y-155380031D01*
X75065039Y-155388345D01*
X75066718Y-155405393D01*
X75065039Y-155422444D01*
X75060066Y-155438836D01*
X75051989Y-155453948D01*
X75037209Y-155471957D01*
X74997364Y-155511802D01*
X74997355Y-155511813D01*
X74784515Y-155724653D01*
X74784504Y-155724662D01*
X74744659Y-155764507D01*
X74726650Y-155779287D01*
X74711538Y-155787364D01*
X74695146Y-155792337D01*
X74678095Y-155794016D01*
X74661044Y-155792337D01*
X74644652Y-155787364D01*
X74629540Y-155779287D01*
X74611531Y-155764507D01*
X74571686Y-155724662D01*
X74571675Y-155724653D01*
X73651729Y-154804707D01*
X73651720Y-154804696D01*
X73611875Y-154764851D01*
X73597095Y-154746842D01*
X73589018Y-154731730D01*
X73584045Y-154715338D01*
X73582366Y-154698287D01*
X73584045Y-154681236D01*
X73589018Y-154664844D01*
X73597095Y-154649732D01*
X73611875Y-154631723D01*
X73651720Y-154591878D01*
X73651729Y-154591867D01*
X73864569Y-154379027D01*
X73864580Y-154379018D01*
X73904425Y-154339173D01*
X73922434Y-154324393D01*
X73937546Y-154316316D01*
X73953938Y-154311343D01*
X73970989Y-154309664D01*
X73988040Y-154311343D01*
X73996349Y-154313864D01*
X74020382Y-154318645D01*
X74044886Y-154318645D01*
X74068919Y-154313865D01*
X74091558Y-154304488D01*
X74111933Y-154290874D01*
X74129260Y-154273547D01*
X74142874Y-154253173D01*
X74152251Y-154230534D01*
X74157032Y-154206501D01*
X74157032Y-154181997D01*
X74152252Y-154157963D01*
X74149730Y-154149649D01*
X74148051Y-154132601D01*
X74149730Y-154115550D01*
X74154703Y-154099158D01*
X74162780Y-154084046D01*
X74177560Y-154066037D01*
X74217405Y-154026192D01*
X74217414Y-154026181D01*
X74430254Y-153813341D01*
X74430265Y-153813332D01*
X74470110Y-153773487D01*
X74488119Y-153758707D01*
X74503231Y-153750630D01*
X74519623Y-153745657D01*
X74536674Y-153743978D01*
X74553722Y-153745657D01*
X74562036Y-153748179D01*
X74586070Y-153752959D01*
X74610574Y-153752959D01*
X74634607Y-153748178D01*
X74657246Y-153738801D01*
X74677620Y-153725187D01*
X74694947Y-153707860D01*
X74708561Y-153687485D01*
X74717938Y-153664847D01*
X74722718Y-153640813D01*
X74722718Y-153616309D01*
X74717937Y-153592276D01*
X74715416Y-153583967D01*
X74713737Y-153566916D01*
X74715416Y-153549865D01*
X74720389Y-153533473D01*
X74728466Y-153518361D01*
X74743246Y-153500352D01*
X74783091Y-153460507D01*
X74783100Y-153460496D01*
X74995940Y-153247656D01*
X74995951Y-153247647D01*
X75035796Y-153207802D01*
X75053805Y-153193022D01*
X75068917Y-153184945D01*
X75085309Y-153179972D01*
X75102360Y-153178293D01*
X75119411Y-153179972D01*
X75127720Y-153182493D01*
X75151753Y-153187274D01*
X75176257Y-153187274D01*
X75200290Y-153182494D01*
X75222929Y-153173117D01*
X75243304Y-153159503D01*
X75260631Y-153142176D01*
X75274245Y-153121802D01*
X75283622Y-153099163D01*
X75288403Y-153075130D01*
X75288403Y-153050626D01*
X75283622Y-153026591D01*
X75281101Y-153018282D01*
X75279422Y-153001231D01*
X75281101Y-152984180D01*
X75286074Y-152967788D01*
X75294151Y-152952676D01*
X75308931Y-152934667D01*
X75348776Y-152894822D01*
X75348785Y-152894811D01*
X75561625Y-152681971D01*
X75561636Y-152681962D01*
X75601481Y-152642117D01*
X75619490Y-152627337D01*
X75634602Y-152619260D01*
X75650994Y-152614287D01*
X75668045Y-152612608D01*
X75685093Y-152614287D01*
X75693407Y-152616809D01*
X75717441Y-152621589D01*
X75741945Y-152621589D01*
X75765978Y-152616808D01*
X75788617Y-152607431D01*
X75808991Y-152593817D01*
X75826318Y-152576490D01*
X75839932Y-152556115D01*
X75849309Y-152533477D01*
X75854089Y-152509443D01*
X75854089Y-152484939D01*
X75849309Y-152460907D01*
X75846787Y-152452593D01*
X75845108Y-152435545D01*
X75846787Y-152418494D01*
X75851760Y-152402102D01*
X75859837Y-152386990D01*
X75874617Y-152368981D01*
X75914462Y-152329136D01*
X75914471Y-152329125D01*
X76127311Y-152116285D01*
X76127322Y-152116276D01*
X76167167Y-152076431D01*
X76185176Y-152061651D01*
X76200288Y-152053574D01*
X76216680Y-152048601D01*
X76233731Y-152046922D01*
X76250782Y-152048601D01*
X76259091Y-152051122D01*
X76283124Y-152055903D01*
X76307628Y-152055903D01*
X76331661Y-152051123D01*
X76354300Y-152041746D01*
X76374675Y-152028132D01*
X76392002Y-152010805D01*
X76405616Y-151990431D01*
X76414993Y-151967792D01*
X76419774Y-151943759D01*
X76419774Y-151919255D01*
X76414993Y-151895220D01*
X76412472Y-151886911D01*
X76410793Y-151869860D01*
X76412472Y-151852809D01*
X76417445Y-151836417D01*
X76425522Y-151821305D01*
X76440302Y-151803296D01*
X76480147Y-151763451D01*
X76480156Y-151763440D01*
X76692996Y-151550600D01*
X76693007Y-151550591D01*
X76732852Y-151510746D01*
X76750861Y-151495966D01*
X76765973Y-151487889D01*
X76782365Y-151482916D01*
X76799416Y-151481237D01*
X76816467Y-151482916D01*
X76824776Y-151485437D01*
X76848809Y-151490218D01*
X76873313Y-151490218D01*
X76897346Y-151485438D01*
X76919985Y-151476061D01*
X76940360Y-151462447D01*
X76957687Y-151445120D01*
X76971301Y-151424746D01*
X76980678Y-151402107D01*
X76985459Y-151378074D01*
X76985459Y-151353570D01*
X76980679Y-151329536D01*
X76978157Y-151321222D01*
X76976478Y-151304174D01*
X76978157Y-151287123D01*
X76983130Y-151270731D01*
X76991207Y-151255619D01*
X77005987Y-151237610D01*
X77045832Y-151197765D01*
X77045841Y-151197754D01*
X77258681Y-150984914D01*
X77258692Y-150984905D01*
X77298537Y-150945060D01*
X77316546Y-150930280D01*
X77331658Y-150922203D01*
X77348050Y-150917230D01*
X77365101Y-150915551D01*
X77382149Y-150917230D01*
X77390463Y-150919752D01*
X77414497Y-150924532D01*
X77439001Y-150924532D01*
X77463034Y-150919751D01*
X77485673Y-150910374D01*
X77506047Y-150896760D01*
X77523374Y-150879433D01*
X77536988Y-150859058D01*
X77546365Y-150836420D01*
X77551145Y-150812386D01*
X77551145Y-150787882D01*
X77546364Y-150763849D01*
X77543843Y-150755540D01*
X77542164Y-150738489D01*
X77543843Y-150721438D01*
X77548816Y-150705046D01*
X77556893Y-150689934D01*
X77571673Y-150671925D01*
X77611518Y-150632080D01*
X77611527Y-150632069D01*
X77824367Y-150419229D01*
X77824378Y-150419220D01*
X77864223Y-150379375D01*
X77882232Y-150364595D01*
X77897344Y-150356518D01*
X77913736Y-150351545D01*
X77930787Y-150349866D01*
X77947838Y-150351545D01*
G37*
G36*
X84869683Y-154302725D02*
G01*
X84900143Y-154311966D01*
X84928223Y-154326974D01*
X84952831Y-154347169D01*
X84973026Y-154371777D01*
X84988034Y-154399857D01*
X84997275Y-154430317D01*
X85001000Y-154468140D01*
X85001000Y-155031860D01*
X84997275Y-155069683D01*
X84988034Y-155100143D01*
X84973026Y-155128223D01*
X84952831Y-155152831D01*
X84928223Y-155173026D01*
X84900143Y-155188034D01*
X84869683Y-155197275D01*
X84831860Y-155201000D01*
X82668140Y-155201000D01*
X82630317Y-155197275D01*
X82599857Y-155188034D01*
X82571777Y-155173026D01*
X82547169Y-155152831D01*
X82526974Y-155128223D01*
X82511966Y-155100143D01*
X82502725Y-155069683D01*
X82499000Y-155031860D01*
X82499000Y-154468140D01*
X82502725Y-154430317D01*
X82511966Y-154399857D01*
X82526974Y-154371777D01*
X82547169Y-154347169D01*
X82571777Y-154326974D01*
X82599857Y-154311966D01*
X82630317Y-154302725D01*
X82668140Y-154299000D01*
X84831860Y-154299000D01*
X84869683Y-154302725D01*
G37*
G36*
X84869683Y-152802725D02*
G01*
X84900143Y-152811966D01*
X84928223Y-152826974D01*
X84952831Y-152847169D01*
X84973026Y-152871777D01*
X84988034Y-152899857D01*
X84997275Y-152930317D01*
X85001000Y-152968140D01*
X85001000Y-153531860D01*
X84997275Y-153569683D01*
X84988034Y-153600143D01*
X84973026Y-153628223D01*
X84952831Y-153652831D01*
X84928223Y-153673026D01*
X84900143Y-153688034D01*
X84869683Y-153697275D01*
X84831860Y-153701000D01*
X82668140Y-153701000D01*
X82630317Y-153697275D01*
X82599857Y-153688034D01*
X82571777Y-153673026D01*
X82547169Y-153652831D01*
X82526974Y-153628223D01*
X82511966Y-153600143D01*
X82502725Y-153569683D01*
X82499000Y-153531860D01*
X82499000Y-152968140D01*
X82502725Y-152930317D01*
X82511966Y-152899857D01*
X82526974Y-152871777D01*
X82547169Y-152847169D01*
X82571777Y-152826974D01*
X82599857Y-152811966D01*
X82630317Y-152802725D01*
X82668140Y-152799000D01*
X84831860Y-152799000D01*
X84869683Y-152802725D01*
G37*
G36*
X90360915Y-149702934D02*
G01*
X90393424Y-149712795D01*
X90423382Y-149728809D01*
X90449641Y-149750359D01*
X90471191Y-149776618D01*
X90487205Y-149806576D01*
X90497066Y-149839085D01*
X90501000Y-149879029D01*
X90501000Y-151420971D01*
X90497066Y-151460915D01*
X90487205Y-151493424D01*
X90471191Y-151523382D01*
X90449641Y-151549641D01*
X90423382Y-151571191D01*
X90393424Y-151587205D01*
X90360915Y-151597066D01*
X90320971Y-151601000D01*
X87279029Y-151601000D01*
X87239085Y-151597066D01*
X87206576Y-151587205D01*
X87176618Y-151571191D01*
X87150359Y-151549641D01*
X87128809Y-151523382D01*
X87112795Y-151493424D01*
X87102934Y-151460915D01*
X87099000Y-151420971D01*
X87099000Y-149879029D01*
X87102934Y-149839085D01*
X87112795Y-149806576D01*
X87128809Y-149776618D01*
X87150359Y-149750359D01*
X87176618Y-149728809D01*
X87206576Y-149712795D01*
X87239085Y-149702934D01*
X87279029Y-149699000D01*
X90320971Y-149699000D01*
X90360915Y-149702934D01*
G37*
G36*
X72043496Y-144447203D02*
G01*
X72059888Y-144452176D01*
X72075000Y-144460253D01*
X72093009Y-144475033D01*
X72132854Y-144514878D01*
X72132865Y-144514887D01*
X73052811Y-145434833D01*
X73052820Y-145434844D01*
X73092665Y-145474689D01*
X73107445Y-145492698D01*
X73115522Y-145507810D01*
X73120495Y-145524202D01*
X73122174Y-145541253D01*
X73120495Y-145558304D01*
X73115522Y-145574696D01*
X73107445Y-145589808D01*
X73092665Y-145607817D01*
X73052820Y-145647662D01*
X73052811Y-145647673D01*
X72839971Y-145860513D01*
X72839960Y-145860522D01*
X72800115Y-145900367D01*
X72782106Y-145915147D01*
X72766994Y-145923224D01*
X72750602Y-145928197D01*
X72733551Y-145929876D01*
X72716500Y-145928197D01*
X72708191Y-145925676D01*
X72684158Y-145920895D01*
X72659654Y-145920895D01*
X72635621Y-145925675D01*
X72612982Y-145935052D01*
X72592607Y-145948666D01*
X72575280Y-145965993D01*
X72561666Y-145986367D01*
X72552289Y-146009006D01*
X72547508Y-146033039D01*
X72547508Y-146057543D01*
X72552288Y-146081577D01*
X72554810Y-146089891D01*
X72556489Y-146106939D01*
X72554810Y-146123990D01*
X72549837Y-146140382D01*
X72541760Y-146155494D01*
X72526980Y-146173503D01*
X72487135Y-146213348D01*
X72487126Y-146213359D01*
X72274286Y-146426199D01*
X72274275Y-146426208D01*
X72234430Y-146466053D01*
X72216421Y-146480833D01*
X72201309Y-146488910D01*
X72184917Y-146493883D01*
X72167866Y-146495562D01*
X72150818Y-146493883D01*
X72142504Y-146491361D01*
X72118470Y-146486581D01*
X72093966Y-146486581D01*
X72069933Y-146491362D01*
X72047294Y-146500739D01*
X72026920Y-146514353D01*
X72009593Y-146531680D01*
X71995979Y-146552055D01*
X71986602Y-146574693D01*
X71981822Y-146598727D01*
X71981822Y-146623231D01*
X71986603Y-146647264D01*
X71989124Y-146655573D01*
X71990803Y-146672624D01*
X71989124Y-146689675D01*
X71984151Y-146706067D01*
X71976074Y-146721179D01*
X71961294Y-146739188D01*
X71921449Y-146779033D01*
X71921440Y-146779044D01*
X71708600Y-146991884D01*
X71708589Y-146991893D01*
X71668744Y-147031738D01*
X71650735Y-147046518D01*
X71635623Y-147054595D01*
X71619231Y-147059568D01*
X71602180Y-147061247D01*
X71585129Y-147059568D01*
X71576820Y-147057047D01*
X71552787Y-147052266D01*
X71528283Y-147052266D01*
X71504250Y-147057046D01*
X71481611Y-147066423D01*
X71461236Y-147080037D01*
X71443909Y-147097364D01*
X71430295Y-147117738D01*
X71420918Y-147140377D01*
X71416137Y-147164410D01*
X71416137Y-147188914D01*
X71420918Y-147212949D01*
X71423439Y-147221258D01*
X71425118Y-147238309D01*
X71423439Y-147255360D01*
X71418466Y-147271752D01*
X71410389Y-147286864D01*
X71395609Y-147304873D01*
X71355764Y-147344718D01*
X71355755Y-147344729D01*
X71142915Y-147557569D01*
X71142904Y-147557578D01*
X71103059Y-147597423D01*
X71085050Y-147612203D01*
X71069938Y-147620280D01*
X71053546Y-147625253D01*
X71036495Y-147626932D01*
X71019447Y-147625253D01*
X71011133Y-147622731D01*
X70987099Y-147617951D01*
X70962595Y-147617951D01*
X70938562Y-147622732D01*
X70915923Y-147632109D01*
X70895549Y-147645723D01*
X70878222Y-147663050D01*
X70864608Y-147683425D01*
X70855231Y-147706063D01*
X70850451Y-147730097D01*
X70850451Y-147754601D01*
X70855231Y-147778633D01*
X70857753Y-147786947D01*
X70859432Y-147803995D01*
X70857753Y-147821046D01*
X70852780Y-147837438D01*
X70844703Y-147852550D01*
X70829923Y-147870559D01*
X70790078Y-147910404D01*
X70790069Y-147910415D01*
X70577229Y-148123255D01*
X70577218Y-148123264D01*
X70537373Y-148163109D01*
X70519364Y-148177889D01*
X70504252Y-148185966D01*
X70487860Y-148190939D01*
X70470809Y-148192618D01*
X70453758Y-148190939D01*
X70445449Y-148188418D01*
X70421416Y-148183637D01*
X70396912Y-148183637D01*
X70372879Y-148188417D01*
X70350240Y-148197794D01*
X70329865Y-148211408D01*
X70312538Y-148228735D01*
X70298924Y-148249109D01*
X70289547Y-148271748D01*
X70284766Y-148295781D01*
X70284766Y-148320285D01*
X70289547Y-148344320D01*
X70292068Y-148352629D01*
X70293747Y-148369680D01*
X70292068Y-148386731D01*
X70287095Y-148403123D01*
X70279018Y-148418235D01*
X70264238Y-148436244D01*
X70224393Y-148476089D01*
X70224384Y-148476100D01*
X70011544Y-148688940D01*
X70011533Y-148688949D01*
X69971688Y-148728794D01*
X69953679Y-148743574D01*
X69938567Y-148751651D01*
X69922175Y-148756624D01*
X69905124Y-148758303D01*
X69888073Y-148756624D01*
X69879764Y-148754103D01*
X69855731Y-148749322D01*
X69831227Y-148749322D01*
X69807194Y-148754102D01*
X69784555Y-148763479D01*
X69764180Y-148777093D01*
X69746853Y-148794420D01*
X69733239Y-148814794D01*
X69723862Y-148837433D01*
X69719081Y-148861466D01*
X69719081Y-148885970D01*
X69723861Y-148910004D01*
X69726383Y-148918318D01*
X69728062Y-148935366D01*
X69726383Y-148952417D01*
X69721410Y-148968809D01*
X69713333Y-148983921D01*
X69698553Y-149001930D01*
X69658708Y-149041775D01*
X69658699Y-149041786D01*
X69445859Y-149254626D01*
X69445848Y-149254635D01*
X69406003Y-149294480D01*
X69387994Y-149309260D01*
X69372882Y-149317337D01*
X69356490Y-149322310D01*
X69339439Y-149323989D01*
X69322391Y-149322310D01*
X69314077Y-149319788D01*
X69290043Y-149315008D01*
X69265539Y-149315008D01*
X69241506Y-149319789D01*
X69218867Y-149329166D01*
X69198493Y-149342780D01*
X69181166Y-149360107D01*
X69167552Y-149380482D01*
X69158175Y-149403120D01*
X69153395Y-149427154D01*
X69153395Y-149451658D01*
X69158176Y-149475691D01*
X69160697Y-149484000D01*
X69162376Y-149501051D01*
X69160697Y-149518102D01*
X69155724Y-149534494D01*
X69147647Y-149549606D01*
X69132867Y-149567615D01*
X69093022Y-149607460D01*
X69093013Y-149607471D01*
X68880173Y-149820311D01*
X68880162Y-149820320D01*
X68840317Y-149860165D01*
X68822308Y-149874945D01*
X68807196Y-149883022D01*
X68790804Y-149887995D01*
X68773753Y-149889674D01*
X68756702Y-149887995D01*
X68740310Y-149883022D01*
X68725198Y-149874945D01*
X68707189Y-149860165D01*
X68667344Y-149820320D01*
X68667333Y-149820311D01*
X67747387Y-148900365D01*
X67747378Y-148900354D01*
X67707533Y-148860509D01*
X67692753Y-148842500D01*
X67684676Y-148827388D01*
X67679703Y-148810996D01*
X67678024Y-148793945D01*
X67679703Y-148776894D01*
X67684676Y-148760502D01*
X67692753Y-148745390D01*
X67707533Y-148727381D01*
X67747378Y-148687536D01*
X67747387Y-148687525D01*
X67960227Y-148474685D01*
X67960238Y-148474676D01*
X68000083Y-148434831D01*
X68018092Y-148420051D01*
X68033204Y-148411974D01*
X68049596Y-148407001D01*
X68066647Y-148405322D01*
X68083695Y-148407001D01*
X68092009Y-148409523D01*
X68116043Y-148414303D01*
X68140547Y-148414303D01*
X68164580Y-148409522D01*
X68187219Y-148400145D01*
X68207593Y-148386531D01*
X68224920Y-148369204D01*
X68238534Y-148348829D01*
X68247911Y-148326191D01*
X68252691Y-148302157D01*
X68252691Y-148277653D01*
X68247910Y-148253620D01*
X68245389Y-148245311D01*
X68243710Y-148228260D01*
X68245389Y-148211209D01*
X68250362Y-148194817D01*
X68258439Y-148179705D01*
X68273219Y-148161696D01*
X68313064Y-148121851D01*
X68313073Y-148121840D01*
X68525913Y-147909000D01*
X68525924Y-147908991D01*
X68565769Y-147869146D01*
X68583778Y-147854366D01*
X68598890Y-147846289D01*
X68615282Y-147841316D01*
X68632333Y-147839637D01*
X68649384Y-147841316D01*
X68657693Y-147843837D01*
X68681726Y-147848618D01*
X68706230Y-147848618D01*
X68730263Y-147843838D01*
X68752902Y-147834461D01*
X68773277Y-147820847D01*
X68790604Y-147803520D01*
X68804218Y-147783146D01*
X68813595Y-147760507D01*
X68818376Y-147736474D01*
X68818376Y-147711970D01*
X68813596Y-147687936D01*
X68811074Y-147679622D01*
X68809395Y-147662574D01*
X68811074Y-147645523D01*
X68816047Y-147629131D01*
X68824124Y-147614019D01*
X68838904Y-147596010D01*
X68878749Y-147556165D01*
X68878758Y-147556154D01*
X69091598Y-147343314D01*
X69091609Y-147343305D01*
X69131454Y-147303460D01*
X69149463Y-147288680D01*
X69164575Y-147280603D01*
X69180967Y-147275630D01*
X69198018Y-147273951D01*
X69215069Y-147275630D01*
X69223378Y-147278151D01*
X69247411Y-147282932D01*
X69271915Y-147282932D01*
X69295948Y-147278152D01*
X69318587Y-147268775D01*
X69338962Y-147255161D01*
X69356289Y-147237834D01*
X69369903Y-147217460D01*
X69379280Y-147194821D01*
X69384061Y-147170788D01*
X69384061Y-147146284D01*
X69379280Y-147122249D01*
X69376759Y-147113940D01*
X69375080Y-147096889D01*
X69376759Y-147079838D01*
X69381732Y-147063446D01*
X69389809Y-147048334D01*
X69404589Y-147030325D01*
X69444434Y-146990480D01*
X69444443Y-146990469D01*
X69657283Y-146777629D01*
X69657294Y-146777620D01*
X69697139Y-146737775D01*
X69715148Y-146722995D01*
X69730260Y-146714918D01*
X69746652Y-146709945D01*
X69763703Y-146708266D01*
X69780751Y-146709945D01*
X69789065Y-146712467D01*
X69813099Y-146717247D01*
X69837603Y-146717247D01*
X69861636Y-146712466D01*
X69884275Y-146703089D01*
X69904649Y-146689475D01*
X69921976Y-146672148D01*
X69935590Y-146651773D01*
X69944967Y-146629135D01*
X69949747Y-146605101D01*
X69949747Y-146580597D01*
X69944967Y-146556565D01*
X69942445Y-146548251D01*
X69940766Y-146531203D01*
X69942445Y-146514152D01*
X69947418Y-146497760D01*
X69955495Y-146482648D01*
X69970275Y-146464639D01*
X70010120Y-146424794D01*
X70010129Y-146424783D01*
X70222969Y-146211943D01*
X70222980Y-146211934D01*
X70262825Y-146172089D01*
X70280834Y-146157309D01*
X70295946Y-146149232D01*
X70312338Y-146144259D01*
X70329389Y-146142580D01*
X70346440Y-146144259D01*
X70354749Y-146146780D01*
X70378782Y-146151561D01*
X70403286Y-146151561D01*
X70427319Y-146146781D01*
X70449958Y-146137404D01*
X70470333Y-146123790D01*
X70487660Y-146106463D01*
X70501274Y-146086089D01*
X70510651Y-146063450D01*
X70515432Y-146039417D01*
X70515432Y-146014913D01*
X70510651Y-145990878D01*
X70508130Y-145982569D01*
X70506451Y-145965518D01*
X70508130Y-145948467D01*
X70513103Y-145932075D01*
X70521180Y-145916963D01*
X70535960Y-145898954D01*
X70575805Y-145859109D01*
X70575814Y-145859098D01*
X70788654Y-145646258D01*
X70788665Y-145646249D01*
X70828510Y-145606404D01*
X70846519Y-145591624D01*
X70861631Y-145583547D01*
X70878023Y-145578574D01*
X70895074Y-145576895D01*
X70912122Y-145578574D01*
X70920436Y-145581096D01*
X70944470Y-145585876D01*
X70968974Y-145585876D01*
X70993007Y-145581095D01*
X71015646Y-145571718D01*
X71036020Y-145558104D01*
X71053347Y-145540777D01*
X71066961Y-145520402D01*
X71076338Y-145497764D01*
X71081118Y-145473730D01*
X71081118Y-145449226D01*
X71076337Y-145425193D01*
X71073816Y-145416884D01*
X71072137Y-145399833D01*
X71073816Y-145382782D01*
X71078789Y-145366390D01*
X71086866Y-145351278D01*
X71101646Y-145333269D01*
X71141491Y-145293424D01*
X71141500Y-145293413D01*
X71354340Y-145080573D01*
X71354351Y-145080564D01*
X71394196Y-145040719D01*
X71412205Y-145025939D01*
X71427317Y-145017862D01*
X71443709Y-145012889D01*
X71460760Y-145011210D01*
X71477811Y-145012889D01*
X71486120Y-145015410D01*
X71510153Y-145020191D01*
X71534657Y-145020191D01*
X71558690Y-145015411D01*
X71581329Y-145006034D01*
X71601704Y-144992420D01*
X71619031Y-144975093D01*
X71632645Y-144954719D01*
X71642022Y-144932080D01*
X71646803Y-144908047D01*
X71646803Y-144883543D01*
X71642023Y-144859509D01*
X71639501Y-144851195D01*
X71637822Y-144834147D01*
X71639501Y-144817096D01*
X71644474Y-144800704D01*
X71652551Y-144785592D01*
X71667331Y-144767583D01*
X71707176Y-144727738D01*
X71707185Y-144727727D01*
X71920025Y-144514887D01*
X71920036Y-144514878D01*
X71959881Y-144475033D01*
X71977890Y-144460253D01*
X71993002Y-144452176D01*
X72009394Y-144447203D01*
X72026445Y-144445524D01*
X72043496Y-144447203D01*
G37*
G36*
X74695146Y-144447203D02*
G01*
X74711538Y-144452176D01*
X74726650Y-144460253D01*
X74744659Y-144475033D01*
X74784504Y-144514878D01*
X74784515Y-144514887D01*
X74997355Y-144727727D01*
X74997364Y-144727738D01*
X75037209Y-144767583D01*
X75051989Y-144785592D01*
X75060066Y-144800704D01*
X75065039Y-144817096D01*
X75066718Y-144834147D01*
X75065039Y-144851195D01*
X75062517Y-144859509D01*
X75057737Y-144883543D01*
X75057737Y-144908047D01*
X75062518Y-144932080D01*
X75071895Y-144954719D01*
X75085509Y-144975093D01*
X75102836Y-144992420D01*
X75123211Y-145006034D01*
X75145849Y-145015411D01*
X75169883Y-145020191D01*
X75194387Y-145020191D01*
X75218420Y-145015410D01*
X75226729Y-145012889D01*
X75243780Y-145011210D01*
X75260831Y-145012889D01*
X75277223Y-145017862D01*
X75292335Y-145025939D01*
X75310344Y-145040719D01*
X75350189Y-145080564D01*
X75350200Y-145080573D01*
X75563040Y-145293413D01*
X75563049Y-145293424D01*
X75602894Y-145333269D01*
X75617674Y-145351278D01*
X75625751Y-145366390D01*
X75630724Y-145382782D01*
X75632403Y-145399833D01*
X75630724Y-145416884D01*
X75628203Y-145425193D01*
X75623422Y-145449226D01*
X75623422Y-145473730D01*
X75628202Y-145497763D01*
X75637579Y-145520402D01*
X75651193Y-145540777D01*
X75668520Y-145558104D01*
X75688894Y-145571718D01*
X75711533Y-145581095D01*
X75735566Y-145585876D01*
X75760070Y-145585876D01*
X75784104Y-145581096D01*
X75792418Y-145578574D01*
X75809466Y-145576895D01*
X75826517Y-145578574D01*
X75842909Y-145583547D01*
X75858021Y-145591624D01*
X75876030Y-145606404D01*
X75915875Y-145646249D01*
X75915886Y-145646258D01*
X76128726Y-145859098D01*
X76128735Y-145859109D01*
X76168580Y-145898954D01*
X76183360Y-145916963D01*
X76191437Y-145932075D01*
X76196410Y-145948467D01*
X76198089Y-145965518D01*
X76196410Y-145982569D01*
X76193889Y-145990878D01*
X76189108Y-146014911D01*
X76189108Y-146039415D01*
X76193888Y-146063448D01*
X76203265Y-146086087D01*
X76216879Y-146106462D01*
X76234206Y-146123789D01*
X76254580Y-146137403D01*
X76277219Y-146146780D01*
X76301252Y-146151561D01*
X76325756Y-146151561D01*
X76349791Y-146146780D01*
X76358100Y-146144259D01*
X76375151Y-146142580D01*
X76392202Y-146144259D01*
X76408594Y-146149232D01*
X76423706Y-146157309D01*
X76441715Y-146172089D01*
X76481560Y-146211934D01*
X76481571Y-146211943D01*
X76694411Y-146424783D01*
X76694420Y-146424794D01*
X76734265Y-146464639D01*
X76749045Y-146482648D01*
X76757122Y-146497760D01*
X76762095Y-146514152D01*
X76763774Y-146531203D01*
X76762095Y-146548251D01*
X76759573Y-146556565D01*
X76754793Y-146580599D01*
X76754793Y-146605103D01*
X76759574Y-146629136D01*
X76768951Y-146651775D01*
X76782565Y-146672149D01*
X76799892Y-146689476D01*
X76820267Y-146703090D01*
X76842905Y-146712467D01*
X76866939Y-146717247D01*
X76891443Y-146717247D01*
X76915475Y-146712467D01*
X76923789Y-146709945D01*
X76940837Y-146708266D01*
X76957888Y-146709945D01*
X76974280Y-146714918D01*
X76989392Y-146722995D01*
X77007401Y-146737775D01*
X77047246Y-146777620D01*
X77047257Y-146777629D01*
X77260097Y-146990469D01*
X77260106Y-146990480D01*
X77299951Y-147030325D01*
X77314731Y-147048334D01*
X77322808Y-147063446D01*
X77327781Y-147079838D01*
X77329460Y-147096889D01*
X77327781Y-147113940D01*
X77325260Y-147122249D01*
X77320479Y-147146282D01*
X77320479Y-147170786D01*
X77325259Y-147194819D01*
X77334636Y-147217458D01*
X77348250Y-147237833D01*
X77365577Y-147255160D01*
X77385951Y-147268774D01*
X77408590Y-147278151D01*
X77432623Y-147282932D01*
X77457127Y-147282932D01*
X77481162Y-147278151D01*
X77489471Y-147275630D01*
X77506522Y-147273951D01*
X77523573Y-147275630D01*
X77539965Y-147280603D01*
X77555077Y-147288680D01*
X77573086Y-147303460D01*
X77612931Y-147343305D01*
X77612942Y-147343314D01*
X77825782Y-147556154D01*
X77825791Y-147556165D01*
X77865636Y-147596010D01*
X77880416Y-147614019D01*
X77888493Y-147629131D01*
X77893466Y-147645523D01*
X77895145Y-147662574D01*
X77893466Y-147679622D01*
X77890944Y-147687936D01*
X77886164Y-147711970D01*
X77886164Y-147736474D01*
X77890945Y-147760507D01*
X77900322Y-147783146D01*
X77913936Y-147803520D01*
X77931263Y-147820847D01*
X77951638Y-147834461D01*
X77974276Y-147843838D01*
X77998310Y-147848618D01*
X78022814Y-147848618D01*
X78046847Y-147843837D01*
X78055156Y-147841316D01*
X78072207Y-147839637D01*
X78089258Y-147841316D01*
X78105650Y-147846289D01*
X78120762Y-147854366D01*
X78138771Y-147869146D01*
X78178616Y-147908991D01*
X78178627Y-147909000D01*
X78391467Y-148121840D01*
X78391476Y-148121851D01*
X78431321Y-148161696D01*
X78446101Y-148179705D01*
X78454178Y-148194817D01*
X78459151Y-148211209D01*
X78460830Y-148228260D01*
X78459151Y-148245311D01*
X78456630Y-148253620D01*
X78451849Y-148277653D01*
X78451849Y-148302157D01*
X78456629Y-148326190D01*
X78466006Y-148348829D01*
X78479620Y-148369204D01*
X78496947Y-148386531D01*
X78517321Y-148400145D01*
X78539960Y-148409522D01*
X78563993Y-148414303D01*
X78588497Y-148414303D01*
X78612531Y-148409523D01*
X78620845Y-148407001D01*
X78637893Y-148405322D01*
X78654944Y-148407001D01*
X78671336Y-148411974D01*
X78686448Y-148420051D01*
X78704457Y-148434831D01*
X78744302Y-148474676D01*
X78744313Y-148474685D01*
X78957153Y-148687525D01*
X78957162Y-148687536D01*
X78997007Y-148727381D01*
X79011787Y-148745390D01*
X79019864Y-148760502D01*
X79024837Y-148776894D01*
X79026516Y-148793945D01*
X79024837Y-148810996D01*
X79019864Y-148827388D01*
X79011787Y-148842500D01*
X78997007Y-148860509D01*
X78957162Y-148900354D01*
X78957153Y-148900365D01*
X78037207Y-149820311D01*
X78037196Y-149820320D01*
X77997351Y-149860165D01*
X77979342Y-149874945D01*
X77964230Y-149883022D01*
X77947838Y-149887995D01*
X77930787Y-149889674D01*
X77913736Y-149887995D01*
X77897344Y-149883022D01*
X77882232Y-149874945D01*
X77864223Y-149860165D01*
X77824378Y-149820320D01*
X77824367Y-149820311D01*
X77611527Y-149607471D01*
X77611518Y-149607460D01*
X77571673Y-149567615D01*
X77556893Y-149549606D01*
X77548816Y-149534494D01*
X77543843Y-149518102D01*
X77542164Y-149501051D01*
X77543843Y-149484000D01*
X77546364Y-149475691D01*
X77551145Y-149451658D01*
X77551145Y-149427154D01*
X77546365Y-149403121D01*
X77536988Y-149380482D01*
X77523374Y-149360107D01*
X77506047Y-149342780D01*
X77485673Y-149329166D01*
X77463034Y-149319789D01*
X77439001Y-149315008D01*
X77414497Y-149315008D01*
X77390463Y-149319788D01*
X77382149Y-149322310D01*
X77365101Y-149323989D01*
X77348050Y-149322310D01*
X77331658Y-149317337D01*
X77316546Y-149309260D01*
X77298537Y-149294480D01*
X77258692Y-149254635D01*
X77258681Y-149254626D01*
X77045841Y-149041786D01*
X77045832Y-149041775D01*
X77005987Y-149001930D01*
X76991207Y-148983921D01*
X76983130Y-148968809D01*
X76978157Y-148952417D01*
X76976478Y-148935366D01*
X76978157Y-148918318D01*
X76980679Y-148910004D01*
X76985459Y-148885970D01*
X76985459Y-148861466D01*
X76980678Y-148837433D01*
X76971301Y-148814794D01*
X76957687Y-148794420D01*
X76940360Y-148777093D01*
X76919985Y-148763479D01*
X76897347Y-148754102D01*
X76873313Y-148749322D01*
X76848809Y-148749322D01*
X76824776Y-148754103D01*
X76816467Y-148756624D01*
X76799416Y-148758303D01*
X76782365Y-148756624D01*
X76765973Y-148751651D01*
X76750861Y-148743574D01*
X76732852Y-148728794D01*
X76693007Y-148688949D01*
X76692996Y-148688940D01*
X76480156Y-148476100D01*
X76480147Y-148476089D01*
X76440302Y-148436244D01*
X76425522Y-148418235D01*
X76417445Y-148403123D01*
X76412472Y-148386731D01*
X76410793Y-148369680D01*
X76412472Y-148352629D01*
X76414993Y-148344320D01*
X76419774Y-148320287D01*
X76419774Y-148295783D01*
X76414994Y-148271750D01*
X76405617Y-148249111D01*
X76392003Y-148228736D01*
X76374676Y-148211409D01*
X76354302Y-148197795D01*
X76331663Y-148188418D01*
X76307630Y-148183637D01*
X76283126Y-148183637D01*
X76259091Y-148188418D01*
X76250782Y-148190939D01*
X76233731Y-148192618D01*
X76216680Y-148190939D01*
X76200288Y-148185966D01*
X76185176Y-148177889D01*
X76167167Y-148163109D01*
X76127322Y-148123264D01*
X76127311Y-148123255D01*
X75914471Y-147910415D01*
X75914462Y-147910404D01*
X75874617Y-147870559D01*
X75859837Y-147852550D01*
X75851760Y-147837438D01*
X75846787Y-147821046D01*
X75845108Y-147803995D01*
X75846787Y-147786947D01*
X75849309Y-147778633D01*
X75854089Y-147754599D01*
X75854089Y-147730095D01*
X75849308Y-147706062D01*
X75839931Y-147683423D01*
X75826317Y-147663049D01*
X75808990Y-147645722D01*
X75788615Y-147632108D01*
X75765977Y-147622731D01*
X75741943Y-147617951D01*
X75717439Y-147617951D01*
X75693407Y-147622731D01*
X75685093Y-147625253D01*
X75668045Y-147626932D01*
X75650994Y-147625253D01*
X75634602Y-147620280D01*
X75619490Y-147612203D01*
X75601481Y-147597423D01*
X75561636Y-147557578D01*
X75561625Y-147557569D01*
X75348785Y-147344729D01*
X75348776Y-147344718D01*
X75308931Y-147304873D01*
X75294151Y-147286864D01*
X75286074Y-147271752D01*
X75281101Y-147255360D01*
X75279422Y-147238309D01*
X75281101Y-147221258D01*
X75283622Y-147212949D01*
X75288403Y-147188916D01*
X75288403Y-147164412D01*
X75283623Y-147140379D01*
X75274246Y-147117740D01*
X75260632Y-147097365D01*
X75243305Y-147080038D01*
X75222931Y-147066424D01*
X75200292Y-147057047D01*
X75176259Y-147052266D01*
X75151755Y-147052266D01*
X75127720Y-147057047D01*
X75119411Y-147059568D01*
X75102360Y-147061247D01*
X75085309Y-147059568D01*
X75068917Y-147054595D01*
X75053805Y-147046518D01*
X75035796Y-147031738D01*
X74995951Y-146991893D01*
X74995940Y-146991884D01*
X74783100Y-146779044D01*
X74783091Y-146779033D01*
X74743246Y-146739188D01*
X74728466Y-146721179D01*
X74720389Y-146706067D01*
X74715416Y-146689675D01*
X74713737Y-146672624D01*
X74715416Y-146655573D01*
X74717937Y-146647264D01*
X74722718Y-146623231D01*
X74722718Y-146598727D01*
X74717938Y-146574694D01*
X74708561Y-146552055D01*
X74694947Y-146531680D01*
X74677620Y-146514353D01*
X74657246Y-146500739D01*
X74634607Y-146491362D01*
X74610574Y-146486581D01*
X74586070Y-146486581D01*
X74562036Y-146491361D01*
X74553722Y-146493883D01*
X74536674Y-146495562D01*
X74519623Y-146493883D01*
X74503231Y-146488910D01*
X74488119Y-146480833D01*
X74470110Y-146466053D01*
X74430265Y-146426208D01*
X74430254Y-146426199D01*
X74217414Y-146213359D01*
X74217405Y-146213348D01*
X74177560Y-146173503D01*
X74162780Y-146155494D01*
X74154703Y-146140382D01*
X74149730Y-146123990D01*
X74148051Y-146106939D01*
X74149730Y-146089891D01*
X74152252Y-146081577D01*
X74157032Y-146057543D01*
X74157032Y-146033039D01*
X74152251Y-146009006D01*
X74142874Y-145986367D01*
X74129260Y-145965993D01*
X74111933Y-145948666D01*
X74091558Y-145935052D01*
X74068920Y-145925675D01*
X74044886Y-145920895D01*
X74020382Y-145920895D01*
X73996349Y-145925676D01*
X73988040Y-145928197D01*
X73970989Y-145929876D01*
X73953938Y-145928197D01*
X73937546Y-145923224D01*
X73922434Y-145915147D01*
X73904425Y-145900367D01*
X73864580Y-145860522D01*
X73864569Y-145860513D01*
X73651729Y-145647673D01*
X73651720Y-145647662D01*
X73611875Y-145607817D01*
X73597095Y-145589808D01*
X73589018Y-145574696D01*
X73584045Y-145558304D01*
X73582366Y-145541253D01*
X73584045Y-145524202D01*
X73589018Y-145507810D01*
X73597095Y-145492698D01*
X73611875Y-145474689D01*
X73651720Y-145434844D01*
X73651729Y-145434833D01*
X74571675Y-144514887D01*
X74571686Y-144514878D01*
X74611531Y-144475033D01*
X74629540Y-144460253D01*
X74644652Y-144452176D01*
X74661044Y-144447203D01*
X74678095Y-144445524D01*
X74695146Y-144447203D01*
G37*
G36*
X61938674Y-145353465D02*
G01*
X61976367Y-145364899D01*
X62011103Y-145383466D01*
X62041548Y-145408452D01*
X62066534Y-145438897D01*
X62085101Y-145473633D01*
X62096535Y-145511326D01*
X62101000Y-145556661D01*
X62101000Y-146643339D01*
X62096535Y-146688674D01*
X62085101Y-146726367D01*
X62066534Y-146761103D01*
X62041548Y-146791548D01*
X62011103Y-146816534D01*
X61976367Y-146835101D01*
X61938674Y-146846535D01*
X61893339Y-146851000D01*
X61056661Y-146851000D01*
X61011326Y-146846535D01*
X60973633Y-146835101D01*
X60938897Y-146816534D01*
X60908452Y-146791548D01*
X60883466Y-146761103D01*
X60864899Y-146726367D01*
X60853465Y-146688674D01*
X60849000Y-146643339D01*
X60849000Y-145556661D01*
X60853465Y-145511326D01*
X60864899Y-145473633D01*
X60883466Y-145438897D01*
X60908452Y-145408452D01*
X60938897Y-145383466D01*
X60973633Y-145364899D01*
X61011326Y-145353465D01*
X61056661Y-145349000D01*
X61893339Y-145349000D01*
X61938674Y-145353465D01*
G37*
G36*
X63988674Y-145353465D02*
G01*
X64026367Y-145364899D01*
X64061103Y-145383466D01*
X64091548Y-145408452D01*
X64116534Y-145438897D01*
X64135101Y-145473633D01*
X64146535Y-145511326D01*
X64151000Y-145556661D01*
X64151000Y-146643339D01*
X64146535Y-146688674D01*
X64135101Y-146726367D01*
X64116534Y-146761103D01*
X64091548Y-146791548D01*
X64061103Y-146816534D01*
X64026367Y-146835101D01*
X63988674Y-146846535D01*
X63943339Y-146851000D01*
X63106661Y-146851000D01*
X63061326Y-146846535D01*
X63023633Y-146835101D01*
X62988897Y-146816534D01*
X62958452Y-146791548D01*
X62933466Y-146761103D01*
X62914899Y-146726367D01*
X62903465Y-146688674D01*
X62899000Y-146643339D01*
X62899000Y-145556661D01*
X62903465Y-145511326D01*
X62914899Y-145473633D01*
X62933466Y-145438897D01*
X62958452Y-145408452D01*
X62988897Y-145383466D01*
X63023633Y-145364899D01*
X63061326Y-145353465D01*
X63106661Y-145349000D01*
X63943339Y-145349000D01*
X63988674Y-145353465D01*
G37*
G36*
X34438674Y-145353465D02*
G01*
X34476367Y-145364899D01*
X34511103Y-145383466D01*
X34541548Y-145408452D01*
X34566534Y-145438897D01*
X34585101Y-145473633D01*
X34596535Y-145511326D01*
X34601000Y-145556661D01*
X34601000Y-146643339D01*
X34596535Y-146688674D01*
X34585101Y-146726367D01*
X34566534Y-146761103D01*
X34541548Y-146791548D01*
X34511103Y-146816534D01*
X34476367Y-146835101D01*
X34438674Y-146846535D01*
X34393339Y-146851000D01*
X33556661Y-146851000D01*
X33511326Y-146846535D01*
X33473633Y-146835101D01*
X33438897Y-146816534D01*
X33408452Y-146791548D01*
X33383466Y-146761103D01*
X33364899Y-146726367D01*
X33353465Y-146688674D01*
X33349000Y-146643339D01*
X33349000Y-145556661D01*
X33353465Y-145511326D01*
X33364899Y-145473633D01*
X33383466Y-145438897D01*
X33408452Y-145408452D01*
X33438897Y-145383466D01*
X33473633Y-145364899D01*
X33511326Y-145353465D01*
X33556661Y-145349000D01*
X34393339Y-145349000D01*
X34438674Y-145353465D01*
G37*
G36*
X36488674Y-145353465D02*
G01*
X36526367Y-145364899D01*
X36561103Y-145383466D01*
X36591548Y-145408452D01*
X36616534Y-145438897D01*
X36635101Y-145473633D01*
X36646535Y-145511326D01*
X36651000Y-145556661D01*
X36651000Y-146643339D01*
X36646535Y-146688674D01*
X36635101Y-146726367D01*
X36616534Y-146761103D01*
X36591548Y-146791548D01*
X36561103Y-146816534D01*
X36526367Y-146835101D01*
X36488674Y-146846535D01*
X36443339Y-146851000D01*
X35606661Y-146851000D01*
X35561326Y-146846535D01*
X35523633Y-146835101D01*
X35488897Y-146816534D01*
X35458452Y-146791548D01*
X35433466Y-146761103D01*
X35414899Y-146726367D01*
X35403465Y-146688674D01*
X35399000Y-146643339D01*
X35399000Y-145556661D01*
X35403465Y-145511326D01*
X35414899Y-145473633D01*
X35433466Y-145438897D01*
X35458452Y-145408452D01*
X35488897Y-145383466D01*
X35523633Y-145364899D01*
X35561326Y-145353465D01*
X35606661Y-145349000D01*
X36443339Y-145349000D01*
X36488674Y-145353465D01*
G37*
G36*
X43438674Y-145303465D02*
G01*
X43476367Y-145314899D01*
X43511103Y-145333466D01*
X43541548Y-145358452D01*
X43566534Y-145388897D01*
X43585101Y-145423633D01*
X43596535Y-145461326D01*
X43601000Y-145506661D01*
X43601000Y-146593339D01*
X43596535Y-146638674D01*
X43585101Y-146676367D01*
X43566534Y-146711103D01*
X43541548Y-146741548D01*
X43511103Y-146766534D01*
X43476367Y-146785101D01*
X43438674Y-146796535D01*
X43393339Y-146801000D01*
X42556661Y-146801000D01*
X42511326Y-146796535D01*
X42473633Y-146785101D01*
X42438897Y-146766534D01*
X42408452Y-146741548D01*
X42383466Y-146711103D01*
X42364899Y-146676367D01*
X42353465Y-146638674D01*
X42349000Y-146593339D01*
X42349000Y-145506661D01*
X42353465Y-145461326D01*
X42364899Y-145423633D01*
X42383466Y-145388897D01*
X42408452Y-145358452D01*
X42438897Y-145333466D01*
X42473633Y-145314899D01*
X42511326Y-145303465D01*
X42556661Y-145299000D01*
X43393339Y-145299000D01*
X43438674Y-145303465D01*
G37*
G36*
X45488674Y-145303465D02*
G01*
X45526367Y-145314899D01*
X45561103Y-145333466D01*
X45591548Y-145358452D01*
X45616534Y-145388897D01*
X45635101Y-145423633D01*
X45646535Y-145461326D01*
X45651000Y-145506661D01*
X45651000Y-146593339D01*
X45646535Y-146638674D01*
X45635101Y-146676367D01*
X45616534Y-146711103D01*
X45591548Y-146741548D01*
X45561103Y-146766534D01*
X45526367Y-146785101D01*
X45488674Y-146796535D01*
X45443339Y-146801000D01*
X44606661Y-146801000D01*
X44561326Y-146796535D01*
X44523633Y-146785101D01*
X44488897Y-146766534D01*
X44458452Y-146741548D01*
X44433466Y-146711103D01*
X44414899Y-146676367D01*
X44403465Y-146638674D01*
X44399000Y-146593339D01*
X44399000Y-145506661D01*
X44403465Y-145461326D01*
X44414899Y-145423633D01*
X44433466Y-145388897D01*
X44458452Y-145358452D01*
X44488897Y-145333466D01*
X44523633Y-145314899D01*
X44561326Y-145303465D01*
X44606661Y-145299000D01*
X45443339Y-145299000D01*
X45488674Y-145303465D01*
G37*
G36*
X52938674Y-145303465D02*
G01*
X52976367Y-145314899D01*
X53011103Y-145333466D01*
X53041548Y-145358452D01*
X53066534Y-145388897D01*
X53085101Y-145423633D01*
X53096535Y-145461326D01*
X53101000Y-145506661D01*
X53101000Y-146593339D01*
X53096535Y-146638674D01*
X53085101Y-146676367D01*
X53066534Y-146711103D01*
X53041548Y-146741548D01*
X53011103Y-146766534D01*
X52976367Y-146785101D01*
X52938674Y-146796535D01*
X52893339Y-146801000D01*
X52056661Y-146801000D01*
X52011326Y-146796535D01*
X51973633Y-146785101D01*
X51938897Y-146766534D01*
X51908452Y-146741548D01*
X51883466Y-146711103D01*
X51864899Y-146676367D01*
X51853465Y-146638674D01*
X51849000Y-146593339D01*
X51849000Y-145506661D01*
X51853465Y-145461326D01*
X51864899Y-145423633D01*
X51883466Y-145388897D01*
X51908452Y-145358452D01*
X51938897Y-145333466D01*
X51973633Y-145314899D01*
X52011326Y-145303465D01*
X52056661Y-145299000D01*
X52893339Y-145299000D01*
X52938674Y-145303465D01*
G37*
G36*
X54988674Y-145303465D02*
G01*
X55026367Y-145314899D01*
X55061103Y-145333466D01*
X55091548Y-145358452D01*
X55116534Y-145388897D01*
X55135101Y-145423633D01*
X55146535Y-145461326D01*
X55151000Y-145506661D01*
X55151000Y-146593339D01*
X55146535Y-146638674D01*
X55135101Y-146676367D01*
X55116534Y-146711103D01*
X55091548Y-146741548D01*
X55061103Y-146766534D01*
X55026367Y-146785101D01*
X54988674Y-146796535D01*
X54943339Y-146801000D01*
X54106661Y-146801000D01*
X54061326Y-146796535D01*
X54023633Y-146785101D01*
X53988897Y-146766534D01*
X53958452Y-146741548D01*
X53933466Y-146711103D01*
X53914899Y-146676367D01*
X53903465Y-146638674D01*
X53899000Y-146593339D01*
X53899000Y-145506661D01*
X53903465Y-145461326D01*
X53914899Y-145423633D01*
X53933466Y-145388897D01*
X53958452Y-145358452D01*
X53988897Y-145333466D01*
X54023633Y-145314899D01*
X54061326Y-145303465D01*
X54106661Y-145299000D01*
X54943339Y-145299000D01*
X54988674Y-145303465D01*
G37*
G36*
X83755997Y-144553051D02*
G01*
X83789652Y-144563261D01*
X83820665Y-144579838D01*
X83847851Y-144602149D01*
X83870162Y-144629335D01*
X83886739Y-144660348D01*
X83896949Y-144694003D01*
X83901000Y-144735138D01*
X83901000Y-146064862D01*
X83896949Y-146105997D01*
X83886739Y-146139652D01*
X83870162Y-146170665D01*
X83847851Y-146197851D01*
X83820665Y-146220162D01*
X83789652Y-146236739D01*
X83755997Y-146246949D01*
X83714862Y-146251000D01*
X80485138Y-146251000D01*
X80444003Y-146246949D01*
X80410348Y-146236739D01*
X80379335Y-146220162D01*
X80352149Y-146197851D01*
X80329838Y-146170665D01*
X80313261Y-146139652D01*
X80303051Y-146105997D01*
X80299000Y-146064862D01*
X80299000Y-144735138D01*
X80303051Y-144694003D01*
X80313261Y-144660348D01*
X80329838Y-144629335D01*
X80352149Y-144602149D01*
X80379335Y-144579838D01*
X80410348Y-144563261D01*
X80444003Y-144553051D01*
X80485138Y-144549000D01*
X83714862Y-144549000D01*
X83755997Y-144553051D01*
G37*
G36*
X89355997Y-144553051D02*
G01*
X89389652Y-144563261D01*
X89420665Y-144579838D01*
X89447851Y-144602149D01*
X89470162Y-144629335D01*
X89486739Y-144660348D01*
X89496949Y-144694003D01*
X89501000Y-144735138D01*
X89501000Y-146064862D01*
X89496949Y-146105997D01*
X89486739Y-146139652D01*
X89470162Y-146170665D01*
X89447851Y-146197851D01*
X89420665Y-146220162D01*
X89389652Y-146236739D01*
X89355997Y-146246949D01*
X89314862Y-146251000D01*
X86085138Y-146251000D01*
X86044003Y-146246949D01*
X86010348Y-146236739D01*
X85979335Y-146220162D01*
X85952149Y-146197851D01*
X85929838Y-146170665D01*
X85913261Y-146139652D01*
X85903051Y-146105997D01*
X85899000Y-146064862D01*
X85899000Y-144735138D01*
X85903051Y-144694003D01*
X85913261Y-144660348D01*
X85929838Y-144629335D01*
X85952149Y-144602149D01*
X85979335Y-144579838D01*
X86010348Y-144563261D01*
X86044003Y-144553051D01*
X86085138Y-144549000D01*
X89314862Y-144549000D01*
X89355997Y-144553051D01*
G37*
G36*
X60951000Y-144351000D02*
G01*
X60049000Y-144351000D01*
X60049000Y-142349000D01*
X60951000Y-142349000D01*
X60951000Y-144351000D01*
G37*
G36*
X53901000Y-144351000D02*
G01*
X52999000Y-144351000D01*
X52999000Y-142349000D01*
X53901000Y-142349000D01*
X53901000Y-144351000D01*
G37*
G36*
X62851000Y-144351000D02*
G01*
X61949000Y-144351000D01*
X61949000Y-142349000D01*
X62851000Y-142349000D01*
X62851000Y-144351000D01*
G37*
G36*
X52001000Y-144351000D02*
G01*
X51099000Y-144351000D01*
X51099000Y-142349000D01*
X52001000Y-142349000D01*
X52001000Y-144351000D01*
G37*
G36*
X44601000Y-144351000D02*
G01*
X43699000Y-144351000D01*
X43699000Y-142349000D01*
X44601000Y-142349000D01*
X44601000Y-144351000D01*
G37*
G36*
X42701000Y-144351000D02*
G01*
X41799000Y-144351000D01*
X41799000Y-142349000D01*
X42701000Y-142349000D01*
X42701000Y-144351000D01*
G37*
G36*
X35651000Y-144351000D02*
G01*
X34749000Y-144351000D01*
X34749000Y-142349000D01*
X35651000Y-142349000D01*
X35651000Y-144351000D01*
G37*
G36*
X33751000Y-144351000D02*
G01*
X32849000Y-144351000D01*
X32849000Y-142349000D01*
X33751000Y-142349000D01*
X33751000Y-144351000D01*
G37*
G36*
X31138674Y-141403465D02*
G01*
X31176367Y-141414899D01*
X31211103Y-141433466D01*
X31241548Y-141458452D01*
X31266534Y-141488897D01*
X31285101Y-141523633D01*
X31296535Y-141561326D01*
X31301000Y-141606661D01*
X31301000Y-142443339D01*
X31296535Y-142488674D01*
X31285101Y-142526367D01*
X31266534Y-142561103D01*
X31241548Y-142591548D01*
X31211103Y-142616534D01*
X31176367Y-142635101D01*
X31138674Y-142646535D01*
X31093339Y-142651000D01*
X30006661Y-142651000D01*
X29961326Y-142646535D01*
X29923633Y-142635101D01*
X29888897Y-142616534D01*
X29858452Y-142591548D01*
X29833466Y-142561103D01*
X29814899Y-142526367D01*
X29803465Y-142488674D01*
X29799000Y-142443339D01*
X29799000Y-141606661D01*
X29803465Y-141561326D01*
X29814899Y-141523633D01*
X29833466Y-141488897D01*
X29858452Y-141458452D01*
X29888897Y-141433466D01*
X29923633Y-141414899D01*
X29961326Y-141403465D01*
X30006661Y-141399000D01*
X31093339Y-141399000D01*
X31138674Y-141403465D01*
G37*
G36*
X40138674Y-141403465D02*
G01*
X40176367Y-141414899D01*
X40211103Y-141433466D01*
X40241548Y-141458452D01*
X40266534Y-141488897D01*
X40285101Y-141523633D01*
X40296535Y-141561326D01*
X40301000Y-141606661D01*
X40301000Y-142443339D01*
X40296535Y-142488674D01*
X40285101Y-142526367D01*
X40266534Y-142561103D01*
X40241548Y-142591548D01*
X40211103Y-142616534D01*
X40176367Y-142635101D01*
X40138674Y-142646535D01*
X40093339Y-142651000D01*
X39006661Y-142651000D01*
X38961326Y-142646535D01*
X38923633Y-142635101D01*
X38888897Y-142616534D01*
X38858452Y-142591548D01*
X38833466Y-142561103D01*
X38814899Y-142526367D01*
X38803465Y-142488674D01*
X38799000Y-142443339D01*
X38799000Y-141606661D01*
X38803465Y-141561326D01*
X38814899Y-141523633D01*
X38833466Y-141488897D01*
X38858452Y-141458452D01*
X38888897Y-141433466D01*
X38923633Y-141414899D01*
X38961326Y-141403465D01*
X39006661Y-141399000D01*
X40093339Y-141399000D01*
X40138674Y-141403465D01*
G37*
G36*
X49138674Y-141403465D02*
G01*
X49176367Y-141414899D01*
X49211103Y-141433466D01*
X49241548Y-141458452D01*
X49266534Y-141488897D01*
X49285101Y-141523633D01*
X49296535Y-141561326D01*
X49301000Y-141606661D01*
X49301000Y-142443339D01*
X49296535Y-142488674D01*
X49285101Y-142526367D01*
X49266534Y-142561103D01*
X49241548Y-142591548D01*
X49211103Y-142616534D01*
X49176367Y-142635101D01*
X49138674Y-142646535D01*
X49093339Y-142651000D01*
X48006661Y-142651000D01*
X47961326Y-142646535D01*
X47923633Y-142635101D01*
X47888897Y-142616534D01*
X47858452Y-142591548D01*
X47833466Y-142561103D01*
X47814899Y-142526367D01*
X47803465Y-142488674D01*
X47799000Y-142443339D01*
X47799000Y-141606661D01*
X47803465Y-141561326D01*
X47814899Y-141523633D01*
X47833466Y-141488897D01*
X47858452Y-141458452D01*
X47888897Y-141433466D01*
X47923633Y-141414899D01*
X47961326Y-141403465D01*
X48006661Y-141399000D01*
X49093339Y-141399000D01*
X49138674Y-141403465D01*
G37*
G36*
X58088674Y-141403465D02*
G01*
X58126367Y-141414899D01*
X58161103Y-141433466D01*
X58191548Y-141458452D01*
X58216534Y-141488897D01*
X58235101Y-141523633D01*
X58246535Y-141561326D01*
X58251000Y-141606661D01*
X58251000Y-142443339D01*
X58246535Y-142488674D01*
X58235101Y-142526367D01*
X58216534Y-142561103D01*
X58191548Y-142591548D01*
X58161103Y-142616534D01*
X58126367Y-142635101D01*
X58088674Y-142646535D01*
X58043339Y-142651000D01*
X56956661Y-142651000D01*
X56911326Y-142646535D01*
X56873633Y-142635101D01*
X56838897Y-142616534D01*
X56808452Y-142591548D01*
X56783466Y-142561103D01*
X56764899Y-142526367D01*
X56753465Y-142488674D01*
X56749000Y-142443339D01*
X56749000Y-141606661D01*
X56753465Y-141561326D01*
X56764899Y-141523633D01*
X56783466Y-141488897D01*
X56808452Y-141458452D01*
X56838897Y-141433466D01*
X56873633Y-141414899D01*
X56911326Y-141403465D01*
X56956661Y-141399000D01*
X58043339Y-141399000D01*
X58088674Y-141403465D01*
G37*
G36*
X34701000Y-141351000D02*
G01*
X33799000Y-141351000D01*
X33799000Y-139349000D01*
X34701000Y-139349000D01*
X34701000Y-141351000D01*
G37*
G36*
X43651000Y-141351000D02*
G01*
X42749000Y-141351000D01*
X42749000Y-139349000D01*
X43651000Y-139349000D01*
X43651000Y-141351000D01*
G37*
G36*
X52951000Y-141351000D02*
G01*
X52049000Y-141351000D01*
X52049000Y-139349000D01*
X52951000Y-139349000D01*
X52951000Y-141351000D01*
G37*
G36*
X61901000Y-141351000D02*
G01*
X60999000Y-141351000D01*
X60999000Y-139349000D01*
X61901000Y-139349000D01*
X61901000Y-141351000D01*
G37*
G36*
X40138674Y-139353465D02*
G01*
X40176367Y-139364899D01*
X40211103Y-139383466D01*
X40241548Y-139408452D01*
X40266534Y-139438897D01*
X40285101Y-139473633D01*
X40296535Y-139511326D01*
X40301000Y-139556661D01*
X40301000Y-140393339D01*
X40296535Y-140438674D01*
X40285101Y-140476367D01*
X40266534Y-140511103D01*
X40241548Y-140541548D01*
X40211103Y-140566534D01*
X40176367Y-140585101D01*
X40138674Y-140596535D01*
X40093339Y-140601000D01*
X39006661Y-140601000D01*
X38961326Y-140596535D01*
X38923633Y-140585101D01*
X38888897Y-140566534D01*
X38858452Y-140541548D01*
X38833466Y-140511103D01*
X38814899Y-140476367D01*
X38803465Y-140438674D01*
X38799000Y-140393339D01*
X38799000Y-139556661D01*
X38803465Y-139511326D01*
X38814899Y-139473633D01*
X38833466Y-139438897D01*
X38858452Y-139408452D01*
X38888897Y-139383466D01*
X38923633Y-139364899D01*
X38961326Y-139353465D01*
X39006661Y-139349000D01*
X40093339Y-139349000D01*
X40138674Y-139353465D01*
G37*
G36*
X49138674Y-139353465D02*
G01*
X49176367Y-139364899D01*
X49211103Y-139383466D01*
X49241548Y-139408452D01*
X49266534Y-139438897D01*
X49285101Y-139473633D01*
X49296535Y-139511326D01*
X49301000Y-139556661D01*
X49301000Y-140393339D01*
X49296535Y-140438674D01*
X49285101Y-140476367D01*
X49266534Y-140511103D01*
X49241548Y-140541548D01*
X49211103Y-140566534D01*
X49176367Y-140585101D01*
X49138674Y-140596535D01*
X49093339Y-140601000D01*
X48006661Y-140601000D01*
X47961326Y-140596535D01*
X47923633Y-140585101D01*
X47888897Y-140566534D01*
X47858452Y-140541548D01*
X47833466Y-140511103D01*
X47814899Y-140476367D01*
X47803465Y-140438674D01*
X47799000Y-140393339D01*
X47799000Y-139556661D01*
X47803465Y-139511326D01*
X47814899Y-139473633D01*
X47833466Y-139438897D01*
X47858452Y-139408452D01*
X47888897Y-139383466D01*
X47923633Y-139364899D01*
X47961326Y-139353465D01*
X48006661Y-139349000D01*
X49093339Y-139349000D01*
X49138674Y-139353465D01*
G37*
G36*
X31138674Y-139353465D02*
G01*
X31176367Y-139364899D01*
X31211103Y-139383466D01*
X31241548Y-139408452D01*
X31266534Y-139438897D01*
X31285101Y-139473633D01*
X31296535Y-139511326D01*
X31301000Y-139556661D01*
X31301000Y-140393339D01*
X31296535Y-140438674D01*
X31285101Y-140476367D01*
X31266534Y-140511103D01*
X31241548Y-140541548D01*
X31211103Y-140566534D01*
X31176367Y-140585101D01*
X31138674Y-140596535D01*
X31093339Y-140601000D01*
X30006661Y-140601000D01*
X29961326Y-140596535D01*
X29923633Y-140585101D01*
X29888897Y-140566534D01*
X29858452Y-140541548D01*
X29833466Y-140511103D01*
X29814899Y-140476367D01*
X29803465Y-140438674D01*
X29799000Y-140393339D01*
X29799000Y-139556661D01*
X29803465Y-139511326D01*
X29814899Y-139473633D01*
X29833466Y-139438897D01*
X29858452Y-139408452D01*
X29888897Y-139383466D01*
X29923633Y-139364899D01*
X29961326Y-139353465D01*
X30006661Y-139349000D01*
X31093339Y-139349000D01*
X31138674Y-139353465D01*
G37*
G36*
X58088674Y-139353465D02*
G01*
X58126367Y-139364899D01*
X58161103Y-139383466D01*
X58191548Y-139408452D01*
X58216534Y-139438897D01*
X58235101Y-139473633D01*
X58246535Y-139511326D01*
X58251000Y-139556661D01*
X58251000Y-140393339D01*
X58246535Y-140438674D01*
X58235101Y-140476367D01*
X58216534Y-140511103D01*
X58191548Y-140541548D01*
X58161103Y-140566534D01*
X58126367Y-140585101D01*
X58088674Y-140596535D01*
X58043339Y-140601000D01*
X56956661Y-140601000D01*
X56911326Y-140596535D01*
X56873633Y-140585101D01*
X56838897Y-140566534D01*
X56808452Y-140541548D01*
X56783466Y-140511103D01*
X56764899Y-140476367D01*
X56753465Y-140438674D01*
X56749000Y-140393339D01*
X56749000Y-139556661D01*
X56753465Y-139511326D01*
X56764899Y-139473633D01*
X56783466Y-139438897D01*
X56808452Y-139408452D01*
X56838897Y-139383466D01*
X56873633Y-139364899D01*
X56911326Y-139353465D01*
X56956661Y-139349000D01*
X58043339Y-139349000D01*
X58088674Y-139353465D01*
G37*
G36*
X77901000Y-139610204D02*
G01*
X74199000Y-138993204D01*
X74199000Y-137806796D01*
X77901000Y-137189796D01*
X77901000Y-139610204D01*
G37*
G36*
X72101000Y-137806796D02*
G01*
X72101000Y-138993204D01*
X68399000Y-139610204D01*
X68399000Y-137189796D01*
X72101000Y-137806796D01*
G37*
G36*
X58221000Y-137601000D02*
G01*
X56919000Y-137601000D01*
X56919000Y-135299000D01*
X58221000Y-135299000D01*
X58221000Y-137601000D01*
G37*
G36*
X62781000Y-137601000D02*
G01*
X61479000Y-137601000D01*
X61479000Y-135299000D01*
X62781000Y-135299000D01*
X62781000Y-137601000D01*
G37*
G36*
X35781000Y-137601000D02*
G01*
X34479000Y-137601000D01*
X34479000Y-135299000D01*
X35781000Y-135299000D01*
X35781000Y-137601000D01*
G37*
G36*
X40221000Y-137601000D02*
G01*
X38919000Y-137601000D01*
X38919000Y-135299000D01*
X40221000Y-135299000D01*
X40221000Y-137601000D01*
G37*
G36*
X44781000Y-137601000D02*
G01*
X43479000Y-137601000D01*
X43479000Y-135299000D01*
X44781000Y-135299000D01*
X44781000Y-137601000D01*
G37*
G36*
X49221000Y-137601000D02*
G01*
X47919000Y-137601000D01*
X47919000Y-135299000D01*
X49221000Y-135299000D01*
X49221000Y-137601000D01*
G37*
G36*
X53781000Y-137601000D02*
G01*
X52479000Y-137601000D01*
X52479000Y-135299000D01*
X53781000Y-135299000D01*
X53781000Y-137601000D01*
G37*
G36*
X31221000Y-137601000D02*
G01*
X29919000Y-137601000D01*
X29919000Y-135299000D01*
X31221000Y-135299000D01*
X31221000Y-137601000D01*
G37*
G36*
X82101000Y-137101000D02*
G01*
X79299000Y-137101000D01*
X79299000Y-133399000D01*
X82101000Y-133399000D01*
X82101000Y-137101000D01*
G37*
G36*
X90401000Y-137101000D02*
G01*
X87599000Y-137101000D01*
X87599000Y-133399000D01*
X90401000Y-133399000D01*
X90401000Y-137101000D01*
G37*
G36*
X68588674Y-133353465D02*
G01*
X68626367Y-133364899D01*
X68661103Y-133383466D01*
X68691548Y-133408452D01*
X68716534Y-133438897D01*
X68735101Y-133473633D01*
X68746535Y-133511326D01*
X68751000Y-133556661D01*
X68751000Y-134393339D01*
X68746535Y-134438674D01*
X68735101Y-134476367D01*
X68716534Y-134511103D01*
X68691548Y-134541548D01*
X68661103Y-134566534D01*
X68626367Y-134585101D01*
X68588674Y-134596535D01*
X68543339Y-134601000D01*
X67456661Y-134601000D01*
X67411326Y-134596535D01*
X67373633Y-134585101D01*
X67338897Y-134566534D01*
X67308452Y-134541548D01*
X67283466Y-134511103D01*
X67264899Y-134476367D01*
X67253465Y-134438674D01*
X67249000Y-134393339D01*
X67249000Y-133556661D01*
X67253465Y-133511326D01*
X67264899Y-133473633D01*
X67283466Y-133438897D01*
X67308452Y-133408452D01*
X67338897Y-133383466D01*
X67373633Y-133364899D01*
X67411326Y-133353465D01*
X67456661Y-133349000D01*
X68543339Y-133349000D01*
X68588674Y-133353465D01*
G37*
G36*
X72809928Y-133856764D02*
G01*
X72831009Y-133863160D01*
X72850445Y-133873548D01*
X72867476Y-133887524D01*
X72881452Y-133904555D01*
X72891840Y-133923991D01*
X72898236Y-133945072D01*
X72901000Y-133973140D01*
X72901000Y-134436860D01*
X72898236Y-134464928D01*
X72891840Y-134486009D01*
X72881452Y-134505445D01*
X72867476Y-134522476D01*
X72850445Y-134536452D01*
X72831009Y-134546840D01*
X72809928Y-134553236D01*
X72781860Y-134556000D01*
X70968140Y-134556000D01*
X70940072Y-134553236D01*
X70918991Y-134546840D01*
X70899555Y-134536452D01*
X70882524Y-134522476D01*
X70868548Y-134505445D01*
X70858160Y-134486009D01*
X70851764Y-134464928D01*
X70849000Y-134436860D01*
X70849000Y-133973140D01*
X70851764Y-133945072D01*
X70858160Y-133923991D01*
X70868548Y-133904555D01*
X70882524Y-133887524D01*
X70899555Y-133873548D01*
X70918991Y-133863160D01*
X70940072Y-133856764D01*
X70968140Y-133854000D01*
X72781860Y-133854000D01*
X72809928Y-133856764D01*
G37*
G36*
X77759928Y-133856764D02*
G01*
X77781009Y-133863160D01*
X77800445Y-133873548D01*
X77817476Y-133887524D01*
X77831452Y-133904555D01*
X77841840Y-133923991D01*
X77848236Y-133945072D01*
X77851000Y-133973140D01*
X77851000Y-134436860D01*
X77848236Y-134464928D01*
X77841840Y-134486009D01*
X77831452Y-134505445D01*
X77817476Y-134522476D01*
X77800445Y-134536452D01*
X77781009Y-134546840D01*
X77759928Y-134553236D01*
X77731860Y-134556000D01*
X75918140Y-134556000D01*
X75890072Y-134553236D01*
X75868991Y-134546840D01*
X75849555Y-134536452D01*
X75832524Y-134522476D01*
X75818548Y-134505445D01*
X75808160Y-134486009D01*
X75801764Y-134464928D01*
X75799000Y-134436860D01*
X75799000Y-133973140D01*
X75801764Y-133945072D01*
X75808160Y-133923991D01*
X75818548Y-133904555D01*
X75832524Y-133887524D01*
X75849555Y-133873548D01*
X75868991Y-133863160D01*
X75890072Y-133856764D01*
X75918140Y-133854000D01*
X77731860Y-133854000D01*
X77759928Y-133856764D01*
G37*
G36*
X35801000Y-133401000D02*
G01*
X29899000Y-133401000D01*
X29899000Y-126899000D01*
X35801000Y-126899000D01*
X35801000Y-133401000D01*
G37*
G36*
X53801000Y-133401000D02*
G01*
X47899000Y-133401000D01*
X47899000Y-126899000D01*
X53801000Y-126899000D01*
X53801000Y-133401000D01*
G37*
G36*
X44801000Y-133401000D02*
G01*
X38899000Y-133401000D01*
X38899000Y-126899000D01*
X44801000Y-126899000D01*
X44801000Y-133401000D01*
G37*
G36*
X62801000Y-133401000D02*
G01*
X56899000Y-133401000D01*
X56899000Y-126899000D01*
X62801000Y-126899000D01*
X62801000Y-133401000D01*
G37*
G36*
X72809928Y-132586764D02*
G01*
X72831009Y-132593160D01*
X72850445Y-132603548D01*
X72867476Y-132617524D01*
X72881452Y-132634555D01*
X72891840Y-132653991D01*
X72898236Y-132675072D01*
X72901000Y-132703140D01*
X72901000Y-133166860D01*
X72898236Y-133194928D01*
X72891840Y-133216009D01*
X72881452Y-133235445D01*
X72867476Y-133252476D01*
X72850445Y-133266452D01*
X72831009Y-133276840D01*
X72809928Y-133283236D01*
X72781860Y-133286000D01*
X70968140Y-133286000D01*
X70940072Y-133283236D01*
X70918991Y-133276840D01*
X70899555Y-133266452D01*
X70882524Y-133252476D01*
X70868548Y-133235445D01*
X70858160Y-133216009D01*
X70851764Y-133194928D01*
X70849000Y-133166860D01*
X70849000Y-132703140D01*
X70851764Y-132675072D01*
X70858160Y-132653991D01*
X70868548Y-132634555D01*
X70882524Y-132617524D01*
X70899555Y-132603548D01*
X70918991Y-132593160D01*
X70940072Y-132586764D01*
X70968140Y-132584000D01*
X72781860Y-132584000D01*
X72809928Y-132586764D01*
G37*
G36*
X77759928Y-132586764D02*
G01*
X77781009Y-132593160D01*
X77800445Y-132603548D01*
X77817476Y-132617524D01*
X77831452Y-132634555D01*
X77841840Y-132653991D01*
X77848236Y-132675072D01*
X77851000Y-132703140D01*
X77851000Y-133166860D01*
X77848236Y-133194928D01*
X77841840Y-133216009D01*
X77831452Y-133235445D01*
X77817476Y-133252476D01*
X77800445Y-133266452D01*
X77781009Y-133276840D01*
X77759928Y-133283236D01*
X77731860Y-133286000D01*
X75918140Y-133286000D01*
X75890072Y-133283236D01*
X75868991Y-133276840D01*
X75849555Y-133266452D01*
X75832524Y-133252476D01*
X75818548Y-133235445D01*
X75808160Y-133216009D01*
X75801764Y-133194928D01*
X75799000Y-133166860D01*
X75799000Y-132703140D01*
X75801764Y-132675072D01*
X75808160Y-132653991D01*
X75818548Y-132634555D01*
X75832524Y-132617524D01*
X75849555Y-132603548D01*
X75868991Y-132593160D01*
X75890072Y-132586764D01*
X75918140Y-132584000D01*
X77731860Y-132584000D01*
X77759928Y-132586764D01*
G37*
G36*
X68588674Y-131303465D02*
G01*
X68626367Y-131314899D01*
X68661103Y-131333466D01*
X68691548Y-131358452D01*
X68716534Y-131388897D01*
X68735101Y-131423633D01*
X68746535Y-131461326D01*
X68751000Y-131506661D01*
X68751000Y-132343339D01*
X68746535Y-132388674D01*
X68735101Y-132426367D01*
X68716534Y-132461103D01*
X68691548Y-132491548D01*
X68661103Y-132516534D01*
X68626367Y-132535101D01*
X68588674Y-132546535D01*
X68543339Y-132551000D01*
X67456661Y-132551000D01*
X67411326Y-132546535D01*
X67373633Y-132535101D01*
X67338897Y-132516534D01*
X67308452Y-132491548D01*
X67283466Y-132461103D01*
X67264899Y-132426367D01*
X67253465Y-132388674D01*
X67249000Y-132343339D01*
X67249000Y-131506661D01*
X67253465Y-131461326D01*
X67264899Y-131423633D01*
X67283466Y-131388897D01*
X67308452Y-131358452D01*
X67338897Y-131333466D01*
X67373633Y-131314899D01*
X67411326Y-131303465D01*
X67456661Y-131299000D01*
X68543339Y-131299000D01*
X68588674Y-131303465D01*
G37*
G36*
X77759928Y-131316764D02*
G01*
X77781009Y-131323160D01*
X77800445Y-131333548D01*
X77817476Y-131347524D01*
X77831452Y-131364555D01*
X77841840Y-131383991D01*
X77848236Y-131405072D01*
X77851000Y-131433140D01*
X77851000Y-131896860D01*
X77848236Y-131924928D01*
X77841840Y-131946009D01*
X77831452Y-131965445D01*
X77817476Y-131982476D01*
X77800445Y-131996452D01*
X77781009Y-132006840D01*
X77759928Y-132013236D01*
X77731860Y-132016000D01*
X75918140Y-132016000D01*
X75890072Y-132013236D01*
X75868991Y-132006840D01*
X75849555Y-131996452D01*
X75832524Y-131982476D01*
X75818548Y-131965445D01*
X75808160Y-131946009D01*
X75801764Y-131924928D01*
X75799000Y-131896860D01*
X75799000Y-131433140D01*
X75801764Y-131405072D01*
X75808160Y-131383991D01*
X75818548Y-131364555D01*
X75832524Y-131347524D01*
X75849555Y-131333548D01*
X75868991Y-131323160D01*
X75890072Y-131316764D01*
X75918140Y-131314000D01*
X77731860Y-131314000D01*
X77759928Y-131316764D01*
G37*
G36*
X72809928Y-131316764D02*
G01*
X72831009Y-131323160D01*
X72850445Y-131333548D01*
X72867476Y-131347524D01*
X72881452Y-131364555D01*
X72891840Y-131383991D01*
X72898236Y-131405072D01*
X72901000Y-131433140D01*
X72901000Y-131896860D01*
X72898236Y-131924928D01*
X72891840Y-131946009D01*
X72881452Y-131965445D01*
X72867476Y-131982476D01*
X72850445Y-131996452D01*
X72831009Y-132006840D01*
X72809928Y-132013236D01*
X72781860Y-132016000D01*
X70968140Y-132016000D01*
X70940072Y-132013236D01*
X70918991Y-132006840D01*
X70899555Y-131996452D01*
X70882524Y-131982476D01*
X70868548Y-131965445D01*
X70858160Y-131946009D01*
X70851764Y-131924928D01*
X70849000Y-131896860D01*
X70849000Y-131433140D01*
X70851764Y-131405072D01*
X70858160Y-131383991D01*
X70868548Y-131364555D01*
X70882524Y-131347524D01*
X70899555Y-131333548D01*
X70918991Y-131323160D01*
X70940072Y-131316764D01*
X70968140Y-131314000D01*
X72781860Y-131314000D01*
X72809928Y-131316764D01*
G37*
G36*
X77759928Y-130046764D02*
G01*
X77781009Y-130053160D01*
X77800445Y-130063548D01*
X77817476Y-130077524D01*
X77831452Y-130094555D01*
X77841840Y-130113991D01*
X77848236Y-130135072D01*
X77851000Y-130163140D01*
X77851000Y-130626860D01*
X77848236Y-130654928D01*
X77841840Y-130676009D01*
X77831452Y-130695445D01*
X77817476Y-130712476D01*
X77800445Y-130726452D01*
X77781009Y-130736840D01*
X77759928Y-130743236D01*
X77731860Y-130746000D01*
X75918140Y-130746000D01*
X75890072Y-130743236D01*
X75868991Y-130736840D01*
X75849555Y-130726452D01*
X75832524Y-130712476D01*
X75818548Y-130695445D01*
X75808160Y-130676009D01*
X75801764Y-130654928D01*
X75799000Y-130626860D01*
X75799000Y-130163140D01*
X75801764Y-130135072D01*
X75808160Y-130113991D01*
X75818548Y-130094555D01*
X75832524Y-130077524D01*
X75849555Y-130063548D01*
X75868991Y-130053160D01*
X75890072Y-130046764D01*
X75918140Y-130044000D01*
X77731860Y-130044000D01*
X77759928Y-130046764D01*
G37*
G36*
X72809928Y-130046764D02*
G01*
X72831009Y-130053160D01*
X72850445Y-130063548D01*
X72867476Y-130077524D01*
X72881452Y-130094555D01*
X72891840Y-130113991D01*
X72898236Y-130135072D01*
X72901000Y-130163140D01*
X72901000Y-130626860D01*
X72898236Y-130654928D01*
X72891840Y-130676009D01*
X72881452Y-130695445D01*
X72867476Y-130712476D01*
X72850445Y-130726452D01*
X72831009Y-130736840D01*
X72809928Y-130743236D01*
X72781860Y-130746000D01*
X70968140Y-130746000D01*
X70940072Y-130743236D01*
X70918991Y-130736840D01*
X70899555Y-130726452D01*
X70882524Y-130712476D01*
X70868548Y-130695445D01*
X70858160Y-130676009D01*
X70851764Y-130654928D01*
X70849000Y-130626860D01*
X70849000Y-130163140D01*
X70851764Y-130135072D01*
X70858160Y-130113991D01*
X70868548Y-130094555D01*
X70882524Y-130077524D01*
X70899555Y-130063548D01*
X70918991Y-130053160D01*
X70940072Y-130046764D01*
X70968140Y-130044000D01*
X72781860Y-130044000D01*
X72809928Y-130046764D01*
G37*
G36*
X75888674Y-126903465D02*
G01*
X75926367Y-126914899D01*
X75961103Y-126933466D01*
X75991548Y-126958452D01*
X76016534Y-126988897D01*
X76035101Y-127023633D01*
X76046535Y-127061326D01*
X76051000Y-127106661D01*
X76051000Y-128193339D01*
X76046535Y-128238674D01*
X76035101Y-128276367D01*
X76016534Y-128311103D01*
X75991548Y-128341548D01*
X75961103Y-128366534D01*
X75926367Y-128385101D01*
X75888674Y-128396535D01*
X75843339Y-128401000D01*
X75006661Y-128401000D01*
X74961326Y-128396535D01*
X74923633Y-128385101D01*
X74888897Y-128366534D01*
X74858452Y-128341548D01*
X74833466Y-128311103D01*
X74814899Y-128276367D01*
X74803465Y-128238674D01*
X74799000Y-128193339D01*
X74799000Y-127106661D01*
X74803465Y-127061326D01*
X74814899Y-127023633D01*
X74833466Y-126988897D01*
X74858452Y-126958452D01*
X74888897Y-126933466D01*
X74923633Y-126914899D01*
X74961326Y-126903465D01*
X75006661Y-126899000D01*
X75843339Y-126899000D01*
X75888674Y-126903465D01*
G37*
G36*
X73838674Y-126903465D02*
G01*
X73876367Y-126914899D01*
X73911103Y-126933466D01*
X73941548Y-126958452D01*
X73966534Y-126988897D01*
X73985101Y-127023633D01*
X73996535Y-127061326D01*
X74001000Y-127106661D01*
X74001000Y-128193339D01*
X73996535Y-128238674D01*
X73985101Y-128276367D01*
X73966534Y-128311103D01*
X73941548Y-128341548D01*
X73911103Y-128366534D01*
X73876367Y-128385101D01*
X73838674Y-128396535D01*
X73793339Y-128401000D01*
X72956661Y-128401000D01*
X72911326Y-128396535D01*
X72873633Y-128385101D01*
X72838897Y-128366534D01*
X72808452Y-128341548D01*
X72783466Y-128311103D01*
X72764899Y-128276367D01*
X72753465Y-128238674D01*
X72749000Y-128193339D01*
X72749000Y-127106661D01*
X72753465Y-127061326D01*
X72764899Y-127023633D01*
X72783466Y-126988897D01*
X72808452Y-126958452D01*
X72838897Y-126933466D01*
X72873633Y-126914899D01*
X72911326Y-126903465D01*
X72956661Y-126899000D01*
X73793339Y-126899000D01*
X73838674Y-126903465D01*
G37*
G36*
X66538674Y-126903465D02*
G01*
X66576367Y-126914899D01*
X66611103Y-126933466D01*
X66641548Y-126958452D01*
X66666534Y-126988897D01*
X66685101Y-127023633D01*
X66696535Y-127061326D01*
X66701000Y-127106661D01*
X66701000Y-128193339D01*
X66696535Y-128238674D01*
X66685101Y-128276367D01*
X66666534Y-128311103D01*
X66641548Y-128341548D01*
X66611103Y-128366534D01*
X66576367Y-128385101D01*
X66538674Y-128396535D01*
X66493339Y-128401000D01*
X65656661Y-128401000D01*
X65611326Y-128396535D01*
X65573633Y-128385101D01*
X65538897Y-128366534D01*
X65508452Y-128341548D01*
X65483466Y-128311103D01*
X65464899Y-128276367D01*
X65453465Y-128238674D01*
X65449000Y-128193339D01*
X65449000Y-127106661D01*
X65453465Y-127061326D01*
X65464899Y-127023633D01*
X65483466Y-126988897D01*
X65508452Y-126958452D01*
X65538897Y-126933466D01*
X65573633Y-126914899D01*
X65611326Y-126903465D01*
X65656661Y-126899000D01*
X66493339Y-126899000D01*
X66538674Y-126903465D01*
G37*
G36*
X68588674Y-126903465D02*
G01*
X68626367Y-126914899D01*
X68661103Y-126933466D01*
X68691548Y-126958452D01*
X68716534Y-126988897D01*
X68735101Y-127023633D01*
X68746535Y-127061326D01*
X68751000Y-127106661D01*
X68751000Y-128193339D01*
X68746535Y-128238674D01*
X68735101Y-128276367D01*
X68716534Y-128311103D01*
X68691548Y-128341548D01*
X68661103Y-128366534D01*
X68626367Y-128385101D01*
X68588674Y-128396535D01*
X68543339Y-128401000D01*
X67706661Y-128401000D01*
X67661326Y-128396535D01*
X67623633Y-128385101D01*
X67588897Y-128366534D01*
X67558452Y-128341548D01*
X67533466Y-128311103D01*
X67514899Y-128276367D01*
X67503465Y-128238674D01*
X67499000Y-128193339D01*
X67499000Y-127106661D01*
X67503465Y-127061326D01*
X67514899Y-127023633D01*
X67533466Y-126988897D01*
X67558452Y-126958452D01*
X67588897Y-126933466D01*
X67623633Y-126914899D01*
X67661326Y-126903465D01*
X67706661Y-126899000D01*
X68543339Y-126899000D01*
X68588674Y-126903465D01*
G37*
G36*
X85634239Y-119811467D02*
G01*
X85948282Y-119873934D01*
X86539926Y-120119001D01*
X87072392Y-120474784D01*
X87525216Y-120927608D01*
X87880999Y-121460074D01*
X88126066Y-122051718D01*
X88182349Y-122334672D01*
X88251000Y-122679803D01*
X88251000Y-123320197D01*
X88188533Y-123634239D01*
X88126066Y-123948282D01*
X87880999Y-124539926D01*
X87525216Y-125072392D01*
X87072392Y-125525216D01*
X86539926Y-125880999D01*
X85948282Y-126126066D01*
X85634239Y-126188533D01*
X85320197Y-126251000D01*
X84679803Y-126251000D01*
X84365761Y-126188533D01*
X84051718Y-126126066D01*
X83460074Y-125880999D01*
X82927608Y-125525216D01*
X82474784Y-125072392D01*
X82119001Y-124539926D01*
X81873934Y-123948282D01*
X81811467Y-123634239D01*
X81749000Y-123320197D01*
X81749000Y-122679803D01*
X81817651Y-122334672D01*
X81873934Y-122051718D01*
X82119001Y-121460074D01*
X82474784Y-120927608D01*
X82927608Y-120474784D01*
X83460074Y-120119001D01*
X84051718Y-119873934D01*
X84365761Y-119811467D01*
X84679803Y-119749000D01*
X85320197Y-119749000D01*
X85634239Y-119811467D01*
G37*
G36*
X65351000Y-123151000D02*
G01*
X62249000Y-123151000D01*
X62249000Y-120049000D01*
X65351000Y-120049000D01*
X65351000Y-123151000D01*
G37*
G36*
X59022585Y-120078802D02*
G01*
X59172410Y-120108604D01*
X59454674Y-120225521D01*
X59708705Y-120395259D01*
X59924741Y-120611295D01*
X60094479Y-120865326D01*
X60211396Y-121147590D01*
X60220591Y-121193818D01*
X60271000Y-121447239D01*
X60271000Y-121752761D01*
X60241198Y-121902585D01*
X60211396Y-122052410D01*
X60094479Y-122334674D01*
X59924741Y-122588705D01*
X59708705Y-122804741D01*
X59454674Y-122974479D01*
X59172410Y-123091396D01*
X59022585Y-123121198D01*
X58872761Y-123151000D01*
X58567239Y-123151000D01*
X58417415Y-123121198D01*
X58267590Y-123091396D01*
X57985326Y-122974479D01*
X57731295Y-122804741D01*
X57515259Y-122588705D01*
X57345521Y-122334674D01*
X57228604Y-122052410D01*
X57198802Y-121902585D01*
X57169000Y-121752761D01*
X57169000Y-121447239D01*
X57219409Y-121193818D01*
X57228604Y-121147590D01*
X57345521Y-120865326D01*
X57515259Y-120611295D01*
X57731295Y-120395259D01*
X57985326Y-120225521D01*
X58267590Y-120108604D01*
X58417415Y-120078802D01*
X58567239Y-120049000D01*
X58872761Y-120049000D01*
X59022585Y-120078802D01*
G37*
G36*
X53951000Y-123151000D02*
G01*
X50849000Y-123151000D01*
X50849000Y-120049000D01*
X53951000Y-120049000D01*
X53951000Y-123151000D01*
G37*
G36*
X47622585Y-120078802D02*
G01*
X47772410Y-120108604D01*
X48054674Y-120225521D01*
X48308705Y-120395259D01*
X48524741Y-120611295D01*
X48694479Y-120865326D01*
X48811396Y-121147590D01*
X48820591Y-121193818D01*
X48871000Y-121447239D01*
X48871000Y-121752761D01*
X48841198Y-121902585D01*
X48811396Y-122052410D01*
X48694479Y-122334674D01*
X48524741Y-122588705D01*
X48308705Y-122804741D01*
X48054674Y-122974479D01*
X47772410Y-123091396D01*
X47622585Y-123121198D01*
X47472761Y-123151000D01*
X47167239Y-123151000D01*
X47017415Y-123121198D01*
X46867590Y-123091396D01*
X46585326Y-122974479D01*
X46331295Y-122804741D01*
X46115259Y-122588705D01*
X45945521Y-122334674D01*
X45828604Y-122052410D01*
X45798802Y-121902585D01*
X45769000Y-121752761D01*
X45769000Y-121447239D01*
X45819409Y-121193818D01*
X45828604Y-121147590D01*
X45945521Y-120865326D01*
X46115259Y-120611295D01*
X46331295Y-120395259D01*
X46585326Y-120225521D01*
X46867590Y-120108604D01*
X47017415Y-120078802D01*
X47167239Y-120049000D01*
X47472761Y-120049000D01*
X47622585Y-120078802D01*
G37*
G36*
X42542585Y-120078802D02*
G01*
X42692410Y-120108604D01*
X42974674Y-120225521D01*
X43228705Y-120395259D01*
X43444741Y-120611295D01*
X43614479Y-120865326D01*
X43731396Y-121147590D01*
X43740591Y-121193818D01*
X43791000Y-121447239D01*
X43791000Y-121752761D01*
X43761198Y-121902585D01*
X43731396Y-122052410D01*
X43614479Y-122334674D01*
X43444741Y-122588705D01*
X43228705Y-122804741D01*
X42974674Y-122974479D01*
X42692410Y-123091396D01*
X42542585Y-123121198D01*
X42392761Y-123151000D01*
X42087239Y-123151000D01*
X41937415Y-123121198D01*
X41787590Y-123091396D01*
X41505326Y-122974479D01*
X41251295Y-122804741D01*
X41035259Y-122588705D01*
X40865521Y-122334674D01*
X40748604Y-122052410D01*
X40718802Y-121902585D01*
X40689000Y-121752761D01*
X40689000Y-121447239D01*
X40739409Y-121193818D01*
X40748604Y-121147590D01*
X40865521Y-120865326D01*
X41035259Y-120611295D01*
X41251295Y-120395259D01*
X41505326Y-120225521D01*
X41787590Y-120108604D01*
X41937415Y-120078802D01*
X42087239Y-120049000D01*
X42392761Y-120049000D01*
X42542585Y-120078802D01*
G37*
G36*
X37462585Y-120078802D02*
G01*
X37612410Y-120108604D01*
X37894674Y-120225521D01*
X38148705Y-120395259D01*
X38364741Y-120611295D01*
X38534479Y-120865326D01*
X38651396Y-121147590D01*
X38660591Y-121193818D01*
X38711000Y-121447239D01*
X38711000Y-121752761D01*
X38681198Y-121902585D01*
X38651396Y-122052410D01*
X38534479Y-122334674D01*
X38364741Y-122588705D01*
X38148705Y-122804741D01*
X37894674Y-122974479D01*
X37612410Y-123091396D01*
X37462585Y-123121198D01*
X37312761Y-123151000D01*
X37007239Y-123151000D01*
X36857415Y-123121198D01*
X36707590Y-123091396D01*
X36425326Y-122974479D01*
X36171295Y-122804741D01*
X35955259Y-122588705D01*
X35785521Y-122334674D01*
X35668604Y-122052410D01*
X35638802Y-121902585D01*
X35609000Y-121752761D01*
X35609000Y-121447239D01*
X35659409Y-121193818D01*
X35668604Y-121147590D01*
X35785521Y-120865326D01*
X35955259Y-120611295D01*
X36171295Y-120395259D01*
X36425326Y-120225521D01*
X36707590Y-120108604D01*
X36857415Y-120078802D01*
X37007239Y-120049000D01*
X37312761Y-120049000D01*
X37462585Y-120078802D01*
G37*
G36*
X32382585Y-120078802D02*
G01*
X32532410Y-120108604D01*
X32814674Y-120225521D01*
X33068705Y-120395259D01*
X33284741Y-120611295D01*
X33454479Y-120865326D01*
X33571396Y-121147590D01*
X33580591Y-121193818D01*
X33631000Y-121447239D01*
X33631000Y-121752761D01*
X33601198Y-121902585D01*
X33571396Y-122052410D01*
X33454479Y-122334674D01*
X33284741Y-122588705D01*
X33068705Y-122804741D01*
X32814674Y-122974479D01*
X32532410Y-123091396D01*
X32382585Y-123121198D01*
X32232761Y-123151000D01*
X31927239Y-123151000D01*
X31777415Y-123121198D01*
X31627590Y-123091396D01*
X31345326Y-122974479D01*
X31091295Y-122804741D01*
X30875259Y-122588705D01*
X30705521Y-122334674D01*
X30588604Y-122052410D01*
X30558802Y-121902585D01*
X30529000Y-121752761D01*
X30529000Y-121447239D01*
X30579409Y-121193818D01*
X30588604Y-121147590D01*
X30705521Y-120865326D01*
X30875259Y-120611295D01*
X31091295Y-120395259D01*
X31345326Y-120225521D01*
X31627590Y-120108604D01*
X31777415Y-120078802D01*
X31927239Y-120049000D01*
X32232761Y-120049000D01*
X32382585Y-120078802D01*
G37*
G36*
X77455997Y-121153051D02*
G01*
X77489652Y-121163261D01*
X77520665Y-121179838D01*
X77547851Y-121202149D01*
X77570162Y-121229335D01*
X77586739Y-121260348D01*
X77596949Y-121294003D01*
X77601000Y-121335138D01*
X77601000Y-122664862D01*
X77596949Y-122705997D01*
X77586739Y-122739652D01*
X77570162Y-122770665D01*
X77547851Y-122797851D01*
X77520665Y-122820162D01*
X77489652Y-122836739D01*
X77455997Y-122846949D01*
X77414862Y-122851000D01*
X74185138Y-122851000D01*
X74144003Y-122846949D01*
X74110348Y-122836739D01*
X74079335Y-122820162D01*
X74052149Y-122797851D01*
X74029838Y-122770665D01*
X74013261Y-122739652D01*
X74003051Y-122705997D01*
X73999000Y-122664862D01*
X73999000Y-121335138D01*
X74003051Y-121294003D01*
X74013261Y-121260348D01*
X74029838Y-121229335D01*
X74052149Y-121202149D01*
X74079335Y-121179838D01*
X74110348Y-121163261D01*
X74144003Y-121153051D01*
X74185138Y-121149000D01*
X77414862Y-121149000D01*
X77455997Y-121153051D01*
G37*
G36*
X71855997Y-121153051D02*
G01*
X71889652Y-121163261D01*
X71920665Y-121179838D01*
X71947851Y-121202149D01*
X71970162Y-121229335D01*
X71986739Y-121260348D01*
X71996949Y-121294003D01*
X72001000Y-121335138D01*
X72001000Y-122664862D01*
X71996949Y-122705997D01*
X71986739Y-122739652D01*
X71970162Y-122770665D01*
X71947851Y-122797851D01*
X71920665Y-122820162D01*
X71889652Y-122836739D01*
X71855997Y-122846949D01*
X71814862Y-122851000D01*
X68585138Y-122851000D01*
X68544003Y-122846949D01*
X68510348Y-122836739D01*
X68479335Y-122820162D01*
X68452149Y-122797851D01*
X68429838Y-122770665D01*
X68413261Y-122739652D01*
X68403051Y-122705997D01*
X68399000Y-122664862D01*
X68399000Y-121335138D01*
X68403051Y-121294003D01*
X68413261Y-121260348D01*
X68429838Y-121229335D01*
X68452149Y-121202149D01*
X68479335Y-121179838D01*
X68510348Y-121163261D01*
X68544003Y-121153051D01*
X68585138Y-121149000D01*
X71814862Y-121149000D01*
X71855997Y-121153051D01*
G37*
M02*
