G04 #@! TF.GenerationSoftware,KiCad,Pcbnew,(5.1.5)-3*
G04 #@! TF.CreationDate,2020-11-24T12:16:53+03:00*
G04 #@! TF.ProjectId,fast-pwm,66617374-2d70-4776-9d2e-6b696361645f,rev?*
G04 #@! TF.SameCoordinates,Original*
G04 #@! TF.FileFunction,Legend,Top*
G04 #@! TF.FilePolarity,Positive*
%FSLAX46Y46*%
G04 Gerber Fmt 4.6, Leading zero omitted, Abs format (unit mm)*
G04 Created by KiCad (PCBNEW (5.1.5)-3) date 2020-11-24 12:16:53*
%MOMM*%
%LPD*%
G04 APERTURE LIST*
%ADD10C,0.150000*%
%ADD11C,0.120000*%
G04 APERTURE END LIST*
D10*
X73116666Y-153733333D02*
X73616666Y-153733333D01*
X73716666Y-153766666D01*
X73783333Y-153833333D01*
X73816666Y-153933333D01*
X73816666Y-154000000D01*
X73816666Y-153066666D02*
X73816666Y-153400000D01*
X73116666Y-153400000D01*
X73750000Y-152433333D02*
X73783333Y-152466666D01*
X73816666Y-152566666D01*
X73816666Y-152633333D01*
X73783333Y-152733333D01*
X73716666Y-152800000D01*
X73650000Y-152833333D01*
X73516666Y-152866666D01*
X73416666Y-152866666D01*
X73283333Y-152833333D01*
X73216666Y-152800000D01*
X73150000Y-152733333D01*
X73116666Y-152633333D01*
X73116666Y-152566666D01*
X73150000Y-152466666D01*
X73183333Y-152433333D01*
X73116666Y-151933333D02*
X73616666Y-151933333D01*
X73716666Y-151966666D01*
X73783333Y-152033333D01*
X73816666Y-152133333D01*
X73816666Y-152200000D01*
X73816666Y-151266666D02*
X73816666Y-151600000D01*
X73116666Y-151600000D01*
X73750000Y-150633333D02*
X73783333Y-150666666D01*
X73816666Y-150766666D01*
X73816666Y-150833333D01*
X73783333Y-150933333D01*
X73716666Y-151000000D01*
X73650000Y-151033333D01*
X73516666Y-151066666D01*
X73416666Y-151066666D01*
X73283333Y-151033333D01*
X73216666Y-151000000D01*
X73150000Y-150933333D01*
X73116666Y-150833333D01*
X73116666Y-150766666D01*
X73150000Y-150666666D01*
X73183333Y-150633333D01*
X73116666Y-150133333D02*
X73616666Y-150133333D01*
X73716666Y-150166666D01*
X73783333Y-150233333D01*
X73816666Y-150333333D01*
X73816666Y-150400000D01*
X73816666Y-149466666D02*
X73816666Y-149800000D01*
X73116666Y-149800000D01*
X73750000Y-148833333D02*
X73783333Y-148866666D01*
X73816666Y-148966666D01*
X73816666Y-149033333D01*
X73783333Y-149133333D01*
X73716666Y-149200000D01*
X73650000Y-149233333D01*
X73516666Y-149266666D01*
X73416666Y-149266666D01*
X73283333Y-149233333D01*
X73216666Y-149200000D01*
X73150000Y-149133333D01*
X73116666Y-149033333D01*
X73116666Y-148966666D01*
X73150000Y-148866666D01*
X73183333Y-148833333D01*
X73116666Y-148333333D02*
X73616666Y-148333333D01*
X73716666Y-148366666D01*
X73783333Y-148433333D01*
X73816666Y-148533333D01*
X73816666Y-148600000D01*
X73816666Y-147666666D02*
X73816666Y-148000000D01*
X73116666Y-148000000D01*
X73750000Y-147033333D02*
X73783333Y-147066666D01*
X73816666Y-147166666D01*
X73816666Y-147233333D01*
X73783333Y-147333333D01*
X73716666Y-147400000D01*
X73650000Y-147433333D01*
X73516666Y-147466666D01*
X73416666Y-147466666D01*
X73283333Y-147433333D01*
X73216666Y-147400000D01*
X73150000Y-147333333D01*
X73116666Y-147233333D01*
X73116666Y-147166666D01*
X73150000Y-147066666D01*
X73183333Y-147033333D01*
X39821428Y-151678571D02*
X39821428Y-150178571D01*
X40392857Y-150178571D01*
X40535714Y-150250000D01*
X40607142Y-150321428D01*
X40678571Y-150464285D01*
X40678571Y-150678571D01*
X40607142Y-150821428D01*
X40535714Y-150892857D01*
X40392857Y-150964285D01*
X39821428Y-150964285D01*
X41178571Y-150178571D02*
X41535714Y-151678571D01*
X41821428Y-150607142D01*
X42107142Y-151678571D01*
X42464285Y-150178571D01*
X43035714Y-151678571D02*
X43035714Y-150178571D01*
X43535714Y-151250000D01*
X44035714Y-150178571D01*
X44035714Y-151678571D01*
X44750000Y-151678571D02*
X44750000Y-150178571D01*
X44750000Y-150750000D02*
X44892857Y-150678571D01*
X45178571Y-150678571D01*
X45321428Y-150750000D01*
X45392857Y-150821428D01*
X45464285Y-150964285D01*
X45464285Y-151392857D01*
X45392857Y-151535714D01*
X45321428Y-151607142D01*
X45178571Y-151678571D01*
X44892857Y-151678571D01*
X44750000Y-151607142D01*
X46321428Y-151678571D02*
X46178571Y-151607142D01*
X46107142Y-151535714D01*
X46035714Y-151392857D01*
X46035714Y-150964285D01*
X46107142Y-150821428D01*
X46178571Y-150750000D01*
X46321428Y-150678571D01*
X46535714Y-150678571D01*
X46678571Y-150750000D01*
X46750000Y-150821428D01*
X46821428Y-150964285D01*
X46821428Y-151392857D01*
X46750000Y-151535714D01*
X46678571Y-151607142D01*
X46535714Y-151678571D01*
X46321428Y-151678571D01*
X48107142Y-151678571D02*
X48107142Y-150892857D01*
X48035714Y-150750000D01*
X47892857Y-150678571D01*
X47607142Y-150678571D01*
X47464285Y-150750000D01*
X48107142Y-151607142D02*
X47964285Y-151678571D01*
X47607142Y-151678571D01*
X47464285Y-151607142D01*
X47392857Y-151464285D01*
X47392857Y-151321428D01*
X47464285Y-151178571D01*
X47607142Y-151107142D01*
X47964285Y-151107142D01*
X48107142Y-151035714D01*
X48821428Y-151678571D02*
X48821428Y-150678571D01*
X48821428Y-150964285D02*
X48892857Y-150821428D01*
X48964285Y-150750000D01*
X49107142Y-150678571D01*
X49250000Y-150678571D01*
X50392857Y-151678571D02*
X50392857Y-150178571D01*
X50392857Y-151607142D02*
X50250000Y-151678571D01*
X49964285Y-151678571D01*
X49821428Y-151607142D01*
X49750000Y-151535714D01*
X49678571Y-151392857D01*
X49678571Y-150964285D01*
X49750000Y-150821428D01*
X49821428Y-150750000D01*
X49964285Y-150678571D01*
X50250000Y-150678571D01*
X50392857Y-150750000D01*
X52250000Y-151678571D02*
X52250000Y-150678571D01*
X52250000Y-150964285D02*
X52321428Y-150821428D01*
X52392857Y-150750000D01*
X52535714Y-150678571D01*
X52678571Y-150678571D01*
X53750000Y-151607142D02*
X53607142Y-151678571D01*
X53321428Y-151678571D01*
X53178571Y-151607142D01*
X53107142Y-151464285D01*
X53107142Y-150892857D01*
X53178571Y-150750000D01*
X53321428Y-150678571D01*
X53607142Y-150678571D01*
X53750000Y-150750000D01*
X53821428Y-150892857D01*
X53821428Y-151035714D01*
X53107142Y-151178571D01*
X54321428Y-150678571D02*
X54678571Y-151678571D01*
X55035714Y-150678571D01*
X55607142Y-151535714D02*
X55678571Y-151607142D01*
X55607142Y-151678571D01*
X55535714Y-151607142D01*
X55607142Y-151535714D01*
X55607142Y-151678571D01*
X58250000Y-151678571D02*
X57392857Y-151678571D01*
X57821428Y-151678571D02*
X57821428Y-150178571D01*
X57678571Y-150392857D01*
X57535714Y-150535714D01*
X57392857Y-150607142D01*
D11*
X79250000Y-161000000D02*
X79250000Y-159000000D01*
X82250000Y-161000000D02*
X77250000Y-161000000D01*
X82250000Y-159000000D02*
X82250000Y-161000000D01*
X77250000Y-159000000D02*
X82250000Y-159000000D01*
X77250000Y-161000000D02*
X77250000Y-159000000D01*
D10*
X77726190Y-160452380D02*
X77726190Y-159452380D01*
X78392857Y-159452380D02*
X78583333Y-159452380D01*
X78678571Y-159500000D01*
X78773809Y-159595238D01*
X78821428Y-159785714D01*
X78821428Y-160119047D01*
X78773809Y-160309523D01*
X78678571Y-160404761D01*
X78583333Y-160452380D01*
X78392857Y-160452380D01*
X78297619Y-160404761D01*
X78202380Y-160309523D01*
X78154761Y-160119047D01*
X78154761Y-159785714D01*
X78202380Y-159595238D01*
X78297619Y-159500000D01*
X78392857Y-159452380D01*
X80154761Y-160357142D02*
X80107142Y-160404761D01*
X79964285Y-160452380D01*
X79869047Y-160452380D01*
X79726190Y-160404761D01*
X79630952Y-160309523D01*
X79583333Y-160214285D01*
X79535714Y-160023809D01*
X79535714Y-159880952D01*
X79583333Y-159690476D01*
X79630952Y-159595238D01*
X79726190Y-159500000D01*
X79869047Y-159452380D01*
X79964285Y-159452380D01*
X80107142Y-159500000D01*
X80154761Y-159547619D01*
X81059523Y-160452380D02*
X80583333Y-160452380D01*
X80583333Y-159452380D01*
X81392857Y-160452380D02*
X81392857Y-159452380D01*
X81964285Y-160452380D02*
X81535714Y-159880952D01*
X81964285Y-159452380D02*
X81392857Y-160023809D01*
X59511904Y-126750000D02*
X59607142Y-126797619D01*
X59750000Y-126797619D01*
X59892857Y-126750000D01*
X59988095Y-126654761D01*
X60035714Y-126559523D01*
X60083333Y-126369047D01*
X60083333Y-126226190D01*
X60035714Y-126035714D01*
X59988095Y-125940476D01*
X59892857Y-125845238D01*
X59750000Y-125797619D01*
X59654761Y-125797619D01*
X59511904Y-125845238D01*
X59464285Y-125892857D01*
X59464285Y-126226190D01*
X59654761Y-126226190D01*
X59035714Y-125797619D02*
X59035714Y-126797619D01*
X58464285Y-125797619D01*
X58464285Y-126797619D01*
X57988095Y-125797619D02*
X57988095Y-126797619D01*
X57750000Y-126797619D01*
X57607142Y-126750000D01*
X57511904Y-126654761D01*
X57464285Y-126559523D01*
X57416666Y-126369047D01*
X57416666Y-126226190D01*
X57464285Y-126035714D01*
X57511904Y-125940476D01*
X57607142Y-125845238D01*
X57750000Y-125797619D01*
X57988095Y-125797619D01*
X63952380Y-126797619D02*
X63619047Y-125797619D01*
X63285714Y-126797619D01*
X62952380Y-126178571D02*
X62190476Y-126178571D01*
X62571428Y-125797619D02*
X62571428Y-126559523D01*
X53452380Y-126797619D02*
X53119047Y-125797619D01*
X52785714Y-126797619D01*
X52452380Y-126178571D02*
X51690476Y-126178571D01*
X52071428Y-125797619D02*
X52071428Y-126559523D01*
X47940476Y-125892857D02*
X47988095Y-125845238D01*
X48130952Y-125797619D01*
X48226190Y-125797619D01*
X48369047Y-125845238D01*
X48464285Y-125940476D01*
X48511904Y-126035714D01*
X48559523Y-126226190D01*
X48559523Y-126369047D01*
X48511904Y-126559523D01*
X48464285Y-126654761D01*
X48369047Y-126750000D01*
X48226190Y-126797619D01*
X48130952Y-126797619D01*
X47988095Y-126750000D01*
X47940476Y-126702380D01*
X47511904Y-125797619D02*
X47511904Y-126797619D01*
X47511904Y-126321428D02*
X46940476Y-126321428D01*
X46940476Y-125797619D02*
X46940476Y-126797619D01*
X45940476Y-125797619D02*
X46511904Y-125797619D01*
X46226190Y-125797619D02*
X46226190Y-126797619D01*
X46321428Y-126654761D01*
X46416666Y-126559523D01*
X46511904Y-126511904D01*
X42940476Y-125892857D02*
X42988095Y-125845238D01*
X43130952Y-125797619D01*
X43226190Y-125797619D01*
X43369047Y-125845238D01*
X43464285Y-125940476D01*
X43511904Y-126035714D01*
X43559523Y-126226190D01*
X43559523Y-126369047D01*
X43511904Y-126559523D01*
X43464285Y-126654761D01*
X43369047Y-126750000D01*
X43226190Y-126797619D01*
X43130952Y-126797619D01*
X42988095Y-126750000D01*
X42940476Y-126702380D01*
X42511904Y-125797619D02*
X42511904Y-126797619D01*
X42511904Y-126321428D02*
X41940476Y-126321428D01*
X41940476Y-125797619D02*
X41940476Y-126797619D01*
X41511904Y-126702380D02*
X41464285Y-126750000D01*
X41369047Y-126797619D01*
X41130952Y-126797619D01*
X41035714Y-126750000D01*
X40988095Y-126702380D01*
X40940476Y-126607142D01*
X40940476Y-126511904D01*
X40988095Y-126369047D01*
X41559523Y-125797619D01*
X40940476Y-125797619D01*
X37940476Y-125892857D02*
X37988095Y-125845238D01*
X38130952Y-125797619D01*
X38226190Y-125797619D01*
X38369047Y-125845238D01*
X38464285Y-125940476D01*
X38511904Y-126035714D01*
X38559523Y-126226190D01*
X38559523Y-126369047D01*
X38511904Y-126559523D01*
X38464285Y-126654761D01*
X38369047Y-126750000D01*
X38226190Y-126797619D01*
X38130952Y-126797619D01*
X37988095Y-126750000D01*
X37940476Y-126702380D01*
X37511904Y-125797619D02*
X37511904Y-126797619D01*
X37511904Y-126321428D02*
X36940476Y-126321428D01*
X36940476Y-125797619D02*
X36940476Y-126797619D01*
X36559523Y-126797619D02*
X35940476Y-126797619D01*
X36273809Y-126416666D01*
X36130952Y-126416666D01*
X36035714Y-126369047D01*
X35988095Y-126321428D01*
X35940476Y-126226190D01*
X35940476Y-125988095D01*
X35988095Y-125892857D01*
X36035714Y-125845238D01*
X36130952Y-125797619D01*
X36416666Y-125797619D01*
X36511904Y-125845238D01*
X36559523Y-125892857D01*
X32940476Y-125892857D02*
X32988095Y-125845238D01*
X33130952Y-125797619D01*
X33226190Y-125797619D01*
X33369047Y-125845238D01*
X33464285Y-125940476D01*
X33511904Y-126035714D01*
X33559523Y-126226190D01*
X33559523Y-126369047D01*
X33511904Y-126559523D01*
X33464285Y-126654761D01*
X33369047Y-126750000D01*
X33226190Y-126797619D01*
X33130952Y-126797619D01*
X32988095Y-126750000D01*
X32940476Y-126702380D01*
X32511904Y-125797619D02*
X32511904Y-126797619D01*
X32511904Y-126321428D02*
X31940476Y-126321428D01*
X31940476Y-125797619D02*
X31940476Y-126797619D01*
X31035714Y-126464285D02*
X31035714Y-125797619D01*
X31273809Y-126845238D02*
X31511904Y-126130952D01*
X30892857Y-126130952D01*
D11*
X45030000Y-134720000D02*
X45030000Y-135820000D01*
X45300000Y-134720000D02*
X45030000Y-134720000D01*
X45300000Y-133220000D02*
X45300000Y-134720000D01*
X38670000Y-134720000D02*
X38670000Y-137550000D01*
X38400000Y-134720000D02*
X38670000Y-134720000D01*
X38400000Y-133220000D02*
X38400000Y-134720000D01*
X36030000Y-134720000D02*
X36030000Y-135820000D01*
X36300000Y-134720000D02*
X36030000Y-134720000D01*
X36300000Y-133220000D02*
X36300000Y-134720000D01*
X29670000Y-134720000D02*
X29670000Y-137550000D01*
X29400000Y-134720000D02*
X29670000Y-134720000D01*
X29400000Y-133220000D02*
X29400000Y-134720000D01*
X71170000Y-160830000D02*
X71170000Y-159500000D01*
X72500000Y-160830000D02*
X71170000Y-160830000D01*
X73770000Y-160830000D02*
X73770000Y-158170000D01*
X73770000Y-158170000D02*
X76370000Y-158170000D01*
X73770000Y-160830000D02*
X76370000Y-160830000D01*
X76370000Y-160830000D02*
X76370000Y-158170000D01*
X62690000Y-161160000D02*
X55310000Y-161160000D01*
X53640000Y-155140000D02*
X56090000Y-155140000D01*
X53640000Y-157890000D02*
X53640000Y-155140000D01*
X61910000Y-155140000D02*
X61910000Y-153550000D01*
X64360000Y-155140000D02*
X61910000Y-155140000D01*
X64360000Y-157890000D02*
X64360000Y-155140000D01*
X90160000Y-151810000D02*
X90160000Y-159190000D01*
X84140000Y-160860000D02*
X84140000Y-158410000D01*
X86890000Y-160860000D02*
X84140000Y-160860000D01*
X84140000Y-152590000D02*
X82550000Y-152590000D01*
X84140000Y-150140000D02*
X84140000Y-152590000D01*
X86890000Y-150140000D02*
X84140000Y-150140000D01*
X49690000Y-161160000D02*
X42310000Y-161160000D01*
X40640000Y-155140000D02*
X43090000Y-155140000D01*
X40640000Y-157890000D02*
X40640000Y-155140000D01*
X48910000Y-155140000D02*
X48910000Y-153550000D01*
X51360000Y-155140000D02*
X48910000Y-155140000D01*
X51360000Y-157890000D02*
X51360000Y-155140000D01*
X80856250Y-143158750D02*
X80856250Y-143946250D01*
X80462500Y-143552500D02*
X81250000Y-143552500D01*
X81490000Y-147745563D02*
X82554437Y-148810000D01*
X81490000Y-143054437D02*
X82554437Y-141990000D01*
X81490000Y-143054437D02*
X81490000Y-144340000D01*
X81490000Y-147745563D02*
X81490000Y-146460000D01*
X82554437Y-148810000D02*
X88310000Y-148810000D01*
X82554437Y-141990000D02*
X88310000Y-141990000D01*
X88310000Y-141990000D02*
X88310000Y-144340000D01*
X88310000Y-148810000D02*
X88310000Y-146460000D01*
X68956250Y-119758750D02*
X68956250Y-120546250D01*
X68562500Y-120152500D02*
X69350000Y-120152500D01*
X69590000Y-124345563D02*
X70654437Y-125410000D01*
X69590000Y-119654437D02*
X70654437Y-118590000D01*
X69590000Y-119654437D02*
X69590000Y-120940000D01*
X69590000Y-124345563D02*
X69590000Y-123060000D01*
X70654437Y-125410000D02*
X76410000Y-125410000D01*
X70654437Y-118590000D02*
X76410000Y-118590000D01*
X76410000Y-118590000D02*
X76410000Y-120940000D01*
X76410000Y-125410000D02*
X76410000Y-123060000D01*
X54940000Y-125410000D02*
X54940000Y-117790000D01*
X29540000Y-125410000D02*
X29540000Y-117790000D01*
X54940000Y-125410000D02*
X29540000Y-125410000D01*
X54940000Y-119060000D02*
X29540000Y-119060000D01*
X54940000Y-117790000D02*
X29540000Y-117790000D01*
X66340000Y-117790000D02*
X56180000Y-117790000D01*
X66340000Y-125410000D02*
X66340000Y-117790000D01*
X56180000Y-125410000D02*
X66340000Y-125410000D01*
X56180000Y-117790000D02*
X56180000Y-125410000D01*
X56180000Y-119060000D02*
X66340000Y-119060000D01*
X78245449Y-149907638D02*
X79175294Y-148977793D01*
X78457581Y-150119770D02*
X78245449Y-149907638D01*
X78245449Y-150331902D02*
X78457581Y-150119770D01*
X73352270Y-155225081D02*
X73140138Y-155012949D01*
X73564402Y-155012949D02*
X73352270Y-155225081D01*
X73352270Y-145014459D02*
X73564402Y-145226591D01*
X73140138Y-145226591D02*
X73352270Y-145014459D01*
X68246959Y-150119770D02*
X68459091Y-150331902D01*
X68459091Y-149907638D02*
X68246959Y-150119770D01*
X67738748Y-159960000D02*
X68261252Y-159960000D01*
X67738748Y-158540000D02*
X68261252Y-158540000D01*
X67738748Y-156710000D02*
X68261252Y-156710000D01*
X67738748Y-155290000D02*
X68261252Y-155290000D01*
X63030000Y-141090000D02*
X63030000Y-142550000D01*
X59870000Y-141090000D02*
X59870000Y-144250000D01*
X59870000Y-141090000D02*
X60800000Y-141090000D01*
X63030000Y-141090000D02*
X62100000Y-141090000D01*
X54080000Y-141090000D02*
X54080000Y-142550000D01*
X50920000Y-141090000D02*
X50920000Y-144250000D01*
X50920000Y-141090000D02*
X51850000Y-141090000D01*
X54080000Y-141090000D02*
X53150000Y-141090000D01*
X44780000Y-141090000D02*
X44780000Y-142550000D01*
X41620000Y-141090000D02*
X41620000Y-144250000D01*
X41620000Y-141090000D02*
X42550000Y-141090000D01*
X44780000Y-141090000D02*
X43850000Y-141090000D01*
X35830000Y-141090000D02*
X35830000Y-142550000D01*
X32670000Y-141090000D02*
X32670000Y-144250000D01*
X32670000Y-141090000D02*
X33600000Y-141090000D01*
X35830000Y-141090000D02*
X34900000Y-141090000D01*
X78000000Y-140550000D02*
X70450000Y-140550000D01*
X78000000Y-136250000D02*
X70450000Y-136250000D01*
X78000000Y-140550000D02*
X78000000Y-136250000D01*
X74350000Y-134860000D02*
X77800000Y-134860000D01*
X74350000Y-134860000D02*
X72400000Y-134860000D01*
X74350000Y-129740000D02*
X76300000Y-129740000D01*
X74350000Y-129740000D02*
X72400000Y-129740000D01*
X74661252Y-126940000D02*
X74138748Y-126940000D01*
X74661252Y-128360000D02*
X74138748Y-128360000D01*
X68710000Y-133211252D02*
X68710000Y-132688748D01*
X67290000Y-133211252D02*
X67290000Y-132688748D01*
X56790000Y-140738748D02*
X56790000Y-141261252D01*
X58210000Y-140738748D02*
X58210000Y-141261252D01*
X47840000Y-140738748D02*
X47840000Y-141261252D01*
X49260000Y-140738748D02*
X49260000Y-141261252D01*
X38840000Y-140738748D02*
X38840000Y-141261252D01*
X40260000Y-140738748D02*
X40260000Y-141261252D01*
X29840000Y-140738748D02*
X29840000Y-141261252D01*
X31260000Y-140738748D02*
X31260000Y-141261252D01*
X62238748Y-146810000D02*
X62761252Y-146810000D01*
X62238748Y-145390000D02*
X62761252Y-145390000D01*
X53238748Y-146760000D02*
X53761252Y-146760000D01*
X53238748Y-145340000D02*
X53761252Y-145340000D01*
X43738748Y-146760000D02*
X44261252Y-146760000D01*
X43738748Y-145340000D02*
X44261252Y-145340000D01*
X34738748Y-146810000D02*
X35261252Y-146810000D01*
X34738748Y-145390000D02*
X35261252Y-145390000D01*
X63030000Y-134720000D02*
X63030000Y-135820000D01*
X63300000Y-134720000D02*
X63030000Y-134720000D01*
X63300000Y-133220000D02*
X63300000Y-134720000D01*
X56670000Y-134720000D02*
X56670000Y-137550000D01*
X56400000Y-134720000D02*
X56670000Y-134720000D01*
X56400000Y-133220000D02*
X56400000Y-134720000D01*
X54030000Y-134720000D02*
X54030000Y-135820000D01*
X54300000Y-134720000D02*
X54030000Y-134720000D01*
X54300000Y-133220000D02*
X54300000Y-134720000D01*
X47670000Y-134720000D02*
X47670000Y-137550000D01*
X47400000Y-134720000D02*
X47670000Y-134720000D01*
X47400000Y-133220000D02*
X47400000Y-134720000D01*
X90150000Y-129950000D02*
X90150000Y-133150000D01*
X79550000Y-129950000D02*
X90150000Y-129950000D01*
X79550000Y-133150000D02*
X79550000Y-129950000D01*
X79550000Y-140550000D02*
X79550000Y-137350000D01*
X90150000Y-140550000D02*
X79550000Y-140550000D01*
X90150000Y-137350000D02*
X90150000Y-140550000D01*
X67361252Y-126940000D02*
X66838748Y-126940000D01*
X67361252Y-128360000D02*
X66838748Y-128360000D01*
D10*
X37897619Y-132821428D02*
X37850000Y-132916666D01*
X37754761Y-133011904D01*
X37611904Y-133154761D01*
X37564285Y-133250000D01*
X37564285Y-133345238D01*
X37802380Y-133297619D02*
X37754761Y-133392857D01*
X37659523Y-133488095D01*
X37469047Y-133535714D01*
X37135714Y-133535714D01*
X36945238Y-133488095D01*
X36850000Y-133392857D01*
X36802380Y-133297619D01*
X36802380Y-133107142D01*
X36850000Y-133011904D01*
X36945238Y-132916666D01*
X37135714Y-132869047D01*
X37469047Y-132869047D01*
X37659523Y-132916666D01*
X37754761Y-133011904D01*
X37802380Y-133107142D01*
X37802380Y-133297619D01*
X37802380Y-131916666D02*
X37802380Y-132488095D01*
X37802380Y-132202380D02*
X36802380Y-132202380D01*
X36945238Y-132297619D01*
X37040476Y-132392857D01*
X37088095Y-132488095D01*
X36802380Y-131297619D02*
X36802380Y-131202380D01*
X36850000Y-131107142D01*
X36897619Y-131059523D01*
X36992857Y-131011904D01*
X37183333Y-130964285D01*
X37421428Y-130964285D01*
X37611904Y-131011904D01*
X37707142Y-131059523D01*
X37754761Y-131107142D01*
X37802380Y-131202380D01*
X37802380Y-131297619D01*
X37754761Y-131392857D01*
X37707142Y-131440476D01*
X37611904Y-131488095D01*
X37421428Y-131535714D01*
X37183333Y-131535714D01*
X36992857Y-131488095D01*
X36897619Y-131440476D01*
X36850000Y-131392857D01*
X36802380Y-131297619D01*
X28897619Y-132345238D02*
X28850000Y-132440476D01*
X28754761Y-132535714D01*
X28611904Y-132678571D01*
X28564285Y-132773809D01*
X28564285Y-132869047D01*
X28802380Y-132821428D02*
X28754761Y-132916666D01*
X28659523Y-133011904D01*
X28469047Y-133059523D01*
X28135714Y-133059523D01*
X27945238Y-133011904D01*
X27850000Y-132916666D01*
X27802380Y-132821428D01*
X27802380Y-132630952D01*
X27850000Y-132535714D01*
X27945238Y-132440476D01*
X28135714Y-132392857D01*
X28469047Y-132392857D01*
X28659523Y-132440476D01*
X28754761Y-132535714D01*
X28802380Y-132630952D01*
X28802380Y-132821428D01*
X28802380Y-131916666D02*
X28802380Y-131726190D01*
X28754761Y-131630952D01*
X28707142Y-131583333D01*
X28564285Y-131488095D01*
X28373809Y-131440476D01*
X27992857Y-131440476D01*
X27897619Y-131488095D01*
X27850000Y-131535714D01*
X27802380Y-131630952D01*
X27802380Y-131821428D01*
X27850000Y-131916666D01*
X27897619Y-131964285D01*
X27992857Y-132011904D01*
X28230952Y-132011904D01*
X28326190Y-131964285D01*
X28373809Y-131916666D01*
X28421428Y-131821428D01*
X28421428Y-131630952D01*
X28373809Y-131535714D01*
X28326190Y-131488095D01*
X28230952Y-131440476D01*
X74392857Y-157404761D02*
X74535714Y-157452380D01*
X74773809Y-157452380D01*
X74869047Y-157404761D01*
X74916666Y-157357142D01*
X74964285Y-157261904D01*
X74964285Y-157166666D01*
X74916666Y-157071428D01*
X74869047Y-157023809D01*
X74773809Y-156976190D01*
X74583333Y-156928571D01*
X74488095Y-156880952D01*
X74440476Y-156833333D01*
X74392857Y-156738095D01*
X74392857Y-156642857D01*
X74440476Y-156547619D01*
X74488095Y-156500000D01*
X74583333Y-156452380D01*
X74821428Y-156452380D01*
X74964285Y-156500000D01*
X75297619Y-156452380D02*
X75535714Y-157452380D01*
X75726190Y-156738095D01*
X75916666Y-157452380D01*
X76154761Y-156452380D01*
X76535714Y-157452380D02*
X76535714Y-156452380D01*
X76773809Y-156452380D01*
X76916666Y-156500000D01*
X77011904Y-156595238D01*
X77059523Y-156690476D01*
X77107142Y-156880952D01*
X77107142Y-157023809D01*
X77059523Y-157214285D01*
X77011904Y-157309523D01*
X76916666Y-157404761D01*
X76773809Y-157452380D01*
X76535714Y-157452380D01*
X63119047Y-153961904D02*
X63119047Y-153161904D01*
X63461904Y-153238095D02*
X63500000Y-153200000D01*
X63576190Y-153161904D01*
X63766666Y-153161904D01*
X63842857Y-153200000D01*
X63880952Y-153238095D01*
X63919047Y-153314285D01*
X63919047Y-153390476D01*
X63880952Y-153504761D01*
X63423809Y-153961904D01*
X63919047Y-153961904D01*
X64719047Y-153885714D02*
X64680952Y-153923809D01*
X64566666Y-153961904D01*
X64490476Y-153961904D01*
X64376190Y-153923809D01*
X64300000Y-153847619D01*
X64261904Y-153771428D01*
X64223809Y-153619047D01*
X64223809Y-153504761D01*
X64261904Y-153352380D01*
X64300000Y-153276190D01*
X64376190Y-153200000D01*
X64490476Y-153161904D01*
X64566666Y-153161904D01*
X64680952Y-153200000D01*
X64719047Y-153238095D01*
X82061904Y-151976190D02*
X82709523Y-151976190D01*
X82785714Y-151938095D01*
X82823809Y-151900000D01*
X82861904Y-151823809D01*
X82861904Y-151671428D01*
X82823809Y-151595238D01*
X82785714Y-151557142D01*
X82709523Y-151519047D01*
X82061904Y-151519047D01*
X82633333Y-151176190D02*
X82633333Y-150795238D01*
X82861904Y-151252380D02*
X82061904Y-150985714D01*
X82861904Y-150719047D01*
X82861904Y-149995238D02*
X82480952Y-150261904D01*
X82861904Y-150452380D02*
X82061904Y-150452380D01*
X82061904Y-150147619D01*
X82100000Y-150071428D01*
X82138095Y-150033333D01*
X82214285Y-149995238D01*
X82328571Y-149995238D01*
X82404761Y-150033333D01*
X82442857Y-150071428D01*
X82480952Y-150147619D01*
X82480952Y-150452380D01*
X82061904Y-149766666D02*
X82061904Y-149309523D01*
X82861904Y-149538095D02*
X82061904Y-149538095D01*
X50028571Y-153542857D02*
X50295238Y-153542857D01*
X50409523Y-153961904D02*
X50028571Y-153961904D01*
X50028571Y-153161904D01*
X50409523Y-153161904D01*
X50752380Y-153961904D02*
X50752380Y-153161904D01*
X51209523Y-153961904D01*
X51209523Y-153161904D01*
X52047619Y-153885714D02*
X52009523Y-153923809D01*
X51895238Y-153961904D01*
X51819047Y-153961904D01*
X51704761Y-153923809D01*
X51628571Y-153847619D01*
X51590476Y-153771428D01*
X51552380Y-153619047D01*
X51552380Y-153504761D01*
X51590476Y-153352380D01*
X51628571Y-153276190D01*
X51704761Y-153200000D01*
X51819047Y-153161904D01*
X51895238Y-153161904D01*
X52009523Y-153200000D01*
X52047619Y-153238095D01*
X52809523Y-153961904D02*
X52352380Y-153961904D01*
X52580952Y-153961904D02*
X52580952Y-153161904D01*
X52504761Y-153276190D01*
X52428571Y-153352380D01*
X52352380Y-153390476D01*
X89583333Y-142857142D02*
X89535714Y-142904761D01*
X89392857Y-142952380D01*
X89297619Y-142952380D01*
X89154761Y-142904761D01*
X89059523Y-142809523D01*
X89011904Y-142714285D01*
X88964285Y-142523809D01*
X88964285Y-142380952D01*
X89011904Y-142190476D01*
X89059523Y-142095238D01*
X89154761Y-142000000D01*
X89297619Y-141952380D01*
X89392857Y-141952380D01*
X89535714Y-142000000D01*
X89583333Y-142047619D01*
X90154761Y-142380952D02*
X90059523Y-142333333D01*
X90011904Y-142285714D01*
X89964285Y-142190476D01*
X89964285Y-142142857D01*
X90011904Y-142047619D01*
X90059523Y-142000000D01*
X90154761Y-141952380D01*
X90345238Y-141952380D01*
X90440476Y-142000000D01*
X90488095Y-142047619D01*
X90535714Y-142142857D01*
X90535714Y-142190476D01*
X90488095Y-142285714D01*
X90440476Y-142333333D01*
X90345238Y-142380952D01*
X90154761Y-142380952D01*
X90059523Y-142428571D01*
X90011904Y-142476190D01*
X89964285Y-142571428D01*
X89964285Y-142761904D01*
X90011904Y-142857142D01*
X90059523Y-142904761D01*
X90154761Y-142952380D01*
X90345238Y-142952380D01*
X90440476Y-142904761D01*
X90488095Y-142857142D01*
X90535714Y-142761904D01*
X90535714Y-142571428D01*
X90488095Y-142476190D01*
X90440476Y-142428571D01*
X90345238Y-142380952D01*
X77642857Y-118833333D02*
X77595238Y-118785714D01*
X77547619Y-118642857D01*
X77547619Y-118547619D01*
X77595238Y-118404761D01*
X77690476Y-118309523D01*
X77785714Y-118261904D01*
X77976190Y-118214285D01*
X78119047Y-118214285D01*
X78309523Y-118261904D01*
X78404761Y-118309523D01*
X78500000Y-118404761D01*
X78547619Y-118547619D01*
X78547619Y-118642857D01*
X78500000Y-118785714D01*
X78452380Y-118833333D01*
X78547619Y-119738095D02*
X78547619Y-119261904D01*
X78071428Y-119214285D01*
X78119047Y-119261904D01*
X78166666Y-119357142D01*
X78166666Y-119595238D01*
X78119047Y-119690476D01*
X78071428Y-119738095D01*
X77976190Y-119785714D01*
X77738095Y-119785714D01*
X77642857Y-119738095D01*
X77595238Y-119690476D01*
X77547619Y-119595238D01*
X77547619Y-119357142D01*
X77595238Y-119261904D01*
X77642857Y-119214285D01*
X27916666Y-124952380D02*
X27916666Y-125666666D01*
X27869047Y-125809523D01*
X27773809Y-125904761D01*
X27630952Y-125952380D01*
X27535714Y-125952380D01*
X28297619Y-124952380D02*
X28916666Y-124952380D01*
X28583333Y-125333333D01*
X28726190Y-125333333D01*
X28821428Y-125380952D01*
X28869047Y-125428571D01*
X28916666Y-125523809D01*
X28916666Y-125761904D01*
X28869047Y-125857142D01*
X28821428Y-125904761D01*
X28726190Y-125952380D01*
X28440476Y-125952380D01*
X28345238Y-125904761D01*
X28297619Y-125857142D01*
X67416666Y-118202380D02*
X67416666Y-118916666D01*
X67369047Y-119059523D01*
X67273809Y-119154761D01*
X67130952Y-119202380D01*
X67035714Y-119202380D01*
X67845238Y-118297619D02*
X67892857Y-118250000D01*
X67988095Y-118202380D01*
X68226190Y-118202380D01*
X68321428Y-118250000D01*
X68369047Y-118297619D01*
X68416666Y-118392857D01*
X68416666Y-118488095D01*
X68369047Y-118630952D01*
X67797619Y-119202380D01*
X68416666Y-119202380D01*
X67824026Y-146151522D02*
X68396446Y-146723942D01*
X68497461Y-146757614D01*
X68564805Y-146757614D01*
X68665820Y-146723942D01*
X68800507Y-146589255D01*
X68834179Y-146488240D01*
X68834179Y-146420896D01*
X68800507Y-146319881D01*
X68228087Y-145747461D01*
X69642301Y-145747461D02*
X69238240Y-146151522D01*
X69440270Y-145949492D02*
X68733164Y-145242385D01*
X68766835Y-145410744D01*
X68766835Y-145545431D01*
X68733164Y-145646446D01*
X67357142Y-161452380D02*
X67023809Y-160976190D01*
X66785714Y-161452380D02*
X66785714Y-160452380D01*
X67166666Y-160452380D01*
X67261904Y-160500000D01*
X67309523Y-160547619D01*
X67357142Y-160642857D01*
X67357142Y-160785714D01*
X67309523Y-160880952D01*
X67261904Y-160928571D01*
X67166666Y-160976190D01*
X66785714Y-160976190D01*
X68309523Y-161452380D02*
X67738095Y-161452380D01*
X68023809Y-161452380D02*
X68023809Y-160452380D01*
X67928571Y-160595238D01*
X67833333Y-160690476D01*
X67738095Y-160738095D01*
X69166666Y-160785714D02*
X69166666Y-161452380D01*
X68928571Y-160404761D02*
X68690476Y-161119047D01*
X69309523Y-161119047D01*
X67107142Y-154702380D02*
X66773809Y-154226190D01*
X66535714Y-154702380D02*
X66535714Y-153702380D01*
X66916666Y-153702380D01*
X67011904Y-153750000D01*
X67059523Y-153797619D01*
X67107142Y-153892857D01*
X67107142Y-154035714D01*
X67059523Y-154130952D01*
X67011904Y-154178571D01*
X66916666Y-154226190D01*
X66535714Y-154226190D01*
X68059523Y-154702380D02*
X67488095Y-154702380D01*
X67773809Y-154702380D02*
X67773809Y-153702380D01*
X67678571Y-153845238D01*
X67583333Y-153940476D01*
X67488095Y-153988095D01*
X68392857Y-153702380D02*
X69011904Y-153702380D01*
X68678571Y-154083333D01*
X68821428Y-154083333D01*
X68916666Y-154130952D01*
X68964285Y-154178571D01*
X69011904Y-154273809D01*
X69011904Y-154511904D01*
X68964285Y-154607142D01*
X68916666Y-154654761D01*
X68821428Y-154702380D01*
X68535714Y-154702380D01*
X68440476Y-154654761D01*
X68392857Y-154607142D01*
X59404761Y-146147619D02*
X59309523Y-146100000D01*
X59214285Y-146004761D01*
X59071428Y-145861904D01*
X58976190Y-145814285D01*
X58880952Y-145814285D01*
X58928571Y-146052380D02*
X58833333Y-146004761D01*
X58738095Y-145909523D01*
X58690476Y-145719047D01*
X58690476Y-145385714D01*
X58738095Y-145195238D01*
X58833333Y-145100000D01*
X58928571Y-145052380D01*
X59119047Y-145052380D01*
X59214285Y-145100000D01*
X59309523Y-145195238D01*
X59357142Y-145385714D01*
X59357142Y-145719047D01*
X59309523Y-145909523D01*
X59214285Y-146004761D01*
X59119047Y-146052380D01*
X58928571Y-146052380D01*
X59690476Y-145052380D02*
X60357142Y-145052380D01*
X59928571Y-146052380D01*
X50404761Y-146147619D02*
X50309523Y-146100000D01*
X50214285Y-146004761D01*
X50071428Y-145861904D01*
X49976190Y-145814285D01*
X49880952Y-145814285D01*
X49928571Y-146052380D02*
X49833333Y-146004761D01*
X49738095Y-145909523D01*
X49690476Y-145719047D01*
X49690476Y-145385714D01*
X49738095Y-145195238D01*
X49833333Y-145100000D01*
X49928571Y-145052380D01*
X50119047Y-145052380D01*
X50214285Y-145100000D01*
X50309523Y-145195238D01*
X50357142Y-145385714D01*
X50357142Y-145719047D01*
X50309523Y-145909523D01*
X50214285Y-146004761D01*
X50119047Y-146052380D01*
X49928571Y-146052380D01*
X51261904Y-145052380D02*
X50785714Y-145052380D01*
X50738095Y-145528571D01*
X50785714Y-145480952D01*
X50880952Y-145433333D01*
X51119047Y-145433333D01*
X51214285Y-145480952D01*
X51261904Y-145528571D01*
X51309523Y-145623809D01*
X51309523Y-145861904D01*
X51261904Y-145957142D01*
X51214285Y-146004761D01*
X51119047Y-146052380D01*
X50880952Y-146052380D01*
X50785714Y-146004761D01*
X50738095Y-145957142D01*
X40904761Y-146147619D02*
X40809523Y-146100000D01*
X40714285Y-146004761D01*
X40571428Y-145861904D01*
X40476190Y-145814285D01*
X40380952Y-145814285D01*
X40428571Y-146052380D02*
X40333333Y-146004761D01*
X40238095Y-145909523D01*
X40190476Y-145719047D01*
X40190476Y-145385714D01*
X40238095Y-145195238D01*
X40333333Y-145100000D01*
X40428571Y-145052380D01*
X40619047Y-145052380D01*
X40714285Y-145100000D01*
X40809523Y-145195238D01*
X40857142Y-145385714D01*
X40857142Y-145719047D01*
X40809523Y-145909523D01*
X40714285Y-146004761D01*
X40619047Y-146052380D01*
X40428571Y-146052380D01*
X41190476Y-145052380D02*
X41809523Y-145052380D01*
X41476190Y-145433333D01*
X41619047Y-145433333D01*
X41714285Y-145480952D01*
X41761904Y-145528571D01*
X41809523Y-145623809D01*
X41809523Y-145861904D01*
X41761904Y-145957142D01*
X41714285Y-146004761D01*
X41619047Y-146052380D01*
X41333333Y-146052380D01*
X41238095Y-146004761D01*
X41190476Y-145957142D01*
X31904761Y-146047619D02*
X31809523Y-146000000D01*
X31714285Y-145904761D01*
X31571428Y-145761904D01*
X31476190Y-145714285D01*
X31380952Y-145714285D01*
X31428571Y-145952380D02*
X31333333Y-145904761D01*
X31238095Y-145809523D01*
X31190476Y-145619047D01*
X31190476Y-145285714D01*
X31238095Y-145095238D01*
X31333333Y-145000000D01*
X31428571Y-144952380D01*
X31619047Y-144952380D01*
X31714285Y-145000000D01*
X31809523Y-145095238D01*
X31857142Y-145285714D01*
X31857142Y-145619047D01*
X31809523Y-145809523D01*
X31714285Y-145904761D01*
X31619047Y-145952380D01*
X31428571Y-145952380D01*
X32809523Y-145952380D02*
X32238095Y-145952380D01*
X32523809Y-145952380D02*
X32523809Y-144952380D01*
X32428571Y-145095238D01*
X32333333Y-145190476D01*
X32238095Y-145238095D01*
X65761904Y-138902380D02*
X65761904Y-137902380D01*
X66000000Y-137902380D01*
X66142857Y-137950000D01*
X66238095Y-138045238D01*
X66285714Y-138140476D01*
X66333333Y-138330952D01*
X66333333Y-138473809D01*
X66285714Y-138664285D01*
X66238095Y-138759523D01*
X66142857Y-138854761D01*
X66000000Y-138902380D01*
X65761904Y-138902380D01*
X67190476Y-137902380D02*
X67000000Y-137902380D01*
X66904761Y-137950000D01*
X66857142Y-137997619D01*
X66761904Y-138140476D01*
X66714285Y-138330952D01*
X66714285Y-138711904D01*
X66761904Y-138807142D01*
X66809523Y-138854761D01*
X66904761Y-138902380D01*
X67095238Y-138902380D01*
X67190476Y-138854761D01*
X67238095Y-138807142D01*
X67285714Y-138711904D01*
X67285714Y-138473809D01*
X67238095Y-138378571D01*
X67190476Y-138330952D01*
X67095238Y-138283333D01*
X66904761Y-138283333D01*
X66809523Y-138330952D01*
X66761904Y-138378571D01*
X66714285Y-138473809D01*
X69988095Y-128102380D02*
X69988095Y-128911904D01*
X70035714Y-129007142D01*
X70083333Y-129054761D01*
X70178571Y-129102380D01*
X70369047Y-129102380D01*
X70464285Y-129054761D01*
X70511904Y-129007142D01*
X70559523Y-128911904D01*
X70559523Y-128102380D01*
X70988095Y-128197619D02*
X71035714Y-128150000D01*
X71130952Y-128102380D01*
X71369047Y-128102380D01*
X71464285Y-128150000D01*
X71511904Y-128197619D01*
X71559523Y-128292857D01*
X71559523Y-128388095D01*
X71511904Y-128530952D01*
X70940476Y-129102380D01*
X71559523Y-129102380D01*
X77770780Y-128256957D02*
X77294590Y-128590290D01*
X77770780Y-128828385D02*
X76770780Y-128828385D01*
X76770780Y-128447433D01*
X76818400Y-128352195D01*
X76866019Y-128304576D01*
X76961257Y-128256957D01*
X77104114Y-128256957D01*
X77199352Y-128304576D01*
X77246971Y-128352195D01*
X77294590Y-128447433D01*
X77294590Y-128828385D01*
X76866019Y-127876004D02*
X76818400Y-127828385D01*
X76770780Y-127733147D01*
X76770780Y-127495052D01*
X76818400Y-127399814D01*
X76866019Y-127352195D01*
X76961257Y-127304576D01*
X77056495Y-127304576D01*
X77199352Y-127352195D01*
X77770780Y-127923623D01*
X77770780Y-127304576D01*
X76770780Y-126399814D02*
X76770780Y-126876004D01*
X77246971Y-126923623D01*
X77199352Y-126876004D01*
X77151733Y-126780766D01*
X77151733Y-126542671D01*
X77199352Y-126447433D01*
X77246971Y-126399814D01*
X77342209Y-126352195D01*
X77580304Y-126352195D01*
X77675542Y-126399814D01*
X77723161Y-126447433D01*
X77770780Y-126542671D01*
X77770780Y-126780766D01*
X77723161Y-126876004D01*
X77675542Y-126923623D01*
X66682180Y-133632757D02*
X66205990Y-133966090D01*
X66682180Y-134204185D02*
X65682180Y-134204185D01*
X65682180Y-133823233D01*
X65729800Y-133727995D01*
X65777419Y-133680376D01*
X65872657Y-133632757D01*
X66015514Y-133632757D01*
X66110752Y-133680376D01*
X66158371Y-133727995D01*
X66205990Y-133823233D01*
X66205990Y-134204185D01*
X65777419Y-133251804D02*
X65729800Y-133204185D01*
X65682180Y-133108947D01*
X65682180Y-132870852D01*
X65729800Y-132775614D01*
X65777419Y-132727995D01*
X65872657Y-132680376D01*
X65967895Y-132680376D01*
X66110752Y-132727995D01*
X66682180Y-133299423D01*
X66682180Y-132680376D01*
X65682180Y-132347042D02*
X65682180Y-131727995D01*
X66063133Y-132061328D01*
X66063133Y-131918471D01*
X66110752Y-131823233D01*
X66158371Y-131775614D01*
X66253609Y-131727995D01*
X66491704Y-131727995D01*
X66586942Y-131775614D01*
X66634561Y-131823233D01*
X66682180Y-131918471D01*
X66682180Y-132204185D01*
X66634561Y-132299423D01*
X66586942Y-132347042D01*
X56102380Y-141692857D02*
X55626190Y-142026190D01*
X56102380Y-142264285D02*
X55102380Y-142264285D01*
X55102380Y-141883333D01*
X55150000Y-141788095D01*
X55197619Y-141740476D01*
X55292857Y-141692857D01*
X55435714Y-141692857D01*
X55530952Y-141740476D01*
X55578571Y-141788095D01*
X55626190Y-141883333D01*
X55626190Y-142264285D01*
X55197619Y-141311904D02*
X55150000Y-141264285D01*
X55102380Y-141169047D01*
X55102380Y-140930952D01*
X55150000Y-140835714D01*
X55197619Y-140788095D01*
X55292857Y-140740476D01*
X55388095Y-140740476D01*
X55530952Y-140788095D01*
X56102380Y-141359523D01*
X56102380Y-140740476D01*
X55197619Y-140359523D02*
X55150000Y-140311904D01*
X55102380Y-140216666D01*
X55102380Y-139978571D01*
X55150000Y-139883333D01*
X55197619Y-139835714D01*
X55292857Y-139788095D01*
X55388095Y-139788095D01*
X55530952Y-139835714D01*
X56102380Y-140407142D01*
X56102380Y-139788095D01*
X47202380Y-141692857D02*
X46726190Y-142026190D01*
X47202380Y-142264285D02*
X46202380Y-142264285D01*
X46202380Y-141883333D01*
X46250000Y-141788095D01*
X46297619Y-141740476D01*
X46392857Y-141692857D01*
X46535714Y-141692857D01*
X46630952Y-141740476D01*
X46678571Y-141788095D01*
X46726190Y-141883333D01*
X46726190Y-142264285D01*
X46297619Y-141311904D02*
X46250000Y-141264285D01*
X46202380Y-141169047D01*
X46202380Y-140930952D01*
X46250000Y-140835714D01*
X46297619Y-140788095D01*
X46392857Y-140740476D01*
X46488095Y-140740476D01*
X46630952Y-140788095D01*
X47202380Y-141359523D01*
X47202380Y-140740476D01*
X47202380Y-139788095D02*
X47202380Y-140359523D01*
X47202380Y-140073809D02*
X46202380Y-140073809D01*
X46345238Y-140169047D01*
X46440476Y-140264285D01*
X46488095Y-140359523D01*
X38102380Y-141592857D02*
X37626190Y-141926190D01*
X38102380Y-142164285D02*
X37102380Y-142164285D01*
X37102380Y-141783333D01*
X37150000Y-141688095D01*
X37197619Y-141640476D01*
X37292857Y-141592857D01*
X37435714Y-141592857D01*
X37530952Y-141640476D01*
X37578571Y-141688095D01*
X37626190Y-141783333D01*
X37626190Y-142164285D01*
X37197619Y-141211904D02*
X37150000Y-141164285D01*
X37102380Y-141069047D01*
X37102380Y-140830952D01*
X37150000Y-140735714D01*
X37197619Y-140688095D01*
X37292857Y-140640476D01*
X37388095Y-140640476D01*
X37530952Y-140688095D01*
X38102380Y-141259523D01*
X38102380Y-140640476D01*
X37102380Y-140021428D02*
X37102380Y-139926190D01*
X37150000Y-139830952D01*
X37197619Y-139783333D01*
X37292857Y-139735714D01*
X37483333Y-139688095D01*
X37721428Y-139688095D01*
X37911904Y-139735714D01*
X38007142Y-139783333D01*
X38054761Y-139830952D01*
X38102380Y-139926190D01*
X38102380Y-140021428D01*
X38054761Y-140116666D01*
X38007142Y-140164285D01*
X37911904Y-140211904D01*
X37721428Y-140259523D01*
X37483333Y-140259523D01*
X37292857Y-140211904D01*
X37197619Y-140164285D01*
X37150000Y-140116666D01*
X37102380Y-140021428D01*
X29102380Y-141792857D02*
X28626190Y-142126190D01*
X29102380Y-142364285D02*
X28102380Y-142364285D01*
X28102380Y-141983333D01*
X28150000Y-141888095D01*
X28197619Y-141840476D01*
X28292857Y-141792857D01*
X28435714Y-141792857D01*
X28530952Y-141840476D01*
X28578571Y-141888095D01*
X28626190Y-141983333D01*
X28626190Y-142364285D01*
X29102380Y-140840476D02*
X29102380Y-141411904D01*
X29102380Y-141126190D02*
X28102380Y-141126190D01*
X28245238Y-141221428D01*
X28340476Y-141316666D01*
X28388095Y-141411904D01*
X29102380Y-140364285D02*
X29102380Y-140173809D01*
X29054761Y-140078571D01*
X29007142Y-140030952D01*
X28864285Y-139935714D01*
X28673809Y-139888095D01*
X28292857Y-139888095D01*
X28197619Y-139935714D01*
X28150000Y-139983333D01*
X28102380Y-140078571D01*
X28102380Y-140269047D01*
X28150000Y-140364285D01*
X28197619Y-140411904D01*
X28292857Y-140459523D01*
X28530952Y-140459523D01*
X28626190Y-140411904D01*
X28673809Y-140364285D01*
X28721428Y-140269047D01*
X28721428Y-140078571D01*
X28673809Y-139983333D01*
X28626190Y-139935714D01*
X28530952Y-139888095D01*
X61857142Y-148452380D02*
X61523809Y-147976190D01*
X61285714Y-148452380D02*
X61285714Y-147452380D01*
X61666666Y-147452380D01*
X61761904Y-147500000D01*
X61809523Y-147547619D01*
X61857142Y-147642857D01*
X61857142Y-147785714D01*
X61809523Y-147880952D01*
X61761904Y-147928571D01*
X61666666Y-147976190D01*
X61285714Y-147976190D01*
X62809523Y-148452380D02*
X62238095Y-148452380D01*
X62523809Y-148452380D02*
X62523809Y-147452380D01*
X62428571Y-147595238D01*
X62333333Y-147690476D01*
X62238095Y-147738095D01*
X63380952Y-147880952D02*
X63285714Y-147833333D01*
X63238095Y-147785714D01*
X63190476Y-147690476D01*
X63190476Y-147642857D01*
X63238095Y-147547619D01*
X63285714Y-147500000D01*
X63380952Y-147452380D01*
X63571428Y-147452380D01*
X63666666Y-147500000D01*
X63714285Y-147547619D01*
X63761904Y-147642857D01*
X63761904Y-147690476D01*
X63714285Y-147785714D01*
X63666666Y-147833333D01*
X63571428Y-147880952D01*
X63380952Y-147880952D01*
X63285714Y-147928571D01*
X63238095Y-147976190D01*
X63190476Y-148071428D01*
X63190476Y-148261904D01*
X63238095Y-148357142D01*
X63285714Y-148404761D01*
X63380952Y-148452380D01*
X63571428Y-148452380D01*
X63666666Y-148404761D01*
X63714285Y-148357142D01*
X63761904Y-148261904D01*
X63761904Y-148071428D01*
X63714285Y-147976190D01*
X63666666Y-147928571D01*
X63571428Y-147880952D01*
X52857142Y-148452380D02*
X52523809Y-147976190D01*
X52285714Y-148452380D02*
X52285714Y-147452380D01*
X52666666Y-147452380D01*
X52761904Y-147500000D01*
X52809523Y-147547619D01*
X52857142Y-147642857D01*
X52857142Y-147785714D01*
X52809523Y-147880952D01*
X52761904Y-147928571D01*
X52666666Y-147976190D01*
X52285714Y-147976190D01*
X53809523Y-148452380D02*
X53238095Y-148452380D01*
X53523809Y-148452380D02*
X53523809Y-147452380D01*
X53428571Y-147595238D01*
X53333333Y-147690476D01*
X53238095Y-147738095D01*
X54142857Y-147452380D02*
X54809523Y-147452380D01*
X54380952Y-148452380D01*
X43357142Y-148452380D02*
X43023809Y-147976190D01*
X42785714Y-148452380D02*
X42785714Y-147452380D01*
X43166666Y-147452380D01*
X43261904Y-147500000D01*
X43309523Y-147547619D01*
X43357142Y-147642857D01*
X43357142Y-147785714D01*
X43309523Y-147880952D01*
X43261904Y-147928571D01*
X43166666Y-147976190D01*
X42785714Y-147976190D01*
X44309523Y-148452380D02*
X43738095Y-148452380D01*
X44023809Y-148452380D02*
X44023809Y-147452380D01*
X43928571Y-147595238D01*
X43833333Y-147690476D01*
X43738095Y-147738095D01*
X45166666Y-147452380D02*
X44976190Y-147452380D01*
X44880952Y-147500000D01*
X44833333Y-147547619D01*
X44738095Y-147690476D01*
X44690476Y-147880952D01*
X44690476Y-148261904D01*
X44738095Y-148357142D01*
X44785714Y-148404761D01*
X44880952Y-148452380D01*
X45071428Y-148452380D01*
X45166666Y-148404761D01*
X45214285Y-148357142D01*
X45261904Y-148261904D01*
X45261904Y-148023809D01*
X45214285Y-147928571D01*
X45166666Y-147880952D01*
X45071428Y-147833333D01*
X44880952Y-147833333D01*
X44785714Y-147880952D01*
X44738095Y-147928571D01*
X44690476Y-148023809D01*
X34307142Y-148402380D02*
X33973809Y-147926190D01*
X33735714Y-148402380D02*
X33735714Y-147402380D01*
X34116666Y-147402380D01*
X34211904Y-147450000D01*
X34259523Y-147497619D01*
X34307142Y-147592857D01*
X34307142Y-147735714D01*
X34259523Y-147830952D01*
X34211904Y-147878571D01*
X34116666Y-147926190D01*
X33735714Y-147926190D01*
X35259523Y-148402380D02*
X34688095Y-148402380D01*
X34973809Y-148402380D02*
X34973809Y-147402380D01*
X34878571Y-147545238D01*
X34783333Y-147640476D01*
X34688095Y-147688095D01*
X36164285Y-147402380D02*
X35688095Y-147402380D01*
X35640476Y-147878571D01*
X35688095Y-147830952D01*
X35783333Y-147783333D01*
X36021428Y-147783333D01*
X36116666Y-147830952D01*
X36164285Y-147878571D01*
X36211904Y-147973809D01*
X36211904Y-148211904D01*
X36164285Y-148307142D01*
X36116666Y-148354761D01*
X36021428Y-148402380D01*
X35783333Y-148402380D01*
X35688095Y-148354761D01*
X35640476Y-148307142D01*
X55897619Y-132821428D02*
X55850000Y-132916666D01*
X55754761Y-133011904D01*
X55611904Y-133154761D01*
X55564285Y-133250000D01*
X55564285Y-133345238D01*
X55802380Y-133297619D02*
X55754761Y-133392857D01*
X55659523Y-133488095D01*
X55469047Y-133535714D01*
X55135714Y-133535714D01*
X54945238Y-133488095D01*
X54850000Y-133392857D01*
X54802380Y-133297619D01*
X54802380Y-133107142D01*
X54850000Y-133011904D01*
X54945238Y-132916666D01*
X55135714Y-132869047D01*
X55469047Y-132869047D01*
X55659523Y-132916666D01*
X55754761Y-133011904D01*
X55802380Y-133107142D01*
X55802380Y-133297619D01*
X55802380Y-131916666D02*
X55802380Y-132488095D01*
X55802380Y-132202380D02*
X54802380Y-132202380D01*
X54945238Y-132297619D01*
X55040476Y-132392857D01*
X55088095Y-132488095D01*
X54897619Y-131535714D02*
X54850000Y-131488095D01*
X54802380Y-131392857D01*
X54802380Y-131154761D01*
X54850000Y-131059523D01*
X54897619Y-131011904D01*
X54992857Y-130964285D01*
X55088095Y-130964285D01*
X55230952Y-131011904D01*
X55802380Y-131583333D01*
X55802380Y-130964285D01*
X46897619Y-132821428D02*
X46850000Y-132916666D01*
X46754761Y-133011904D01*
X46611904Y-133154761D01*
X46564285Y-133250000D01*
X46564285Y-133345238D01*
X46802380Y-133297619D02*
X46754761Y-133392857D01*
X46659523Y-133488095D01*
X46469047Y-133535714D01*
X46135714Y-133535714D01*
X45945238Y-133488095D01*
X45850000Y-133392857D01*
X45802380Y-133297619D01*
X45802380Y-133107142D01*
X45850000Y-133011904D01*
X45945238Y-132916666D01*
X46135714Y-132869047D01*
X46469047Y-132869047D01*
X46659523Y-132916666D01*
X46754761Y-133011904D01*
X46802380Y-133107142D01*
X46802380Y-133297619D01*
X46802380Y-131916666D02*
X46802380Y-132488095D01*
X46802380Y-132202380D02*
X45802380Y-132202380D01*
X45945238Y-132297619D01*
X46040476Y-132392857D01*
X46088095Y-132488095D01*
X46802380Y-130964285D02*
X46802380Y-131535714D01*
X46802380Y-131250000D02*
X45802380Y-131250000D01*
X45945238Y-131345238D01*
X46040476Y-131440476D01*
X46088095Y-131535714D01*
X89083333Y-129202380D02*
X88607142Y-129202380D01*
X88607142Y-128202380D01*
X89940476Y-129202380D02*
X89369047Y-129202380D01*
X89654761Y-129202380D02*
X89654761Y-128202380D01*
X89559523Y-128345238D01*
X89464285Y-128440476D01*
X89369047Y-128488095D01*
X68357142Y-125666666D02*
X68404761Y-125714285D01*
X68452380Y-125857142D01*
X68452380Y-125952380D01*
X68404761Y-126095238D01*
X68309523Y-126190476D01*
X68214285Y-126238095D01*
X68023809Y-126285714D01*
X67880952Y-126285714D01*
X67690476Y-126238095D01*
X67595238Y-126190476D01*
X67500000Y-126095238D01*
X67452380Y-125952380D01*
X67452380Y-125857142D01*
X67500000Y-125714285D01*
X67547619Y-125666666D01*
X67452380Y-124809523D02*
X67452380Y-125000000D01*
X67500000Y-125095238D01*
X67547619Y-125142857D01*
X67690476Y-125238095D01*
X67880952Y-125285714D01*
X68261904Y-125285714D01*
X68357142Y-125238095D01*
X68404761Y-125190476D01*
X68452380Y-125095238D01*
X68452380Y-124904761D01*
X68404761Y-124809523D01*
X68357142Y-124761904D01*
X68261904Y-124714285D01*
X68023809Y-124714285D01*
X67928571Y-124761904D01*
X67880952Y-124809523D01*
X67833333Y-124904761D01*
X67833333Y-125095238D01*
X67880952Y-125190476D01*
X67928571Y-125238095D01*
X68023809Y-125285714D01*
M02*
