G04 #@! TF.GenerationSoftware,KiCad,Pcbnew,(5.1.5)-3*
G04 #@! TF.CreationDate,2020-11-24T12:16:53+03:00*
G04 #@! TF.ProjectId,fast-pwm,66617374-2d70-4776-9d2e-6b696361645f,rev?*
G04 #@! TF.SameCoordinates,Original*
G04 #@! TF.FileFunction,Soldermask,Bot*
G04 #@! TF.FilePolarity,Negative*
%FSLAX46Y46*%
G04 Gerber Fmt 4.6, Leading zero omitted, Abs format (unit mm)*
G04 Created by KiCad (PCBNEW (5.1.5)-3) date 2020-11-24 12:16:53*
%MOMM*%
%LPD*%
G04 APERTURE LIST*
%ADD10C,0.100000*%
G04 APERTURE END LIST*
D10*
G36*
X81301000Y-161101000D02*
G01*
X79699000Y-161101000D01*
X79699000Y-157399000D01*
X81301000Y-157399000D01*
X81301000Y-161101000D01*
G37*
G36*
X75153512Y-158603927D02*
G01*
X75302812Y-158633624D01*
X75466784Y-158701544D01*
X75614354Y-158800147D01*
X75739853Y-158925646D01*
X75838456Y-159073216D01*
X75906376Y-159237188D01*
X75941000Y-159411259D01*
X75941000Y-159588741D01*
X75906376Y-159762812D01*
X75838456Y-159926784D01*
X75739853Y-160074354D01*
X75614354Y-160199853D01*
X75466784Y-160298456D01*
X75302812Y-160366376D01*
X75153512Y-160396073D01*
X75128742Y-160401000D01*
X74951258Y-160401000D01*
X74926488Y-160396073D01*
X74777188Y-160366376D01*
X74613216Y-160298456D01*
X74465646Y-160199853D01*
X74340147Y-160074354D01*
X74241544Y-159926784D01*
X74173624Y-159762812D01*
X74139000Y-159588741D01*
X74139000Y-159411259D01*
X74173624Y-159237188D01*
X74241544Y-159073216D01*
X74340147Y-158925646D01*
X74465646Y-158800147D01*
X74613216Y-158701544D01*
X74777188Y-158633624D01*
X74926488Y-158603927D01*
X74951258Y-158599000D01*
X75128742Y-158599000D01*
X75153512Y-158603927D01*
G37*
G36*
X73401000Y-160401000D02*
G01*
X71599000Y-160401000D01*
X71599000Y-158599000D01*
X73401000Y-158599000D01*
X73401000Y-160401000D01*
G37*
G36*
X33410774Y-152767017D02*
G01*
X33948282Y-152873934D01*
X34539926Y-153119001D01*
X35072392Y-153474784D01*
X35525216Y-153927608D01*
X35880999Y-154460074D01*
X36071992Y-154921173D01*
X36126066Y-155051719D01*
X36251000Y-155679803D01*
X36251000Y-156320197D01*
X36188533Y-156634239D01*
X36126066Y-156948282D01*
X35880999Y-157539926D01*
X35525216Y-158072392D01*
X35072392Y-158525216D01*
X34539926Y-158880999D01*
X33948282Y-159126066D01*
X33634239Y-159188533D01*
X33320197Y-159251000D01*
X32679803Y-159251000D01*
X32365761Y-159188533D01*
X32051718Y-159126066D01*
X31460074Y-158880999D01*
X30927608Y-158525216D01*
X30474784Y-158072392D01*
X30119001Y-157539926D01*
X29873934Y-156948282D01*
X29811467Y-156634239D01*
X29749000Y-156320197D01*
X29749000Y-155679803D01*
X29873934Y-155051719D01*
X29928008Y-154921173D01*
X30119001Y-154460074D01*
X30474784Y-153927608D01*
X30927608Y-153474784D01*
X31460074Y-153119001D01*
X32051718Y-152873934D01*
X32589226Y-152767017D01*
X32679803Y-152749000D01*
X33320197Y-152749000D01*
X33410774Y-152767017D01*
G37*
G36*
X80088674Y-154653465D02*
G01*
X80126367Y-154664899D01*
X80161103Y-154683466D01*
X80191548Y-154708452D01*
X80216534Y-154738897D01*
X80235101Y-154773633D01*
X80246535Y-154811326D01*
X80251000Y-154856661D01*
X80251000Y-155693339D01*
X80246535Y-155738674D01*
X80235101Y-155776367D01*
X80216534Y-155811103D01*
X80191548Y-155841548D01*
X80161103Y-155866534D01*
X80126367Y-155885101D01*
X80088674Y-155896535D01*
X80043339Y-155901000D01*
X78956661Y-155901000D01*
X78911326Y-155896535D01*
X78873633Y-155885101D01*
X78838897Y-155866534D01*
X78808452Y-155841548D01*
X78783466Y-155811103D01*
X78764899Y-155776367D01*
X78753465Y-155738674D01*
X78749000Y-155693339D01*
X78749000Y-154856661D01*
X78753465Y-154811326D01*
X78764899Y-154773633D01*
X78783466Y-154738897D01*
X78808452Y-154708452D01*
X78838897Y-154683466D01*
X78873633Y-154664899D01*
X78911326Y-154653465D01*
X78956661Y-154649000D01*
X80043339Y-154649000D01*
X80088674Y-154653465D01*
G37*
G36*
X80088674Y-152603465D02*
G01*
X80126367Y-152614899D01*
X80161103Y-152633466D01*
X80191548Y-152658452D01*
X80216534Y-152688897D01*
X80235101Y-152723633D01*
X80246535Y-152761326D01*
X80251000Y-152806661D01*
X80251000Y-153643339D01*
X80246535Y-153688674D01*
X80235101Y-153726367D01*
X80216534Y-153761103D01*
X80191548Y-153791548D01*
X80161103Y-153816534D01*
X80126367Y-153835101D01*
X80088674Y-153846535D01*
X80043339Y-153851000D01*
X78956661Y-153851000D01*
X78911326Y-153846535D01*
X78873633Y-153835101D01*
X78838897Y-153816534D01*
X78808452Y-153791548D01*
X78783466Y-153761103D01*
X78764899Y-153726367D01*
X78753465Y-153688674D01*
X78749000Y-153643339D01*
X78749000Y-152806661D01*
X78753465Y-152761326D01*
X78764899Y-152723633D01*
X78783466Y-152688897D01*
X78808452Y-152658452D01*
X78838897Y-152633466D01*
X78873633Y-152614899D01*
X78911326Y-152603465D01*
X78956661Y-152599000D01*
X80043339Y-152599000D01*
X80088674Y-152603465D01*
G37*
G36*
X76203686Y-150523235D02*
G01*
X76241379Y-150534669D01*
X76276115Y-150553236D01*
X76306560Y-150578222D01*
X76331546Y-150608667D01*
X76350113Y-150643403D01*
X76361547Y-150681096D01*
X76366012Y-150726431D01*
X76366012Y-151563109D01*
X76361547Y-151608444D01*
X76350113Y-151646137D01*
X76331546Y-151680873D01*
X76306560Y-151711318D01*
X76276115Y-151736304D01*
X76241379Y-151754871D01*
X76203686Y-151766305D01*
X76158351Y-151770770D01*
X75071673Y-151770770D01*
X75026338Y-151766305D01*
X74988645Y-151754871D01*
X74953909Y-151736304D01*
X74923464Y-151711318D01*
X74898478Y-151680873D01*
X74879911Y-151646137D01*
X74868477Y-151608444D01*
X74864012Y-151563109D01*
X74864012Y-150726431D01*
X74868477Y-150681096D01*
X74879911Y-150643403D01*
X74898478Y-150608667D01*
X74923464Y-150578222D01*
X74953909Y-150553236D01*
X74988645Y-150534669D01*
X75026338Y-150523235D01*
X75071673Y-150518770D01*
X76158351Y-150518770D01*
X76203686Y-150523235D01*
G37*
G36*
X71678203Y-150523235D02*
G01*
X71715896Y-150534669D01*
X71750632Y-150553236D01*
X71781077Y-150578222D01*
X71806063Y-150608667D01*
X71824630Y-150643403D01*
X71836064Y-150681096D01*
X71840529Y-150726431D01*
X71840529Y-151563109D01*
X71836064Y-151608444D01*
X71824630Y-151646137D01*
X71806063Y-151680873D01*
X71781077Y-151711318D01*
X71750632Y-151736304D01*
X71715896Y-151754871D01*
X71678203Y-151766305D01*
X71632868Y-151770770D01*
X70546190Y-151770770D01*
X70500855Y-151766305D01*
X70463162Y-151754871D01*
X70428426Y-151736304D01*
X70397981Y-151711318D01*
X70372995Y-151680873D01*
X70354428Y-151646137D01*
X70342994Y-151608444D01*
X70338529Y-151563109D01*
X70338529Y-150726431D01*
X70342994Y-150681096D01*
X70354428Y-150643403D01*
X70372995Y-150608667D01*
X70397981Y-150578222D01*
X70428426Y-150553236D01*
X70463162Y-150534669D01*
X70500855Y-150523235D01*
X70546190Y-150518770D01*
X71632868Y-150518770D01*
X71678203Y-150523235D01*
G37*
G36*
X73940944Y-150523235D02*
G01*
X73978637Y-150534669D01*
X74013373Y-150553236D01*
X74043818Y-150578222D01*
X74068804Y-150608667D01*
X74087371Y-150643403D01*
X74098805Y-150681096D01*
X74103270Y-150726431D01*
X74103270Y-151563109D01*
X74098805Y-151608444D01*
X74087371Y-151646137D01*
X74068804Y-151680873D01*
X74043818Y-151711318D01*
X74013373Y-151736304D01*
X73978637Y-151754871D01*
X73940944Y-151766305D01*
X73895609Y-151770770D01*
X72808931Y-151770770D01*
X72763596Y-151766305D01*
X72725903Y-151754871D01*
X72691167Y-151736304D01*
X72660722Y-151711318D01*
X72635736Y-151680873D01*
X72617169Y-151646137D01*
X72605735Y-151608444D01*
X72601270Y-151563109D01*
X72601270Y-150726431D01*
X72605735Y-150681096D01*
X72617169Y-150643403D01*
X72635736Y-150608667D01*
X72660722Y-150578222D01*
X72691167Y-150553236D01*
X72725903Y-150534669D01*
X72763596Y-150523235D01*
X72808931Y-150518770D01*
X73895609Y-150518770D01*
X73940944Y-150523235D01*
G37*
G36*
X73940944Y-148473235D02*
G01*
X73978637Y-148484669D01*
X74013373Y-148503236D01*
X74043818Y-148528222D01*
X74068804Y-148558667D01*
X74087371Y-148593403D01*
X74098805Y-148631096D01*
X74103270Y-148676431D01*
X74103270Y-149513109D01*
X74098805Y-149558444D01*
X74087371Y-149596137D01*
X74068804Y-149630873D01*
X74043818Y-149661318D01*
X74013373Y-149686304D01*
X73978637Y-149704871D01*
X73940944Y-149716305D01*
X73895609Y-149720770D01*
X72808931Y-149720770D01*
X72763596Y-149716305D01*
X72725903Y-149704871D01*
X72691167Y-149686304D01*
X72660722Y-149661318D01*
X72635736Y-149630873D01*
X72617169Y-149596137D01*
X72605735Y-149558444D01*
X72601270Y-149513109D01*
X72601270Y-148676431D01*
X72605735Y-148631096D01*
X72617169Y-148593403D01*
X72635736Y-148558667D01*
X72660722Y-148528222D01*
X72691167Y-148503236D01*
X72725903Y-148484669D01*
X72763596Y-148473235D01*
X72808931Y-148468770D01*
X73895609Y-148468770D01*
X73940944Y-148473235D01*
G37*
G36*
X76203686Y-148473235D02*
G01*
X76241379Y-148484669D01*
X76276115Y-148503236D01*
X76306560Y-148528222D01*
X76331546Y-148558667D01*
X76350113Y-148593403D01*
X76361547Y-148631096D01*
X76366012Y-148676431D01*
X76366012Y-149513109D01*
X76361547Y-149558444D01*
X76350113Y-149596137D01*
X76331546Y-149630873D01*
X76306560Y-149661318D01*
X76276115Y-149686304D01*
X76241379Y-149704871D01*
X76203686Y-149716305D01*
X76158351Y-149720770D01*
X75071673Y-149720770D01*
X75026338Y-149716305D01*
X74988645Y-149704871D01*
X74953909Y-149686304D01*
X74923464Y-149661318D01*
X74898478Y-149630873D01*
X74879911Y-149596137D01*
X74868477Y-149558444D01*
X74864012Y-149513109D01*
X74864012Y-148676431D01*
X74868477Y-148631096D01*
X74879911Y-148593403D01*
X74898478Y-148558667D01*
X74923464Y-148528222D01*
X74953909Y-148503236D01*
X74988645Y-148484669D01*
X75026338Y-148473235D01*
X75071673Y-148468770D01*
X76158351Y-148468770D01*
X76203686Y-148473235D01*
G37*
G36*
X71678203Y-148473235D02*
G01*
X71715896Y-148484669D01*
X71750632Y-148503236D01*
X71781077Y-148528222D01*
X71806063Y-148558667D01*
X71824630Y-148593403D01*
X71836064Y-148631096D01*
X71840529Y-148676431D01*
X71840529Y-149513109D01*
X71836064Y-149558444D01*
X71824630Y-149596137D01*
X71806063Y-149630873D01*
X71781077Y-149661318D01*
X71750632Y-149686304D01*
X71715896Y-149704871D01*
X71678203Y-149716305D01*
X71632868Y-149720770D01*
X70546190Y-149720770D01*
X70500855Y-149716305D01*
X70463162Y-149704871D01*
X70428426Y-149686304D01*
X70397981Y-149661318D01*
X70372995Y-149630873D01*
X70354428Y-149596137D01*
X70342994Y-149558444D01*
X70338529Y-149513109D01*
X70338529Y-148676431D01*
X70342994Y-148631096D01*
X70354428Y-148593403D01*
X70372995Y-148558667D01*
X70397981Y-148528222D01*
X70428426Y-148503236D01*
X70463162Y-148484669D01*
X70500855Y-148473235D01*
X70546190Y-148468770D01*
X71632868Y-148468770D01*
X71678203Y-148473235D01*
G37*
G36*
X63951000Y-144351000D02*
G01*
X61949000Y-144351000D01*
X61949000Y-143449000D01*
X63951000Y-143449000D01*
X63951000Y-144351000D01*
G37*
G36*
X55001000Y-144351000D02*
G01*
X52999000Y-144351000D01*
X52999000Y-143449000D01*
X55001000Y-143449000D01*
X55001000Y-144351000D01*
G37*
G36*
X36751000Y-144351000D02*
G01*
X34749000Y-144351000D01*
X34749000Y-143449000D01*
X36751000Y-143449000D01*
X36751000Y-144351000D01*
G37*
G36*
X45701000Y-144351000D02*
G01*
X43699000Y-144351000D01*
X43699000Y-143449000D01*
X45701000Y-143449000D01*
X45701000Y-144351000D01*
G37*
G36*
X33751000Y-143401000D02*
G01*
X31749000Y-143401000D01*
X31749000Y-142499000D01*
X33751000Y-142499000D01*
X33751000Y-143401000D01*
G37*
G36*
X60951000Y-143401000D02*
G01*
X58949000Y-143401000D01*
X58949000Y-142499000D01*
X60951000Y-142499000D01*
X60951000Y-143401000D01*
G37*
G36*
X52001000Y-143401000D02*
G01*
X49999000Y-143401000D01*
X49999000Y-142499000D01*
X52001000Y-142499000D01*
X52001000Y-143401000D01*
G37*
G36*
X42701000Y-143401000D02*
G01*
X40699000Y-143401000D01*
X40699000Y-142499000D01*
X42701000Y-142499000D01*
X42701000Y-143401000D01*
G37*
G36*
X36751000Y-142451000D02*
G01*
X34749000Y-142451000D01*
X34749000Y-141549000D01*
X36751000Y-141549000D01*
X36751000Y-142451000D01*
G37*
G36*
X63951000Y-142451000D02*
G01*
X61949000Y-142451000D01*
X61949000Y-141549000D01*
X63951000Y-141549000D01*
X63951000Y-142451000D01*
G37*
G36*
X45701000Y-142451000D02*
G01*
X43699000Y-142451000D01*
X43699000Y-141549000D01*
X45701000Y-141549000D01*
X45701000Y-142451000D01*
G37*
G36*
X55001000Y-142451000D02*
G01*
X52999000Y-142451000D01*
X52999000Y-141549000D01*
X55001000Y-141549000D01*
X55001000Y-142451000D01*
G37*
G36*
X44800000Y-133400000D02*
G01*
X38900000Y-133400000D01*
X38900000Y-126900000D01*
X44800000Y-126900000D01*
X44800000Y-133400000D01*
G37*
G36*
X62800000Y-133400000D02*
G01*
X56900000Y-133400000D01*
X56900000Y-126900000D01*
X62800000Y-126900000D01*
X62800000Y-133400000D01*
G37*
G36*
X53800000Y-133400000D02*
G01*
X47900000Y-133400000D01*
X47900000Y-126900000D01*
X53800000Y-126900000D01*
X53800000Y-133400000D01*
G37*
G36*
X35800000Y-133400000D02*
G01*
X29900000Y-133400000D01*
X29900000Y-126900000D01*
X35800000Y-126900000D01*
X35800000Y-133400000D01*
G37*
G36*
X74988674Y-131003465D02*
G01*
X75026367Y-131014899D01*
X75061103Y-131033466D01*
X75091548Y-131058452D01*
X75116534Y-131088897D01*
X75135101Y-131123633D01*
X75146535Y-131161326D01*
X75151000Y-131206661D01*
X75151000Y-132043339D01*
X75146535Y-132088674D01*
X75135101Y-132126367D01*
X75116534Y-132161103D01*
X75091548Y-132191548D01*
X75061103Y-132216534D01*
X75026367Y-132235101D01*
X74988674Y-132246535D01*
X74943339Y-132251000D01*
X73856661Y-132251000D01*
X73811326Y-132246535D01*
X73773633Y-132235101D01*
X73738897Y-132216534D01*
X73708452Y-132191548D01*
X73683466Y-132161103D01*
X73664899Y-132126367D01*
X73653465Y-132088674D01*
X73649000Y-132043339D01*
X73649000Y-131206661D01*
X73653465Y-131161326D01*
X73664899Y-131123633D01*
X73683466Y-131088897D01*
X73708452Y-131058452D01*
X73738897Y-131033466D01*
X73773633Y-131014899D01*
X73811326Y-131003465D01*
X73856661Y-130999000D01*
X74943339Y-130999000D01*
X74988674Y-131003465D01*
G37*
G36*
X74988674Y-128953465D02*
G01*
X75026367Y-128964899D01*
X75061103Y-128983466D01*
X75091548Y-129008452D01*
X75116534Y-129038897D01*
X75135101Y-129073633D01*
X75146535Y-129111326D01*
X75151000Y-129156661D01*
X75151000Y-129993339D01*
X75146535Y-130038674D01*
X75135101Y-130076367D01*
X75116534Y-130111103D01*
X75091548Y-130141548D01*
X75061103Y-130166534D01*
X75026367Y-130185101D01*
X74988674Y-130196535D01*
X74943339Y-130201000D01*
X73856661Y-130201000D01*
X73811326Y-130196535D01*
X73773633Y-130185101D01*
X73738897Y-130166534D01*
X73708452Y-130141548D01*
X73683466Y-130111103D01*
X73664899Y-130076367D01*
X73653465Y-130038674D01*
X73649000Y-129993339D01*
X73649000Y-129156661D01*
X73653465Y-129111326D01*
X73664899Y-129073633D01*
X73683466Y-129038897D01*
X73708452Y-129008452D01*
X73738897Y-128983466D01*
X73773633Y-128964899D01*
X73811326Y-128953465D01*
X73856661Y-128949000D01*
X74943339Y-128949000D01*
X74988674Y-128953465D01*
G37*
G36*
X73838674Y-126903465D02*
G01*
X73876367Y-126914899D01*
X73911103Y-126933466D01*
X73941548Y-126958452D01*
X73966534Y-126988897D01*
X73985101Y-127023633D01*
X73996535Y-127061326D01*
X74001000Y-127106661D01*
X74001000Y-128193339D01*
X73996535Y-128238674D01*
X73985101Y-128276367D01*
X73966534Y-128311103D01*
X73941548Y-128341548D01*
X73911103Y-128366534D01*
X73876367Y-128385101D01*
X73838674Y-128396535D01*
X73793339Y-128401000D01*
X72956661Y-128401000D01*
X72911326Y-128396535D01*
X72873633Y-128385101D01*
X72838897Y-128366534D01*
X72808452Y-128341548D01*
X72783466Y-128311103D01*
X72764899Y-128276367D01*
X72753465Y-128238674D01*
X72749000Y-128193339D01*
X72749000Y-127106661D01*
X72753465Y-127061326D01*
X72764899Y-127023633D01*
X72783466Y-126988897D01*
X72808452Y-126958452D01*
X72838897Y-126933466D01*
X72873633Y-126914899D01*
X72911326Y-126903465D01*
X72956661Y-126899000D01*
X73793339Y-126899000D01*
X73838674Y-126903465D01*
G37*
G36*
X75888674Y-126903465D02*
G01*
X75926367Y-126914899D01*
X75961103Y-126933466D01*
X75991548Y-126958452D01*
X76016534Y-126988897D01*
X76035101Y-127023633D01*
X76046535Y-127061326D01*
X76051000Y-127106661D01*
X76051000Y-128193339D01*
X76046535Y-128238674D01*
X76035101Y-128276367D01*
X76016534Y-128311103D01*
X75991548Y-128341548D01*
X75961103Y-128366534D01*
X75926367Y-128385101D01*
X75888674Y-128396535D01*
X75843339Y-128401000D01*
X75006661Y-128401000D01*
X74961326Y-128396535D01*
X74923633Y-128385101D01*
X74888897Y-128366534D01*
X74858452Y-128341548D01*
X74833466Y-128311103D01*
X74814899Y-128276367D01*
X74803465Y-128238674D01*
X74799000Y-128193339D01*
X74799000Y-127106661D01*
X74803465Y-127061326D01*
X74814899Y-127023633D01*
X74833466Y-126988897D01*
X74858452Y-126958452D01*
X74888897Y-126933466D01*
X74923633Y-126914899D01*
X74961326Y-126903465D01*
X75006661Y-126899000D01*
X75843339Y-126899000D01*
X75888674Y-126903465D01*
G37*
G36*
X85634239Y-119811467D02*
G01*
X85948282Y-119873934D01*
X86539926Y-120119001D01*
X87072392Y-120474784D01*
X87525216Y-120927608D01*
X87880999Y-121460074D01*
X88126066Y-122051718D01*
X88182349Y-122334672D01*
X88251000Y-122679803D01*
X88251000Y-123320197D01*
X88188533Y-123634239D01*
X88126066Y-123948282D01*
X87880999Y-124539926D01*
X87525216Y-125072392D01*
X87072392Y-125525216D01*
X86539926Y-125880999D01*
X85948282Y-126126066D01*
X85634239Y-126188533D01*
X85320197Y-126251000D01*
X84679803Y-126251000D01*
X84365761Y-126188533D01*
X84051718Y-126126066D01*
X83460074Y-125880999D01*
X82927608Y-125525216D01*
X82474784Y-125072392D01*
X82119001Y-124539926D01*
X81873934Y-123948282D01*
X81811467Y-123634239D01*
X81749000Y-123320197D01*
X81749000Y-122679803D01*
X81817651Y-122334672D01*
X81873934Y-122051718D01*
X82119001Y-121460074D01*
X82474784Y-120927608D01*
X82927608Y-120474784D01*
X83460074Y-120119001D01*
X84051718Y-119873934D01*
X84365761Y-119811467D01*
X84679803Y-119749000D01*
X85320197Y-119749000D01*
X85634239Y-119811467D01*
G37*
G36*
X59022585Y-120078802D02*
G01*
X59172410Y-120108604D01*
X59454674Y-120225521D01*
X59708705Y-120395259D01*
X59924741Y-120611295D01*
X60094479Y-120865326D01*
X60211396Y-121147590D01*
X60233462Y-121258524D01*
X60271000Y-121447239D01*
X60271000Y-121752761D01*
X60241198Y-121902585D01*
X60211396Y-122052410D01*
X60094479Y-122334674D01*
X59924741Y-122588705D01*
X59708705Y-122804741D01*
X59454674Y-122974479D01*
X59172410Y-123091396D01*
X59022585Y-123121198D01*
X58872761Y-123151000D01*
X58567239Y-123151000D01*
X58417415Y-123121198D01*
X58267590Y-123091396D01*
X57985326Y-122974479D01*
X57731295Y-122804741D01*
X57515259Y-122588705D01*
X57345521Y-122334674D01*
X57228604Y-122052410D01*
X57198802Y-121902585D01*
X57169000Y-121752761D01*
X57169000Y-121447239D01*
X57206538Y-121258524D01*
X57228604Y-121147590D01*
X57345521Y-120865326D01*
X57515259Y-120611295D01*
X57731295Y-120395259D01*
X57985326Y-120225521D01*
X58267590Y-120108604D01*
X58417415Y-120078802D01*
X58567239Y-120049000D01*
X58872761Y-120049000D01*
X59022585Y-120078802D01*
G37*
G36*
X53951000Y-123151000D02*
G01*
X50849000Y-123151000D01*
X50849000Y-120049000D01*
X53951000Y-120049000D01*
X53951000Y-123151000D01*
G37*
G36*
X47622585Y-120078802D02*
G01*
X47772410Y-120108604D01*
X48054674Y-120225521D01*
X48308705Y-120395259D01*
X48524741Y-120611295D01*
X48694479Y-120865326D01*
X48811396Y-121147590D01*
X48833462Y-121258524D01*
X48871000Y-121447239D01*
X48871000Y-121752761D01*
X48841198Y-121902585D01*
X48811396Y-122052410D01*
X48694479Y-122334674D01*
X48524741Y-122588705D01*
X48308705Y-122804741D01*
X48054674Y-122974479D01*
X47772410Y-123091396D01*
X47622585Y-123121198D01*
X47472761Y-123151000D01*
X47167239Y-123151000D01*
X47017415Y-123121198D01*
X46867590Y-123091396D01*
X46585326Y-122974479D01*
X46331295Y-122804741D01*
X46115259Y-122588705D01*
X45945521Y-122334674D01*
X45828604Y-122052410D01*
X45798802Y-121902585D01*
X45769000Y-121752761D01*
X45769000Y-121447239D01*
X45806538Y-121258524D01*
X45828604Y-121147590D01*
X45945521Y-120865326D01*
X46115259Y-120611295D01*
X46331295Y-120395259D01*
X46585326Y-120225521D01*
X46867590Y-120108604D01*
X47017415Y-120078802D01*
X47167239Y-120049000D01*
X47472761Y-120049000D01*
X47622585Y-120078802D01*
G37*
G36*
X65351000Y-123151000D02*
G01*
X62249000Y-123151000D01*
X62249000Y-120049000D01*
X65351000Y-120049000D01*
X65351000Y-123151000D01*
G37*
G36*
X42542585Y-120078802D02*
G01*
X42692410Y-120108604D01*
X42974674Y-120225521D01*
X43228705Y-120395259D01*
X43444741Y-120611295D01*
X43614479Y-120865326D01*
X43731396Y-121147590D01*
X43753462Y-121258524D01*
X43791000Y-121447239D01*
X43791000Y-121752761D01*
X43761198Y-121902585D01*
X43731396Y-122052410D01*
X43614479Y-122334674D01*
X43444741Y-122588705D01*
X43228705Y-122804741D01*
X42974674Y-122974479D01*
X42692410Y-123091396D01*
X42542585Y-123121198D01*
X42392761Y-123151000D01*
X42087239Y-123151000D01*
X41937415Y-123121198D01*
X41787590Y-123091396D01*
X41505326Y-122974479D01*
X41251295Y-122804741D01*
X41035259Y-122588705D01*
X40865521Y-122334674D01*
X40748604Y-122052410D01*
X40718802Y-121902585D01*
X40689000Y-121752761D01*
X40689000Y-121447239D01*
X40726538Y-121258524D01*
X40748604Y-121147590D01*
X40865521Y-120865326D01*
X41035259Y-120611295D01*
X41251295Y-120395259D01*
X41505326Y-120225521D01*
X41787590Y-120108604D01*
X41937415Y-120078802D01*
X42087239Y-120049000D01*
X42392761Y-120049000D01*
X42542585Y-120078802D01*
G37*
G36*
X37462585Y-120078802D02*
G01*
X37612410Y-120108604D01*
X37894674Y-120225521D01*
X38148705Y-120395259D01*
X38364741Y-120611295D01*
X38534479Y-120865326D01*
X38651396Y-121147590D01*
X38673462Y-121258524D01*
X38711000Y-121447239D01*
X38711000Y-121752761D01*
X38681198Y-121902585D01*
X38651396Y-122052410D01*
X38534479Y-122334674D01*
X38364741Y-122588705D01*
X38148705Y-122804741D01*
X37894674Y-122974479D01*
X37612410Y-123091396D01*
X37462585Y-123121198D01*
X37312761Y-123151000D01*
X37007239Y-123151000D01*
X36857415Y-123121198D01*
X36707590Y-123091396D01*
X36425326Y-122974479D01*
X36171295Y-122804741D01*
X35955259Y-122588705D01*
X35785521Y-122334674D01*
X35668604Y-122052410D01*
X35638802Y-121902585D01*
X35609000Y-121752761D01*
X35609000Y-121447239D01*
X35646538Y-121258524D01*
X35668604Y-121147590D01*
X35785521Y-120865326D01*
X35955259Y-120611295D01*
X36171295Y-120395259D01*
X36425326Y-120225521D01*
X36707590Y-120108604D01*
X36857415Y-120078802D01*
X37007239Y-120049000D01*
X37312761Y-120049000D01*
X37462585Y-120078802D01*
G37*
G36*
X32382585Y-120078802D02*
G01*
X32532410Y-120108604D01*
X32814674Y-120225521D01*
X33068705Y-120395259D01*
X33284741Y-120611295D01*
X33454479Y-120865326D01*
X33571396Y-121147590D01*
X33593462Y-121258524D01*
X33631000Y-121447239D01*
X33631000Y-121752761D01*
X33601198Y-121902585D01*
X33571396Y-122052410D01*
X33454479Y-122334674D01*
X33284741Y-122588705D01*
X33068705Y-122804741D01*
X32814674Y-122974479D01*
X32532410Y-123091396D01*
X32382585Y-123121198D01*
X32232761Y-123151000D01*
X31927239Y-123151000D01*
X31777415Y-123121198D01*
X31627590Y-123091396D01*
X31345326Y-122974479D01*
X31091295Y-122804741D01*
X30875259Y-122588705D01*
X30705521Y-122334674D01*
X30588604Y-122052410D01*
X30558802Y-121902585D01*
X30529000Y-121752761D01*
X30529000Y-121447239D01*
X30566538Y-121258524D01*
X30588604Y-121147590D01*
X30705521Y-120865326D01*
X30875259Y-120611295D01*
X31091295Y-120395259D01*
X31345326Y-120225521D01*
X31627590Y-120108604D01*
X31777415Y-120078802D01*
X31927239Y-120049000D01*
X32232761Y-120049000D01*
X32382585Y-120078802D01*
G37*
M02*
