G04 #@! TF.GenerationSoftware,KiCad,Pcbnew,(5.1.5)-3*
G04 #@! TF.CreationDate,2020-11-24T12:16:53+03:00*
G04 #@! TF.ProjectId,fast-pwm,66617374-2d70-4776-9d2e-6b696361645f,rev?*
G04 #@! TF.SameCoordinates,Original*
G04 #@! TF.FileFunction,Copper,L1,Top*
G04 #@! TF.FilePolarity,Positive*
%FSLAX46Y46*%
G04 Gerber Fmt 4.6, Leading zero omitted, Abs format (unit mm)*
G04 Created by KiCad (PCBNEW (5.1.5)-3) date 2020-11-24 12:16:53*
%MOMM*%
%LPD*%
G04 APERTURE LIST*
%ADD10R,5.800000X6.400000*%
%ADD11R,1.200000X2.200000*%
%ADD12C,0.800000*%
%ADD13C,6.400000*%
%ADD14O,1.700000X1.700000*%
%ADD15R,1.700000X1.700000*%
%ADD16C,0.100000*%
%ADD17C,3.000000*%
%ADD18R,3.000000X3.000000*%
%ADD19R,0.800000X1.900000*%
%ADD20R,2.700000X3.600000*%
%ADD21C,0.500000*%
%ADD22C,0.500000*%
%ADD23C,0.250000*%
%ADD24C,1.000000*%
%ADD25C,1.500000*%
%ADD26C,0.700000*%
%ADD27C,2.000000*%
G04 APERTURE END LIST*
D10*
X41850000Y-130150000D03*
D11*
X44130000Y-136450000D03*
X39570000Y-136450000D03*
D10*
X32850000Y-130150000D03*
D11*
X35130000Y-136450000D03*
X30570000Y-136450000D03*
D12*
X34697056Y-154302944D03*
X33000000Y-153600000D03*
X31302944Y-154302944D03*
X30600000Y-156000000D03*
X31302944Y-157697056D03*
X33000000Y-158400000D03*
X34697056Y-157697056D03*
X35400000Y-156000000D03*
D13*
X33000000Y-156000000D03*
D12*
X86697056Y-121302944D03*
X85000000Y-120600000D03*
X83302944Y-121302944D03*
X82600000Y-123000000D03*
X83302944Y-124697056D03*
X85000000Y-125400000D03*
X86697056Y-124697056D03*
X87400000Y-123000000D03*
D13*
X85000000Y-123000000D03*
D14*
X75040000Y-159500000D03*
D15*
X72500000Y-159500000D03*
G04 #@! TA.AperFunction,SMDPad,CuDef*
D16*
G36*
X54824504Y-158151204D02*
G01*
X54848773Y-158154804D01*
X54872571Y-158160765D01*
X54895671Y-158169030D01*
X54917849Y-158179520D01*
X54938893Y-158192133D01*
X54958598Y-158206747D01*
X54976777Y-158223223D01*
X54993253Y-158241402D01*
X55007867Y-158261107D01*
X55020480Y-158282151D01*
X55030970Y-158304329D01*
X55039235Y-158327429D01*
X55045196Y-158351227D01*
X55048796Y-158375496D01*
X55050000Y-158400000D01*
X55050000Y-161200000D01*
X55048796Y-161224504D01*
X55045196Y-161248773D01*
X55039235Y-161272571D01*
X55030970Y-161295671D01*
X55020480Y-161317849D01*
X55007867Y-161338893D01*
X54993253Y-161358598D01*
X54976777Y-161376777D01*
X54958598Y-161393253D01*
X54938893Y-161407867D01*
X54917849Y-161420480D01*
X54895671Y-161430970D01*
X54872571Y-161439235D01*
X54848773Y-161445196D01*
X54824504Y-161448796D01*
X54800000Y-161450000D01*
X53500000Y-161450000D01*
X53475496Y-161448796D01*
X53451227Y-161445196D01*
X53427429Y-161439235D01*
X53404329Y-161430970D01*
X53382151Y-161420480D01*
X53361107Y-161407867D01*
X53341402Y-161393253D01*
X53323223Y-161376777D01*
X53306747Y-161358598D01*
X53292133Y-161338893D01*
X53279520Y-161317849D01*
X53269030Y-161295671D01*
X53260765Y-161272571D01*
X53254804Y-161248773D01*
X53251204Y-161224504D01*
X53250000Y-161200000D01*
X53250000Y-158400000D01*
X53251204Y-158375496D01*
X53254804Y-158351227D01*
X53260765Y-158327429D01*
X53269030Y-158304329D01*
X53279520Y-158282151D01*
X53292133Y-158261107D01*
X53306747Y-158241402D01*
X53323223Y-158223223D01*
X53341402Y-158206747D01*
X53361107Y-158192133D01*
X53382151Y-158179520D01*
X53404329Y-158169030D01*
X53427429Y-158160765D01*
X53451227Y-158154804D01*
X53475496Y-158151204D01*
X53500000Y-158150000D01*
X54800000Y-158150000D01*
X54824504Y-158151204D01*
G37*
G04 #@! TD.AperFunction*
G04 #@! TA.AperFunction,SMDPad,CuDef*
G36*
X64524504Y-158151204D02*
G01*
X64548773Y-158154804D01*
X64572571Y-158160765D01*
X64595671Y-158169030D01*
X64617849Y-158179520D01*
X64638893Y-158192133D01*
X64658598Y-158206747D01*
X64676777Y-158223223D01*
X64693253Y-158241402D01*
X64707867Y-158261107D01*
X64720480Y-158282151D01*
X64730970Y-158304329D01*
X64739235Y-158327429D01*
X64745196Y-158351227D01*
X64748796Y-158375496D01*
X64750000Y-158400000D01*
X64750000Y-161200000D01*
X64748796Y-161224504D01*
X64745196Y-161248773D01*
X64739235Y-161272571D01*
X64730970Y-161295671D01*
X64720480Y-161317849D01*
X64707867Y-161338893D01*
X64693253Y-161358598D01*
X64676777Y-161376777D01*
X64658598Y-161393253D01*
X64638893Y-161407867D01*
X64617849Y-161420480D01*
X64595671Y-161430970D01*
X64572571Y-161439235D01*
X64548773Y-161445196D01*
X64524504Y-161448796D01*
X64500000Y-161450000D01*
X63200000Y-161450000D01*
X63175496Y-161448796D01*
X63151227Y-161445196D01*
X63127429Y-161439235D01*
X63104329Y-161430970D01*
X63082151Y-161420480D01*
X63061107Y-161407867D01*
X63041402Y-161393253D01*
X63023223Y-161376777D01*
X63006747Y-161358598D01*
X62992133Y-161338893D01*
X62979520Y-161317849D01*
X62969030Y-161295671D01*
X62960765Y-161272571D01*
X62954804Y-161248773D01*
X62951204Y-161224504D01*
X62950000Y-161200000D01*
X62950000Y-158400000D01*
X62951204Y-158375496D01*
X62954804Y-158351227D01*
X62960765Y-158327429D01*
X62969030Y-158304329D01*
X62979520Y-158282151D01*
X62992133Y-158261107D01*
X63006747Y-158241402D01*
X63023223Y-158223223D01*
X63041402Y-158206747D01*
X63061107Y-158192133D01*
X63082151Y-158179520D01*
X63104329Y-158169030D01*
X63127429Y-158160765D01*
X63151227Y-158154804D01*
X63175496Y-158151204D01*
X63200000Y-158150000D01*
X64500000Y-158150000D01*
X64524504Y-158151204D01*
G37*
G04 #@! TD.AperFunction*
G04 #@! TA.AperFunction,SMDPad,CuDef*
G36*
X56969603Y-153550963D02*
G01*
X56989018Y-153553843D01*
X57008057Y-153558612D01*
X57026537Y-153565224D01*
X57044279Y-153573616D01*
X57061114Y-153583706D01*
X57076879Y-153595398D01*
X57091421Y-153608579D01*
X57104602Y-153623121D01*
X57116294Y-153638886D01*
X57126384Y-153655721D01*
X57134776Y-153673463D01*
X57141388Y-153691943D01*
X57146157Y-153710982D01*
X57149037Y-153730397D01*
X57150000Y-153750000D01*
X57150000Y-155750000D01*
X57149037Y-155769603D01*
X57146157Y-155789018D01*
X57141388Y-155808057D01*
X57134776Y-155826537D01*
X57126384Y-155844279D01*
X57116294Y-155861114D01*
X57104602Y-155876879D01*
X57091421Y-155891421D01*
X57076879Y-155904602D01*
X57061114Y-155916294D01*
X57044279Y-155926384D01*
X57026537Y-155934776D01*
X57008057Y-155941388D01*
X56989018Y-155946157D01*
X56969603Y-155949037D01*
X56950000Y-155950000D01*
X56550000Y-155950000D01*
X56530397Y-155949037D01*
X56510982Y-155946157D01*
X56491943Y-155941388D01*
X56473463Y-155934776D01*
X56455721Y-155926384D01*
X56438886Y-155916294D01*
X56423121Y-155904602D01*
X56408579Y-155891421D01*
X56395398Y-155876879D01*
X56383706Y-155861114D01*
X56373616Y-155844279D01*
X56365224Y-155826537D01*
X56358612Y-155808057D01*
X56353843Y-155789018D01*
X56350963Y-155769603D01*
X56350000Y-155750000D01*
X56350000Y-153750000D01*
X56350963Y-153730397D01*
X56353843Y-153710982D01*
X56358612Y-153691943D01*
X56365224Y-153673463D01*
X56373616Y-153655721D01*
X56383706Y-153638886D01*
X56395398Y-153623121D01*
X56408579Y-153608579D01*
X56423121Y-153595398D01*
X56438886Y-153583706D01*
X56455721Y-153573616D01*
X56473463Y-153565224D01*
X56491943Y-153558612D01*
X56510982Y-153553843D01*
X56530397Y-153550963D01*
X56550000Y-153550000D01*
X56950000Y-153550000D01*
X56969603Y-153550963D01*
G37*
G04 #@! TD.AperFunction*
G04 #@! TA.AperFunction,SMDPad,CuDef*
G36*
X58469603Y-153550963D02*
G01*
X58489018Y-153553843D01*
X58508057Y-153558612D01*
X58526537Y-153565224D01*
X58544279Y-153573616D01*
X58561114Y-153583706D01*
X58576879Y-153595398D01*
X58591421Y-153608579D01*
X58604602Y-153623121D01*
X58616294Y-153638886D01*
X58626384Y-153655721D01*
X58634776Y-153673463D01*
X58641388Y-153691943D01*
X58646157Y-153710982D01*
X58649037Y-153730397D01*
X58650000Y-153750000D01*
X58650000Y-155750000D01*
X58649037Y-155769603D01*
X58646157Y-155789018D01*
X58641388Y-155808057D01*
X58634776Y-155826537D01*
X58626384Y-155844279D01*
X58616294Y-155861114D01*
X58604602Y-155876879D01*
X58591421Y-155891421D01*
X58576879Y-155904602D01*
X58561114Y-155916294D01*
X58544279Y-155926384D01*
X58526537Y-155934776D01*
X58508057Y-155941388D01*
X58489018Y-155946157D01*
X58469603Y-155949037D01*
X58450000Y-155950000D01*
X58050000Y-155950000D01*
X58030397Y-155949037D01*
X58010982Y-155946157D01*
X57991943Y-155941388D01*
X57973463Y-155934776D01*
X57955721Y-155926384D01*
X57938886Y-155916294D01*
X57923121Y-155904602D01*
X57908579Y-155891421D01*
X57895398Y-155876879D01*
X57883706Y-155861114D01*
X57873616Y-155844279D01*
X57865224Y-155826537D01*
X57858612Y-155808057D01*
X57853843Y-155789018D01*
X57850963Y-155769603D01*
X57850000Y-155750000D01*
X57850000Y-153750000D01*
X57850963Y-153730397D01*
X57853843Y-153710982D01*
X57858612Y-153691943D01*
X57865224Y-153673463D01*
X57873616Y-153655721D01*
X57883706Y-153638886D01*
X57895398Y-153623121D01*
X57908579Y-153608579D01*
X57923121Y-153595398D01*
X57938886Y-153583706D01*
X57955721Y-153573616D01*
X57973463Y-153565224D01*
X57991943Y-153558612D01*
X58010982Y-153553843D01*
X58030397Y-153550963D01*
X58050000Y-153550000D01*
X58450000Y-153550000D01*
X58469603Y-153550963D01*
G37*
G04 #@! TD.AperFunction*
G04 #@! TA.AperFunction,SMDPad,CuDef*
G36*
X59969603Y-153550963D02*
G01*
X59989018Y-153553843D01*
X60008057Y-153558612D01*
X60026537Y-153565224D01*
X60044279Y-153573616D01*
X60061114Y-153583706D01*
X60076879Y-153595398D01*
X60091421Y-153608579D01*
X60104602Y-153623121D01*
X60116294Y-153638886D01*
X60126384Y-153655721D01*
X60134776Y-153673463D01*
X60141388Y-153691943D01*
X60146157Y-153710982D01*
X60149037Y-153730397D01*
X60150000Y-153750000D01*
X60150000Y-155750000D01*
X60149037Y-155769603D01*
X60146157Y-155789018D01*
X60141388Y-155808057D01*
X60134776Y-155826537D01*
X60126384Y-155844279D01*
X60116294Y-155861114D01*
X60104602Y-155876879D01*
X60091421Y-155891421D01*
X60076879Y-155904602D01*
X60061114Y-155916294D01*
X60044279Y-155926384D01*
X60026537Y-155934776D01*
X60008057Y-155941388D01*
X59989018Y-155946157D01*
X59969603Y-155949037D01*
X59950000Y-155950000D01*
X59550000Y-155950000D01*
X59530397Y-155949037D01*
X59510982Y-155946157D01*
X59491943Y-155941388D01*
X59473463Y-155934776D01*
X59455721Y-155926384D01*
X59438886Y-155916294D01*
X59423121Y-155904602D01*
X59408579Y-155891421D01*
X59395398Y-155876879D01*
X59383706Y-155861114D01*
X59373616Y-155844279D01*
X59365224Y-155826537D01*
X59358612Y-155808057D01*
X59353843Y-155789018D01*
X59350963Y-155769603D01*
X59350000Y-155750000D01*
X59350000Y-153750000D01*
X59350963Y-153730397D01*
X59353843Y-153710982D01*
X59358612Y-153691943D01*
X59365224Y-153673463D01*
X59373616Y-153655721D01*
X59383706Y-153638886D01*
X59395398Y-153623121D01*
X59408579Y-153608579D01*
X59423121Y-153595398D01*
X59438886Y-153583706D01*
X59455721Y-153573616D01*
X59473463Y-153565224D01*
X59491943Y-153558612D01*
X59510982Y-153553843D01*
X59530397Y-153550963D01*
X59550000Y-153550000D01*
X59950000Y-153550000D01*
X59969603Y-153550963D01*
G37*
G04 #@! TD.AperFunction*
G04 #@! TA.AperFunction,SMDPad,CuDef*
G36*
X61469603Y-153550963D02*
G01*
X61489018Y-153553843D01*
X61508057Y-153558612D01*
X61526537Y-153565224D01*
X61544279Y-153573616D01*
X61561114Y-153583706D01*
X61576879Y-153595398D01*
X61591421Y-153608579D01*
X61604602Y-153623121D01*
X61616294Y-153638886D01*
X61626384Y-153655721D01*
X61634776Y-153673463D01*
X61641388Y-153691943D01*
X61646157Y-153710982D01*
X61649037Y-153730397D01*
X61650000Y-153750000D01*
X61650000Y-155750000D01*
X61649037Y-155769603D01*
X61646157Y-155789018D01*
X61641388Y-155808057D01*
X61634776Y-155826537D01*
X61626384Y-155844279D01*
X61616294Y-155861114D01*
X61604602Y-155876879D01*
X61591421Y-155891421D01*
X61576879Y-155904602D01*
X61561114Y-155916294D01*
X61544279Y-155926384D01*
X61526537Y-155934776D01*
X61508057Y-155941388D01*
X61489018Y-155946157D01*
X61469603Y-155949037D01*
X61450000Y-155950000D01*
X61050000Y-155950000D01*
X61030397Y-155949037D01*
X61010982Y-155946157D01*
X60991943Y-155941388D01*
X60973463Y-155934776D01*
X60955721Y-155926384D01*
X60938886Y-155916294D01*
X60923121Y-155904602D01*
X60908579Y-155891421D01*
X60895398Y-155876879D01*
X60883706Y-155861114D01*
X60873616Y-155844279D01*
X60865224Y-155826537D01*
X60858612Y-155808057D01*
X60853843Y-155789018D01*
X60850963Y-155769603D01*
X60850000Y-155750000D01*
X60850000Y-153750000D01*
X60850963Y-153730397D01*
X60853843Y-153710982D01*
X60858612Y-153691943D01*
X60865224Y-153673463D01*
X60873616Y-153655721D01*
X60883706Y-153638886D01*
X60895398Y-153623121D01*
X60908579Y-153608579D01*
X60923121Y-153595398D01*
X60938886Y-153583706D01*
X60955721Y-153573616D01*
X60973463Y-153565224D01*
X60991943Y-153558612D01*
X61010982Y-153553843D01*
X61030397Y-153550963D01*
X61050000Y-153550000D01*
X61450000Y-153550000D01*
X61469603Y-153550963D01*
G37*
G04 #@! TD.AperFunction*
G04 #@! TA.AperFunction,SMDPad,CuDef*
G36*
X90224504Y-159451204D02*
G01*
X90248773Y-159454804D01*
X90272571Y-159460765D01*
X90295671Y-159469030D01*
X90317849Y-159479520D01*
X90338893Y-159492133D01*
X90358598Y-159506747D01*
X90376777Y-159523223D01*
X90393253Y-159541402D01*
X90407867Y-159561107D01*
X90420480Y-159582151D01*
X90430970Y-159604329D01*
X90439235Y-159627429D01*
X90445196Y-159651227D01*
X90448796Y-159675496D01*
X90450000Y-159700000D01*
X90450000Y-161000000D01*
X90448796Y-161024504D01*
X90445196Y-161048773D01*
X90439235Y-161072571D01*
X90430970Y-161095671D01*
X90420480Y-161117849D01*
X90407867Y-161138893D01*
X90393253Y-161158598D01*
X90376777Y-161176777D01*
X90358598Y-161193253D01*
X90338893Y-161207867D01*
X90317849Y-161220480D01*
X90295671Y-161230970D01*
X90272571Y-161239235D01*
X90248773Y-161245196D01*
X90224504Y-161248796D01*
X90200000Y-161250000D01*
X87400000Y-161250000D01*
X87375496Y-161248796D01*
X87351227Y-161245196D01*
X87327429Y-161239235D01*
X87304329Y-161230970D01*
X87282151Y-161220480D01*
X87261107Y-161207867D01*
X87241402Y-161193253D01*
X87223223Y-161176777D01*
X87206747Y-161158598D01*
X87192133Y-161138893D01*
X87179520Y-161117849D01*
X87169030Y-161095671D01*
X87160765Y-161072571D01*
X87154804Y-161048773D01*
X87151204Y-161024504D01*
X87150000Y-161000000D01*
X87150000Y-159700000D01*
X87151204Y-159675496D01*
X87154804Y-159651227D01*
X87160765Y-159627429D01*
X87169030Y-159604329D01*
X87179520Y-159582151D01*
X87192133Y-159561107D01*
X87206747Y-159541402D01*
X87223223Y-159523223D01*
X87241402Y-159506747D01*
X87261107Y-159492133D01*
X87282151Y-159479520D01*
X87304329Y-159469030D01*
X87327429Y-159460765D01*
X87351227Y-159454804D01*
X87375496Y-159451204D01*
X87400000Y-159450000D01*
X90200000Y-159450000D01*
X90224504Y-159451204D01*
G37*
G04 #@! TD.AperFunction*
G04 #@! TA.AperFunction,SMDPad,CuDef*
G36*
X90224504Y-149751204D02*
G01*
X90248773Y-149754804D01*
X90272571Y-149760765D01*
X90295671Y-149769030D01*
X90317849Y-149779520D01*
X90338893Y-149792133D01*
X90358598Y-149806747D01*
X90376777Y-149823223D01*
X90393253Y-149841402D01*
X90407867Y-149861107D01*
X90420480Y-149882151D01*
X90430970Y-149904329D01*
X90439235Y-149927429D01*
X90445196Y-149951227D01*
X90448796Y-149975496D01*
X90450000Y-150000000D01*
X90450000Y-151300000D01*
X90448796Y-151324504D01*
X90445196Y-151348773D01*
X90439235Y-151372571D01*
X90430970Y-151395671D01*
X90420480Y-151417849D01*
X90407867Y-151438893D01*
X90393253Y-151458598D01*
X90376777Y-151476777D01*
X90358598Y-151493253D01*
X90338893Y-151507867D01*
X90317849Y-151520480D01*
X90295671Y-151530970D01*
X90272571Y-151539235D01*
X90248773Y-151545196D01*
X90224504Y-151548796D01*
X90200000Y-151550000D01*
X87400000Y-151550000D01*
X87375496Y-151548796D01*
X87351227Y-151545196D01*
X87327429Y-151539235D01*
X87304329Y-151530970D01*
X87282151Y-151520480D01*
X87261107Y-151507867D01*
X87241402Y-151493253D01*
X87223223Y-151476777D01*
X87206747Y-151458598D01*
X87192133Y-151438893D01*
X87179520Y-151417849D01*
X87169030Y-151395671D01*
X87160765Y-151372571D01*
X87154804Y-151348773D01*
X87151204Y-151324504D01*
X87150000Y-151300000D01*
X87150000Y-150000000D01*
X87151204Y-149975496D01*
X87154804Y-149951227D01*
X87160765Y-149927429D01*
X87169030Y-149904329D01*
X87179520Y-149882151D01*
X87192133Y-149861107D01*
X87206747Y-149841402D01*
X87223223Y-149823223D01*
X87241402Y-149806747D01*
X87261107Y-149792133D01*
X87282151Y-149779520D01*
X87304329Y-149769030D01*
X87327429Y-149760765D01*
X87351227Y-149754804D01*
X87375496Y-149751204D01*
X87400000Y-149750000D01*
X90200000Y-149750000D01*
X90224504Y-149751204D01*
G37*
G04 #@! TD.AperFunction*
G04 #@! TA.AperFunction,SMDPad,CuDef*
G36*
X84769603Y-157350963D02*
G01*
X84789018Y-157353843D01*
X84808057Y-157358612D01*
X84826537Y-157365224D01*
X84844279Y-157373616D01*
X84861114Y-157383706D01*
X84876879Y-157395398D01*
X84891421Y-157408579D01*
X84904602Y-157423121D01*
X84916294Y-157438886D01*
X84926384Y-157455721D01*
X84934776Y-157473463D01*
X84941388Y-157491943D01*
X84946157Y-157510982D01*
X84949037Y-157530397D01*
X84950000Y-157550000D01*
X84950000Y-157950000D01*
X84949037Y-157969603D01*
X84946157Y-157989018D01*
X84941388Y-158008057D01*
X84934776Y-158026537D01*
X84926384Y-158044279D01*
X84916294Y-158061114D01*
X84904602Y-158076879D01*
X84891421Y-158091421D01*
X84876879Y-158104602D01*
X84861114Y-158116294D01*
X84844279Y-158126384D01*
X84826537Y-158134776D01*
X84808057Y-158141388D01*
X84789018Y-158146157D01*
X84769603Y-158149037D01*
X84750000Y-158150000D01*
X82750000Y-158150000D01*
X82730397Y-158149037D01*
X82710982Y-158146157D01*
X82691943Y-158141388D01*
X82673463Y-158134776D01*
X82655721Y-158126384D01*
X82638886Y-158116294D01*
X82623121Y-158104602D01*
X82608579Y-158091421D01*
X82595398Y-158076879D01*
X82583706Y-158061114D01*
X82573616Y-158044279D01*
X82565224Y-158026537D01*
X82558612Y-158008057D01*
X82553843Y-157989018D01*
X82550963Y-157969603D01*
X82550000Y-157950000D01*
X82550000Y-157550000D01*
X82550963Y-157530397D01*
X82553843Y-157510982D01*
X82558612Y-157491943D01*
X82565224Y-157473463D01*
X82573616Y-157455721D01*
X82583706Y-157438886D01*
X82595398Y-157423121D01*
X82608579Y-157408579D01*
X82623121Y-157395398D01*
X82638886Y-157383706D01*
X82655721Y-157373616D01*
X82673463Y-157365224D01*
X82691943Y-157358612D01*
X82710982Y-157353843D01*
X82730397Y-157350963D01*
X82750000Y-157350000D01*
X84750000Y-157350000D01*
X84769603Y-157350963D01*
G37*
G04 #@! TD.AperFunction*
G04 #@! TA.AperFunction,SMDPad,CuDef*
G36*
X84769603Y-155850963D02*
G01*
X84789018Y-155853843D01*
X84808057Y-155858612D01*
X84826537Y-155865224D01*
X84844279Y-155873616D01*
X84861114Y-155883706D01*
X84876879Y-155895398D01*
X84891421Y-155908579D01*
X84904602Y-155923121D01*
X84916294Y-155938886D01*
X84926384Y-155955721D01*
X84934776Y-155973463D01*
X84941388Y-155991943D01*
X84946157Y-156010982D01*
X84949037Y-156030397D01*
X84950000Y-156050000D01*
X84950000Y-156450000D01*
X84949037Y-156469603D01*
X84946157Y-156489018D01*
X84941388Y-156508057D01*
X84934776Y-156526537D01*
X84926384Y-156544279D01*
X84916294Y-156561114D01*
X84904602Y-156576879D01*
X84891421Y-156591421D01*
X84876879Y-156604602D01*
X84861114Y-156616294D01*
X84844279Y-156626384D01*
X84826537Y-156634776D01*
X84808057Y-156641388D01*
X84789018Y-156646157D01*
X84769603Y-156649037D01*
X84750000Y-156650000D01*
X82750000Y-156650000D01*
X82730397Y-156649037D01*
X82710982Y-156646157D01*
X82691943Y-156641388D01*
X82673463Y-156634776D01*
X82655721Y-156626384D01*
X82638886Y-156616294D01*
X82623121Y-156604602D01*
X82608579Y-156591421D01*
X82595398Y-156576879D01*
X82583706Y-156561114D01*
X82573616Y-156544279D01*
X82565224Y-156526537D01*
X82558612Y-156508057D01*
X82553843Y-156489018D01*
X82550963Y-156469603D01*
X82550000Y-156450000D01*
X82550000Y-156050000D01*
X82550963Y-156030397D01*
X82553843Y-156010982D01*
X82558612Y-155991943D01*
X82565224Y-155973463D01*
X82573616Y-155955721D01*
X82583706Y-155938886D01*
X82595398Y-155923121D01*
X82608579Y-155908579D01*
X82623121Y-155895398D01*
X82638886Y-155883706D01*
X82655721Y-155873616D01*
X82673463Y-155865224D01*
X82691943Y-155858612D01*
X82710982Y-155853843D01*
X82730397Y-155850963D01*
X82750000Y-155850000D01*
X84750000Y-155850000D01*
X84769603Y-155850963D01*
G37*
G04 #@! TD.AperFunction*
G04 #@! TA.AperFunction,SMDPad,CuDef*
G36*
X84769603Y-154350963D02*
G01*
X84789018Y-154353843D01*
X84808057Y-154358612D01*
X84826537Y-154365224D01*
X84844279Y-154373616D01*
X84861114Y-154383706D01*
X84876879Y-154395398D01*
X84891421Y-154408579D01*
X84904602Y-154423121D01*
X84916294Y-154438886D01*
X84926384Y-154455721D01*
X84934776Y-154473463D01*
X84941388Y-154491943D01*
X84946157Y-154510982D01*
X84949037Y-154530397D01*
X84950000Y-154550000D01*
X84950000Y-154950000D01*
X84949037Y-154969603D01*
X84946157Y-154989018D01*
X84941388Y-155008057D01*
X84934776Y-155026537D01*
X84926384Y-155044279D01*
X84916294Y-155061114D01*
X84904602Y-155076879D01*
X84891421Y-155091421D01*
X84876879Y-155104602D01*
X84861114Y-155116294D01*
X84844279Y-155126384D01*
X84826537Y-155134776D01*
X84808057Y-155141388D01*
X84789018Y-155146157D01*
X84769603Y-155149037D01*
X84750000Y-155150000D01*
X82750000Y-155150000D01*
X82730397Y-155149037D01*
X82710982Y-155146157D01*
X82691943Y-155141388D01*
X82673463Y-155134776D01*
X82655721Y-155126384D01*
X82638886Y-155116294D01*
X82623121Y-155104602D01*
X82608579Y-155091421D01*
X82595398Y-155076879D01*
X82583706Y-155061114D01*
X82573616Y-155044279D01*
X82565224Y-155026537D01*
X82558612Y-155008057D01*
X82553843Y-154989018D01*
X82550963Y-154969603D01*
X82550000Y-154950000D01*
X82550000Y-154550000D01*
X82550963Y-154530397D01*
X82553843Y-154510982D01*
X82558612Y-154491943D01*
X82565224Y-154473463D01*
X82573616Y-154455721D01*
X82583706Y-154438886D01*
X82595398Y-154423121D01*
X82608579Y-154408579D01*
X82623121Y-154395398D01*
X82638886Y-154383706D01*
X82655721Y-154373616D01*
X82673463Y-154365224D01*
X82691943Y-154358612D01*
X82710982Y-154353843D01*
X82730397Y-154350963D01*
X82750000Y-154350000D01*
X84750000Y-154350000D01*
X84769603Y-154350963D01*
G37*
G04 #@! TD.AperFunction*
G04 #@! TA.AperFunction,SMDPad,CuDef*
G36*
X84769603Y-152850963D02*
G01*
X84789018Y-152853843D01*
X84808057Y-152858612D01*
X84826537Y-152865224D01*
X84844279Y-152873616D01*
X84861114Y-152883706D01*
X84876879Y-152895398D01*
X84891421Y-152908579D01*
X84904602Y-152923121D01*
X84916294Y-152938886D01*
X84926384Y-152955721D01*
X84934776Y-152973463D01*
X84941388Y-152991943D01*
X84946157Y-153010982D01*
X84949037Y-153030397D01*
X84950000Y-153050000D01*
X84950000Y-153450000D01*
X84949037Y-153469603D01*
X84946157Y-153489018D01*
X84941388Y-153508057D01*
X84934776Y-153526537D01*
X84926384Y-153544279D01*
X84916294Y-153561114D01*
X84904602Y-153576879D01*
X84891421Y-153591421D01*
X84876879Y-153604602D01*
X84861114Y-153616294D01*
X84844279Y-153626384D01*
X84826537Y-153634776D01*
X84808057Y-153641388D01*
X84789018Y-153646157D01*
X84769603Y-153649037D01*
X84750000Y-153650000D01*
X82750000Y-153650000D01*
X82730397Y-153649037D01*
X82710982Y-153646157D01*
X82691943Y-153641388D01*
X82673463Y-153634776D01*
X82655721Y-153626384D01*
X82638886Y-153616294D01*
X82623121Y-153604602D01*
X82608579Y-153591421D01*
X82595398Y-153576879D01*
X82583706Y-153561114D01*
X82573616Y-153544279D01*
X82565224Y-153526537D01*
X82558612Y-153508057D01*
X82553843Y-153489018D01*
X82550963Y-153469603D01*
X82550000Y-153450000D01*
X82550000Y-153050000D01*
X82550963Y-153030397D01*
X82553843Y-153010982D01*
X82558612Y-152991943D01*
X82565224Y-152973463D01*
X82573616Y-152955721D01*
X82583706Y-152938886D01*
X82595398Y-152923121D01*
X82608579Y-152908579D01*
X82623121Y-152895398D01*
X82638886Y-152883706D01*
X82655721Y-152873616D01*
X82673463Y-152865224D01*
X82691943Y-152858612D01*
X82710982Y-152853843D01*
X82730397Y-152850963D01*
X82750000Y-152850000D01*
X84750000Y-152850000D01*
X84769603Y-152850963D01*
G37*
G04 #@! TD.AperFunction*
G04 #@! TA.AperFunction,SMDPad,CuDef*
G36*
X41824504Y-158151204D02*
G01*
X41848773Y-158154804D01*
X41872571Y-158160765D01*
X41895671Y-158169030D01*
X41917849Y-158179520D01*
X41938893Y-158192133D01*
X41958598Y-158206747D01*
X41976777Y-158223223D01*
X41993253Y-158241402D01*
X42007867Y-158261107D01*
X42020480Y-158282151D01*
X42030970Y-158304329D01*
X42039235Y-158327429D01*
X42045196Y-158351227D01*
X42048796Y-158375496D01*
X42050000Y-158400000D01*
X42050000Y-161200000D01*
X42048796Y-161224504D01*
X42045196Y-161248773D01*
X42039235Y-161272571D01*
X42030970Y-161295671D01*
X42020480Y-161317849D01*
X42007867Y-161338893D01*
X41993253Y-161358598D01*
X41976777Y-161376777D01*
X41958598Y-161393253D01*
X41938893Y-161407867D01*
X41917849Y-161420480D01*
X41895671Y-161430970D01*
X41872571Y-161439235D01*
X41848773Y-161445196D01*
X41824504Y-161448796D01*
X41800000Y-161450000D01*
X40500000Y-161450000D01*
X40475496Y-161448796D01*
X40451227Y-161445196D01*
X40427429Y-161439235D01*
X40404329Y-161430970D01*
X40382151Y-161420480D01*
X40361107Y-161407867D01*
X40341402Y-161393253D01*
X40323223Y-161376777D01*
X40306747Y-161358598D01*
X40292133Y-161338893D01*
X40279520Y-161317849D01*
X40269030Y-161295671D01*
X40260765Y-161272571D01*
X40254804Y-161248773D01*
X40251204Y-161224504D01*
X40250000Y-161200000D01*
X40250000Y-158400000D01*
X40251204Y-158375496D01*
X40254804Y-158351227D01*
X40260765Y-158327429D01*
X40269030Y-158304329D01*
X40279520Y-158282151D01*
X40292133Y-158261107D01*
X40306747Y-158241402D01*
X40323223Y-158223223D01*
X40341402Y-158206747D01*
X40361107Y-158192133D01*
X40382151Y-158179520D01*
X40404329Y-158169030D01*
X40427429Y-158160765D01*
X40451227Y-158154804D01*
X40475496Y-158151204D01*
X40500000Y-158150000D01*
X41800000Y-158150000D01*
X41824504Y-158151204D01*
G37*
G04 #@! TD.AperFunction*
G04 #@! TA.AperFunction,SMDPad,CuDef*
G36*
X51524504Y-158151204D02*
G01*
X51548773Y-158154804D01*
X51572571Y-158160765D01*
X51595671Y-158169030D01*
X51617849Y-158179520D01*
X51638893Y-158192133D01*
X51658598Y-158206747D01*
X51676777Y-158223223D01*
X51693253Y-158241402D01*
X51707867Y-158261107D01*
X51720480Y-158282151D01*
X51730970Y-158304329D01*
X51739235Y-158327429D01*
X51745196Y-158351227D01*
X51748796Y-158375496D01*
X51750000Y-158400000D01*
X51750000Y-161200000D01*
X51748796Y-161224504D01*
X51745196Y-161248773D01*
X51739235Y-161272571D01*
X51730970Y-161295671D01*
X51720480Y-161317849D01*
X51707867Y-161338893D01*
X51693253Y-161358598D01*
X51676777Y-161376777D01*
X51658598Y-161393253D01*
X51638893Y-161407867D01*
X51617849Y-161420480D01*
X51595671Y-161430970D01*
X51572571Y-161439235D01*
X51548773Y-161445196D01*
X51524504Y-161448796D01*
X51500000Y-161450000D01*
X50200000Y-161450000D01*
X50175496Y-161448796D01*
X50151227Y-161445196D01*
X50127429Y-161439235D01*
X50104329Y-161430970D01*
X50082151Y-161420480D01*
X50061107Y-161407867D01*
X50041402Y-161393253D01*
X50023223Y-161376777D01*
X50006747Y-161358598D01*
X49992133Y-161338893D01*
X49979520Y-161317849D01*
X49969030Y-161295671D01*
X49960765Y-161272571D01*
X49954804Y-161248773D01*
X49951204Y-161224504D01*
X49950000Y-161200000D01*
X49950000Y-158400000D01*
X49951204Y-158375496D01*
X49954804Y-158351227D01*
X49960765Y-158327429D01*
X49969030Y-158304329D01*
X49979520Y-158282151D01*
X49992133Y-158261107D01*
X50006747Y-158241402D01*
X50023223Y-158223223D01*
X50041402Y-158206747D01*
X50061107Y-158192133D01*
X50082151Y-158179520D01*
X50104329Y-158169030D01*
X50127429Y-158160765D01*
X50151227Y-158154804D01*
X50175496Y-158151204D01*
X50200000Y-158150000D01*
X51500000Y-158150000D01*
X51524504Y-158151204D01*
G37*
G04 #@! TD.AperFunction*
G04 #@! TA.AperFunction,SMDPad,CuDef*
G36*
X43969603Y-153550963D02*
G01*
X43989018Y-153553843D01*
X44008057Y-153558612D01*
X44026537Y-153565224D01*
X44044279Y-153573616D01*
X44061114Y-153583706D01*
X44076879Y-153595398D01*
X44091421Y-153608579D01*
X44104602Y-153623121D01*
X44116294Y-153638886D01*
X44126384Y-153655721D01*
X44134776Y-153673463D01*
X44141388Y-153691943D01*
X44146157Y-153710982D01*
X44149037Y-153730397D01*
X44150000Y-153750000D01*
X44150000Y-155750000D01*
X44149037Y-155769603D01*
X44146157Y-155789018D01*
X44141388Y-155808057D01*
X44134776Y-155826537D01*
X44126384Y-155844279D01*
X44116294Y-155861114D01*
X44104602Y-155876879D01*
X44091421Y-155891421D01*
X44076879Y-155904602D01*
X44061114Y-155916294D01*
X44044279Y-155926384D01*
X44026537Y-155934776D01*
X44008057Y-155941388D01*
X43989018Y-155946157D01*
X43969603Y-155949037D01*
X43950000Y-155950000D01*
X43550000Y-155950000D01*
X43530397Y-155949037D01*
X43510982Y-155946157D01*
X43491943Y-155941388D01*
X43473463Y-155934776D01*
X43455721Y-155926384D01*
X43438886Y-155916294D01*
X43423121Y-155904602D01*
X43408579Y-155891421D01*
X43395398Y-155876879D01*
X43383706Y-155861114D01*
X43373616Y-155844279D01*
X43365224Y-155826537D01*
X43358612Y-155808057D01*
X43353843Y-155789018D01*
X43350963Y-155769603D01*
X43350000Y-155750000D01*
X43350000Y-153750000D01*
X43350963Y-153730397D01*
X43353843Y-153710982D01*
X43358612Y-153691943D01*
X43365224Y-153673463D01*
X43373616Y-153655721D01*
X43383706Y-153638886D01*
X43395398Y-153623121D01*
X43408579Y-153608579D01*
X43423121Y-153595398D01*
X43438886Y-153583706D01*
X43455721Y-153573616D01*
X43473463Y-153565224D01*
X43491943Y-153558612D01*
X43510982Y-153553843D01*
X43530397Y-153550963D01*
X43550000Y-153550000D01*
X43950000Y-153550000D01*
X43969603Y-153550963D01*
G37*
G04 #@! TD.AperFunction*
G04 #@! TA.AperFunction,SMDPad,CuDef*
G36*
X45469603Y-153550963D02*
G01*
X45489018Y-153553843D01*
X45508057Y-153558612D01*
X45526537Y-153565224D01*
X45544279Y-153573616D01*
X45561114Y-153583706D01*
X45576879Y-153595398D01*
X45591421Y-153608579D01*
X45604602Y-153623121D01*
X45616294Y-153638886D01*
X45626384Y-153655721D01*
X45634776Y-153673463D01*
X45641388Y-153691943D01*
X45646157Y-153710982D01*
X45649037Y-153730397D01*
X45650000Y-153750000D01*
X45650000Y-155750000D01*
X45649037Y-155769603D01*
X45646157Y-155789018D01*
X45641388Y-155808057D01*
X45634776Y-155826537D01*
X45626384Y-155844279D01*
X45616294Y-155861114D01*
X45604602Y-155876879D01*
X45591421Y-155891421D01*
X45576879Y-155904602D01*
X45561114Y-155916294D01*
X45544279Y-155926384D01*
X45526537Y-155934776D01*
X45508057Y-155941388D01*
X45489018Y-155946157D01*
X45469603Y-155949037D01*
X45450000Y-155950000D01*
X45050000Y-155950000D01*
X45030397Y-155949037D01*
X45010982Y-155946157D01*
X44991943Y-155941388D01*
X44973463Y-155934776D01*
X44955721Y-155926384D01*
X44938886Y-155916294D01*
X44923121Y-155904602D01*
X44908579Y-155891421D01*
X44895398Y-155876879D01*
X44883706Y-155861114D01*
X44873616Y-155844279D01*
X44865224Y-155826537D01*
X44858612Y-155808057D01*
X44853843Y-155789018D01*
X44850963Y-155769603D01*
X44850000Y-155750000D01*
X44850000Y-153750000D01*
X44850963Y-153730397D01*
X44853843Y-153710982D01*
X44858612Y-153691943D01*
X44865224Y-153673463D01*
X44873616Y-153655721D01*
X44883706Y-153638886D01*
X44895398Y-153623121D01*
X44908579Y-153608579D01*
X44923121Y-153595398D01*
X44938886Y-153583706D01*
X44955721Y-153573616D01*
X44973463Y-153565224D01*
X44991943Y-153558612D01*
X45010982Y-153553843D01*
X45030397Y-153550963D01*
X45050000Y-153550000D01*
X45450000Y-153550000D01*
X45469603Y-153550963D01*
G37*
G04 #@! TD.AperFunction*
G04 #@! TA.AperFunction,SMDPad,CuDef*
G36*
X46969603Y-153550963D02*
G01*
X46989018Y-153553843D01*
X47008057Y-153558612D01*
X47026537Y-153565224D01*
X47044279Y-153573616D01*
X47061114Y-153583706D01*
X47076879Y-153595398D01*
X47091421Y-153608579D01*
X47104602Y-153623121D01*
X47116294Y-153638886D01*
X47126384Y-153655721D01*
X47134776Y-153673463D01*
X47141388Y-153691943D01*
X47146157Y-153710982D01*
X47149037Y-153730397D01*
X47150000Y-153750000D01*
X47150000Y-155750000D01*
X47149037Y-155769603D01*
X47146157Y-155789018D01*
X47141388Y-155808057D01*
X47134776Y-155826537D01*
X47126384Y-155844279D01*
X47116294Y-155861114D01*
X47104602Y-155876879D01*
X47091421Y-155891421D01*
X47076879Y-155904602D01*
X47061114Y-155916294D01*
X47044279Y-155926384D01*
X47026537Y-155934776D01*
X47008057Y-155941388D01*
X46989018Y-155946157D01*
X46969603Y-155949037D01*
X46950000Y-155950000D01*
X46550000Y-155950000D01*
X46530397Y-155949037D01*
X46510982Y-155946157D01*
X46491943Y-155941388D01*
X46473463Y-155934776D01*
X46455721Y-155926384D01*
X46438886Y-155916294D01*
X46423121Y-155904602D01*
X46408579Y-155891421D01*
X46395398Y-155876879D01*
X46383706Y-155861114D01*
X46373616Y-155844279D01*
X46365224Y-155826537D01*
X46358612Y-155808057D01*
X46353843Y-155789018D01*
X46350963Y-155769603D01*
X46350000Y-155750000D01*
X46350000Y-153750000D01*
X46350963Y-153730397D01*
X46353843Y-153710982D01*
X46358612Y-153691943D01*
X46365224Y-153673463D01*
X46373616Y-153655721D01*
X46383706Y-153638886D01*
X46395398Y-153623121D01*
X46408579Y-153608579D01*
X46423121Y-153595398D01*
X46438886Y-153583706D01*
X46455721Y-153573616D01*
X46473463Y-153565224D01*
X46491943Y-153558612D01*
X46510982Y-153553843D01*
X46530397Y-153550963D01*
X46550000Y-153550000D01*
X46950000Y-153550000D01*
X46969603Y-153550963D01*
G37*
G04 #@! TD.AperFunction*
G04 #@! TA.AperFunction,SMDPad,CuDef*
G36*
X48469603Y-153550963D02*
G01*
X48489018Y-153553843D01*
X48508057Y-153558612D01*
X48526537Y-153565224D01*
X48544279Y-153573616D01*
X48561114Y-153583706D01*
X48576879Y-153595398D01*
X48591421Y-153608579D01*
X48604602Y-153623121D01*
X48616294Y-153638886D01*
X48626384Y-153655721D01*
X48634776Y-153673463D01*
X48641388Y-153691943D01*
X48646157Y-153710982D01*
X48649037Y-153730397D01*
X48650000Y-153750000D01*
X48650000Y-155750000D01*
X48649037Y-155769603D01*
X48646157Y-155789018D01*
X48641388Y-155808057D01*
X48634776Y-155826537D01*
X48626384Y-155844279D01*
X48616294Y-155861114D01*
X48604602Y-155876879D01*
X48591421Y-155891421D01*
X48576879Y-155904602D01*
X48561114Y-155916294D01*
X48544279Y-155926384D01*
X48526537Y-155934776D01*
X48508057Y-155941388D01*
X48489018Y-155946157D01*
X48469603Y-155949037D01*
X48450000Y-155950000D01*
X48050000Y-155950000D01*
X48030397Y-155949037D01*
X48010982Y-155946157D01*
X47991943Y-155941388D01*
X47973463Y-155934776D01*
X47955721Y-155926384D01*
X47938886Y-155916294D01*
X47923121Y-155904602D01*
X47908579Y-155891421D01*
X47895398Y-155876879D01*
X47883706Y-155861114D01*
X47873616Y-155844279D01*
X47865224Y-155826537D01*
X47858612Y-155808057D01*
X47853843Y-155789018D01*
X47850963Y-155769603D01*
X47850000Y-155750000D01*
X47850000Y-153750000D01*
X47850963Y-153730397D01*
X47853843Y-153710982D01*
X47858612Y-153691943D01*
X47865224Y-153673463D01*
X47873616Y-153655721D01*
X47883706Y-153638886D01*
X47895398Y-153623121D01*
X47908579Y-153608579D01*
X47923121Y-153595398D01*
X47938886Y-153583706D01*
X47955721Y-153573616D01*
X47973463Y-153565224D01*
X47991943Y-153558612D01*
X48010982Y-153553843D01*
X48030397Y-153550963D01*
X48050000Y-153550000D01*
X48450000Y-153550000D01*
X48469603Y-153550963D01*
G37*
G04 #@! TD.AperFunction*
G04 #@! TA.AperFunction,SMDPad,CuDef*
G36*
X89224504Y-144601204D02*
G01*
X89248773Y-144604804D01*
X89272571Y-144610765D01*
X89295671Y-144619030D01*
X89317849Y-144629520D01*
X89338893Y-144642133D01*
X89358598Y-144656747D01*
X89376777Y-144673223D01*
X89393253Y-144691402D01*
X89407867Y-144711107D01*
X89420480Y-144732151D01*
X89430970Y-144754329D01*
X89439235Y-144777429D01*
X89445196Y-144801227D01*
X89448796Y-144825496D01*
X89450000Y-144850000D01*
X89450000Y-145950000D01*
X89448796Y-145974504D01*
X89445196Y-145998773D01*
X89439235Y-146022571D01*
X89430970Y-146045671D01*
X89420480Y-146067849D01*
X89407867Y-146088893D01*
X89393253Y-146108598D01*
X89376777Y-146126777D01*
X89358598Y-146143253D01*
X89338893Y-146157867D01*
X89317849Y-146170480D01*
X89295671Y-146180970D01*
X89272571Y-146189235D01*
X89248773Y-146195196D01*
X89224504Y-146198796D01*
X89200000Y-146200000D01*
X86200000Y-146200000D01*
X86175496Y-146198796D01*
X86151227Y-146195196D01*
X86127429Y-146189235D01*
X86104329Y-146180970D01*
X86082151Y-146170480D01*
X86061107Y-146157867D01*
X86041402Y-146143253D01*
X86023223Y-146126777D01*
X86006747Y-146108598D01*
X85992133Y-146088893D01*
X85979520Y-146067849D01*
X85969030Y-146045671D01*
X85960765Y-146022571D01*
X85954804Y-145998773D01*
X85951204Y-145974504D01*
X85950000Y-145950000D01*
X85950000Y-144850000D01*
X85951204Y-144825496D01*
X85954804Y-144801227D01*
X85960765Y-144777429D01*
X85969030Y-144754329D01*
X85979520Y-144732151D01*
X85992133Y-144711107D01*
X86006747Y-144691402D01*
X86023223Y-144673223D01*
X86041402Y-144656747D01*
X86061107Y-144642133D01*
X86082151Y-144629520D01*
X86104329Y-144619030D01*
X86127429Y-144610765D01*
X86151227Y-144604804D01*
X86175496Y-144601204D01*
X86200000Y-144600000D01*
X89200000Y-144600000D01*
X89224504Y-144601204D01*
G37*
G04 #@! TD.AperFunction*
G04 #@! TA.AperFunction,SMDPad,CuDef*
G36*
X83624504Y-144601204D02*
G01*
X83648773Y-144604804D01*
X83672571Y-144610765D01*
X83695671Y-144619030D01*
X83717849Y-144629520D01*
X83738893Y-144642133D01*
X83758598Y-144656747D01*
X83776777Y-144673223D01*
X83793253Y-144691402D01*
X83807867Y-144711107D01*
X83820480Y-144732151D01*
X83830970Y-144754329D01*
X83839235Y-144777429D01*
X83845196Y-144801227D01*
X83848796Y-144825496D01*
X83850000Y-144850000D01*
X83850000Y-145950000D01*
X83848796Y-145974504D01*
X83845196Y-145998773D01*
X83839235Y-146022571D01*
X83830970Y-146045671D01*
X83820480Y-146067849D01*
X83807867Y-146088893D01*
X83793253Y-146108598D01*
X83776777Y-146126777D01*
X83758598Y-146143253D01*
X83738893Y-146157867D01*
X83717849Y-146170480D01*
X83695671Y-146180970D01*
X83672571Y-146189235D01*
X83648773Y-146195196D01*
X83624504Y-146198796D01*
X83600000Y-146200000D01*
X80600000Y-146200000D01*
X80575496Y-146198796D01*
X80551227Y-146195196D01*
X80527429Y-146189235D01*
X80504329Y-146180970D01*
X80482151Y-146170480D01*
X80461107Y-146157867D01*
X80441402Y-146143253D01*
X80423223Y-146126777D01*
X80406747Y-146108598D01*
X80392133Y-146088893D01*
X80379520Y-146067849D01*
X80369030Y-146045671D01*
X80360765Y-146022571D01*
X80354804Y-145998773D01*
X80351204Y-145974504D01*
X80350000Y-145950000D01*
X80350000Y-144850000D01*
X80351204Y-144825496D01*
X80354804Y-144801227D01*
X80360765Y-144777429D01*
X80369030Y-144754329D01*
X80379520Y-144732151D01*
X80392133Y-144711107D01*
X80406747Y-144691402D01*
X80423223Y-144673223D01*
X80441402Y-144656747D01*
X80461107Y-144642133D01*
X80482151Y-144629520D01*
X80504329Y-144619030D01*
X80527429Y-144610765D01*
X80551227Y-144604804D01*
X80575496Y-144601204D01*
X80600000Y-144600000D01*
X83600000Y-144600000D01*
X83624504Y-144601204D01*
G37*
G04 #@! TD.AperFunction*
G04 #@! TA.AperFunction,SMDPad,CuDef*
G36*
X77324504Y-121201204D02*
G01*
X77348773Y-121204804D01*
X77372571Y-121210765D01*
X77395671Y-121219030D01*
X77417849Y-121229520D01*
X77438893Y-121242133D01*
X77458598Y-121256747D01*
X77476777Y-121273223D01*
X77493253Y-121291402D01*
X77507867Y-121311107D01*
X77520480Y-121332151D01*
X77530970Y-121354329D01*
X77539235Y-121377429D01*
X77545196Y-121401227D01*
X77548796Y-121425496D01*
X77550000Y-121450000D01*
X77550000Y-122550000D01*
X77548796Y-122574504D01*
X77545196Y-122598773D01*
X77539235Y-122622571D01*
X77530970Y-122645671D01*
X77520480Y-122667849D01*
X77507867Y-122688893D01*
X77493253Y-122708598D01*
X77476777Y-122726777D01*
X77458598Y-122743253D01*
X77438893Y-122757867D01*
X77417849Y-122770480D01*
X77395671Y-122780970D01*
X77372571Y-122789235D01*
X77348773Y-122795196D01*
X77324504Y-122798796D01*
X77300000Y-122800000D01*
X74300000Y-122800000D01*
X74275496Y-122798796D01*
X74251227Y-122795196D01*
X74227429Y-122789235D01*
X74204329Y-122780970D01*
X74182151Y-122770480D01*
X74161107Y-122757867D01*
X74141402Y-122743253D01*
X74123223Y-122726777D01*
X74106747Y-122708598D01*
X74092133Y-122688893D01*
X74079520Y-122667849D01*
X74069030Y-122645671D01*
X74060765Y-122622571D01*
X74054804Y-122598773D01*
X74051204Y-122574504D01*
X74050000Y-122550000D01*
X74050000Y-121450000D01*
X74051204Y-121425496D01*
X74054804Y-121401227D01*
X74060765Y-121377429D01*
X74069030Y-121354329D01*
X74079520Y-121332151D01*
X74092133Y-121311107D01*
X74106747Y-121291402D01*
X74123223Y-121273223D01*
X74141402Y-121256747D01*
X74161107Y-121242133D01*
X74182151Y-121229520D01*
X74204329Y-121219030D01*
X74227429Y-121210765D01*
X74251227Y-121204804D01*
X74275496Y-121201204D01*
X74300000Y-121200000D01*
X77300000Y-121200000D01*
X77324504Y-121201204D01*
G37*
G04 #@! TD.AperFunction*
G04 #@! TA.AperFunction,SMDPad,CuDef*
G36*
X71724504Y-121201204D02*
G01*
X71748773Y-121204804D01*
X71772571Y-121210765D01*
X71795671Y-121219030D01*
X71817849Y-121229520D01*
X71838893Y-121242133D01*
X71858598Y-121256747D01*
X71876777Y-121273223D01*
X71893253Y-121291402D01*
X71907867Y-121311107D01*
X71920480Y-121332151D01*
X71930970Y-121354329D01*
X71939235Y-121377429D01*
X71945196Y-121401227D01*
X71948796Y-121425496D01*
X71950000Y-121450000D01*
X71950000Y-122550000D01*
X71948796Y-122574504D01*
X71945196Y-122598773D01*
X71939235Y-122622571D01*
X71930970Y-122645671D01*
X71920480Y-122667849D01*
X71907867Y-122688893D01*
X71893253Y-122708598D01*
X71876777Y-122726777D01*
X71858598Y-122743253D01*
X71838893Y-122757867D01*
X71817849Y-122770480D01*
X71795671Y-122780970D01*
X71772571Y-122789235D01*
X71748773Y-122795196D01*
X71724504Y-122798796D01*
X71700000Y-122800000D01*
X68700000Y-122800000D01*
X68675496Y-122798796D01*
X68651227Y-122795196D01*
X68627429Y-122789235D01*
X68604329Y-122780970D01*
X68582151Y-122770480D01*
X68561107Y-122757867D01*
X68541402Y-122743253D01*
X68523223Y-122726777D01*
X68506747Y-122708598D01*
X68492133Y-122688893D01*
X68479520Y-122667849D01*
X68469030Y-122645671D01*
X68460765Y-122622571D01*
X68454804Y-122598773D01*
X68451204Y-122574504D01*
X68450000Y-122550000D01*
X68450000Y-121450000D01*
X68451204Y-121425496D01*
X68454804Y-121401227D01*
X68460765Y-121377429D01*
X68469030Y-121354329D01*
X68479520Y-121332151D01*
X68492133Y-121311107D01*
X68506747Y-121291402D01*
X68523223Y-121273223D01*
X68541402Y-121256747D01*
X68561107Y-121242133D01*
X68582151Y-121229520D01*
X68604329Y-121219030D01*
X68627429Y-121210765D01*
X68651227Y-121204804D01*
X68675496Y-121201204D01*
X68700000Y-121200000D01*
X71700000Y-121200000D01*
X71724504Y-121201204D01*
G37*
G04 #@! TD.AperFunction*
D17*
X32080000Y-121600000D03*
X37160000Y-121600000D03*
D18*
X52400000Y-121600000D03*
D17*
X42240000Y-121600000D03*
X47320000Y-121600000D03*
X58720000Y-121600000D03*
D18*
X63800000Y-121600000D03*
G04 #@! TA.AperFunction,SMDPad,CuDef*
D16*
G36*
X77943039Y-150437314D02*
G01*
X77955173Y-150439114D01*
X77967073Y-150442094D01*
X77978622Y-150446227D01*
X77989712Y-150451472D01*
X78000233Y-150457778D01*
X78010086Y-150465086D01*
X78019175Y-150473324D01*
X78903058Y-151357207D01*
X78911296Y-151366296D01*
X78918604Y-151376149D01*
X78924910Y-151386670D01*
X78930155Y-151397760D01*
X78934288Y-151409309D01*
X78937268Y-151421209D01*
X78939068Y-151433343D01*
X78939670Y-151445595D01*
X78939068Y-151457847D01*
X78937268Y-151469981D01*
X78934288Y-151481881D01*
X78930155Y-151493430D01*
X78924910Y-151504520D01*
X78918604Y-151515041D01*
X78911296Y-151524894D01*
X78903058Y-151533983D01*
X78726281Y-151710760D01*
X78717192Y-151718998D01*
X78707339Y-151726306D01*
X78696818Y-151732612D01*
X78685728Y-151737857D01*
X78674179Y-151741990D01*
X78662279Y-151744970D01*
X78650145Y-151746770D01*
X78637893Y-151747372D01*
X78625641Y-151746770D01*
X78613507Y-151744970D01*
X78601607Y-151741990D01*
X78590058Y-151737857D01*
X78578968Y-151732612D01*
X78568447Y-151726306D01*
X78558594Y-151718998D01*
X78549505Y-151710760D01*
X77665622Y-150826877D01*
X77657384Y-150817788D01*
X77650076Y-150807935D01*
X77643770Y-150797414D01*
X77638525Y-150786324D01*
X77634392Y-150774775D01*
X77631412Y-150762875D01*
X77629612Y-150750741D01*
X77629010Y-150738489D01*
X77629612Y-150726237D01*
X77631412Y-150714103D01*
X77634392Y-150702203D01*
X77638525Y-150690654D01*
X77643770Y-150679564D01*
X77650076Y-150669043D01*
X77657384Y-150659190D01*
X77665622Y-150650101D01*
X77842399Y-150473324D01*
X77851488Y-150465086D01*
X77861341Y-150457778D01*
X77871862Y-150451472D01*
X77882952Y-150446227D01*
X77894501Y-150442094D01*
X77906401Y-150439114D01*
X77918535Y-150437314D01*
X77930787Y-150436712D01*
X77943039Y-150437314D01*
G37*
G04 #@! TD.AperFunction*
G04 #@! TA.AperFunction,SMDPad,CuDef*
G36*
X77377353Y-151002999D02*
G01*
X77389487Y-151004799D01*
X77401387Y-151007779D01*
X77412936Y-151011912D01*
X77424026Y-151017157D01*
X77434547Y-151023463D01*
X77444400Y-151030771D01*
X77453489Y-151039009D01*
X78337372Y-151922892D01*
X78345610Y-151931981D01*
X78352918Y-151941834D01*
X78359224Y-151952355D01*
X78364469Y-151963445D01*
X78368602Y-151974994D01*
X78371582Y-151986894D01*
X78373382Y-151999028D01*
X78373984Y-152011280D01*
X78373382Y-152023532D01*
X78371582Y-152035666D01*
X78368602Y-152047566D01*
X78364469Y-152059115D01*
X78359224Y-152070205D01*
X78352918Y-152080726D01*
X78345610Y-152090579D01*
X78337372Y-152099668D01*
X78160595Y-152276445D01*
X78151506Y-152284683D01*
X78141653Y-152291991D01*
X78131132Y-152298297D01*
X78120042Y-152303542D01*
X78108493Y-152307675D01*
X78096593Y-152310655D01*
X78084459Y-152312455D01*
X78072207Y-152313057D01*
X78059955Y-152312455D01*
X78047821Y-152310655D01*
X78035921Y-152307675D01*
X78024372Y-152303542D01*
X78013282Y-152298297D01*
X78002761Y-152291991D01*
X77992908Y-152284683D01*
X77983819Y-152276445D01*
X77099936Y-151392562D01*
X77091698Y-151383473D01*
X77084390Y-151373620D01*
X77078084Y-151363099D01*
X77072839Y-151352009D01*
X77068706Y-151340460D01*
X77065726Y-151328560D01*
X77063926Y-151316426D01*
X77063324Y-151304174D01*
X77063926Y-151291922D01*
X77065726Y-151279788D01*
X77068706Y-151267888D01*
X77072839Y-151256339D01*
X77078084Y-151245249D01*
X77084390Y-151234728D01*
X77091698Y-151224875D01*
X77099936Y-151215786D01*
X77276713Y-151039009D01*
X77285802Y-151030771D01*
X77295655Y-151023463D01*
X77306176Y-151017157D01*
X77317266Y-151011912D01*
X77328815Y-151007779D01*
X77340715Y-151004799D01*
X77352849Y-151002999D01*
X77365101Y-151002397D01*
X77377353Y-151002999D01*
G37*
G04 #@! TD.AperFunction*
G04 #@! TA.AperFunction,SMDPad,CuDef*
G36*
X76811668Y-151568685D02*
G01*
X76823802Y-151570485D01*
X76835702Y-151573465D01*
X76847251Y-151577598D01*
X76858341Y-151582843D01*
X76868862Y-151589149D01*
X76878715Y-151596457D01*
X76887804Y-151604695D01*
X77771687Y-152488578D01*
X77779925Y-152497667D01*
X77787233Y-152507520D01*
X77793539Y-152518041D01*
X77798784Y-152529131D01*
X77802917Y-152540680D01*
X77805897Y-152552580D01*
X77807697Y-152564714D01*
X77808299Y-152576966D01*
X77807697Y-152589218D01*
X77805897Y-152601352D01*
X77802917Y-152613252D01*
X77798784Y-152624801D01*
X77793539Y-152635891D01*
X77787233Y-152646412D01*
X77779925Y-152656265D01*
X77771687Y-152665354D01*
X77594910Y-152842131D01*
X77585821Y-152850369D01*
X77575968Y-152857677D01*
X77565447Y-152863983D01*
X77554357Y-152869228D01*
X77542808Y-152873361D01*
X77530908Y-152876341D01*
X77518774Y-152878141D01*
X77506522Y-152878743D01*
X77494270Y-152878141D01*
X77482136Y-152876341D01*
X77470236Y-152873361D01*
X77458687Y-152869228D01*
X77447597Y-152863983D01*
X77437076Y-152857677D01*
X77427223Y-152850369D01*
X77418134Y-152842131D01*
X76534251Y-151958248D01*
X76526013Y-151949159D01*
X76518705Y-151939306D01*
X76512399Y-151928785D01*
X76507154Y-151917695D01*
X76503021Y-151906146D01*
X76500041Y-151894246D01*
X76498241Y-151882112D01*
X76497639Y-151869860D01*
X76498241Y-151857608D01*
X76500041Y-151845474D01*
X76503021Y-151833574D01*
X76507154Y-151822025D01*
X76512399Y-151810935D01*
X76518705Y-151800414D01*
X76526013Y-151790561D01*
X76534251Y-151781472D01*
X76711028Y-151604695D01*
X76720117Y-151596457D01*
X76729970Y-151589149D01*
X76740491Y-151582843D01*
X76751581Y-151577598D01*
X76763130Y-151573465D01*
X76775030Y-151570485D01*
X76787164Y-151568685D01*
X76799416Y-151568083D01*
X76811668Y-151568685D01*
G37*
G04 #@! TD.AperFunction*
G04 #@! TA.AperFunction,SMDPad,CuDef*
G36*
X76245983Y-152134370D02*
G01*
X76258117Y-152136170D01*
X76270017Y-152139150D01*
X76281566Y-152143283D01*
X76292656Y-152148528D01*
X76303177Y-152154834D01*
X76313030Y-152162142D01*
X76322119Y-152170380D01*
X77206002Y-153054263D01*
X77214240Y-153063352D01*
X77221548Y-153073205D01*
X77227854Y-153083726D01*
X77233099Y-153094816D01*
X77237232Y-153106365D01*
X77240212Y-153118265D01*
X77242012Y-153130399D01*
X77242614Y-153142651D01*
X77242012Y-153154903D01*
X77240212Y-153167037D01*
X77237232Y-153178937D01*
X77233099Y-153190486D01*
X77227854Y-153201576D01*
X77221548Y-153212097D01*
X77214240Y-153221950D01*
X77206002Y-153231039D01*
X77029225Y-153407816D01*
X77020136Y-153416054D01*
X77010283Y-153423362D01*
X76999762Y-153429668D01*
X76988672Y-153434913D01*
X76977123Y-153439046D01*
X76965223Y-153442026D01*
X76953089Y-153443826D01*
X76940837Y-153444428D01*
X76928585Y-153443826D01*
X76916451Y-153442026D01*
X76904551Y-153439046D01*
X76893002Y-153434913D01*
X76881912Y-153429668D01*
X76871391Y-153423362D01*
X76861538Y-153416054D01*
X76852449Y-153407816D01*
X75968566Y-152523933D01*
X75960328Y-152514844D01*
X75953020Y-152504991D01*
X75946714Y-152494470D01*
X75941469Y-152483380D01*
X75937336Y-152471831D01*
X75934356Y-152459931D01*
X75932556Y-152447797D01*
X75931954Y-152435545D01*
X75932556Y-152423293D01*
X75934356Y-152411159D01*
X75937336Y-152399259D01*
X75941469Y-152387710D01*
X75946714Y-152376620D01*
X75953020Y-152366099D01*
X75960328Y-152356246D01*
X75968566Y-152347157D01*
X76145343Y-152170380D01*
X76154432Y-152162142D01*
X76164285Y-152154834D01*
X76174806Y-152148528D01*
X76185896Y-152143283D01*
X76197445Y-152139150D01*
X76209345Y-152136170D01*
X76221479Y-152134370D01*
X76233731Y-152133768D01*
X76245983Y-152134370D01*
G37*
G04 #@! TD.AperFunction*
G04 #@! TA.AperFunction,SMDPad,CuDef*
G36*
X75680297Y-152700056D02*
G01*
X75692431Y-152701856D01*
X75704331Y-152704836D01*
X75715880Y-152708969D01*
X75726970Y-152714214D01*
X75737491Y-152720520D01*
X75747344Y-152727828D01*
X75756433Y-152736066D01*
X76640316Y-153619949D01*
X76648554Y-153629038D01*
X76655862Y-153638891D01*
X76662168Y-153649412D01*
X76667413Y-153660502D01*
X76671546Y-153672051D01*
X76674526Y-153683951D01*
X76676326Y-153696085D01*
X76676928Y-153708337D01*
X76676326Y-153720589D01*
X76674526Y-153732723D01*
X76671546Y-153744623D01*
X76667413Y-153756172D01*
X76662168Y-153767262D01*
X76655862Y-153777783D01*
X76648554Y-153787636D01*
X76640316Y-153796725D01*
X76463539Y-153973502D01*
X76454450Y-153981740D01*
X76444597Y-153989048D01*
X76434076Y-153995354D01*
X76422986Y-154000599D01*
X76411437Y-154004732D01*
X76399537Y-154007712D01*
X76387403Y-154009512D01*
X76375151Y-154010114D01*
X76362899Y-154009512D01*
X76350765Y-154007712D01*
X76338865Y-154004732D01*
X76327316Y-154000599D01*
X76316226Y-153995354D01*
X76305705Y-153989048D01*
X76295852Y-153981740D01*
X76286763Y-153973502D01*
X75402880Y-153089619D01*
X75394642Y-153080530D01*
X75387334Y-153070677D01*
X75381028Y-153060156D01*
X75375783Y-153049066D01*
X75371650Y-153037517D01*
X75368670Y-153025617D01*
X75366870Y-153013483D01*
X75366268Y-153001231D01*
X75366870Y-152988979D01*
X75368670Y-152976845D01*
X75371650Y-152964945D01*
X75375783Y-152953396D01*
X75381028Y-152942306D01*
X75387334Y-152931785D01*
X75394642Y-152921932D01*
X75402880Y-152912843D01*
X75579657Y-152736066D01*
X75588746Y-152727828D01*
X75598599Y-152720520D01*
X75609120Y-152714214D01*
X75620210Y-152708969D01*
X75631759Y-152704836D01*
X75643659Y-152701856D01*
X75655793Y-152700056D01*
X75668045Y-152699454D01*
X75680297Y-152700056D01*
G37*
G04 #@! TD.AperFunction*
G04 #@! TA.AperFunction,SMDPad,CuDef*
G36*
X75114612Y-153265741D02*
G01*
X75126746Y-153267541D01*
X75138646Y-153270521D01*
X75150195Y-153274654D01*
X75161285Y-153279899D01*
X75171806Y-153286205D01*
X75181659Y-153293513D01*
X75190748Y-153301751D01*
X76074631Y-154185634D01*
X76082869Y-154194723D01*
X76090177Y-154204576D01*
X76096483Y-154215097D01*
X76101728Y-154226187D01*
X76105861Y-154237736D01*
X76108841Y-154249636D01*
X76110641Y-154261770D01*
X76111243Y-154274022D01*
X76110641Y-154286274D01*
X76108841Y-154298408D01*
X76105861Y-154310308D01*
X76101728Y-154321857D01*
X76096483Y-154332947D01*
X76090177Y-154343468D01*
X76082869Y-154353321D01*
X76074631Y-154362410D01*
X75897854Y-154539187D01*
X75888765Y-154547425D01*
X75878912Y-154554733D01*
X75868391Y-154561039D01*
X75857301Y-154566284D01*
X75845752Y-154570417D01*
X75833852Y-154573397D01*
X75821718Y-154575197D01*
X75809466Y-154575799D01*
X75797214Y-154575197D01*
X75785080Y-154573397D01*
X75773180Y-154570417D01*
X75761631Y-154566284D01*
X75750541Y-154561039D01*
X75740020Y-154554733D01*
X75730167Y-154547425D01*
X75721078Y-154539187D01*
X74837195Y-153655304D01*
X74828957Y-153646215D01*
X74821649Y-153636362D01*
X74815343Y-153625841D01*
X74810098Y-153614751D01*
X74805965Y-153603202D01*
X74802985Y-153591302D01*
X74801185Y-153579168D01*
X74800583Y-153566916D01*
X74801185Y-153554664D01*
X74802985Y-153542530D01*
X74805965Y-153530630D01*
X74810098Y-153519081D01*
X74815343Y-153507991D01*
X74821649Y-153497470D01*
X74828957Y-153487617D01*
X74837195Y-153478528D01*
X75013972Y-153301751D01*
X75023061Y-153293513D01*
X75032914Y-153286205D01*
X75043435Y-153279899D01*
X75054525Y-153274654D01*
X75066074Y-153270521D01*
X75077974Y-153267541D01*
X75090108Y-153265741D01*
X75102360Y-153265139D01*
X75114612Y-153265741D01*
G37*
G04 #@! TD.AperFunction*
G04 #@! TA.AperFunction,SMDPad,CuDef*
G36*
X74548926Y-153831426D02*
G01*
X74561060Y-153833226D01*
X74572960Y-153836206D01*
X74584509Y-153840339D01*
X74595599Y-153845584D01*
X74606120Y-153851890D01*
X74615973Y-153859198D01*
X74625062Y-153867436D01*
X75508945Y-154751319D01*
X75517183Y-154760408D01*
X75524491Y-154770261D01*
X75530797Y-154780782D01*
X75536042Y-154791872D01*
X75540175Y-154803421D01*
X75543155Y-154815321D01*
X75544955Y-154827455D01*
X75545557Y-154839707D01*
X75544955Y-154851959D01*
X75543155Y-154864093D01*
X75540175Y-154875993D01*
X75536042Y-154887542D01*
X75530797Y-154898632D01*
X75524491Y-154909153D01*
X75517183Y-154919006D01*
X75508945Y-154928095D01*
X75332168Y-155104872D01*
X75323079Y-155113110D01*
X75313226Y-155120418D01*
X75302705Y-155126724D01*
X75291615Y-155131969D01*
X75280066Y-155136102D01*
X75268166Y-155139082D01*
X75256032Y-155140882D01*
X75243780Y-155141484D01*
X75231528Y-155140882D01*
X75219394Y-155139082D01*
X75207494Y-155136102D01*
X75195945Y-155131969D01*
X75184855Y-155126724D01*
X75174334Y-155120418D01*
X75164481Y-155113110D01*
X75155392Y-155104872D01*
X74271509Y-154220989D01*
X74263271Y-154211900D01*
X74255963Y-154202047D01*
X74249657Y-154191526D01*
X74244412Y-154180436D01*
X74240279Y-154168887D01*
X74237299Y-154156987D01*
X74235499Y-154144853D01*
X74234897Y-154132601D01*
X74235499Y-154120349D01*
X74237299Y-154108215D01*
X74240279Y-154096315D01*
X74244412Y-154084766D01*
X74249657Y-154073676D01*
X74255963Y-154063155D01*
X74263271Y-154053302D01*
X74271509Y-154044213D01*
X74448286Y-153867436D01*
X74457375Y-153859198D01*
X74467228Y-153851890D01*
X74477749Y-153845584D01*
X74488839Y-153840339D01*
X74500388Y-153836206D01*
X74512288Y-153833226D01*
X74524422Y-153831426D01*
X74536674Y-153830824D01*
X74548926Y-153831426D01*
G37*
G04 #@! TD.AperFunction*
G04 #@! TA.AperFunction,SMDPad,CuDef*
G36*
X73983241Y-154397112D02*
G01*
X73995375Y-154398912D01*
X74007275Y-154401892D01*
X74018824Y-154406025D01*
X74029914Y-154411270D01*
X74040435Y-154417576D01*
X74050288Y-154424884D01*
X74059377Y-154433122D01*
X74943260Y-155317005D01*
X74951498Y-155326094D01*
X74958806Y-155335947D01*
X74965112Y-155346468D01*
X74970357Y-155357558D01*
X74974490Y-155369107D01*
X74977470Y-155381007D01*
X74979270Y-155393141D01*
X74979872Y-155405393D01*
X74979270Y-155417645D01*
X74977470Y-155429779D01*
X74974490Y-155441679D01*
X74970357Y-155453228D01*
X74965112Y-155464318D01*
X74958806Y-155474839D01*
X74951498Y-155484692D01*
X74943260Y-155493781D01*
X74766483Y-155670558D01*
X74757394Y-155678796D01*
X74747541Y-155686104D01*
X74737020Y-155692410D01*
X74725930Y-155697655D01*
X74714381Y-155701788D01*
X74702481Y-155704768D01*
X74690347Y-155706568D01*
X74678095Y-155707170D01*
X74665843Y-155706568D01*
X74653709Y-155704768D01*
X74641809Y-155701788D01*
X74630260Y-155697655D01*
X74619170Y-155692410D01*
X74608649Y-155686104D01*
X74598796Y-155678796D01*
X74589707Y-155670558D01*
X73705824Y-154786675D01*
X73697586Y-154777586D01*
X73690278Y-154767733D01*
X73683972Y-154757212D01*
X73678727Y-154746122D01*
X73674594Y-154734573D01*
X73671614Y-154722673D01*
X73669814Y-154710539D01*
X73669212Y-154698287D01*
X73669814Y-154686035D01*
X73671614Y-154673901D01*
X73674594Y-154662001D01*
X73678727Y-154650452D01*
X73683972Y-154639362D01*
X73690278Y-154628841D01*
X73697586Y-154618988D01*
X73705824Y-154609899D01*
X73882601Y-154433122D01*
X73891690Y-154424884D01*
X73901543Y-154417576D01*
X73912064Y-154411270D01*
X73923154Y-154406025D01*
X73934703Y-154401892D01*
X73946603Y-154398912D01*
X73958737Y-154397112D01*
X73970989Y-154396510D01*
X73983241Y-154397112D01*
G37*
G04 #@! TD.AperFunction*
G04 #@! TA.AperFunction,SMDPad,CuDef*
G36*
X72745803Y-154397112D02*
G01*
X72757937Y-154398912D01*
X72769837Y-154401892D01*
X72781386Y-154406025D01*
X72792476Y-154411270D01*
X72802997Y-154417576D01*
X72812850Y-154424884D01*
X72821939Y-154433122D01*
X72998716Y-154609899D01*
X73006954Y-154618988D01*
X73014262Y-154628841D01*
X73020568Y-154639362D01*
X73025813Y-154650452D01*
X73029946Y-154662001D01*
X73032926Y-154673901D01*
X73034726Y-154686035D01*
X73035328Y-154698287D01*
X73034726Y-154710539D01*
X73032926Y-154722673D01*
X73029946Y-154734573D01*
X73025813Y-154746122D01*
X73020568Y-154757212D01*
X73014262Y-154767733D01*
X73006954Y-154777586D01*
X72998716Y-154786675D01*
X72114833Y-155670558D01*
X72105744Y-155678796D01*
X72095891Y-155686104D01*
X72085370Y-155692410D01*
X72074280Y-155697655D01*
X72062731Y-155701788D01*
X72050831Y-155704768D01*
X72038697Y-155706568D01*
X72026445Y-155707170D01*
X72014193Y-155706568D01*
X72002059Y-155704768D01*
X71990159Y-155701788D01*
X71978610Y-155697655D01*
X71967520Y-155692410D01*
X71956999Y-155686104D01*
X71947146Y-155678796D01*
X71938057Y-155670558D01*
X71761280Y-155493781D01*
X71753042Y-155484692D01*
X71745734Y-155474839D01*
X71739428Y-155464318D01*
X71734183Y-155453228D01*
X71730050Y-155441679D01*
X71727070Y-155429779D01*
X71725270Y-155417645D01*
X71724668Y-155405393D01*
X71725270Y-155393141D01*
X71727070Y-155381007D01*
X71730050Y-155369107D01*
X71734183Y-155357558D01*
X71739428Y-155346468D01*
X71745734Y-155335947D01*
X71753042Y-155326094D01*
X71761280Y-155317005D01*
X72645163Y-154433122D01*
X72654252Y-154424884D01*
X72664105Y-154417576D01*
X72674626Y-154411270D01*
X72685716Y-154406025D01*
X72697265Y-154401892D01*
X72709165Y-154398912D01*
X72721299Y-154397112D01*
X72733551Y-154396510D01*
X72745803Y-154397112D01*
G37*
G04 #@! TD.AperFunction*
G04 #@! TA.AperFunction,SMDPad,CuDef*
G36*
X72180118Y-153831426D02*
G01*
X72192252Y-153833226D01*
X72204152Y-153836206D01*
X72215701Y-153840339D01*
X72226791Y-153845584D01*
X72237312Y-153851890D01*
X72247165Y-153859198D01*
X72256254Y-153867436D01*
X72433031Y-154044213D01*
X72441269Y-154053302D01*
X72448577Y-154063155D01*
X72454883Y-154073676D01*
X72460128Y-154084766D01*
X72464261Y-154096315D01*
X72467241Y-154108215D01*
X72469041Y-154120349D01*
X72469643Y-154132601D01*
X72469041Y-154144853D01*
X72467241Y-154156987D01*
X72464261Y-154168887D01*
X72460128Y-154180436D01*
X72454883Y-154191526D01*
X72448577Y-154202047D01*
X72441269Y-154211900D01*
X72433031Y-154220989D01*
X71549148Y-155104872D01*
X71540059Y-155113110D01*
X71530206Y-155120418D01*
X71519685Y-155126724D01*
X71508595Y-155131969D01*
X71497046Y-155136102D01*
X71485146Y-155139082D01*
X71473012Y-155140882D01*
X71460760Y-155141484D01*
X71448508Y-155140882D01*
X71436374Y-155139082D01*
X71424474Y-155136102D01*
X71412925Y-155131969D01*
X71401835Y-155126724D01*
X71391314Y-155120418D01*
X71381461Y-155113110D01*
X71372372Y-155104872D01*
X71195595Y-154928095D01*
X71187357Y-154919006D01*
X71180049Y-154909153D01*
X71173743Y-154898632D01*
X71168498Y-154887542D01*
X71164365Y-154875993D01*
X71161385Y-154864093D01*
X71159585Y-154851959D01*
X71158983Y-154839707D01*
X71159585Y-154827455D01*
X71161385Y-154815321D01*
X71164365Y-154803421D01*
X71168498Y-154791872D01*
X71173743Y-154780782D01*
X71180049Y-154770261D01*
X71187357Y-154760408D01*
X71195595Y-154751319D01*
X72079478Y-153867436D01*
X72088567Y-153859198D01*
X72098420Y-153851890D01*
X72108941Y-153845584D01*
X72120031Y-153840339D01*
X72131580Y-153836206D01*
X72143480Y-153833226D01*
X72155614Y-153831426D01*
X72167866Y-153830824D01*
X72180118Y-153831426D01*
G37*
G04 #@! TD.AperFunction*
G04 #@! TA.AperFunction,SMDPad,CuDef*
G36*
X71614432Y-153265741D02*
G01*
X71626566Y-153267541D01*
X71638466Y-153270521D01*
X71650015Y-153274654D01*
X71661105Y-153279899D01*
X71671626Y-153286205D01*
X71681479Y-153293513D01*
X71690568Y-153301751D01*
X71867345Y-153478528D01*
X71875583Y-153487617D01*
X71882891Y-153497470D01*
X71889197Y-153507991D01*
X71894442Y-153519081D01*
X71898575Y-153530630D01*
X71901555Y-153542530D01*
X71903355Y-153554664D01*
X71903957Y-153566916D01*
X71903355Y-153579168D01*
X71901555Y-153591302D01*
X71898575Y-153603202D01*
X71894442Y-153614751D01*
X71889197Y-153625841D01*
X71882891Y-153636362D01*
X71875583Y-153646215D01*
X71867345Y-153655304D01*
X70983462Y-154539187D01*
X70974373Y-154547425D01*
X70964520Y-154554733D01*
X70953999Y-154561039D01*
X70942909Y-154566284D01*
X70931360Y-154570417D01*
X70919460Y-154573397D01*
X70907326Y-154575197D01*
X70895074Y-154575799D01*
X70882822Y-154575197D01*
X70870688Y-154573397D01*
X70858788Y-154570417D01*
X70847239Y-154566284D01*
X70836149Y-154561039D01*
X70825628Y-154554733D01*
X70815775Y-154547425D01*
X70806686Y-154539187D01*
X70629909Y-154362410D01*
X70621671Y-154353321D01*
X70614363Y-154343468D01*
X70608057Y-154332947D01*
X70602812Y-154321857D01*
X70598679Y-154310308D01*
X70595699Y-154298408D01*
X70593899Y-154286274D01*
X70593297Y-154274022D01*
X70593899Y-154261770D01*
X70595699Y-154249636D01*
X70598679Y-154237736D01*
X70602812Y-154226187D01*
X70608057Y-154215097D01*
X70614363Y-154204576D01*
X70621671Y-154194723D01*
X70629909Y-154185634D01*
X71513792Y-153301751D01*
X71522881Y-153293513D01*
X71532734Y-153286205D01*
X71543255Y-153279899D01*
X71554345Y-153274654D01*
X71565894Y-153270521D01*
X71577794Y-153267541D01*
X71589928Y-153265741D01*
X71602180Y-153265139D01*
X71614432Y-153265741D01*
G37*
G04 #@! TD.AperFunction*
G04 #@! TA.AperFunction,SMDPad,CuDef*
G36*
X71048747Y-152700056D02*
G01*
X71060881Y-152701856D01*
X71072781Y-152704836D01*
X71084330Y-152708969D01*
X71095420Y-152714214D01*
X71105941Y-152720520D01*
X71115794Y-152727828D01*
X71124883Y-152736066D01*
X71301660Y-152912843D01*
X71309898Y-152921932D01*
X71317206Y-152931785D01*
X71323512Y-152942306D01*
X71328757Y-152953396D01*
X71332890Y-152964945D01*
X71335870Y-152976845D01*
X71337670Y-152988979D01*
X71338272Y-153001231D01*
X71337670Y-153013483D01*
X71335870Y-153025617D01*
X71332890Y-153037517D01*
X71328757Y-153049066D01*
X71323512Y-153060156D01*
X71317206Y-153070677D01*
X71309898Y-153080530D01*
X71301660Y-153089619D01*
X70417777Y-153973502D01*
X70408688Y-153981740D01*
X70398835Y-153989048D01*
X70388314Y-153995354D01*
X70377224Y-154000599D01*
X70365675Y-154004732D01*
X70353775Y-154007712D01*
X70341641Y-154009512D01*
X70329389Y-154010114D01*
X70317137Y-154009512D01*
X70305003Y-154007712D01*
X70293103Y-154004732D01*
X70281554Y-154000599D01*
X70270464Y-153995354D01*
X70259943Y-153989048D01*
X70250090Y-153981740D01*
X70241001Y-153973502D01*
X70064224Y-153796725D01*
X70055986Y-153787636D01*
X70048678Y-153777783D01*
X70042372Y-153767262D01*
X70037127Y-153756172D01*
X70032994Y-153744623D01*
X70030014Y-153732723D01*
X70028214Y-153720589D01*
X70027612Y-153708337D01*
X70028214Y-153696085D01*
X70030014Y-153683951D01*
X70032994Y-153672051D01*
X70037127Y-153660502D01*
X70042372Y-153649412D01*
X70048678Y-153638891D01*
X70055986Y-153629038D01*
X70064224Y-153619949D01*
X70948107Y-152736066D01*
X70957196Y-152727828D01*
X70967049Y-152720520D01*
X70977570Y-152714214D01*
X70988660Y-152708969D01*
X71000209Y-152704836D01*
X71012109Y-152701856D01*
X71024243Y-152700056D01*
X71036495Y-152699454D01*
X71048747Y-152700056D01*
G37*
G04 #@! TD.AperFunction*
G04 #@! TA.AperFunction,SMDPad,CuDef*
G36*
X70483061Y-152134370D02*
G01*
X70495195Y-152136170D01*
X70507095Y-152139150D01*
X70518644Y-152143283D01*
X70529734Y-152148528D01*
X70540255Y-152154834D01*
X70550108Y-152162142D01*
X70559197Y-152170380D01*
X70735974Y-152347157D01*
X70744212Y-152356246D01*
X70751520Y-152366099D01*
X70757826Y-152376620D01*
X70763071Y-152387710D01*
X70767204Y-152399259D01*
X70770184Y-152411159D01*
X70771984Y-152423293D01*
X70772586Y-152435545D01*
X70771984Y-152447797D01*
X70770184Y-152459931D01*
X70767204Y-152471831D01*
X70763071Y-152483380D01*
X70757826Y-152494470D01*
X70751520Y-152504991D01*
X70744212Y-152514844D01*
X70735974Y-152523933D01*
X69852091Y-153407816D01*
X69843002Y-153416054D01*
X69833149Y-153423362D01*
X69822628Y-153429668D01*
X69811538Y-153434913D01*
X69799989Y-153439046D01*
X69788089Y-153442026D01*
X69775955Y-153443826D01*
X69763703Y-153444428D01*
X69751451Y-153443826D01*
X69739317Y-153442026D01*
X69727417Y-153439046D01*
X69715868Y-153434913D01*
X69704778Y-153429668D01*
X69694257Y-153423362D01*
X69684404Y-153416054D01*
X69675315Y-153407816D01*
X69498538Y-153231039D01*
X69490300Y-153221950D01*
X69482992Y-153212097D01*
X69476686Y-153201576D01*
X69471441Y-153190486D01*
X69467308Y-153178937D01*
X69464328Y-153167037D01*
X69462528Y-153154903D01*
X69461926Y-153142651D01*
X69462528Y-153130399D01*
X69464328Y-153118265D01*
X69467308Y-153106365D01*
X69471441Y-153094816D01*
X69476686Y-153083726D01*
X69482992Y-153073205D01*
X69490300Y-153063352D01*
X69498538Y-153054263D01*
X70382421Y-152170380D01*
X70391510Y-152162142D01*
X70401363Y-152154834D01*
X70411884Y-152148528D01*
X70422974Y-152143283D01*
X70434523Y-152139150D01*
X70446423Y-152136170D01*
X70458557Y-152134370D01*
X70470809Y-152133768D01*
X70483061Y-152134370D01*
G37*
G04 #@! TD.AperFunction*
G04 #@! TA.AperFunction,SMDPad,CuDef*
G36*
X69917376Y-151568685D02*
G01*
X69929510Y-151570485D01*
X69941410Y-151573465D01*
X69952959Y-151577598D01*
X69964049Y-151582843D01*
X69974570Y-151589149D01*
X69984423Y-151596457D01*
X69993512Y-151604695D01*
X70170289Y-151781472D01*
X70178527Y-151790561D01*
X70185835Y-151800414D01*
X70192141Y-151810935D01*
X70197386Y-151822025D01*
X70201519Y-151833574D01*
X70204499Y-151845474D01*
X70206299Y-151857608D01*
X70206901Y-151869860D01*
X70206299Y-151882112D01*
X70204499Y-151894246D01*
X70201519Y-151906146D01*
X70197386Y-151917695D01*
X70192141Y-151928785D01*
X70185835Y-151939306D01*
X70178527Y-151949159D01*
X70170289Y-151958248D01*
X69286406Y-152842131D01*
X69277317Y-152850369D01*
X69267464Y-152857677D01*
X69256943Y-152863983D01*
X69245853Y-152869228D01*
X69234304Y-152873361D01*
X69222404Y-152876341D01*
X69210270Y-152878141D01*
X69198018Y-152878743D01*
X69185766Y-152878141D01*
X69173632Y-152876341D01*
X69161732Y-152873361D01*
X69150183Y-152869228D01*
X69139093Y-152863983D01*
X69128572Y-152857677D01*
X69118719Y-152850369D01*
X69109630Y-152842131D01*
X68932853Y-152665354D01*
X68924615Y-152656265D01*
X68917307Y-152646412D01*
X68911001Y-152635891D01*
X68905756Y-152624801D01*
X68901623Y-152613252D01*
X68898643Y-152601352D01*
X68896843Y-152589218D01*
X68896241Y-152576966D01*
X68896843Y-152564714D01*
X68898643Y-152552580D01*
X68901623Y-152540680D01*
X68905756Y-152529131D01*
X68911001Y-152518041D01*
X68917307Y-152507520D01*
X68924615Y-152497667D01*
X68932853Y-152488578D01*
X69816736Y-151604695D01*
X69825825Y-151596457D01*
X69835678Y-151589149D01*
X69846199Y-151582843D01*
X69857289Y-151577598D01*
X69868838Y-151573465D01*
X69880738Y-151570485D01*
X69892872Y-151568685D01*
X69905124Y-151568083D01*
X69917376Y-151568685D01*
G37*
G04 #@! TD.AperFunction*
G04 #@! TA.AperFunction,SMDPad,CuDef*
G36*
X69351691Y-151002999D02*
G01*
X69363825Y-151004799D01*
X69375725Y-151007779D01*
X69387274Y-151011912D01*
X69398364Y-151017157D01*
X69408885Y-151023463D01*
X69418738Y-151030771D01*
X69427827Y-151039009D01*
X69604604Y-151215786D01*
X69612842Y-151224875D01*
X69620150Y-151234728D01*
X69626456Y-151245249D01*
X69631701Y-151256339D01*
X69635834Y-151267888D01*
X69638814Y-151279788D01*
X69640614Y-151291922D01*
X69641216Y-151304174D01*
X69640614Y-151316426D01*
X69638814Y-151328560D01*
X69635834Y-151340460D01*
X69631701Y-151352009D01*
X69626456Y-151363099D01*
X69620150Y-151373620D01*
X69612842Y-151383473D01*
X69604604Y-151392562D01*
X68720721Y-152276445D01*
X68711632Y-152284683D01*
X68701779Y-152291991D01*
X68691258Y-152298297D01*
X68680168Y-152303542D01*
X68668619Y-152307675D01*
X68656719Y-152310655D01*
X68644585Y-152312455D01*
X68632333Y-152313057D01*
X68620081Y-152312455D01*
X68607947Y-152310655D01*
X68596047Y-152307675D01*
X68584498Y-152303542D01*
X68573408Y-152298297D01*
X68562887Y-152291991D01*
X68553034Y-152284683D01*
X68543945Y-152276445D01*
X68367168Y-152099668D01*
X68358930Y-152090579D01*
X68351622Y-152080726D01*
X68345316Y-152070205D01*
X68340071Y-152059115D01*
X68335938Y-152047566D01*
X68332958Y-152035666D01*
X68331158Y-152023532D01*
X68330556Y-152011280D01*
X68331158Y-151999028D01*
X68332958Y-151986894D01*
X68335938Y-151974994D01*
X68340071Y-151963445D01*
X68345316Y-151952355D01*
X68351622Y-151941834D01*
X68358930Y-151931981D01*
X68367168Y-151922892D01*
X69251051Y-151039009D01*
X69260140Y-151030771D01*
X69269993Y-151023463D01*
X69280514Y-151017157D01*
X69291604Y-151011912D01*
X69303153Y-151007779D01*
X69315053Y-151004799D01*
X69327187Y-151002999D01*
X69339439Y-151002397D01*
X69351691Y-151002999D01*
G37*
G04 #@! TD.AperFunction*
G04 #@! TA.AperFunction,SMDPad,CuDef*
G36*
X68786005Y-150437314D02*
G01*
X68798139Y-150439114D01*
X68810039Y-150442094D01*
X68821588Y-150446227D01*
X68832678Y-150451472D01*
X68843199Y-150457778D01*
X68853052Y-150465086D01*
X68862141Y-150473324D01*
X69038918Y-150650101D01*
X69047156Y-150659190D01*
X69054464Y-150669043D01*
X69060770Y-150679564D01*
X69066015Y-150690654D01*
X69070148Y-150702203D01*
X69073128Y-150714103D01*
X69074928Y-150726237D01*
X69075530Y-150738489D01*
X69074928Y-150750741D01*
X69073128Y-150762875D01*
X69070148Y-150774775D01*
X69066015Y-150786324D01*
X69060770Y-150797414D01*
X69054464Y-150807935D01*
X69047156Y-150817788D01*
X69038918Y-150826877D01*
X68155035Y-151710760D01*
X68145946Y-151718998D01*
X68136093Y-151726306D01*
X68125572Y-151732612D01*
X68114482Y-151737857D01*
X68102933Y-151741990D01*
X68091033Y-151744970D01*
X68078899Y-151746770D01*
X68066647Y-151747372D01*
X68054395Y-151746770D01*
X68042261Y-151744970D01*
X68030361Y-151741990D01*
X68018812Y-151737857D01*
X68007722Y-151732612D01*
X67997201Y-151726306D01*
X67987348Y-151718998D01*
X67978259Y-151710760D01*
X67801482Y-151533983D01*
X67793244Y-151524894D01*
X67785936Y-151515041D01*
X67779630Y-151504520D01*
X67774385Y-151493430D01*
X67770252Y-151481881D01*
X67767272Y-151469981D01*
X67765472Y-151457847D01*
X67764870Y-151445595D01*
X67765472Y-151433343D01*
X67767272Y-151421209D01*
X67770252Y-151409309D01*
X67774385Y-151397760D01*
X67779630Y-151386670D01*
X67785936Y-151376149D01*
X67793244Y-151366296D01*
X67801482Y-151357207D01*
X68685365Y-150473324D01*
X68694454Y-150465086D01*
X68704307Y-150457778D01*
X68714828Y-150451472D01*
X68725918Y-150446227D01*
X68737467Y-150442094D01*
X68749367Y-150439114D01*
X68761501Y-150437314D01*
X68773753Y-150436712D01*
X68786005Y-150437314D01*
G37*
G04 #@! TD.AperFunction*
G04 #@! TA.AperFunction,SMDPad,CuDef*
G36*
X68078899Y-148492770D02*
G01*
X68091033Y-148494570D01*
X68102933Y-148497550D01*
X68114482Y-148501683D01*
X68125572Y-148506928D01*
X68136093Y-148513234D01*
X68145946Y-148520542D01*
X68155035Y-148528780D01*
X69038918Y-149412663D01*
X69047156Y-149421752D01*
X69054464Y-149431605D01*
X69060770Y-149442126D01*
X69066015Y-149453216D01*
X69070148Y-149464765D01*
X69073128Y-149476665D01*
X69074928Y-149488799D01*
X69075530Y-149501051D01*
X69074928Y-149513303D01*
X69073128Y-149525437D01*
X69070148Y-149537337D01*
X69066015Y-149548886D01*
X69060770Y-149559976D01*
X69054464Y-149570497D01*
X69047156Y-149580350D01*
X69038918Y-149589439D01*
X68862141Y-149766216D01*
X68853052Y-149774454D01*
X68843199Y-149781762D01*
X68832678Y-149788068D01*
X68821588Y-149793313D01*
X68810039Y-149797446D01*
X68798139Y-149800426D01*
X68786005Y-149802226D01*
X68773753Y-149802828D01*
X68761501Y-149802226D01*
X68749367Y-149800426D01*
X68737467Y-149797446D01*
X68725918Y-149793313D01*
X68714828Y-149788068D01*
X68704307Y-149781762D01*
X68694454Y-149774454D01*
X68685365Y-149766216D01*
X67801482Y-148882333D01*
X67793244Y-148873244D01*
X67785936Y-148863391D01*
X67779630Y-148852870D01*
X67774385Y-148841780D01*
X67770252Y-148830231D01*
X67767272Y-148818331D01*
X67765472Y-148806197D01*
X67764870Y-148793945D01*
X67765472Y-148781693D01*
X67767272Y-148769559D01*
X67770252Y-148757659D01*
X67774385Y-148746110D01*
X67779630Y-148735020D01*
X67785936Y-148724499D01*
X67793244Y-148714646D01*
X67801482Y-148705557D01*
X67978259Y-148528780D01*
X67987348Y-148520542D01*
X67997201Y-148513234D01*
X68007722Y-148506928D01*
X68018812Y-148501683D01*
X68030361Y-148497550D01*
X68042261Y-148494570D01*
X68054395Y-148492770D01*
X68066647Y-148492168D01*
X68078899Y-148492770D01*
G37*
G04 #@! TD.AperFunction*
G04 #@! TA.AperFunction,SMDPad,CuDef*
G36*
X68644585Y-147927085D02*
G01*
X68656719Y-147928885D01*
X68668619Y-147931865D01*
X68680168Y-147935998D01*
X68691258Y-147941243D01*
X68701779Y-147947549D01*
X68711632Y-147954857D01*
X68720721Y-147963095D01*
X69604604Y-148846978D01*
X69612842Y-148856067D01*
X69620150Y-148865920D01*
X69626456Y-148876441D01*
X69631701Y-148887531D01*
X69635834Y-148899080D01*
X69638814Y-148910980D01*
X69640614Y-148923114D01*
X69641216Y-148935366D01*
X69640614Y-148947618D01*
X69638814Y-148959752D01*
X69635834Y-148971652D01*
X69631701Y-148983201D01*
X69626456Y-148994291D01*
X69620150Y-149004812D01*
X69612842Y-149014665D01*
X69604604Y-149023754D01*
X69427827Y-149200531D01*
X69418738Y-149208769D01*
X69408885Y-149216077D01*
X69398364Y-149222383D01*
X69387274Y-149227628D01*
X69375725Y-149231761D01*
X69363825Y-149234741D01*
X69351691Y-149236541D01*
X69339439Y-149237143D01*
X69327187Y-149236541D01*
X69315053Y-149234741D01*
X69303153Y-149231761D01*
X69291604Y-149227628D01*
X69280514Y-149222383D01*
X69269993Y-149216077D01*
X69260140Y-149208769D01*
X69251051Y-149200531D01*
X68367168Y-148316648D01*
X68358930Y-148307559D01*
X68351622Y-148297706D01*
X68345316Y-148287185D01*
X68340071Y-148276095D01*
X68335938Y-148264546D01*
X68332958Y-148252646D01*
X68331158Y-148240512D01*
X68330556Y-148228260D01*
X68331158Y-148216008D01*
X68332958Y-148203874D01*
X68335938Y-148191974D01*
X68340071Y-148180425D01*
X68345316Y-148169335D01*
X68351622Y-148158814D01*
X68358930Y-148148961D01*
X68367168Y-148139872D01*
X68543945Y-147963095D01*
X68553034Y-147954857D01*
X68562887Y-147947549D01*
X68573408Y-147941243D01*
X68584498Y-147935998D01*
X68596047Y-147931865D01*
X68607947Y-147928885D01*
X68620081Y-147927085D01*
X68632333Y-147926483D01*
X68644585Y-147927085D01*
G37*
G04 #@! TD.AperFunction*
G04 #@! TA.AperFunction,SMDPad,CuDef*
G36*
X69210270Y-147361399D02*
G01*
X69222404Y-147363199D01*
X69234304Y-147366179D01*
X69245853Y-147370312D01*
X69256943Y-147375557D01*
X69267464Y-147381863D01*
X69277317Y-147389171D01*
X69286406Y-147397409D01*
X70170289Y-148281292D01*
X70178527Y-148290381D01*
X70185835Y-148300234D01*
X70192141Y-148310755D01*
X70197386Y-148321845D01*
X70201519Y-148333394D01*
X70204499Y-148345294D01*
X70206299Y-148357428D01*
X70206901Y-148369680D01*
X70206299Y-148381932D01*
X70204499Y-148394066D01*
X70201519Y-148405966D01*
X70197386Y-148417515D01*
X70192141Y-148428605D01*
X70185835Y-148439126D01*
X70178527Y-148448979D01*
X70170289Y-148458068D01*
X69993512Y-148634845D01*
X69984423Y-148643083D01*
X69974570Y-148650391D01*
X69964049Y-148656697D01*
X69952959Y-148661942D01*
X69941410Y-148666075D01*
X69929510Y-148669055D01*
X69917376Y-148670855D01*
X69905124Y-148671457D01*
X69892872Y-148670855D01*
X69880738Y-148669055D01*
X69868838Y-148666075D01*
X69857289Y-148661942D01*
X69846199Y-148656697D01*
X69835678Y-148650391D01*
X69825825Y-148643083D01*
X69816736Y-148634845D01*
X68932853Y-147750962D01*
X68924615Y-147741873D01*
X68917307Y-147732020D01*
X68911001Y-147721499D01*
X68905756Y-147710409D01*
X68901623Y-147698860D01*
X68898643Y-147686960D01*
X68896843Y-147674826D01*
X68896241Y-147662574D01*
X68896843Y-147650322D01*
X68898643Y-147638188D01*
X68901623Y-147626288D01*
X68905756Y-147614739D01*
X68911001Y-147603649D01*
X68917307Y-147593128D01*
X68924615Y-147583275D01*
X68932853Y-147574186D01*
X69109630Y-147397409D01*
X69118719Y-147389171D01*
X69128572Y-147381863D01*
X69139093Y-147375557D01*
X69150183Y-147370312D01*
X69161732Y-147366179D01*
X69173632Y-147363199D01*
X69185766Y-147361399D01*
X69198018Y-147360797D01*
X69210270Y-147361399D01*
G37*
G04 #@! TD.AperFunction*
G04 #@! TA.AperFunction,SMDPad,CuDef*
G36*
X69775955Y-146795714D02*
G01*
X69788089Y-146797514D01*
X69799989Y-146800494D01*
X69811538Y-146804627D01*
X69822628Y-146809872D01*
X69833149Y-146816178D01*
X69843002Y-146823486D01*
X69852091Y-146831724D01*
X70735974Y-147715607D01*
X70744212Y-147724696D01*
X70751520Y-147734549D01*
X70757826Y-147745070D01*
X70763071Y-147756160D01*
X70767204Y-147767709D01*
X70770184Y-147779609D01*
X70771984Y-147791743D01*
X70772586Y-147803995D01*
X70771984Y-147816247D01*
X70770184Y-147828381D01*
X70767204Y-147840281D01*
X70763071Y-147851830D01*
X70757826Y-147862920D01*
X70751520Y-147873441D01*
X70744212Y-147883294D01*
X70735974Y-147892383D01*
X70559197Y-148069160D01*
X70550108Y-148077398D01*
X70540255Y-148084706D01*
X70529734Y-148091012D01*
X70518644Y-148096257D01*
X70507095Y-148100390D01*
X70495195Y-148103370D01*
X70483061Y-148105170D01*
X70470809Y-148105772D01*
X70458557Y-148105170D01*
X70446423Y-148103370D01*
X70434523Y-148100390D01*
X70422974Y-148096257D01*
X70411884Y-148091012D01*
X70401363Y-148084706D01*
X70391510Y-148077398D01*
X70382421Y-148069160D01*
X69498538Y-147185277D01*
X69490300Y-147176188D01*
X69482992Y-147166335D01*
X69476686Y-147155814D01*
X69471441Y-147144724D01*
X69467308Y-147133175D01*
X69464328Y-147121275D01*
X69462528Y-147109141D01*
X69461926Y-147096889D01*
X69462528Y-147084637D01*
X69464328Y-147072503D01*
X69467308Y-147060603D01*
X69471441Y-147049054D01*
X69476686Y-147037964D01*
X69482992Y-147027443D01*
X69490300Y-147017590D01*
X69498538Y-147008501D01*
X69675315Y-146831724D01*
X69684404Y-146823486D01*
X69694257Y-146816178D01*
X69704778Y-146809872D01*
X69715868Y-146804627D01*
X69727417Y-146800494D01*
X69739317Y-146797514D01*
X69751451Y-146795714D01*
X69763703Y-146795112D01*
X69775955Y-146795714D01*
G37*
G04 #@! TD.AperFunction*
G04 #@! TA.AperFunction,SMDPad,CuDef*
G36*
X70341641Y-146230028D02*
G01*
X70353775Y-146231828D01*
X70365675Y-146234808D01*
X70377224Y-146238941D01*
X70388314Y-146244186D01*
X70398835Y-146250492D01*
X70408688Y-146257800D01*
X70417777Y-146266038D01*
X71301660Y-147149921D01*
X71309898Y-147159010D01*
X71317206Y-147168863D01*
X71323512Y-147179384D01*
X71328757Y-147190474D01*
X71332890Y-147202023D01*
X71335870Y-147213923D01*
X71337670Y-147226057D01*
X71338272Y-147238309D01*
X71337670Y-147250561D01*
X71335870Y-147262695D01*
X71332890Y-147274595D01*
X71328757Y-147286144D01*
X71323512Y-147297234D01*
X71317206Y-147307755D01*
X71309898Y-147317608D01*
X71301660Y-147326697D01*
X71124883Y-147503474D01*
X71115794Y-147511712D01*
X71105941Y-147519020D01*
X71095420Y-147525326D01*
X71084330Y-147530571D01*
X71072781Y-147534704D01*
X71060881Y-147537684D01*
X71048747Y-147539484D01*
X71036495Y-147540086D01*
X71024243Y-147539484D01*
X71012109Y-147537684D01*
X71000209Y-147534704D01*
X70988660Y-147530571D01*
X70977570Y-147525326D01*
X70967049Y-147519020D01*
X70957196Y-147511712D01*
X70948107Y-147503474D01*
X70064224Y-146619591D01*
X70055986Y-146610502D01*
X70048678Y-146600649D01*
X70042372Y-146590128D01*
X70037127Y-146579038D01*
X70032994Y-146567489D01*
X70030014Y-146555589D01*
X70028214Y-146543455D01*
X70027612Y-146531203D01*
X70028214Y-146518951D01*
X70030014Y-146506817D01*
X70032994Y-146494917D01*
X70037127Y-146483368D01*
X70042372Y-146472278D01*
X70048678Y-146461757D01*
X70055986Y-146451904D01*
X70064224Y-146442815D01*
X70241001Y-146266038D01*
X70250090Y-146257800D01*
X70259943Y-146250492D01*
X70270464Y-146244186D01*
X70281554Y-146238941D01*
X70293103Y-146234808D01*
X70305003Y-146231828D01*
X70317137Y-146230028D01*
X70329389Y-146229426D01*
X70341641Y-146230028D01*
G37*
G04 #@! TD.AperFunction*
G04 #@! TA.AperFunction,SMDPad,CuDef*
G36*
X70907326Y-145664343D02*
G01*
X70919460Y-145666143D01*
X70931360Y-145669123D01*
X70942909Y-145673256D01*
X70953999Y-145678501D01*
X70964520Y-145684807D01*
X70974373Y-145692115D01*
X70983462Y-145700353D01*
X71867345Y-146584236D01*
X71875583Y-146593325D01*
X71882891Y-146603178D01*
X71889197Y-146613699D01*
X71894442Y-146624789D01*
X71898575Y-146636338D01*
X71901555Y-146648238D01*
X71903355Y-146660372D01*
X71903957Y-146672624D01*
X71903355Y-146684876D01*
X71901555Y-146697010D01*
X71898575Y-146708910D01*
X71894442Y-146720459D01*
X71889197Y-146731549D01*
X71882891Y-146742070D01*
X71875583Y-146751923D01*
X71867345Y-146761012D01*
X71690568Y-146937789D01*
X71681479Y-146946027D01*
X71671626Y-146953335D01*
X71661105Y-146959641D01*
X71650015Y-146964886D01*
X71638466Y-146969019D01*
X71626566Y-146971999D01*
X71614432Y-146973799D01*
X71602180Y-146974401D01*
X71589928Y-146973799D01*
X71577794Y-146971999D01*
X71565894Y-146969019D01*
X71554345Y-146964886D01*
X71543255Y-146959641D01*
X71532734Y-146953335D01*
X71522881Y-146946027D01*
X71513792Y-146937789D01*
X70629909Y-146053906D01*
X70621671Y-146044817D01*
X70614363Y-146034964D01*
X70608057Y-146024443D01*
X70602812Y-146013353D01*
X70598679Y-146001804D01*
X70595699Y-145989904D01*
X70593899Y-145977770D01*
X70593297Y-145965518D01*
X70593899Y-145953266D01*
X70595699Y-145941132D01*
X70598679Y-145929232D01*
X70602812Y-145917683D01*
X70608057Y-145906593D01*
X70614363Y-145896072D01*
X70621671Y-145886219D01*
X70629909Y-145877130D01*
X70806686Y-145700353D01*
X70815775Y-145692115D01*
X70825628Y-145684807D01*
X70836149Y-145678501D01*
X70847239Y-145673256D01*
X70858788Y-145669123D01*
X70870688Y-145666143D01*
X70882822Y-145664343D01*
X70895074Y-145663741D01*
X70907326Y-145664343D01*
G37*
G04 #@! TD.AperFunction*
G04 #@! TA.AperFunction,SMDPad,CuDef*
G36*
X71473012Y-145098658D02*
G01*
X71485146Y-145100458D01*
X71497046Y-145103438D01*
X71508595Y-145107571D01*
X71519685Y-145112816D01*
X71530206Y-145119122D01*
X71540059Y-145126430D01*
X71549148Y-145134668D01*
X72433031Y-146018551D01*
X72441269Y-146027640D01*
X72448577Y-146037493D01*
X72454883Y-146048014D01*
X72460128Y-146059104D01*
X72464261Y-146070653D01*
X72467241Y-146082553D01*
X72469041Y-146094687D01*
X72469643Y-146106939D01*
X72469041Y-146119191D01*
X72467241Y-146131325D01*
X72464261Y-146143225D01*
X72460128Y-146154774D01*
X72454883Y-146165864D01*
X72448577Y-146176385D01*
X72441269Y-146186238D01*
X72433031Y-146195327D01*
X72256254Y-146372104D01*
X72247165Y-146380342D01*
X72237312Y-146387650D01*
X72226791Y-146393956D01*
X72215701Y-146399201D01*
X72204152Y-146403334D01*
X72192252Y-146406314D01*
X72180118Y-146408114D01*
X72167866Y-146408716D01*
X72155614Y-146408114D01*
X72143480Y-146406314D01*
X72131580Y-146403334D01*
X72120031Y-146399201D01*
X72108941Y-146393956D01*
X72098420Y-146387650D01*
X72088567Y-146380342D01*
X72079478Y-146372104D01*
X71195595Y-145488221D01*
X71187357Y-145479132D01*
X71180049Y-145469279D01*
X71173743Y-145458758D01*
X71168498Y-145447668D01*
X71164365Y-145436119D01*
X71161385Y-145424219D01*
X71159585Y-145412085D01*
X71158983Y-145399833D01*
X71159585Y-145387581D01*
X71161385Y-145375447D01*
X71164365Y-145363547D01*
X71168498Y-145351998D01*
X71173743Y-145340908D01*
X71180049Y-145330387D01*
X71187357Y-145320534D01*
X71195595Y-145311445D01*
X71372372Y-145134668D01*
X71381461Y-145126430D01*
X71391314Y-145119122D01*
X71401835Y-145112816D01*
X71412925Y-145107571D01*
X71424474Y-145103438D01*
X71436374Y-145100458D01*
X71448508Y-145098658D01*
X71460760Y-145098056D01*
X71473012Y-145098658D01*
G37*
G04 #@! TD.AperFunction*
G04 #@! TA.AperFunction,SMDPad,CuDef*
G36*
X72038697Y-144532972D02*
G01*
X72050831Y-144534772D01*
X72062731Y-144537752D01*
X72074280Y-144541885D01*
X72085370Y-144547130D01*
X72095891Y-144553436D01*
X72105744Y-144560744D01*
X72114833Y-144568982D01*
X72998716Y-145452865D01*
X73006954Y-145461954D01*
X73014262Y-145471807D01*
X73020568Y-145482328D01*
X73025813Y-145493418D01*
X73029946Y-145504967D01*
X73032926Y-145516867D01*
X73034726Y-145529001D01*
X73035328Y-145541253D01*
X73034726Y-145553505D01*
X73032926Y-145565639D01*
X73029946Y-145577539D01*
X73025813Y-145589088D01*
X73020568Y-145600178D01*
X73014262Y-145610699D01*
X73006954Y-145620552D01*
X72998716Y-145629641D01*
X72821939Y-145806418D01*
X72812850Y-145814656D01*
X72802997Y-145821964D01*
X72792476Y-145828270D01*
X72781386Y-145833515D01*
X72769837Y-145837648D01*
X72757937Y-145840628D01*
X72745803Y-145842428D01*
X72733551Y-145843030D01*
X72721299Y-145842428D01*
X72709165Y-145840628D01*
X72697265Y-145837648D01*
X72685716Y-145833515D01*
X72674626Y-145828270D01*
X72664105Y-145821964D01*
X72654252Y-145814656D01*
X72645163Y-145806418D01*
X71761280Y-144922535D01*
X71753042Y-144913446D01*
X71745734Y-144903593D01*
X71739428Y-144893072D01*
X71734183Y-144881982D01*
X71730050Y-144870433D01*
X71727070Y-144858533D01*
X71725270Y-144846399D01*
X71724668Y-144834147D01*
X71725270Y-144821895D01*
X71727070Y-144809761D01*
X71730050Y-144797861D01*
X71734183Y-144786312D01*
X71739428Y-144775222D01*
X71745734Y-144764701D01*
X71753042Y-144754848D01*
X71761280Y-144745759D01*
X71938057Y-144568982D01*
X71947146Y-144560744D01*
X71956999Y-144553436D01*
X71967520Y-144547130D01*
X71978610Y-144541885D01*
X71990159Y-144537752D01*
X72002059Y-144534772D01*
X72014193Y-144532972D01*
X72026445Y-144532370D01*
X72038697Y-144532972D01*
G37*
G04 #@! TD.AperFunction*
G04 #@! TA.AperFunction,SMDPad,CuDef*
G36*
X74690347Y-144532972D02*
G01*
X74702481Y-144534772D01*
X74714381Y-144537752D01*
X74725930Y-144541885D01*
X74737020Y-144547130D01*
X74747541Y-144553436D01*
X74757394Y-144560744D01*
X74766483Y-144568982D01*
X74943260Y-144745759D01*
X74951498Y-144754848D01*
X74958806Y-144764701D01*
X74965112Y-144775222D01*
X74970357Y-144786312D01*
X74974490Y-144797861D01*
X74977470Y-144809761D01*
X74979270Y-144821895D01*
X74979872Y-144834147D01*
X74979270Y-144846399D01*
X74977470Y-144858533D01*
X74974490Y-144870433D01*
X74970357Y-144881982D01*
X74965112Y-144893072D01*
X74958806Y-144903593D01*
X74951498Y-144913446D01*
X74943260Y-144922535D01*
X74059377Y-145806418D01*
X74050288Y-145814656D01*
X74040435Y-145821964D01*
X74029914Y-145828270D01*
X74018824Y-145833515D01*
X74007275Y-145837648D01*
X73995375Y-145840628D01*
X73983241Y-145842428D01*
X73970989Y-145843030D01*
X73958737Y-145842428D01*
X73946603Y-145840628D01*
X73934703Y-145837648D01*
X73923154Y-145833515D01*
X73912064Y-145828270D01*
X73901543Y-145821964D01*
X73891690Y-145814656D01*
X73882601Y-145806418D01*
X73705824Y-145629641D01*
X73697586Y-145620552D01*
X73690278Y-145610699D01*
X73683972Y-145600178D01*
X73678727Y-145589088D01*
X73674594Y-145577539D01*
X73671614Y-145565639D01*
X73669814Y-145553505D01*
X73669212Y-145541253D01*
X73669814Y-145529001D01*
X73671614Y-145516867D01*
X73674594Y-145504967D01*
X73678727Y-145493418D01*
X73683972Y-145482328D01*
X73690278Y-145471807D01*
X73697586Y-145461954D01*
X73705824Y-145452865D01*
X74589707Y-144568982D01*
X74598796Y-144560744D01*
X74608649Y-144553436D01*
X74619170Y-144547130D01*
X74630260Y-144541885D01*
X74641809Y-144537752D01*
X74653709Y-144534772D01*
X74665843Y-144532972D01*
X74678095Y-144532370D01*
X74690347Y-144532972D01*
G37*
G04 #@! TD.AperFunction*
G04 #@! TA.AperFunction,SMDPad,CuDef*
G36*
X75256032Y-145098658D02*
G01*
X75268166Y-145100458D01*
X75280066Y-145103438D01*
X75291615Y-145107571D01*
X75302705Y-145112816D01*
X75313226Y-145119122D01*
X75323079Y-145126430D01*
X75332168Y-145134668D01*
X75508945Y-145311445D01*
X75517183Y-145320534D01*
X75524491Y-145330387D01*
X75530797Y-145340908D01*
X75536042Y-145351998D01*
X75540175Y-145363547D01*
X75543155Y-145375447D01*
X75544955Y-145387581D01*
X75545557Y-145399833D01*
X75544955Y-145412085D01*
X75543155Y-145424219D01*
X75540175Y-145436119D01*
X75536042Y-145447668D01*
X75530797Y-145458758D01*
X75524491Y-145469279D01*
X75517183Y-145479132D01*
X75508945Y-145488221D01*
X74625062Y-146372104D01*
X74615973Y-146380342D01*
X74606120Y-146387650D01*
X74595599Y-146393956D01*
X74584509Y-146399201D01*
X74572960Y-146403334D01*
X74561060Y-146406314D01*
X74548926Y-146408114D01*
X74536674Y-146408716D01*
X74524422Y-146408114D01*
X74512288Y-146406314D01*
X74500388Y-146403334D01*
X74488839Y-146399201D01*
X74477749Y-146393956D01*
X74467228Y-146387650D01*
X74457375Y-146380342D01*
X74448286Y-146372104D01*
X74271509Y-146195327D01*
X74263271Y-146186238D01*
X74255963Y-146176385D01*
X74249657Y-146165864D01*
X74244412Y-146154774D01*
X74240279Y-146143225D01*
X74237299Y-146131325D01*
X74235499Y-146119191D01*
X74234897Y-146106939D01*
X74235499Y-146094687D01*
X74237299Y-146082553D01*
X74240279Y-146070653D01*
X74244412Y-146059104D01*
X74249657Y-146048014D01*
X74255963Y-146037493D01*
X74263271Y-146027640D01*
X74271509Y-146018551D01*
X75155392Y-145134668D01*
X75164481Y-145126430D01*
X75174334Y-145119122D01*
X75184855Y-145112816D01*
X75195945Y-145107571D01*
X75207494Y-145103438D01*
X75219394Y-145100458D01*
X75231528Y-145098658D01*
X75243780Y-145098056D01*
X75256032Y-145098658D01*
G37*
G04 #@! TD.AperFunction*
G04 #@! TA.AperFunction,SMDPad,CuDef*
G36*
X75821718Y-145664343D02*
G01*
X75833852Y-145666143D01*
X75845752Y-145669123D01*
X75857301Y-145673256D01*
X75868391Y-145678501D01*
X75878912Y-145684807D01*
X75888765Y-145692115D01*
X75897854Y-145700353D01*
X76074631Y-145877130D01*
X76082869Y-145886219D01*
X76090177Y-145896072D01*
X76096483Y-145906593D01*
X76101728Y-145917683D01*
X76105861Y-145929232D01*
X76108841Y-145941132D01*
X76110641Y-145953266D01*
X76111243Y-145965518D01*
X76110641Y-145977770D01*
X76108841Y-145989904D01*
X76105861Y-146001804D01*
X76101728Y-146013353D01*
X76096483Y-146024443D01*
X76090177Y-146034964D01*
X76082869Y-146044817D01*
X76074631Y-146053906D01*
X75190748Y-146937789D01*
X75181659Y-146946027D01*
X75171806Y-146953335D01*
X75161285Y-146959641D01*
X75150195Y-146964886D01*
X75138646Y-146969019D01*
X75126746Y-146971999D01*
X75114612Y-146973799D01*
X75102360Y-146974401D01*
X75090108Y-146973799D01*
X75077974Y-146971999D01*
X75066074Y-146969019D01*
X75054525Y-146964886D01*
X75043435Y-146959641D01*
X75032914Y-146953335D01*
X75023061Y-146946027D01*
X75013972Y-146937789D01*
X74837195Y-146761012D01*
X74828957Y-146751923D01*
X74821649Y-146742070D01*
X74815343Y-146731549D01*
X74810098Y-146720459D01*
X74805965Y-146708910D01*
X74802985Y-146697010D01*
X74801185Y-146684876D01*
X74800583Y-146672624D01*
X74801185Y-146660372D01*
X74802985Y-146648238D01*
X74805965Y-146636338D01*
X74810098Y-146624789D01*
X74815343Y-146613699D01*
X74821649Y-146603178D01*
X74828957Y-146593325D01*
X74837195Y-146584236D01*
X75721078Y-145700353D01*
X75730167Y-145692115D01*
X75740020Y-145684807D01*
X75750541Y-145678501D01*
X75761631Y-145673256D01*
X75773180Y-145669123D01*
X75785080Y-145666143D01*
X75797214Y-145664343D01*
X75809466Y-145663741D01*
X75821718Y-145664343D01*
G37*
G04 #@! TD.AperFunction*
G04 #@! TA.AperFunction,SMDPad,CuDef*
G36*
X76387403Y-146230028D02*
G01*
X76399537Y-146231828D01*
X76411437Y-146234808D01*
X76422986Y-146238941D01*
X76434076Y-146244186D01*
X76444597Y-146250492D01*
X76454450Y-146257800D01*
X76463539Y-146266038D01*
X76640316Y-146442815D01*
X76648554Y-146451904D01*
X76655862Y-146461757D01*
X76662168Y-146472278D01*
X76667413Y-146483368D01*
X76671546Y-146494917D01*
X76674526Y-146506817D01*
X76676326Y-146518951D01*
X76676928Y-146531203D01*
X76676326Y-146543455D01*
X76674526Y-146555589D01*
X76671546Y-146567489D01*
X76667413Y-146579038D01*
X76662168Y-146590128D01*
X76655862Y-146600649D01*
X76648554Y-146610502D01*
X76640316Y-146619591D01*
X75756433Y-147503474D01*
X75747344Y-147511712D01*
X75737491Y-147519020D01*
X75726970Y-147525326D01*
X75715880Y-147530571D01*
X75704331Y-147534704D01*
X75692431Y-147537684D01*
X75680297Y-147539484D01*
X75668045Y-147540086D01*
X75655793Y-147539484D01*
X75643659Y-147537684D01*
X75631759Y-147534704D01*
X75620210Y-147530571D01*
X75609120Y-147525326D01*
X75598599Y-147519020D01*
X75588746Y-147511712D01*
X75579657Y-147503474D01*
X75402880Y-147326697D01*
X75394642Y-147317608D01*
X75387334Y-147307755D01*
X75381028Y-147297234D01*
X75375783Y-147286144D01*
X75371650Y-147274595D01*
X75368670Y-147262695D01*
X75366870Y-147250561D01*
X75366268Y-147238309D01*
X75366870Y-147226057D01*
X75368670Y-147213923D01*
X75371650Y-147202023D01*
X75375783Y-147190474D01*
X75381028Y-147179384D01*
X75387334Y-147168863D01*
X75394642Y-147159010D01*
X75402880Y-147149921D01*
X76286763Y-146266038D01*
X76295852Y-146257800D01*
X76305705Y-146250492D01*
X76316226Y-146244186D01*
X76327316Y-146238941D01*
X76338865Y-146234808D01*
X76350765Y-146231828D01*
X76362899Y-146230028D01*
X76375151Y-146229426D01*
X76387403Y-146230028D01*
G37*
G04 #@! TD.AperFunction*
G04 #@! TA.AperFunction,SMDPad,CuDef*
G36*
X76953089Y-146795714D02*
G01*
X76965223Y-146797514D01*
X76977123Y-146800494D01*
X76988672Y-146804627D01*
X76999762Y-146809872D01*
X77010283Y-146816178D01*
X77020136Y-146823486D01*
X77029225Y-146831724D01*
X77206002Y-147008501D01*
X77214240Y-147017590D01*
X77221548Y-147027443D01*
X77227854Y-147037964D01*
X77233099Y-147049054D01*
X77237232Y-147060603D01*
X77240212Y-147072503D01*
X77242012Y-147084637D01*
X77242614Y-147096889D01*
X77242012Y-147109141D01*
X77240212Y-147121275D01*
X77237232Y-147133175D01*
X77233099Y-147144724D01*
X77227854Y-147155814D01*
X77221548Y-147166335D01*
X77214240Y-147176188D01*
X77206002Y-147185277D01*
X76322119Y-148069160D01*
X76313030Y-148077398D01*
X76303177Y-148084706D01*
X76292656Y-148091012D01*
X76281566Y-148096257D01*
X76270017Y-148100390D01*
X76258117Y-148103370D01*
X76245983Y-148105170D01*
X76233731Y-148105772D01*
X76221479Y-148105170D01*
X76209345Y-148103370D01*
X76197445Y-148100390D01*
X76185896Y-148096257D01*
X76174806Y-148091012D01*
X76164285Y-148084706D01*
X76154432Y-148077398D01*
X76145343Y-148069160D01*
X75968566Y-147892383D01*
X75960328Y-147883294D01*
X75953020Y-147873441D01*
X75946714Y-147862920D01*
X75941469Y-147851830D01*
X75937336Y-147840281D01*
X75934356Y-147828381D01*
X75932556Y-147816247D01*
X75931954Y-147803995D01*
X75932556Y-147791743D01*
X75934356Y-147779609D01*
X75937336Y-147767709D01*
X75941469Y-147756160D01*
X75946714Y-147745070D01*
X75953020Y-147734549D01*
X75960328Y-147724696D01*
X75968566Y-147715607D01*
X76852449Y-146831724D01*
X76861538Y-146823486D01*
X76871391Y-146816178D01*
X76881912Y-146809872D01*
X76893002Y-146804627D01*
X76904551Y-146800494D01*
X76916451Y-146797514D01*
X76928585Y-146795714D01*
X76940837Y-146795112D01*
X76953089Y-146795714D01*
G37*
G04 #@! TD.AperFunction*
G04 #@! TA.AperFunction,SMDPad,CuDef*
G36*
X77518774Y-147361399D02*
G01*
X77530908Y-147363199D01*
X77542808Y-147366179D01*
X77554357Y-147370312D01*
X77565447Y-147375557D01*
X77575968Y-147381863D01*
X77585821Y-147389171D01*
X77594910Y-147397409D01*
X77771687Y-147574186D01*
X77779925Y-147583275D01*
X77787233Y-147593128D01*
X77793539Y-147603649D01*
X77798784Y-147614739D01*
X77802917Y-147626288D01*
X77805897Y-147638188D01*
X77807697Y-147650322D01*
X77808299Y-147662574D01*
X77807697Y-147674826D01*
X77805897Y-147686960D01*
X77802917Y-147698860D01*
X77798784Y-147710409D01*
X77793539Y-147721499D01*
X77787233Y-147732020D01*
X77779925Y-147741873D01*
X77771687Y-147750962D01*
X76887804Y-148634845D01*
X76878715Y-148643083D01*
X76868862Y-148650391D01*
X76858341Y-148656697D01*
X76847251Y-148661942D01*
X76835702Y-148666075D01*
X76823802Y-148669055D01*
X76811668Y-148670855D01*
X76799416Y-148671457D01*
X76787164Y-148670855D01*
X76775030Y-148669055D01*
X76763130Y-148666075D01*
X76751581Y-148661942D01*
X76740491Y-148656697D01*
X76729970Y-148650391D01*
X76720117Y-148643083D01*
X76711028Y-148634845D01*
X76534251Y-148458068D01*
X76526013Y-148448979D01*
X76518705Y-148439126D01*
X76512399Y-148428605D01*
X76507154Y-148417515D01*
X76503021Y-148405966D01*
X76500041Y-148394066D01*
X76498241Y-148381932D01*
X76497639Y-148369680D01*
X76498241Y-148357428D01*
X76500041Y-148345294D01*
X76503021Y-148333394D01*
X76507154Y-148321845D01*
X76512399Y-148310755D01*
X76518705Y-148300234D01*
X76526013Y-148290381D01*
X76534251Y-148281292D01*
X77418134Y-147397409D01*
X77427223Y-147389171D01*
X77437076Y-147381863D01*
X77447597Y-147375557D01*
X77458687Y-147370312D01*
X77470236Y-147366179D01*
X77482136Y-147363199D01*
X77494270Y-147361399D01*
X77506522Y-147360797D01*
X77518774Y-147361399D01*
G37*
G04 #@! TD.AperFunction*
G04 #@! TA.AperFunction,SMDPad,CuDef*
G36*
X78084459Y-147927085D02*
G01*
X78096593Y-147928885D01*
X78108493Y-147931865D01*
X78120042Y-147935998D01*
X78131132Y-147941243D01*
X78141653Y-147947549D01*
X78151506Y-147954857D01*
X78160595Y-147963095D01*
X78337372Y-148139872D01*
X78345610Y-148148961D01*
X78352918Y-148158814D01*
X78359224Y-148169335D01*
X78364469Y-148180425D01*
X78368602Y-148191974D01*
X78371582Y-148203874D01*
X78373382Y-148216008D01*
X78373984Y-148228260D01*
X78373382Y-148240512D01*
X78371582Y-148252646D01*
X78368602Y-148264546D01*
X78364469Y-148276095D01*
X78359224Y-148287185D01*
X78352918Y-148297706D01*
X78345610Y-148307559D01*
X78337372Y-148316648D01*
X77453489Y-149200531D01*
X77444400Y-149208769D01*
X77434547Y-149216077D01*
X77424026Y-149222383D01*
X77412936Y-149227628D01*
X77401387Y-149231761D01*
X77389487Y-149234741D01*
X77377353Y-149236541D01*
X77365101Y-149237143D01*
X77352849Y-149236541D01*
X77340715Y-149234741D01*
X77328815Y-149231761D01*
X77317266Y-149227628D01*
X77306176Y-149222383D01*
X77295655Y-149216077D01*
X77285802Y-149208769D01*
X77276713Y-149200531D01*
X77099936Y-149023754D01*
X77091698Y-149014665D01*
X77084390Y-149004812D01*
X77078084Y-148994291D01*
X77072839Y-148983201D01*
X77068706Y-148971652D01*
X77065726Y-148959752D01*
X77063926Y-148947618D01*
X77063324Y-148935366D01*
X77063926Y-148923114D01*
X77065726Y-148910980D01*
X77068706Y-148899080D01*
X77072839Y-148887531D01*
X77078084Y-148876441D01*
X77084390Y-148865920D01*
X77091698Y-148856067D01*
X77099936Y-148846978D01*
X77983819Y-147963095D01*
X77992908Y-147954857D01*
X78002761Y-147947549D01*
X78013282Y-147941243D01*
X78024372Y-147935998D01*
X78035921Y-147931865D01*
X78047821Y-147928885D01*
X78059955Y-147927085D01*
X78072207Y-147926483D01*
X78084459Y-147927085D01*
G37*
G04 #@! TD.AperFunction*
G04 #@! TA.AperFunction,SMDPad,CuDef*
G36*
X78650145Y-148492770D02*
G01*
X78662279Y-148494570D01*
X78674179Y-148497550D01*
X78685728Y-148501683D01*
X78696818Y-148506928D01*
X78707339Y-148513234D01*
X78717192Y-148520542D01*
X78726281Y-148528780D01*
X78903058Y-148705557D01*
X78911296Y-148714646D01*
X78918604Y-148724499D01*
X78924910Y-148735020D01*
X78930155Y-148746110D01*
X78934288Y-148757659D01*
X78937268Y-148769559D01*
X78939068Y-148781693D01*
X78939670Y-148793945D01*
X78939068Y-148806197D01*
X78937268Y-148818331D01*
X78934288Y-148830231D01*
X78930155Y-148841780D01*
X78924910Y-148852870D01*
X78918604Y-148863391D01*
X78911296Y-148873244D01*
X78903058Y-148882333D01*
X78019175Y-149766216D01*
X78010086Y-149774454D01*
X78000233Y-149781762D01*
X77989712Y-149788068D01*
X77978622Y-149793313D01*
X77967073Y-149797446D01*
X77955173Y-149800426D01*
X77943039Y-149802226D01*
X77930787Y-149802828D01*
X77918535Y-149802226D01*
X77906401Y-149800426D01*
X77894501Y-149797446D01*
X77882952Y-149793313D01*
X77871862Y-149788068D01*
X77861341Y-149781762D01*
X77851488Y-149774454D01*
X77842399Y-149766216D01*
X77665622Y-149589439D01*
X77657384Y-149580350D01*
X77650076Y-149570497D01*
X77643770Y-149559976D01*
X77638525Y-149548886D01*
X77634392Y-149537337D01*
X77631412Y-149525437D01*
X77629612Y-149513303D01*
X77629010Y-149501051D01*
X77629612Y-149488799D01*
X77631412Y-149476665D01*
X77634392Y-149464765D01*
X77638525Y-149453216D01*
X77643770Y-149442126D01*
X77650076Y-149431605D01*
X77657384Y-149421752D01*
X77665622Y-149412663D01*
X78549505Y-148528780D01*
X78558594Y-148520542D01*
X78568447Y-148513234D01*
X78578968Y-148506928D01*
X78590058Y-148501683D01*
X78601607Y-148497550D01*
X78613507Y-148494570D01*
X78625641Y-148492770D01*
X78637893Y-148492168D01*
X78650145Y-148492770D01*
G37*
G04 #@! TD.AperFunction*
G04 #@! TA.AperFunction,SMDPad,CuDef*
G36*
X69374505Y-158551204D02*
G01*
X69398773Y-158554804D01*
X69422572Y-158560765D01*
X69445671Y-158569030D01*
X69467850Y-158579520D01*
X69488893Y-158592132D01*
X69508599Y-158606747D01*
X69526777Y-158623223D01*
X69543253Y-158641401D01*
X69557868Y-158661107D01*
X69570480Y-158682150D01*
X69580970Y-158704329D01*
X69589235Y-158727428D01*
X69595196Y-158751227D01*
X69598796Y-158775495D01*
X69600000Y-158799999D01*
X69600000Y-159700001D01*
X69598796Y-159724505D01*
X69595196Y-159748773D01*
X69589235Y-159772572D01*
X69580970Y-159795671D01*
X69570480Y-159817850D01*
X69557868Y-159838893D01*
X69543253Y-159858599D01*
X69526777Y-159876777D01*
X69508599Y-159893253D01*
X69488893Y-159907868D01*
X69467850Y-159920480D01*
X69445671Y-159930970D01*
X69422572Y-159939235D01*
X69398773Y-159945196D01*
X69374505Y-159948796D01*
X69350001Y-159950000D01*
X68699999Y-159950000D01*
X68675495Y-159948796D01*
X68651227Y-159945196D01*
X68627428Y-159939235D01*
X68604329Y-159930970D01*
X68582150Y-159920480D01*
X68561107Y-159907868D01*
X68541401Y-159893253D01*
X68523223Y-159876777D01*
X68506747Y-159858599D01*
X68492132Y-159838893D01*
X68479520Y-159817850D01*
X68469030Y-159795671D01*
X68460765Y-159772572D01*
X68454804Y-159748773D01*
X68451204Y-159724505D01*
X68450000Y-159700001D01*
X68450000Y-158799999D01*
X68451204Y-158775495D01*
X68454804Y-158751227D01*
X68460765Y-158727428D01*
X68469030Y-158704329D01*
X68479520Y-158682150D01*
X68492132Y-158661107D01*
X68506747Y-158641401D01*
X68523223Y-158623223D01*
X68541401Y-158606747D01*
X68561107Y-158592132D01*
X68582150Y-158579520D01*
X68604329Y-158569030D01*
X68627428Y-158560765D01*
X68651227Y-158554804D01*
X68675495Y-158551204D01*
X68699999Y-158550000D01*
X69350001Y-158550000D01*
X69374505Y-158551204D01*
G37*
G04 #@! TD.AperFunction*
G04 #@! TA.AperFunction,SMDPad,CuDef*
G36*
X67324505Y-158551204D02*
G01*
X67348773Y-158554804D01*
X67372572Y-158560765D01*
X67395671Y-158569030D01*
X67417850Y-158579520D01*
X67438893Y-158592132D01*
X67458599Y-158606747D01*
X67476777Y-158623223D01*
X67493253Y-158641401D01*
X67507868Y-158661107D01*
X67520480Y-158682150D01*
X67530970Y-158704329D01*
X67539235Y-158727428D01*
X67545196Y-158751227D01*
X67548796Y-158775495D01*
X67550000Y-158799999D01*
X67550000Y-159700001D01*
X67548796Y-159724505D01*
X67545196Y-159748773D01*
X67539235Y-159772572D01*
X67530970Y-159795671D01*
X67520480Y-159817850D01*
X67507868Y-159838893D01*
X67493253Y-159858599D01*
X67476777Y-159876777D01*
X67458599Y-159893253D01*
X67438893Y-159907868D01*
X67417850Y-159920480D01*
X67395671Y-159930970D01*
X67372572Y-159939235D01*
X67348773Y-159945196D01*
X67324505Y-159948796D01*
X67300001Y-159950000D01*
X66649999Y-159950000D01*
X66625495Y-159948796D01*
X66601227Y-159945196D01*
X66577428Y-159939235D01*
X66554329Y-159930970D01*
X66532150Y-159920480D01*
X66511107Y-159907868D01*
X66491401Y-159893253D01*
X66473223Y-159876777D01*
X66456747Y-159858599D01*
X66442132Y-159838893D01*
X66429520Y-159817850D01*
X66419030Y-159795671D01*
X66410765Y-159772572D01*
X66404804Y-159748773D01*
X66401204Y-159724505D01*
X66400000Y-159700001D01*
X66400000Y-158799999D01*
X66401204Y-158775495D01*
X66404804Y-158751227D01*
X66410765Y-158727428D01*
X66419030Y-158704329D01*
X66429520Y-158682150D01*
X66442132Y-158661107D01*
X66456747Y-158641401D01*
X66473223Y-158623223D01*
X66491401Y-158606747D01*
X66511107Y-158592132D01*
X66532150Y-158579520D01*
X66554329Y-158569030D01*
X66577428Y-158560765D01*
X66601227Y-158554804D01*
X66625495Y-158551204D01*
X66649999Y-158550000D01*
X67300001Y-158550000D01*
X67324505Y-158551204D01*
G37*
G04 #@! TD.AperFunction*
G04 #@! TA.AperFunction,SMDPad,CuDef*
G36*
X69374505Y-155301204D02*
G01*
X69398773Y-155304804D01*
X69422572Y-155310765D01*
X69445671Y-155319030D01*
X69467850Y-155329520D01*
X69488893Y-155342132D01*
X69508599Y-155356747D01*
X69526777Y-155373223D01*
X69543253Y-155391401D01*
X69557868Y-155411107D01*
X69570480Y-155432150D01*
X69580970Y-155454329D01*
X69589235Y-155477428D01*
X69595196Y-155501227D01*
X69598796Y-155525495D01*
X69600000Y-155549999D01*
X69600000Y-156450001D01*
X69598796Y-156474505D01*
X69595196Y-156498773D01*
X69589235Y-156522572D01*
X69580970Y-156545671D01*
X69570480Y-156567850D01*
X69557868Y-156588893D01*
X69543253Y-156608599D01*
X69526777Y-156626777D01*
X69508599Y-156643253D01*
X69488893Y-156657868D01*
X69467850Y-156670480D01*
X69445671Y-156680970D01*
X69422572Y-156689235D01*
X69398773Y-156695196D01*
X69374505Y-156698796D01*
X69350001Y-156700000D01*
X68699999Y-156700000D01*
X68675495Y-156698796D01*
X68651227Y-156695196D01*
X68627428Y-156689235D01*
X68604329Y-156680970D01*
X68582150Y-156670480D01*
X68561107Y-156657868D01*
X68541401Y-156643253D01*
X68523223Y-156626777D01*
X68506747Y-156608599D01*
X68492132Y-156588893D01*
X68479520Y-156567850D01*
X68469030Y-156545671D01*
X68460765Y-156522572D01*
X68454804Y-156498773D01*
X68451204Y-156474505D01*
X68450000Y-156450001D01*
X68450000Y-155549999D01*
X68451204Y-155525495D01*
X68454804Y-155501227D01*
X68460765Y-155477428D01*
X68469030Y-155454329D01*
X68479520Y-155432150D01*
X68492132Y-155411107D01*
X68506747Y-155391401D01*
X68523223Y-155373223D01*
X68541401Y-155356747D01*
X68561107Y-155342132D01*
X68582150Y-155329520D01*
X68604329Y-155319030D01*
X68627428Y-155310765D01*
X68651227Y-155304804D01*
X68675495Y-155301204D01*
X68699999Y-155300000D01*
X69350001Y-155300000D01*
X69374505Y-155301204D01*
G37*
G04 #@! TD.AperFunction*
G04 #@! TA.AperFunction,SMDPad,CuDef*
G36*
X67324505Y-155301204D02*
G01*
X67348773Y-155304804D01*
X67372572Y-155310765D01*
X67395671Y-155319030D01*
X67417850Y-155329520D01*
X67438893Y-155342132D01*
X67458599Y-155356747D01*
X67476777Y-155373223D01*
X67493253Y-155391401D01*
X67507868Y-155411107D01*
X67520480Y-155432150D01*
X67530970Y-155454329D01*
X67539235Y-155477428D01*
X67545196Y-155501227D01*
X67548796Y-155525495D01*
X67550000Y-155549999D01*
X67550000Y-156450001D01*
X67548796Y-156474505D01*
X67545196Y-156498773D01*
X67539235Y-156522572D01*
X67530970Y-156545671D01*
X67520480Y-156567850D01*
X67507868Y-156588893D01*
X67493253Y-156608599D01*
X67476777Y-156626777D01*
X67458599Y-156643253D01*
X67438893Y-156657868D01*
X67417850Y-156670480D01*
X67395671Y-156680970D01*
X67372572Y-156689235D01*
X67348773Y-156695196D01*
X67324505Y-156698796D01*
X67300001Y-156700000D01*
X66649999Y-156700000D01*
X66625495Y-156698796D01*
X66601227Y-156695196D01*
X66577428Y-156689235D01*
X66554329Y-156680970D01*
X66532150Y-156670480D01*
X66511107Y-156657868D01*
X66491401Y-156643253D01*
X66473223Y-156626777D01*
X66456747Y-156608599D01*
X66442132Y-156588893D01*
X66429520Y-156567850D01*
X66419030Y-156545671D01*
X66410765Y-156522572D01*
X66404804Y-156498773D01*
X66401204Y-156474505D01*
X66400000Y-156450001D01*
X66400000Y-155549999D01*
X66401204Y-155525495D01*
X66404804Y-155501227D01*
X66410765Y-155477428D01*
X66419030Y-155454329D01*
X66429520Y-155432150D01*
X66442132Y-155411107D01*
X66456747Y-155391401D01*
X66473223Y-155373223D01*
X66491401Y-155356747D01*
X66511107Y-155342132D01*
X66532150Y-155329520D01*
X66554329Y-155319030D01*
X66577428Y-155310765D01*
X66601227Y-155304804D01*
X66625495Y-155301204D01*
X66649999Y-155300000D01*
X67300001Y-155300000D01*
X67324505Y-155301204D01*
G37*
G04 #@! TD.AperFunction*
D19*
X61450000Y-140350000D03*
X62400000Y-143350000D03*
X60500000Y-143350000D03*
X52500000Y-140350000D03*
X53450000Y-143350000D03*
X51550000Y-143350000D03*
X43200000Y-140350000D03*
X44150000Y-143350000D03*
X42250000Y-143350000D03*
X34250000Y-140350000D03*
X35200000Y-143350000D03*
X33300000Y-143350000D03*
G04 #@! TA.AperFunction,SMDPad,CuDef*
D16*
G36*
X68450000Y-139550000D02*
G01*
X68450000Y-137250000D01*
X72050000Y-137850000D01*
X72050000Y-138950000D01*
X68450000Y-139550000D01*
G37*
G04 #@! TD.AperFunction*
G04 #@! TA.AperFunction,SMDPad,CuDef*
G36*
X77850000Y-137250000D02*
G01*
X77850000Y-139550000D01*
X74250000Y-138950000D01*
X74250000Y-137850000D01*
X77850000Y-137250000D01*
G37*
G04 #@! TD.AperFunction*
G04 #@! TA.AperFunction,SMDPad,CuDef*
G36*
X72714703Y-133905722D02*
G01*
X72729264Y-133907882D01*
X72743543Y-133911459D01*
X72757403Y-133916418D01*
X72770710Y-133922712D01*
X72783336Y-133930280D01*
X72795159Y-133939048D01*
X72806066Y-133948934D01*
X72815952Y-133959841D01*
X72824720Y-133971664D01*
X72832288Y-133984290D01*
X72838582Y-133997597D01*
X72843541Y-134011457D01*
X72847118Y-134025736D01*
X72849278Y-134040297D01*
X72850000Y-134055000D01*
X72850000Y-134355000D01*
X72849278Y-134369703D01*
X72847118Y-134384264D01*
X72843541Y-134398543D01*
X72838582Y-134412403D01*
X72832288Y-134425710D01*
X72824720Y-134438336D01*
X72815952Y-134450159D01*
X72806066Y-134461066D01*
X72795159Y-134470952D01*
X72783336Y-134479720D01*
X72770710Y-134487288D01*
X72757403Y-134493582D01*
X72743543Y-134498541D01*
X72729264Y-134502118D01*
X72714703Y-134504278D01*
X72700000Y-134505000D01*
X71050000Y-134505000D01*
X71035297Y-134504278D01*
X71020736Y-134502118D01*
X71006457Y-134498541D01*
X70992597Y-134493582D01*
X70979290Y-134487288D01*
X70966664Y-134479720D01*
X70954841Y-134470952D01*
X70943934Y-134461066D01*
X70934048Y-134450159D01*
X70925280Y-134438336D01*
X70917712Y-134425710D01*
X70911418Y-134412403D01*
X70906459Y-134398543D01*
X70902882Y-134384264D01*
X70900722Y-134369703D01*
X70900000Y-134355000D01*
X70900000Y-134055000D01*
X70900722Y-134040297D01*
X70902882Y-134025736D01*
X70906459Y-134011457D01*
X70911418Y-133997597D01*
X70917712Y-133984290D01*
X70925280Y-133971664D01*
X70934048Y-133959841D01*
X70943934Y-133948934D01*
X70954841Y-133939048D01*
X70966664Y-133930280D01*
X70979290Y-133922712D01*
X70992597Y-133916418D01*
X71006457Y-133911459D01*
X71020736Y-133907882D01*
X71035297Y-133905722D01*
X71050000Y-133905000D01*
X72700000Y-133905000D01*
X72714703Y-133905722D01*
G37*
G04 #@! TD.AperFunction*
G04 #@! TA.AperFunction,SMDPad,CuDef*
G36*
X72714703Y-132635722D02*
G01*
X72729264Y-132637882D01*
X72743543Y-132641459D01*
X72757403Y-132646418D01*
X72770710Y-132652712D01*
X72783336Y-132660280D01*
X72795159Y-132669048D01*
X72806066Y-132678934D01*
X72815952Y-132689841D01*
X72824720Y-132701664D01*
X72832288Y-132714290D01*
X72838582Y-132727597D01*
X72843541Y-132741457D01*
X72847118Y-132755736D01*
X72849278Y-132770297D01*
X72850000Y-132785000D01*
X72850000Y-133085000D01*
X72849278Y-133099703D01*
X72847118Y-133114264D01*
X72843541Y-133128543D01*
X72838582Y-133142403D01*
X72832288Y-133155710D01*
X72824720Y-133168336D01*
X72815952Y-133180159D01*
X72806066Y-133191066D01*
X72795159Y-133200952D01*
X72783336Y-133209720D01*
X72770710Y-133217288D01*
X72757403Y-133223582D01*
X72743543Y-133228541D01*
X72729264Y-133232118D01*
X72714703Y-133234278D01*
X72700000Y-133235000D01*
X71050000Y-133235000D01*
X71035297Y-133234278D01*
X71020736Y-133232118D01*
X71006457Y-133228541D01*
X70992597Y-133223582D01*
X70979290Y-133217288D01*
X70966664Y-133209720D01*
X70954841Y-133200952D01*
X70943934Y-133191066D01*
X70934048Y-133180159D01*
X70925280Y-133168336D01*
X70917712Y-133155710D01*
X70911418Y-133142403D01*
X70906459Y-133128543D01*
X70902882Y-133114264D01*
X70900722Y-133099703D01*
X70900000Y-133085000D01*
X70900000Y-132785000D01*
X70900722Y-132770297D01*
X70902882Y-132755736D01*
X70906459Y-132741457D01*
X70911418Y-132727597D01*
X70917712Y-132714290D01*
X70925280Y-132701664D01*
X70934048Y-132689841D01*
X70943934Y-132678934D01*
X70954841Y-132669048D01*
X70966664Y-132660280D01*
X70979290Y-132652712D01*
X70992597Y-132646418D01*
X71006457Y-132641459D01*
X71020736Y-132637882D01*
X71035297Y-132635722D01*
X71050000Y-132635000D01*
X72700000Y-132635000D01*
X72714703Y-132635722D01*
G37*
G04 #@! TD.AperFunction*
G04 #@! TA.AperFunction,SMDPad,CuDef*
G36*
X72714703Y-131365722D02*
G01*
X72729264Y-131367882D01*
X72743543Y-131371459D01*
X72757403Y-131376418D01*
X72770710Y-131382712D01*
X72783336Y-131390280D01*
X72795159Y-131399048D01*
X72806066Y-131408934D01*
X72815952Y-131419841D01*
X72824720Y-131431664D01*
X72832288Y-131444290D01*
X72838582Y-131457597D01*
X72843541Y-131471457D01*
X72847118Y-131485736D01*
X72849278Y-131500297D01*
X72850000Y-131515000D01*
X72850000Y-131815000D01*
X72849278Y-131829703D01*
X72847118Y-131844264D01*
X72843541Y-131858543D01*
X72838582Y-131872403D01*
X72832288Y-131885710D01*
X72824720Y-131898336D01*
X72815952Y-131910159D01*
X72806066Y-131921066D01*
X72795159Y-131930952D01*
X72783336Y-131939720D01*
X72770710Y-131947288D01*
X72757403Y-131953582D01*
X72743543Y-131958541D01*
X72729264Y-131962118D01*
X72714703Y-131964278D01*
X72700000Y-131965000D01*
X71050000Y-131965000D01*
X71035297Y-131964278D01*
X71020736Y-131962118D01*
X71006457Y-131958541D01*
X70992597Y-131953582D01*
X70979290Y-131947288D01*
X70966664Y-131939720D01*
X70954841Y-131930952D01*
X70943934Y-131921066D01*
X70934048Y-131910159D01*
X70925280Y-131898336D01*
X70917712Y-131885710D01*
X70911418Y-131872403D01*
X70906459Y-131858543D01*
X70902882Y-131844264D01*
X70900722Y-131829703D01*
X70900000Y-131815000D01*
X70900000Y-131515000D01*
X70900722Y-131500297D01*
X70902882Y-131485736D01*
X70906459Y-131471457D01*
X70911418Y-131457597D01*
X70917712Y-131444290D01*
X70925280Y-131431664D01*
X70934048Y-131419841D01*
X70943934Y-131408934D01*
X70954841Y-131399048D01*
X70966664Y-131390280D01*
X70979290Y-131382712D01*
X70992597Y-131376418D01*
X71006457Y-131371459D01*
X71020736Y-131367882D01*
X71035297Y-131365722D01*
X71050000Y-131365000D01*
X72700000Y-131365000D01*
X72714703Y-131365722D01*
G37*
G04 #@! TD.AperFunction*
G04 #@! TA.AperFunction,SMDPad,CuDef*
G36*
X72714703Y-130095722D02*
G01*
X72729264Y-130097882D01*
X72743543Y-130101459D01*
X72757403Y-130106418D01*
X72770710Y-130112712D01*
X72783336Y-130120280D01*
X72795159Y-130129048D01*
X72806066Y-130138934D01*
X72815952Y-130149841D01*
X72824720Y-130161664D01*
X72832288Y-130174290D01*
X72838582Y-130187597D01*
X72843541Y-130201457D01*
X72847118Y-130215736D01*
X72849278Y-130230297D01*
X72850000Y-130245000D01*
X72850000Y-130545000D01*
X72849278Y-130559703D01*
X72847118Y-130574264D01*
X72843541Y-130588543D01*
X72838582Y-130602403D01*
X72832288Y-130615710D01*
X72824720Y-130628336D01*
X72815952Y-130640159D01*
X72806066Y-130651066D01*
X72795159Y-130660952D01*
X72783336Y-130669720D01*
X72770710Y-130677288D01*
X72757403Y-130683582D01*
X72743543Y-130688541D01*
X72729264Y-130692118D01*
X72714703Y-130694278D01*
X72700000Y-130695000D01*
X71050000Y-130695000D01*
X71035297Y-130694278D01*
X71020736Y-130692118D01*
X71006457Y-130688541D01*
X70992597Y-130683582D01*
X70979290Y-130677288D01*
X70966664Y-130669720D01*
X70954841Y-130660952D01*
X70943934Y-130651066D01*
X70934048Y-130640159D01*
X70925280Y-130628336D01*
X70917712Y-130615710D01*
X70911418Y-130602403D01*
X70906459Y-130588543D01*
X70902882Y-130574264D01*
X70900722Y-130559703D01*
X70900000Y-130545000D01*
X70900000Y-130245000D01*
X70900722Y-130230297D01*
X70902882Y-130215736D01*
X70906459Y-130201457D01*
X70911418Y-130187597D01*
X70917712Y-130174290D01*
X70925280Y-130161664D01*
X70934048Y-130149841D01*
X70943934Y-130138934D01*
X70954841Y-130129048D01*
X70966664Y-130120280D01*
X70979290Y-130112712D01*
X70992597Y-130106418D01*
X71006457Y-130101459D01*
X71020736Y-130097882D01*
X71035297Y-130095722D01*
X71050000Y-130095000D01*
X72700000Y-130095000D01*
X72714703Y-130095722D01*
G37*
G04 #@! TD.AperFunction*
G04 #@! TA.AperFunction,SMDPad,CuDef*
G36*
X77664703Y-130095722D02*
G01*
X77679264Y-130097882D01*
X77693543Y-130101459D01*
X77707403Y-130106418D01*
X77720710Y-130112712D01*
X77733336Y-130120280D01*
X77745159Y-130129048D01*
X77756066Y-130138934D01*
X77765952Y-130149841D01*
X77774720Y-130161664D01*
X77782288Y-130174290D01*
X77788582Y-130187597D01*
X77793541Y-130201457D01*
X77797118Y-130215736D01*
X77799278Y-130230297D01*
X77800000Y-130245000D01*
X77800000Y-130545000D01*
X77799278Y-130559703D01*
X77797118Y-130574264D01*
X77793541Y-130588543D01*
X77788582Y-130602403D01*
X77782288Y-130615710D01*
X77774720Y-130628336D01*
X77765952Y-130640159D01*
X77756066Y-130651066D01*
X77745159Y-130660952D01*
X77733336Y-130669720D01*
X77720710Y-130677288D01*
X77707403Y-130683582D01*
X77693543Y-130688541D01*
X77679264Y-130692118D01*
X77664703Y-130694278D01*
X77650000Y-130695000D01*
X76000000Y-130695000D01*
X75985297Y-130694278D01*
X75970736Y-130692118D01*
X75956457Y-130688541D01*
X75942597Y-130683582D01*
X75929290Y-130677288D01*
X75916664Y-130669720D01*
X75904841Y-130660952D01*
X75893934Y-130651066D01*
X75884048Y-130640159D01*
X75875280Y-130628336D01*
X75867712Y-130615710D01*
X75861418Y-130602403D01*
X75856459Y-130588543D01*
X75852882Y-130574264D01*
X75850722Y-130559703D01*
X75850000Y-130545000D01*
X75850000Y-130245000D01*
X75850722Y-130230297D01*
X75852882Y-130215736D01*
X75856459Y-130201457D01*
X75861418Y-130187597D01*
X75867712Y-130174290D01*
X75875280Y-130161664D01*
X75884048Y-130149841D01*
X75893934Y-130138934D01*
X75904841Y-130129048D01*
X75916664Y-130120280D01*
X75929290Y-130112712D01*
X75942597Y-130106418D01*
X75956457Y-130101459D01*
X75970736Y-130097882D01*
X75985297Y-130095722D01*
X76000000Y-130095000D01*
X77650000Y-130095000D01*
X77664703Y-130095722D01*
G37*
G04 #@! TD.AperFunction*
G04 #@! TA.AperFunction,SMDPad,CuDef*
G36*
X77664703Y-131365722D02*
G01*
X77679264Y-131367882D01*
X77693543Y-131371459D01*
X77707403Y-131376418D01*
X77720710Y-131382712D01*
X77733336Y-131390280D01*
X77745159Y-131399048D01*
X77756066Y-131408934D01*
X77765952Y-131419841D01*
X77774720Y-131431664D01*
X77782288Y-131444290D01*
X77788582Y-131457597D01*
X77793541Y-131471457D01*
X77797118Y-131485736D01*
X77799278Y-131500297D01*
X77800000Y-131515000D01*
X77800000Y-131815000D01*
X77799278Y-131829703D01*
X77797118Y-131844264D01*
X77793541Y-131858543D01*
X77788582Y-131872403D01*
X77782288Y-131885710D01*
X77774720Y-131898336D01*
X77765952Y-131910159D01*
X77756066Y-131921066D01*
X77745159Y-131930952D01*
X77733336Y-131939720D01*
X77720710Y-131947288D01*
X77707403Y-131953582D01*
X77693543Y-131958541D01*
X77679264Y-131962118D01*
X77664703Y-131964278D01*
X77650000Y-131965000D01*
X76000000Y-131965000D01*
X75985297Y-131964278D01*
X75970736Y-131962118D01*
X75956457Y-131958541D01*
X75942597Y-131953582D01*
X75929290Y-131947288D01*
X75916664Y-131939720D01*
X75904841Y-131930952D01*
X75893934Y-131921066D01*
X75884048Y-131910159D01*
X75875280Y-131898336D01*
X75867712Y-131885710D01*
X75861418Y-131872403D01*
X75856459Y-131858543D01*
X75852882Y-131844264D01*
X75850722Y-131829703D01*
X75850000Y-131815000D01*
X75850000Y-131515000D01*
X75850722Y-131500297D01*
X75852882Y-131485736D01*
X75856459Y-131471457D01*
X75861418Y-131457597D01*
X75867712Y-131444290D01*
X75875280Y-131431664D01*
X75884048Y-131419841D01*
X75893934Y-131408934D01*
X75904841Y-131399048D01*
X75916664Y-131390280D01*
X75929290Y-131382712D01*
X75942597Y-131376418D01*
X75956457Y-131371459D01*
X75970736Y-131367882D01*
X75985297Y-131365722D01*
X76000000Y-131365000D01*
X77650000Y-131365000D01*
X77664703Y-131365722D01*
G37*
G04 #@! TD.AperFunction*
G04 #@! TA.AperFunction,SMDPad,CuDef*
G36*
X77664703Y-132635722D02*
G01*
X77679264Y-132637882D01*
X77693543Y-132641459D01*
X77707403Y-132646418D01*
X77720710Y-132652712D01*
X77733336Y-132660280D01*
X77745159Y-132669048D01*
X77756066Y-132678934D01*
X77765952Y-132689841D01*
X77774720Y-132701664D01*
X77782288Y-132714290D01*
X77788582Y-132727597D01*
X77793541Y-132741457D01*
X77797118Y-132755736D01*
X77799278Y-132770297D01*
X77800000Y-132785000D01*
X77800000Y-133085000D01*
X77799278Y-133099703D01*
X77797118Y-133114264D01*
X77793541Y-133128543D01*
X77788582Y-133142403D01*
X77782288Y-133155710D01*
X77774720Y-133168336D01*
X77765952Y-133180159D01*
X77756066Y-133191066D01*
X77745159Y-133200952D01*
X77733336Y-133209720D01*
X77720710Y-133217288D01*
X77707403Y-133223582D01*
X77693543Y-133228541D01*
X77679264Y-133232118D01*
X77664703Y-133234278D01*
X77650000Y-133235000D01*
X76000000Y-133235000D01*
X75985297Y-133234278D01*
X75970736Y-133232118D01*
X75956457Y-133228541D01*
X75942597Y-133223582D01*
X75929290Y-133217288D01*
X75916664Y-133209720D01*
X75904841Y-133200952D01*
X75893934Y-133191066D01*
X75884048Y-133180159D01*
X75875280Y-133168336D01*
X75867712Y-133155710D01*
X75861418Y-133142403D01*
X75856459Y-133128543D01*
X75852882Y-133114264D01*
X75850722Y-133099703D01*
X75850000Y-133085000D01*
X75850000Y-132785000D01*
X75850722Y-132770297D01*
X75852882Y-132755736D01*
X75856459Y-132741457D01*
X75861418Y-132727597D01*
X75867712Y-132714290D01*
X75875280Y-132701664D01*
X75884048Y-132689841D01*
X75893934Y-132678934D01*
X75904841Y-132669048D01*
X75916664Y-132660280D01*
X75929290Y-132652712D01*
X75942597Y-132646418D01*
X75956457Y-132641459D01*
X75970736Y-132637882D01*
X75985297Y-132635722D01*
X76000000Y-132635000D01*
X77650000Y-132635000D01*
X77664703Y-132635722D01*
G37*
G04 #@! TD.AperFunction*
G04 #@! TA.AperFunction,SMDPad,CuDef*
G36*
X77664703Y-133905722D02*
G01*
X77679264Y-133907882D01*
X77693543Y-133911459D01*
X77707403Y-133916418D01*
X77720710Y-133922712D01*
X77733336Y-133930280D01*
X77745159Y-133939048D01*
X77756066Y-133948934D01*
X77765952Y-133959841D01*
X77774720Y-133971664D01*
X77782288Y-133984290D01*
X77788582Y-133997597D01*
X77793541Y-134011457D01*
X77797118Y-134025736D01*
X77799278Y-134040297D01*
X77800000Y-134055000D01*
X77800000Y-134355000D01*
X77799278Y-134369703D01*
X77797118Y-134384264D01*
X77793541Y-134398543D01*
X77788582Y-134412403D01*
X77782288Y-134425710D01*
X77774720Y-134438336D01*
X77765952Y-134450159D01*
X77756066Y-134461066D01*
X77745159Y-134470952D01*
X77733336Y-134479720D01*
X77720710Y-134487288D01*
X77707403Y-134493582D01*
X77693543Y-134498541D01*
X77679264Y-134502118D01*
X77664703Y-134504278D01*
X77650000Y-134505000D01*
X76000000Y-134505000D01*
X75985297Y-134504278D01*
X75970736Y-134502118D01*
X75956457Y-134498541D01*
X75942597Y-134493582D01*
X75929290Y-134487288D01*
X75916664Y-134479720D01*
X75904841Y-134470952D01*
X75893934Y-134461066D01*
X75884048Y-134450159D01*
X75875280Y-134438336D01*
X75867712Y-134425710D01*
X75861418Y-134412403D01*
X75856459Y-134398543D01*
X75852882Y-134384264D01*
X75850722Y-134369703D01*
X75850000Y-134355000D01*
X75850000Y-134055000D01*
X75850722Y-134040297D01*
X75852882Y-134025736D01*
X75856459Y-134011457D01*
X75861418Y-133997597D01*
X75867712Y-133984290D01*
X75875280Y-133971664D01*
X75884048Y-133959841D01*
X75893934Y-133948934D01*
X75904841Y-133939048D01*
X75916664Y-133930280D01*
X75929290Y-133922712D01*
X75942597Y-133916418D01*
X75956457Y-133911459D01*
X75970736Y-133907882D01*
X75985297Y-133905722D01*
X76000000Y-133905000D01*
X77650000Y-133905000D01*
X77664703Y-133905722D01*
G37*
G04 #@! TD.AperFunction*
G04 #@! TA.AperFunction,SMDPad,CuDef*
G36*
X73724505Y-126951204D02*
G01*
X73748773Y-126954804D01*
X73772572Y-126960765D01*
X73795671Y-126969030D01*
X73817850Y-126979520D01*
X73838893Y-126992132D01*
X73858599Y-127006747D01*
X73876777Y-127023223D01*
X73893253Y-127041401D01*
X73907868Y-127061107D01*
X73920480Y-127082150D01*
X73930970Y-127104329D01*
X73939235Y-127127428D01*
X73945196Y-127151227D01*
X73948796Y-127175495D01*
X73950000Y-127199999D01*
X73950000Y-128100001D01*
X73948796Y-128124505D01*
X73945196Y-128148773D01*
X73939235Y-128172572D01*
X73930970Y-128195671D01*
X73920480Y-128217850D01*
X73907868Y-128238893D01*
X73893253Y-128258599D01*
X73876777Y-128276777D01*
X73858599Y-128293253D01*
X73838893Y-128307868D01*
X73817850Y-128320480D01*
X73795671Y-128330970D01*
X73772572Y-128339235D01*
X73748773Y-128345196D01*
X73724505Y-128348796D01*
X73700001Y-128350000D01*
X73049999Y-128350000D01*
X73025495Y-128348796D01*
X73001227Y-128345196D01*
X72977428Y-128339235D01*
X72954329Y-128330970D01*
X72932150Y-128320480D01*
X72911107Y-128307868D01*
X72891401Y-128293253D01*
X72873223Y-128276777D01*
X72856747Y-128258599D01*
X72842132Y-128238893D01*
X72829520Y-128217850D01*
X72819030Y-128195671D01*
X72810765Y-128172572D01*
X72804804Y-128148773D01*
X72801204Y-128124505D01*
X72800000Y-128100001D01*
X72800000Y-127199999D01*
X72801204Y-127175495D01*
X72804804Y-127151227D01*
X72810765Y-127127428D01*
X72819030Y-127104329D01*
X72829520Y-127082150D01*
X72842132Y-127061107D01*
X72856747Y-127041401D01*
X72873223Y-127023223D01*
X72891401Y-127006747D01*
X72911107Y-126992132D01*
X72932150Y-126979520D01*
X72954329Y-126969030D01*
X72977428Y-126960765D01*
X73001227Y-126954804D01*
X73025495Y-126951204D01*
X73049999Y-126950000D01*
X73700001Y-126950000D01*
X73724505Y-126951204D01*
G37*
G04 #@! TD.AperFunction*
G04 #@! TA.AperFunction,SMDPad,CuDef*
G36*
X75774505Y-126951204D02*
G01*
X75798773Y-126954804D01*
X75822572Y-126960765D01*
X75845671Y-126969030D01*
X75867850Y-126979520D01*
X75888893Y-126992132D01*
X75908599Y-127006747D01*
X75926777Y-127023223D01*
X75943253Y-127041401D01*
X75957868Y-127061107D01*
X75970480Y-127082150D01*
X75980970Y-127104329D01*
X75989235Y-127127428D01*
X75995196Y-127151227D01*
X75998796Y-127175495D01*
X76000000Y-127199999D01*
X76000000Y-128100001D01*
X75998796Y-128124505D01*
X75995196Y-128148773D01*
X75989235Y-128172572D01*
X75980970Y-128195671D01*
X75970480Y-128217850D01*
X75957868Y-128238893D01*
X75943253Y-128258599D01*
X75926777Y-128276777D01*
X75908599Y-128293253D01*
X75888893Y-128307868D01*
X75867850Y-128320480D01*
X75845671Y-128330970D01*
X75822572Y-128339235D01*
X75798773Y-128345196D01*
X75774505Y-128348796D01*
X75750001Y-128350000D01*
X75099999Y-128350000D01*
X75075495Y-128348796D01*
X75051227Y-128345196D01*
X75027428Y-128339235D01*
X75004329Y-128330970D01*
X74982150Y-128320480D01*
X74961107Y-128307868D01*
X74941401Y-128293253D01*
X74923223Y-128276777D01*
X74906747Y-128258599D01*
X74892132Y-128238893D01*
X74879520Y-128217850D01*
X74869030Y-128195671D01*
X74860765Y-128172572D01*
X74854804Y-128148773D01*
X74851204Y-128124505D01*
X74850000Y-128100001D01*
X74850000Y-127199999D01*
X74851204Y-127175495D01*
X74854804Y-127151227D01*
X74860765Y-127127428D01*
X74869030Y-127104329D01*
X74879520Y-127082150D01*
X74892132Y-127061107D01*
X74906747Y-127041401D01*
X74923223Y-127023223D01*
X74941401Y-127006747D01*
X74961107Y-126992132D01*
X74982150Y-126979520D01*
X75004329Y-126969030D01*
X75027428Y-126960765D01*
X75051227Y-126954804D01*
X75075495Y-126951204D01*
X75099999Y-126950000D01*
X75750001Y-126950000D01*
X75774505Y-126951204D01*
G37*
G04 #@! TD.AperFunction*
G04 #@! TA.AperFunction,SMDPad,CuDef*
G36*
X68474505Y-131351204D02*
G01*
X68498773Y-131354804D01*
X68522572Y-131360765D01*
X68545671Y-131369030D01*
X68567850Y-131379520D01*
X68588893Y-131392132D01*
X68608599Y-131406747D01*
X68626777Y-131423223D01*
X68643253Y-131441401D01*
X68657868Y-131461107D01*
X68670480Y-131482150D01*
X68680970Y-131504329D01*
X68689235Y-131527428D01*
X68695196Y-131551227D01*
X68698796Y-131575495D01*
X68700000Y-131599999D01*
X68700000Y-132250001D01*
X68698796Y-132274505D01*
X68695196Y-132298773D01*
X68689235Y-132322572D01*
X68680970Y-132345671D01*
X68670480Y-132367850D01*
X68657868Y-132388893D01*
X68643253Y-132408599D01*
X68626777Y-132426777D01*
X68608599Y-132443253D01*
X68588893Y-132457868D01*
X68567850Y-132470480D01*
X68545671Y-132480970D01*
X68522572Y-132489235D01*
X68498773Y-132495196D01*
X68474505Y-132498796D01*
X68450001Y-132500000D01*
X67549999Y-132500000D01*
X67525495Y-132498796D01*
X67501227Y-132495196D01*
X67477428Y-132489235D01*
X67454329Y-132480970D01*
X67432150Y-132470480D01*
X67411107Y-132457868D01*
X67391401Y-132443253D01*
X67373223Y-132426777D01*
X67356747Y-132408599D01*
X67342132Y-132388893D01*
X67329520Y-132367850D01*
X67319030Y-132345671D01*
X67310765Y-132322572D01*
X67304804Y-132298773D01*
X67301204Y-132274505D01*
X67300000Y-132250001D01*
X67300000Y-131599999D01*
X67301204Y-131575495D01*
X67304804Y-131551227D01*
X67310765Y-131527428D01*
X67319030Y-131504329D01*
X67329520Y-131482150D01*
X67342132Y-131461107D01*
X67356747Y-131441401D01*
X67373223Y-131423223D01*
X67391401Y-131406747D01*
X67411107Y-131392132D01*
X67432150Y-131379520D01*
X67454329Y-131369030D01*
X67477428Y-131360765D01*
X67501227Y-131354804D01*
X67525495Y-131351204D01*
X67549999Y-131350000D01*
X68450001Y-131350000D01*
X68474505Y-131351204D01*
G37*
G04 #@! TD.AperFunction*
G04 #@! TA.AperFunction,SMDPad,CuDef*
G36*
X68474505Y-133401204D02*
G01*
X68498773Y-133404804D01*
X68522572Y-133410765D01*
X68545671Y-133419030D01*
X68567850Y-133429520D01*
X68588893Y-133442132D01*
X68608599Y-133456747D01*
X68626777Y-133473223D01*
X68643253Y-133491401D01*
X68657868Y-133511107D01*
X68670480Y-133532150D01*
X68680970Y-133554329D01*
X68689235Y-133577428D01*
X68695196Y-133601227D01*
X68698796Y-133625495D01*
X68700000Y-133649999D01*
X68700000Y-134300001D01*
X68698796Y-134324505D01*
X68695196Y-134348773D01*
X68689235Y-134372572D01*
X68680970Y-134395671D01*
X68670480Y-134417850D01*
X68657868Y-134438893D01*
X68643253Y-134458599D01*
X68626777Y-134476777D01*
X68608599Y-134493253D01*
X68588893Y-134507868D01*
X68567850Y-134520480D01*
X68545671Y-134530970D01*
X68522572Y-134539235D01*
X68498773Y-134545196D01*
X68474505Y-134548796D01*
X68450001Y-134550000D01*
X67549999Y-134550000D01*
X67525495Y-134548796D01*
X67501227Y-134545196D01*
X67477428Y-134539235D01*
X67454329Y-134530970D01*
X67432150Y-134520480D01*
X67411107Y-134507868D01*
X67391401Y-134493253D01*
X67373223Y-134476777D01*
X67356747Y-134458599D01*
X67342132Y-134438893D01*
X67329520Y-134417850D01*
X67319030Y-134395671D01*
X67310765Y-134372572D01*
X67304804Y-134348773D01*
X67301204Y-134324505D01*
X67300000Y-134300001D01*
X67300000Y-133649999D01*
X67301204Y-133625495D01*
X67304804Y-133601227D01*
X67310765Y-133577428D01*
X67319030Y-133554329D01*
X67329520Y-133532150D01*
X67342132Y-133511107D01*
X67356747Y-133491401D01*
X67373223Y-133473223D01*
X67391401Y-133456747D01*
X67411107Y-133442132D01*
X67432150Y-133429520D01*
X67454329Y-133419030D01*
X67477428Y-133410765D01*
X67501227Y-133404804D01*
X67525495Y-133401204D01*
X67549999Y-133400000D01*
X68450001Y-133400000D01*
X68474505Y-133401204D01*
G37*
G04 #@! TD.AperFunction*
G04 #@! TA.AperFunction,SMDPad,CuDef*
G36*
X57974505Y-141451204D02*
G01*
X57998773Y-141454804D01*
X58022572Y-141460765D01*
X58045671Y-141469030D01*
X58067850Y-141479520D01*
X58088893Y-141492132D01*
X58108599Y-141506747D01*
X58126777Y-141523223D01*
X58143253Y-141541401D01*
X58157868Y-141561107D01*
X58170480Y-141582150D01*
X58180970Y-141604329D01*
X58189235Y-141627428D01*
X58195196Y-141651227D01*
X58198796Y-141675495D01*
X58200000Y-141699999D01*
X58200000Y-142350001D01*
X58198796Y-142374505D01*
X58195196Y-142398773D01*
X58189235Y-142422572D01*
X58180970Y-142445671D01*
X58170480Y-142467850D01*
X58157868Y-142488893D01*
X58143253Y-142508599D01*
X58126777Y-142526777D01*
X58108599Y-142543253D01*
X58088893Y-142557868D01*
X58067850Y-142570480D01*
X58045671Y-142580970D01*
X58022572Y-142589235D01*
X57998773Y-142595196D01*
X57974505Y-142598796D01*
X57950001Y-142600000D01*
X57049999Y-142600000D01*
X57025495Y-142598796D01*
X57001227Y-142595196D01*
X56977428Y-142589235D01*
X56954329Y-142580970D01*
X56932150Y-142570480D01*
X56911107Y-142557868D01*
X56891401Y-142543253D01*
X56873223Y-142526777D01*
X56856747Y-142508599D01*
X56842132Y-142488893D01*
X56829520Y-142467850D01*
X56819030Y-142445671D01*
X56810765Y-142422572D01*
X56804804Y-142398773D01*
X56801204Y-142374505D01*
X56800000Y-142350001D01*
X56800000Y-141699999D01*
X56801204Y-141675495D01*
X56804804Y-141651227D01*
X56810765Y-141627428D01*
X56819030Y-141604329D01*
X56829520Y-141582150D01*
X56842132Y-141561107D01*
X56856747Y-141541401D01*
X56873223Y-141523223D01*
X56891401Y-141506747D01*
X56911107Y-141492132D01*
X56932150Y-141479520D01*
X56954329Y-141469030D01*
X56977428Y-141460765D01*
X57001227Y-141454804D01*
X57025495Y-141451204D01*
X57049999Y-141450000D01*
X57950001Y-141450000D01*
X57974505Y-141451204D01*
G37*
G04 #@! TD.AperFunction*
G04 #@! TA.AperFunction,SMDPad,CuDef*
G36*
X57974505Y-139401204D02*
G01*
X57998773Y-139404804D01*
X58022572Y-139410765D01*
X58045671Y-139419030D01*
X58067850Y-139429520D01*
X58088893Y-139442132D01*
X58108599Y-139456747D01*
X58126777Y-139473223D01*
X58143253Y-139491401D01*
X58157868Y-139511107D01*
X58170480Y-139532150D01*
X58180970Y-139554329D01*
X58189235Y-139577428D01*
X58195196Y-139601227D01*
X58198796Y-139625495D01*
X58200000Y-139649999D01*
X58200000Y-140300001D01*
X58198796Y-140324505D01*
X58195196Y-140348773D01*
X58189235Y-140372572D01*
X58180970Y-140395671D01*
X58170480Y-140417850D01*
X58157868Y-140438893D01*
X58143253Y-140458599D01*
X58126777Y-140476777D01*
X58108599Y-140493253D01*
X58088893Y-140507868D01*
X58067850Y-140520480D01*
X58045671Y-140530970D01*
X58022572Y-140539235D01*
X57998773Y-140545196D01*
X57974505Y-140548796D01*
X57950001Y-140550000D01*
X57049999Y-140550000D01*
X57025495Y-140548796D01*
X57001227Y-140545196D01*
X56977428Y-140539235D01*
X56954329Y-140530970D01*
X56932150Y-140520480D01*
X56911107Y-140507868D01*
X56891401Y-140493253D01*
X56873223Y-140476777D01*
X56856747Y-140458599D01*
X56842132Y-140438893D01*
X56829520Y-140417850D01*
X56819030Y-140395671D01*
X56810765Y-140372572D01*
X56804804Y-140348773D01*
X56801204Y-140324505D01*
X56800000Y-140300001D01*
X56800000Y-139649999D01*
X56801204Y-139625495D01*
X56804804Y-139601227D01*
X56810765Y-139577428D01*
X56819030Y-139554329D01*
X56829520Y-139532150D01*
X56842132Y-139511107D01*
X56856747Y-139491401D01*
X56873223Y-139473223D01*
X56891401Y-139456747D01*
X56911107Y-139442132D01*
X56932150Y-139429520D01*
X56954329Y-139419030D01*
X56977428Y-139410765D01*
X57001227Y-139404804D01*
X57025495Y-139401204D01*
X57049999Y-139400000D01*
X57950001Y-139400000D01*
X57974505Y-139401204D01*
G37*
G04 #@! TD.AperFunction*
G04 #@! TA.AperFunction,SMDPad,CuDef*
G36*
X49024505Y-141451204D02*
G01*
X49048773Y-141454804D01*
X49072572Y-141460765D01*
X49095671Y-141469030D01*
X49117850Y-141479520D01*
X49138893Y-141492132D01*
X49158599Y-141506747D01*
X49176777Y-141523223D01*
X49193253Y-141541401D01*
X49207868Y-141561107D01*
X49220480Y-141582150D01*
X49230970Y-141604329D01*
X49239235Y-141627428D01*
X49245196Y-141651227D01*
X49248796Y-141675495D01*
X49250000Y-141699999D01*
X49250000Y-142350001D01*
X49248796Y-142374505D01*
X49245196Y-142398773D01*
X49239235Y-142422572D01*
X49230970Y-142445671D01*
X49220480Y-142467850D01*
X49207868Y-142488893D01*
X49193253Y-142508599D01*
X49176777Y-142526777D01*
X49158599Y-142543253D01*
X49138893Y-142557868D01*
X49117850Y-142570480D01*
X49095671Y-142580970D01*
X49072572Y-142589235D01*
X49048773Y-142595196D01*
X49024505Y-142598796D01*
X49000001Y-142600000D01*
X48099999Y-142600000D01*
X48075495Y-142598796D01*
X48051227Y-142595196D01*
X48027428Y-142589235D01*
X48004329Y-142580970D01*
X47982150Y-142570480D01*
X47961107Y-142557868D01*
X47941401Y-142543253D01*
X47923223Y-142526777D01*
X47906747Y-142508599D01*
X47892132Y-142488893D01*
X47879520Y-142467850D01*
X47869030Y-142445671D01*
X47860765Y-142422572D01*
X47854804Y-142398773D01*
X47851204Y-142374505D01*
X47850000Y-142350001D01*
X47850000Y-141699999D01*
X47851204Y-141675495D01*
X47854804Y-141651227D01*
X47860765Y-141627428D01*
X47869030Y-141604329D01*
X47879520Y-141582150D01*
X47892132Y-141561107D01*
X47906747Y-141541401D01*
X47923223Y-141523223D01*
X47941401Y-141506747D01*
X47961107Y-141492132D01*
X47982150Y-141479520D01*
X48004329Y-141469030D01*
X48027428Y-141460765D01*
X48051227Y-141454804D01*
X48075495Y-141451204D01*
X48099999Y-141450000D01*
X49000001Y-141450000D01*
X49024505Y-141451204D01*
G37*
G04 #@! TD.AperFunction*
G04 #@! TA.AperFunction,SMDPad,CuDef*
G36*
X49024505Y-139401204D02*
G01*
X49048773Y-139404804D01*
X49072572Y-139410765D01*
X49095671Y-139419030D01*
X49117850Y-139429520D01*
X49138893Y-139442132D01*
X49158599Y-139456747D01*
X49176777Y-139473223D01*
X49193253Y-139491401D01*
X49207868Y-139511107D01*
X49220480Y-139532150D01*
X49230970Y-139554329D01*
X49239235Y-139577428D01*
X49245196Y-139601227D01*
X49248796Y-139625495D01*
X49250000Y-139649999D01*
X49250000Y-140300001D01*
X49248796Y-140324505D01*
X49245196Y-140348773D01*
X49239235Y-140372572D01*
X49230970Y-140395671D01*
X49220480Y-140417850D01*
X49207868Y-140438893D01*
X49193253Y-140458599D01*
X49176777Y-140476777D01*
X49158599Y-140493253D01*
X49138893Y-140507868D01*
X49117850Y-140520480D01*
X49095671Y-140530970D01*
X49072572Y-140539235D01*
X49048773Y-140545196D01*
X49024505Y-140548796D01*
X49000001Y-140550000D01*
X48099999Y-140550000D01*
X48075495Y-140548796D01*
X48051227Y-140545196D01*
X48027428Y-140539235D01*
X48004329Y-140530970D01*
X47982150Y-140520480D01*
X47961107Y-140507868D01*
X47941401Y-140493253D01*
X47923223Y-140476777D01*
X47906747Y-140458599D01*
X47892132Y-140438893D01*
X47879520Y-140417850D01*
X47869030Y-140395671D01*
X47860765Y-140372572D01*
X47854804Y-140348773D01*
X47851204Y-140324505D01*
X47850000Y-140300001D01*
X47850000Y-139649999D01*
X47851204Y-139625495D01*
X47854804Y-139601227D01*
X47860765Y-139577428D01*
X47869030Y-139554329D01*
X47879520Y-139532150D01*
X47892132Y-139511107D01*
X47906747Y-139491401D01*
X47923223Y-139473223D01*
X47941401Y-139456747D01*
X47961107Y-139442132D01*
X47982150Y-139429520D01*
X48004329Y-139419030D01*
X48027428Y-139410765D01*
X48051227Y-139404804D01*
X48075495Y-139401204D01*
X48099999Y-139400000D01*
X49000001Y-139400000D01*
X49024505Y-139401204D01*
G37*
G04 #@! TD.AperFunction*
G04 #@! TA.AperFunction,SMDPad,CuDef*
G36*
X40024505Y-141451204D02*
G01*
X40048773Y-141454804D01*
X40072572Y-141460765D01*
X40095671Y-141469030D01*
X40117850Y-141479520D01*
X40138893Y-141492132D01*
X40158599Y-141506747D01*
X40176777Y-141523223D01*
X40193253Y-141541401D01*
X40207868Y-141561107D01*
X40220480Y-141582150D01*
X40230970Y-141604329D01*
X40239235Y-141627428D01*
X40245196Y-141651227D01*
X40248796Y-141675495D01*
X40250000Y-141699999D01*
X40250000Y-142350001D01*
X40248796Y-142374505D01*
X40245196Y-142398773D01*
X40239235Y-142422572D01*
X40230970Y-142445671D01*
X40220480Y-142467850D01*
X40207868Y-142488893D01*
X40193253Y-142508599D01*
X40176777Y-142526777D01*
X40158599Y-142543253D01*
X40138893Y-142557868D01*
X40117850Y-142570480D01*
X40095671Y-142580970D01*
X40072572Y-142589235D01*
X40048773Y-142595196D01*
X40024505Y-142598796D01*
X40000001Y-142600000D01*
X39099999Y-142600000D01*
X39075495Y-142598796D01*
X39051227Y-142595196D01*
X39027428Y-142589235D01*
X39004329Y-142580970D01*
X38982150Y-142570480D01*
X38961107Y-142557868D01*
X38941401Y-142543253D01*
X38923223Y-142526777D01*
X38906747Y-142508599D01*
X38892132Y-142488893D01*
X38879520Y-142467850D01*
X38869030Y-142445671D01*
X38860765Y-142422572D01*
X38854804Y-142398773D01*
X38851204Y-142374505D01*
X38850000Y-142350001D01*
X38850000Y-141699999D01*
X38851204Y-141675495D01*
X38854804Y-141651227D01*
X38860765Y-141627428D01*
X38869030Y-141604329D01*
X38879520Y-141582150D01*
X38892132Y-141561107D01*
X38906747Y-141541401D01*
X38923223Y-141523223D01*
X38941401Y-141506747D01*
X38961107Y-141492132D01*
X38982150Y-141479520D01*
X39004329Y-141469030D01*
X39027428Y-141460765D01*
X39051227Y-141454804D01*
X39075495Y-141451204D01*
X39099999Y-141450000D01*
X40000001Y-141450000D01*
X40024505Y-141451204D01*
G37*
G04 #@! TD.AperFunction*
G04 #@! TA.AperFunction,SMDPad,CuDef*
G36*
X40024505Y-139401204D02*
G01*
X40048773Y-139404804D01*
X40072572Y-139410765D01*
X40095671Y-139419030D01*
X40117850Y-139429520D01*
X40138893Y-139442132D01*
X40158599Y-139456747D01*
X40176777Y-139473223D01*
X40193253Y-139491401D01*
X40207868Y-139511107D01*
X40220480Y-139532150D01*
X40230970Y-139554329D01*
X40239235Y-139577428D01*
X40245196Y-139601227D01*
X40248796Y-139625495D01*
X40250000Y-139649999D01*
X40250000Y-140300001D01*
X40248796Y-140324505D01*
X40245196Y-140348773D01*
X40239235Y-140372572D01*
X40230970Y-140395671D01*
X40220480Y-140417850D01*
X40207868Y-140438893D01*
X40193253Y-140458599D01*
X40176777Y-140476777D01*
X40158599Y-140493253D01*
X40138893Y-140507868D01*
X40117850Y-140520480D01*
X40095671Y-140530970D01*
X40072572Y-140539235D01*
X40048773Y-140545196D01*
X40024505Y-140548796D01*
X40000001Y-140550000D01*
X39099999Y-140550000D01*
X39075495Y-140548796D01*
X39051227Y-140545196D01*
X39027428Y-140539235D01*
X39004329Y-140530970D01*
X38982150Y-140520480D01*
X38961107Y-140507868D01*
X38941401Y-140493253D01*
X38923223Y-140476777D01*
X38906747Y-140458599D01*
X38892132Y-140438893D01*
X38879520Y-140417850D01*
X38869030Y-140395671D01*
X38860765Y-140372572D01*
X38854804Y-140348773D01*
X38851204Y-140324505D01*
X38850000Y-140300001D01*
X38850000Y-139649999D01*
X38851204Y-139625495D01*
X38854804Y-139601227D01*
X38860765Y-139577428D01*
X38869030Y-139554329D01*
X38879520Y-139532150D01*
X38892132Y-139511107D01*
X38906747Y-139491401D01*
X38923223Y-139473223D01*
X38941401Y-139456747D01*
X38961107Y-139442132D01*
X38982150Y-139429520D01*
X39004329Y-139419030D01*
X39027428Y-139410765D01*
X39051227Y-139404804D01*
X39075495Y-139401204D01*
X39099999Y-139400000D01*
X40000001Y-139400000D01*
X40024505Y-139401204D01*
G37*
G04 #@! TD.AperFunction*
G04 #@! TA.AperFunction,SMDPad,CuDef*
G36*
X31024505Y-141451204D02*
G01*
X31048773Y-141454804D01*
X31072572Y-141460765D01*
X31095671Y-141469030D01*
X31117850Y-141479520D01*
X31138893Y-141492132D01*
X31158599Y-141506747D01*
X31176777Y-141523223D01*
X31193253Y-141541401D01*
X31207868Y-141561107D01*
X31220480Y-141582150D01*
X31230970Y-141604329D01*
X31239235Y-141627428D01*
X31245196Y-141651227D01*
X31248796Y-141675495D01*
X31250000Y-141699999D01*
X31250000Y-142350001D01*
X31248796Y-142374505D01*
X31245196Y-142398773D01*
X31239235Y-142422572D01*
X31230970Y-142445671D01*
X31220480Y-142467850D01*
X31207868Y-142488893D01*
X31193253Y-142508599D01*
X31176777Y-142526777D01*
X31158599Y-142543253D01*
X31138893Y-142557868D01*
X31117850Y-142570480D01*
X31095671Y-142580970D01*
X31072572Y-142589235D01*
X31048773Y-142595196D01*
X31024505Y-142598796D01*
X31000001Y-142600000D01*
X30099999Y-142600000D01*
X30075495Y-142598796D01*
X30051227Y-142595196D01*
X30027428Y-142589235D01*
X30004329Y-142580970D01*
X29982150Y-142570480D01*
X29961107Y-142557868D01*
X29941401Y-142543253D01*
X29923223Y-142526777D01*
X29906747Y-142508599D01*
X29892132Y-142488893D01*
X29879520Y-142467850D01*
X29869030Y-142445671D01*
X29860765Y-142422572D01*
X29854804Y-142398773D01*
X29851204Y-142374505D01*
X29850000Y-142350001D01*
X29850000Y-141699999D01*
X29851204Y-141675495D01*
X29854804Y-141651227D01*
X29860765Y-141627428D01*
X29869030Y-141604329D01*
X29879520Y-141582150D01*
X29892132Y-141561107D01*
X29906747Y-141541401D01*
X29923223Y-141523223D01*
X29941401Y-141506747D01*
X29961107Y-141492132D01*
X29982150Y-141479520D01*
X30004329Y-141469030D01*
X30027428Y-141460765D01*
X30051227Y-141454804D01*
X30075495Y-141451204D01*
X30099999Y-141450000D01*
X31000001Y-141450000D01*
X31024505Y-141451204D01*
G37*
G04 #@! TD.AperFunction*
G04 #@! TA.AperFunction,SMDPad,CuDef*
G36*
X31024505Y-139401204D02*
G01*
X31048773Y-139404804D01*
X31072572Y-139410765D01*
X31095671Y-139419030D01*
X31117850Y-139429520D01*
X31138893Y-139442132D01*
X31158599Y-139456747D01*
X31176777Y-139473223D01*
X31193253Y-139491401D01*
X31207868Y-139511107D01*
X31220480Y-139532150D01*
X31230970Y-139554329D01*
X31239235Y-139577428D01*
X31245196Y-139601227D01*
X31248796Y-139625495D01*
X31250000Y-139649999D01*
X31250000Y-140300001D01*
X31248796Y-140324505D01*
X31245196Y-140348773D01*
X31239235Y-140372572D01*
X31230970Y-140395671D01*
X31220480Y-140417850D01*
X31207868Y-140438893D01*
X31193253Y-140458599D01*
X31176777Y-140476777D01*
X31158599Y-140493253D01*
X31138893Y-140507868D01*
X31117850Y-140520480D01*
X31095671Y-140530970D01*
X31072572Y-140539235D01*
X31048773Y-140545196D01*
X31024505Y-140548796D01*
X31000001Y-140550000D01*
X30099999Y-140550000D01*
X30075495Y-140548796D01*
X30051227Y-140545196D01*
X30027428Y-140539235D01*
X30004329Y-140530970D01*
X29982150Y-140520480D01*
X29961107Y-140507868D01*
X29941401Y-140493253D01*
X29923223Y-140476777D01*
X29906747Y-140458599D01*
X29892132Y-140438893D01*
X29879520Y-140417850D01*
X29869030Y-140395671D01*
X29860765Y-140372572D01*
X29854804Y-140348773D01*
X29851204Y-140324505D01*
X29850000Y-140300001D01*
X29850000Y-139649999D01*
X29851204Y-139625495D01*
X29854804Y-139601227D01*
X29860765Y-139577428D01*
X29869030Y-139554329D01*
X29879520Y-139532150D01*
X29892132Y-139511107D01*
X29906747Y-139491401D01*
X29923223Y-139473223D01*
X29941401Y-139456747D01*
X29961107Y-139442132D01*
X29982150Y-139429520D01*
X30004329Y-139419030D01*
X30027428Y-139410765D01*
X30051227Y-139404804D01*
X30075495Y-139401204D01*
X30099999Y-139400000D01*
X31000001Y-139400000D01*
X31024505Y-139401204D01*
G37*
G04 #@! TD.AperFunction*
G04 #@! TA.AperFunction,SMDPad,CuDef*
G36*
X63874505Y-145401204D02*
G01*
X63898773Y-145404804D01*
X63922572Y-145410765D01*
X63945671Y-145419030D01*
X63967850Y-145429520D01*
X63988893Y-145442132D01*
X64008599Y-145456747D01*
X64026777Y-145473223D01*
X64043253Y-145491401D01*
X64057868Y-145511107D01*
X64070480Y-145532150D01*
X64080970Y-145554329D01*
X64089235Y-145577428D01*
X64095196Y-145601227D01*
X64098796Y-145625495D01*
X64100000Y-145649999D01*
X64100000Y-146550001D01*
X64098796Y-146574505D01*
X64095196Y-146598773D01*
X64089235Y-146622572D01*
X64080970Y-146645671D01*
X64070480Y-146667850D01*
X64057868Y-146688893D01*
X64043253Y-146708599D01*
X64026777Y-146726777D01*
X64008599Y-146743253D01*
X63988893Y-146757868D01*
X63967850Y-146770480D01*
X63945671Y-146780970D01*
X63922572Y-146789235D01*
X63898773Y-146795196D01*
X63874505Y-146798796D01*
X63850001Y-146800000D01*
X63199999Y-146800000D01*
X63175495Y-146798796D01*
X63151227Y-146795196D01*
X63127428Y-146789235D01*
X63104329Y-146780970D01*
X63082150Y-146770480D01*
X63061107Y-146757868D01*
X63041401Y-146743253D01*
X63023223Y-146726777D01*
X63006747Y-146708599D01*
X62992132Y-146688893D01*
X62979520Y-146667850D01*
X62969030Y-146645671D01*
X62960765Y-146622572D01*
X62954804Y-146598773D01*
X62951204Y-146574505D01*
X62950000Y-146550001D01*
X62950000Y-145649999D01*
X62951204Y-145625495D01*
X62954804Y-145601227D01*
X62960765Y-145577428D01*
X62969030Y-145554329D01*
X62979520Y-145532150D01*
X62992132Y-145511107D01*
X63006747Y-145491401D01*
X63023223Y-145473223D01*
X63041401Y-145456747D01*
X63061107Y-145442132D01*
X63082150Y-145429520D01*
X63104329Y-145419030D01*
X63127428Y-145410765D01*
X63151227Y-145404804D01*
X63175495Y-145401204D01*
X63199999Y-145400000D01*
X63850001Y-145400000D01*
X63874505Y-145401204D01*
G37*
G04 #@! TD.AperFunction*
G04 #@! TA.AperFunction,SMDPad,CuDef*
G36*
X61824505Y-145401204D02*
G01*
X61848773Y-145404804D01*
X61872572Y-145410765D01*
X61895671Y-145419030D01*
X61917850Y-145429520D01*
X61938893Y-145442132D01*
X61958599Y-145456747D01*
X61976777Y-145473223D01*
X61993253Y-145491401D01*
X62007868Y-145511107D01*
X62020480Y-145532150D01*
X62030970Y-145554329D01*
X62039235Y-145577428D01*
X62045196Y-145601227D01*
X62048796Y-145625495D01*
X62050000Y-145649999D01*
X62050000Y-146550001D01*
X62048796Y-146574505D01*
X62045196Y-146598773D01*
X62039235Y-146622572D01*
X62030970Y-146645671D01*
X62020480Y-146667850D01*
X62007868Y-146688893D01*
X61993253Y-146708599D01*
X61976777Y-146726777D01*
X61958599Y-146743253D01*
X61938893Y-146757868D01*
X61917850Y-146770480D01*
X61895671Y-146780970D01*
X61872572Y-146789235D01*
X61848773Y-146795196D01*
X61824505Y-146798796D01*
X61800001Y-146800000D01*
X61149999Y-146800000D01*
X61125495Y-146798796D01*
X61101227Y-146795196D01*
X61077428Y-146789235D01*
X61054329Y-146780970D01*
X61032150Y-146770480D01*
X61011107Y-146757868D01*
X60991401Y-146743253D01*
X60973223Y-146726777D01*
X60956747Y-146708599D01*
X60942132Y-146688893D01*
X60929520Y-146667850D01*
X60919030Y-146645671D01*
X60910765Y-146622572D01*
X60904804Y-146598773D01*
X60901204Y-146574505D01*
X60900000Y-146550001D01*
X60900000Y-145649999D01*
X60901204Y-145625495D01*
X60904804Y-145601227D01*
X60910765Y-145577428D01*
X60919030Y-145554329D01*
X60929520Y-145532150D01*
X60942132Y-145511107D01*
X60956747Y-145491401D01*
X60973223Y-145473223D01*
X60991401Y-145456747D01*
X61011107Y-145442132D01*
X61032150Y-145429520D01*
X61054329Y-145419030D01*
X61077428Y-145410765D01*
X61101227Y-145404804D01*
X61125495Y-145401204D01*
X61149999Y-145400000D01*
X61800001Y-145400000D01*
X61824505Y-145401204D01*
G37*
G04 #@! TD.AperFunction*
G04 #@! TA.AperFunction,SMDPad,CuDef*
G36*
X54874505Y-145351204D02*
G01*
X54898773Y-145354804D01*
X54922572Y-145360765D01*
X54945671Y-145369030D01*
X54967850Y-145379520D01*
X54988893Y-145392132D01*
X55008599Y-145406747D01*
X55026777Y-145423223D01*
X55043253Y-145441401D01*
X55057868Y-145461107D01*
X55070480Y-145482150D01*
X55080970Y-145504329D01*
X55089235Y-145527428D01*
X55095196Y-145551227D01*
X55098796Y-145575495D01*
X55100000Y-145599999D01*
X55100000Y-146500001D01*
X55098796Y-146524505D01*
X55095196Y-146548773D01*
X55089235Y-146572572D01*
X55080970Y-146595671D01*
X55070480Y-146617850D01*
X55057868Y-146638893D01*
X55043253Y-146658599D01*
X55026777Y-146676777D01*
X55008599Y-146693253D01*
X54988893Y-146707868D01*
X54967850Y-146720480D01*
X54945671Y-146730970D01*
X54922572Y-146739235D01*
X54898773Y-146745196D01*
X54874505Y-146748796D01*
X54850001Y-146750000D01*
X54199999Y-146750000D01*
X54175495Y-146748796D01*
X54151227Y-146745196D01*
X54127428Y-146739235D01*
X54104329Y-146730970D01*
X54082150Y-146720480D01*
X54061107Y-146707868D01*
X54041401Y-146693253D01*
X54023223Y-146676777D01*
X54006747Y-146658599D01*
X53992132Y-146638893D01*
X53979520Y-146617850D01*
X53969030Y-146595671D01*
X53960765Y-146572572D01*
X53954804Y-146548773D01*
X53951204Y-146524505D01*
X53950000Y-146500001D01*
X53950000Y-145599999D01*
X53951204Y-145575495D01*
X53954804Y-145551227D01*
X53960765Y-145527428D01*
X53969030Y-145504329D01*
X53979520Y-145482150D01*
X53992132Y-145461107D01*
X54006747Y-145441401D01*
X54023223Y-145423223D01*
X54041401Y-145406747D01*
X54061107Y-145392132D01*
X54082150Y-145379520D01*
X54104329Y-145369030D01*
X54127428Y-145360765D01*
X54151227Y-145354804D01*
X54175495Y-145351204D01*
X54199999Y-145350000D01*
X54850001Y-145350000D01*
X54874505Y-145351204D01*
G37*
G04 #@! TD.AperFunction*
G04 #@! TA.AperFunction,SMDPad,CuDef*
G36*
X52824505Y-145351204D02*
G01*
X52848773Y-145354804D01*
X52872572Y-145360765D01*
X52895671Y-145369030D01*
X52917850Y-145379520D01*
X52938893Y-145392132D01*
X52958599Y-145406747D01*
X52976777Y-145423223D01*
X52993253Y-145441401D01*
X53007868Y-145461107D01*
X53020480Y-145482150D01*
X53030970Y-145504329D01*
X53039235Y-145527428D01*
X53045196Y-145551227D01*
X53048796Y-145575495D01*
X53050000Y-145599999D01*
X53050000Y-146500001D01*
X53048796Y-146524505D01*
X53045196Y-146548773D01*
X53039235Y-146572572D01*
X53030970Y-146595671D01*
X53020480Y-146617850D01*
X53007868Y-146638893D01*
X52993253Y-146658599D01*
X52976777Y-146676777D01*
X52958599Y-146693253D01*
X52938893Y-146707868D01*
X52917850Y-146720480D01*
X52895671Y-146730970D01*
X52872572Y-146739235D01*
X52848773Y-146745196D01*
X52824505Y-146748796D01*
X52800001Y-146750000D01*
X52149999Y-146750000D01*
X52125495Y-146748796D01*
X52101227Y-146745196D01*
X52077428Y-146739235D01*
X52054329Y-146730970D01*
X52032150Y-146720480D01*
X52011107Y-146707868D01*
X51991401Y-146693253D01*
X51973223Y-146676777D01*
X51956747Y-146658599D01*
X51942132Y-146638893D01*
X51929520Y-146617850D01*
X51919030Y-146595671D01*
X51910765Y-146572572D01*
X51904804Y-146548773D01*
X51901204Y-146524505D01*
X51900000Y-146500001D01*
X51900000Y-145599999D01*
X51901204Y-145575495D01*
X51904804Y-145551227D01*
X51910765Y-145527428D01*
X51919030Y-145504329D01*
X51929520Y-145482150D01*
X51942132Y-145461107D01*
X51956747Y-145441401D01*
X51973223Y-145423223D01*
X51991401Y-145406747D01*
X52011107Y-145392132D01*
X52032150Y-145379520D01*
X52054329Y-145369030D01*
X52077428Y-145360765D01*
X52101227Y-145354804D01*
X52125495Y-145351204D01*
X52149999Y-145350000D01*
X52800001Y-145350000D01*
X52824505Y-145351204D01*
G37*
G04 #@! TD.AperFunction*
G04 #@! TA.AperFunction,SMDPad,CuDef*
G36*
X45374505Y-145351204D02*
G01*
X45398773Y-145354804D01*
X45422572Y-145360765D01*
X45445671Y-145369030D01*
X45467850Y-145379520D01*
X45488893Y-145392132D01*
X45508599Y-145406747D01*
X45526777Y-145423223D01*
X45543253Y-145441401D01*
X45557868Y-145461107D01*
X45570480Y-145482150D01*
X45580970Y-145504329D01*
X45589235Y-145527428D01*
X45595196Y-145551227D01*
X45598796Y-145575495D01*
X45600000Y-145599999D01*
X45600000Y-146500001D01*
X45598796Y-146524505D01*
X45595196Y-146548773D01*
X45589235Y-146572572D01*
X45580970Y-146595671D01*
X45570480Y-146617850D01*
X45557868Y-146638893D01*
X45543253Y-146658599D01*
X45526777Y-146676777D01*
X45508599Y-146693253D01*
X45488893Y-146707868D01*
X45467850Y-146720480D01*
X45445671Y-146730970D01*
X45422572Y-146739235D01*
X45398773Y-146745196D01*
X45374505Y-146748796D01*
X45350001Y-146750000D01*
X44699999Y-146750000D01*
X44675495Y-146748796D01*
X44651227Y-146745196D01*
X44627428Y-146739235D01*
X44604329Y-146730970D01*
X44582150Y-146720480D01*
X44561107Y-146707868D01*
X44541401Y-146693253D01*
X44523223Y-146676777D01*
X44506747Y-146658599D01*
X44492132Y-146638893D01*
X44479520Y-146617850D01*
X44469030Y-146595671D01*
X44460765Y-146572572D01*
X44454804Y-146548773D01*
X44451204Y-146524505D01*
X44450000Y-146500001D01*
X44450000Y-145599999D01*
X44451204Y-145575495D01*
X44454804Y-145551227D01*
X44460765Y-145527428D01*
X44469030Y-145504329D01*
X44479520Y-145482150D01*
X44492132Y-145461107D01*
X44506747Y-145441401D01*
X44523223Y-145423223D01*
X44541401Y-145406747D01*
X44561107Y-145392132D01*
X44582150Y-145379520D01*
X44604329Y-145369030D01*
X44627428Y-145360765D01*
X44651227Y-145354804D01*
X44675495Y-145351204D01*
X44699999Y-145350000D01*
X45350001Y-145350000D01*
X45374505Y-145351204D01*
G37*
G04 #@! TD.AperFunction*
G04 #@! TA.AperFunction,SMDPad,CuDef*
G36*
X43324505Y-145351204D02*
G01*
X43348773Y-145354804D01*
X43372572Y-145360765D01*
X43395671Y-145369030D01*
X43417850Y-145379520D01*
X43438893Y-145392132D01*
X43458599Y-145406747D01*
X43476777Y-145423223D01*
X43493253Y-145441401D01*
X43507868Y-145461107D01*
X43520480Y-145482150D01*
X43530970Y-145504329D01*
X43539235Y-145527428D01*
X43545196Y-145551227D01*
X43548796Y-145575495D01*
X43550000Y-145599999D01*
X43550000Y-146500001D01*
X43548796Y-146524505D01*
X43545196Y-146548773D01*
X43539235Y-146572572D01*
X43530970Y-146595671D01*
X43520480Y-146617850D01*
X43507868Y-146638893D01*
X43493253Y-146658599D01*
X43476777Y-146676777D01*
X43458599Y-146693253D01*
X43438893Y-146707868D01*
X43417850Y-146720480D01*
X43395671Y-146730970D01*
X43372572Y-146739235D01*
X43348773Y-146745196D01*
X43324505Y-146748796D01*
X43300001Y-146750000D01*
X42649999Y-146750000D01*
X42625495Y-146748796D01*
X42601227Y-146745196D01*
X42577428Y-146739235D01*
X42554329Y-146730970D01*
X42532150Y-146720480D01*
X42511107Y-146707868D01*
X42491401Y-146693253D01*
X42473223Y-146676777D01*
X42456747Y-146658599D01*
X42442132Y-146638893D01*
X42429520Y-146617850D01*
X42419030Y-146595671D01*
X42410765Y-146572572D01*
X42404804Y-146548773D01*
X42401204Y-146524505D01*
X42400000Y-146500001D01*
X42400000Y-145599999D01*
X42401204Y-145575495D01*
X42404804Y-145551227D01*
X42410765Y-145527428D01*
X42419030Y-145504329D01*
X42429520Y-145482150D01*
X42442132Y-145461107D01*
X42456747Y-145441401D01*
X42473223Y-145423223D01*
X42491401Y-145406747D01*
X42511107Y-145392132D01*
X42532150Y-145379520D01*
X42554329Y-145369030D01*
X42577428Y-145360765D01*
X42601227Y-145354804D01*
X42625495Y-145351204D01*
X42649999Y-145350000D01*
X43300001Y-145350000D01*
X43324505Y-145351204D01*
G37*
G04 #@! TD.AperFunction*
G04 #@! TA.AperFunction,SMDPad,CuDef*
G36*
X36374505Y-145401204D02*
G01*
X36398773Y-145404804D01*
X36422572Y-145410765D01*
X36445671Y-145419030D01*
X36467850Y-145429520D01*
X36488893Y-145442132D01*
X36508599Y-145456747D01*
X36526777Y-145473223D01*
X36543253Y-145491401D01*
X36557868Y-145511107D01*
X36570480Y-145532150D01*
X36580970Y-145554329D01*
X36589235Y-145577428D01*
X36595196Y-145601227D01*
X36598796Y-145625495D01*
X36600000Y-145649999D01*
X36600000Y-146550001D01*
X36598796Y-146574505D01*
X36595196Y-146598773D01*
X36589235Y-146622572D01*
X36580970Y-146645671D01*
X36570480Y-146667850D01*
X36557868Y-146688893D01*
X36543253Y-146708599D01*
X36526777Y-146726777D01*
X36508599Y-146743253D01*
X36488893Y-146757868D01*
X36467850Y-146770480D01*
X36445671Y-146780970D01*
X36422572Y-146789235D01*
X36398773Y-146795196D01*
X36374505Y-146798796D01*
X36350001Y-146800000D01*
X35699999Y-146800000D01*
X35675495Y-146798796D01*
X35651227Y-146795196D01*
X35627428Y-146789235D01*
X35604329Y-146780970D01*
X35582150Y-146770480D01*
X35561107Y-146757868D01*
X35541401Y-146743253D01*
X35523223Y-146726777D01*
X35506747Y-146708599D01*
X35492132Y-146688893D01*
X35479520Y-146667850D01*
X35469030Y-146645671D01*
X35460765Y-146622572D01*
X35454804Y-146598773D01*
X35451204Y-146574505D01*
X35450000Y-146550001D01*
X35450000Y-145649999D01*
X35451204Y-145625495D01*
X35454804Y-145601227D01*
X35460765Y-145577428D01*
X35469030Y-145554329D01*
X35479520Y-145532150D01*
X35492132Y-145511107D01*
X35506747Y-145491401D01*
X35523223Y-145473223D01*
X35541401Y-145456747D01*
X35561107Y-145442132D01*
X35582150Y-145429520D01*
X35604329Y-145419030D01*
X35627428Y-145410765D01*
X35651227Y-145404804D01*
X35675495Y-145401204D01*
X35699999Y-145400000D01*
X36350001Y-145400000D01*
X36374505Y-145401204D01*
G37*
G04 #@! TD.AperFunction*
G04 #@! TA.AperFunction,SMDPad,CuDef*
G36*
X34324505Y-145401204D02*
G01*
X34348773Y-145404804D01*
X34372572Y-145410765D01*
X34395671Y-145419030D01*
X34417850Y-145429520D01*
X34438893Y-145442132D01*
X34458599Y-145456747D01*
X34476777Y-145473223D01*
X34493253Y-145491401D01*
X34507868Y-145511107D01*
X34520480Y-145532150D01*
X34530970Y-145554329D01*
X34539235Y-145577428D01*
X34545196Y-145601227D01*
X34548796Y-145625495D01*
X34550000Y-145649999D01*
X34550000Y-146550001D01*
X34548796Y-146574505D01*
X34545196Y-146598773D01*
X34539235Y-146622572D01*
X34530970Y-146645671D01*
X34520480Y-146667850D01*
X34507868Y-146688893D01*
X34493253Y-146708599D01*
X34476777Y-146726777D01*
X34458599Y-146743253D01*
X34438893Y-146757868D01*
X34417850Y-146770480D01*
X34395671Y-146780970D01*
X34372572Y-146789235D01*
X34348773Y-146795196D01*
X34324505Y-146798796D01*
X34300001Y-146800000D01*
X33649999Y-146800000D01*
X33625495Y-146798796D01*
X33601227Y-146795196D01*
X33577428Y-146789235D01*
X33554329Y-146780970D01*
X33532150Y-146770480D01*
X33511107Y-146757868D01*
X33491401Y-146743253D01*
X33473223Y-146726777D01*
X33456747Y-146708599D01*
X33442132Y-146688893D01*
X33429520Y-146667850D01*
X33419030Y-146645671D01*
X33410765Y-146622572D01*
X33404804Y-146598773D01*
X33401204Y-146574505D01*
X33400000Y-146550001D01*
X33400000Y-145649999D01*
X33401204Y-145625495D01*
X33404804Y-145601227D01*
X33410765Y-145577428D01*
X33419030Y-145554329D01*
X33429520Y-145532150D01*
X33442132Y-145511107D01*
X33456747Y-145491401D01*
X33473223Y-145473223D01*
X33491401Y-145456747D01*
X33511107Y-145442132D01*
X33532150Y-145429520D01*
X33554329Y-145419030D01*
X33577428Y-145410765D01*
X33601227Y-145404804D01*
X33625495Y-145401204D01*
X33649999Y-145400000D01*
X34300001Y-145400000D01*
X34324505Y-145401204D01*
G37*
G04 #@! TD.AperFunction*
D10*
X59850000Y-130150000D03*
D11*
X62130000Y-136450000D03*
X57570000Y-136450000D03*
D10*
X50850000Y-130150000D03*
D11*
X53130000Y-136450000D03*
X48570000Y-136450000D03*
D20*
X89000000Y-135250000D03*
X80700000Y-135250000D03*
G04 #@! TA.AperFunction,SMDPad,CuDef*
D16*
G36*
X66424505Y-126951204D02*
G01*
X66448773Y-126954804D01*
X66472572Y-126960765D01*
X66495671Y-126969030D01*
X66517850Y-126979520D01*
X66538893Y-126992132D01*
X66558599Y-127006747D01*
X66576777Y-127023223D01*
X66593253Y-127041401D01*
X66607868Y-127061107D01*
X66620480Y-127082150D01*
X66630970Y-127104329D01*
X66639235Y-127127428D01*
X66645196Y-127151227D01*
X66648796Y-127175495D01*
X66650000Y-127199999D01*
X66650000Y-128100001D01*
X66648796Y-128124505D01*
X66645196Y-128148773D01*
X66639235Y-128172572D01*
X66630970Y-128195671D01*
X66620480Y-128217850D01*
X66607868Y-128238893D01*
X66593253Y-128258599D01*
X66576777Y-128276777D01*
X66558599Y-128293253D01*
X66538893Y-128307868D01*
X66517850Y-128320480D01*
X66495671Y-128330970D01*
X66472572Y-128339235D01*
X66448773Y-128345196D01*
X66424505Y-128348796D01*
X66400001Y-128350000D01*
X65749999Y-128350000D01*
X65725495Y-128348796D01*
X65701227Y-128345196D01*
X65677428Y-128339235D01*
X65654329Y-128330970D01*
X65632150Y-128320480D01*
X65611107Y-128307868D01*
X65591401Y-128293253D01*
X65573223Y-128276777D01*
X65556747Y-128258599D01*
X65542132Y-128238893D01*
X65529520Y-128217850D01*
X65519030Y-128195671D01*
X65510765Y-128172572D01*
X65504804Y-128148773D01*
X65501204Y-128124505D01*
X65500000Y-128100001D01*
X65500000Y-127199999D01*
X65501204Y-127175495D01*
X65504804Y-127151227D01*
X65510765Y-127127428D01*
X65519030Y-127104329D01*
X65529520Y-127082150D01*
X65542132Y-127061107D01*
X65556747Y-127041401D01*
X65573223Y-127023223D01*
X65591401Y-127006747D01*
X65611107Y-126992132D01*
X65632150Y-126979520D01*
X65654329Y-126969030D01*
X65677428Y-126960765D01*
X65701227Y-126954804D01*
X65725495Y-126951204D01*
X65749999Y-126950000D01*
X66400001Y-126950000D01*
X66424505Y-126951204D01*
G37*
G04 #@! TD.AperFunction*
G04 #@! TA.AperFunction,SMDPad,CuDef*
G36*
X68474505Y-126951204D02*
G01*
X68498773Y-126954804D01*
X68522572Y-126960765D01*
X68545671Y-126969030D01*
X68567850Y-126979520D01*
X68588893Y-126992132D01*
X68608599Y-127006747D01*
X68626777Y-127023223D01*
X68643253Y-127041401D01*
X68657868Y-127061107D01*
X68670480Y-127082150D01*
X68680970Y-127104329D01*
X68689235Y-127127428D01*
X68695196Y-127151227D01*
X68698796Y-127175495D01*
X68700000Y-127199999D01*
X68700000Y-128100001D01*
X68698796Y-128124505D01*
X68695196Y-128148773D01*
X68689235Y-128172572D01*
X68680970Y-128195671D01*
X68670480Y-128217850D01*
X68657868Y-128238893D01*
X68643253Y-128258599D01*
X68626777Y-128276777D01*
X68608599Y-128293253D01*
X68588893Y-128307868D01*
X68567850Y-128320480D01*
X68545671Y-128330970D01*
X68522572Y-128339235D01*
X68498773Y-128345196D01*
X68474505Y-128348796D01*
X68450001Y-128350000D01*
X67799999Y-128350000D01*
X67775495Y-128348796D01*
X67751227Y-128345196D01*
X67727428Y-128339235D01*
X67704329Y-128330970D01*
X67682150Y-128320480D01*
X67661107Y-128307868D01*
X67641401Y-128293253D01*
X67623223Y-128276777D01*
X67606747Y-128258599D01*
X67592132Y-128238893D01*
X67579520Y-128217850D01*
X67569030Y-128195671D01*
X67560765Y-128172572D01*
X67554804Y-128148773D01*
X67551204Y-128124505D01*
X67550000Y-128100001D01*
X67550000Y-127199999D01*
X67551204Y-127175495D01*
X67554804Y-127151227D01*
X67560765Y-127127428D01*
X67569030Y-127104329D01*
X67579520Y-127082150D01*
X67592132Y-127061107D01*
X67606747Y-127041401D01*
X67623223Y-127023223D01*
X67641401Y-127006747D01*
X67661107Y-126992132D01*
X67682150Y-126979520D01*
X67704329Y-126969030D01*
X67727428Y-126960765D01*
X67751227Y-126954804D01*
X67775495Y-126951204D01*
X67799999Y-126950000D01*
X68450001Y-126950000D01*
X68474505Y-126951204D01*
G37*
G04 #@! TD.AperFunction*
D12*
X80500000Y-158000000D03*
X70241000Y-150685456D03*
X34200000Y-140400000D03*
X43150000Y-140400000D03*
X52500000Y-140400000D03*
X61450000Y-140400000D03*
X78584860Y-149412664D03*
X75049327Y-147857029D03*
X80850000Y-145400000D03*
X81850000Y-145400000D03*
X69000000Y-156000000D03*
X69000000Y-159250000D03*
X56750000Y-153750000D03*
X83000000Y-156250000D03*
X58250000Y-154000000D03*
X43750000Y-154000000D03*
X77029226Y-150402613D03*
X68000000Y-149500000D03*
X76750000Y-122050000D03*
X75750000Y-122050000D03*
X74750000Y-122050000D03*
X86700000Y-145400000D03*
X87700000Y-145400000D03*
X88700000Y-145400000D03*
X69000000Y-138400000D03*
X70000000Y-138400000D03*
X71000000Y-138400000D03*
X76800000Y-130400000D03*
X66100000Y-127650000D03*
X62150000Y-136000000D03*
X62150000Y-137050000D03*
X53100000Y-136000000D03*
X44150000Y-135950000D03*
X35100000Y-135900000D03*
X53138900Y-137113600D03*
X44134600Y-137100900D03*
X35130300Y-137088200D03*
X75000000Y-131750000D03*
X33300000Y-142950000D03*
X35200000Y-143900000D03*
X42250000Y-142950000D03*
X44150000Y-143900000D03*
X51550000Y-142950000D03*
X53450000Y-143900000D03*
X60550000Y-143000000D03*
X62400000Y-143900000D03*
X73375000Y-127650000D03*
X73000000Y-155750000D03*
X70750000Y-155500000D03*
D21*
X30500000Y-131600000D03*
X32900000Y-132800000D03*
X32900000Y-130400000D03*
X31700000Y-132800000D03*
X34100000Y-130400000D03*
X32900000Y-131600000D03*
X32900000Y-128000000D03*
X32900000Y-129200000D03*
X35300000Y-129200000D03*
X30500000Y-130400000D03*
X31700000Y-131600000D03*
X34100000Y-128000000D03*
X30500000Y-132800000D03*
X35300000Y-132800000D03*
X30500000Y-128000000D03*
X34100000Y-129200000D03*
X30500000Y-129200000D03*
X35300000Y-130400000D03*
X31700000Y-130400000D03*
X34100000Y-131600000D03*
X31700000Y-128000000D03*
X35300000Y-131600000D03*
X31700000Y-129200000D03*
X34100000Y-132800000D03*
X35300000Y-128000000D03*
X39500000Y-131600000D03*
X41900000Y-132800000D03*
X41900000Y-130400000D03*
X40700000Y-132800000D03*
X43100000Y-130400000D03*
X41900000Y-131600000D03*
X41900000Y-128000000D03*
X41900000Y-129200000D03*
X44300000Y-129200000D03*
X39500000Y-130400000D03*
X40700000Y-131600000D03*
X43100000Y-128000000D03*
X39500000Y-132800000D03*
X44300000Y-132800000D03*
X39500000Y-128000000D03*
X43100000Y-129200000D03*
X39500000Y-129200000D03*
X44300000Y-130400000D03*
X40700000Y-130400000D03*
X43100000Y-131600000D03*
X40700000Y-128000000D03*
X44300000Y-131600000D03*
X40700000Y-129200000D03*
X43100000Y-132800000D03*
X44300000Y-128000000D03*
X48500000Y-131600000D03*
X50900000Y-132800000D03*
X50900000Y-130400000D03*
X49700000Y-132800000D03*
X52100000Y-130400000D03*
X50900000Y-131600000D03*
X50900000Y-128000000D03*
X50900000Y-129200000D03*
X53300000Y-129200000D03*
X48500000Y-130400000D03*
X49700000Y-131600000D03*
X52100000Y-128000000D03*
X48500000Y-132800000D03*
X53300000Y-132800000D03*
X48500000Y-128000000D03*
X52100000Y-129200000D03*
X48500000Y-129200000D03*
X53300000Y-130400000D03*
X49700000Y-130400000D03*
X52100000Y-131600000D03*
X49700000Y-128000000D03*
X53300000Y-131600000D03*
X49700000Y-129200000D03*
X52100000Y-132800000D03*
X53300000Y-128000000D03*
X57500000Y-131600000D03*
X59900000Y-132800000D03*
X59900000Y-130400000D03*
X58700000Y-132800000D03*
X61100000Y-130400000D03*
X59900000Y-131600000D03*
X59900000Y-128000000D03*
X59900000Y-129200000D03*
X62300000Y-129200000D03*
X57500000Y-130400000D03*
X58700000Y-131600000D03*
X61100000Y-128000000D03*
X57500000Y-132800000D03*
X62300000Y-132800000D03*
X57500000Y-128000000D03*
X61100000Y-129200000D03*
X57500000Y-129200000D03*
X62300000Y-130400000D03*
X58700000Y-130400000D03*
X61100000Y-131600000D03*
X58700000Y-128000000D03*
X62300000Y-131600000D03*
X58700000Y-129200000D03*
X61100000Y-132800000D03*
X62300000Y-128000000D03*
D12*
X78750000Y-152750000D03*
D22*
X78284340Y-149147498D02*
X78443439Y-148988399D01*
X78443439Y-149271242D02*
X78584860Y-149412664D01*
X78443439Y-148988399D02*
X78443439Y-149271242D01*
D23*
X76021598Y-146884757D02*
X75049327Y-147857029D01*
X70241000Y-150685456D02*
X69958158Y-150402613D01*
X69109630Y-150402613D02*
X68420200Y-151092042D01*
X69958158Y-150402613D02*
X69109630Y-150402613D01*
D24*
X75425000Y-127650000D02*
X80150000Y-127650000D01*
X80150000Y-127650000D02*
X84850000Y-132350000D01*
D25*
X86100000Y-132350000D02*
X89000000Y-135250000D01*
X84850000Y-132350000D02*
X86100000Y-132350000D01*
X82100000Y-145400000D02*
X82100000Y-142700000D01*
X82100000Y-142700000D02*
X83750000Y-141050000D01*
X83750000Y-141050000D02*
X87950000Y-141050000D01*
X89000000Y-140000000D02*
X89000000Y-135250000D01*
X87950000Y-141050000D02*
X89000000Y-140000000D01*
X82100000Y-145400000D02*
X81850000Y-145400000D01*
X80300000Y-145400000D02*
X76850000Y-141950000D01*
X76850000Y-141950000D02*
X66800000Y-141950000D01*
X66800000Y-141950000D02*
X65300000Y-140450000D01*
X65300000Y-140450000D02*
X63300000Y-140450000D01*
D22*
X63250000Y-140400000D02*
X63300000Y-140450000D01*
X61450000Y-140400000D02*
X63250000Y-140400000D01*
D25*
X80850000Y-145400000D02*
X80300000Y-145400000D01*
X81850000Y-145400000D02*
X80850000Y-145400000D01*
D22*
X81850000Y-145400000D02*
X81850000Y-145850000D01*
X85500000Y-157750000D02*
X83750000Y-157750000D01*
X82000000Y-158000000D02*
X82250000Y-157750000D01*
X82250000Y-157750000D02*
X83750000Y-157750000D01*
X80500000Y-158000000D02*
X82000000Y-158000000D01*
D24*
X81850000Y-145400000D02*
X82400000Y-145400000D01*
X82400000Y-145400000D02*
X86250000Y-149250000D01*
X86250000Y-149250000D02*
X86250000Y-157250000D01*
X86250000Y-157250000D02*
X85750000Y-157750000D01*
D23*
X68384845Y-149147498D02*
X68420200Y-149147498D01*
X68119680Y-149412664D02*
X68384845Y-149147498D01*
X77594911Y-150402613D02*
X77029226Y-150402613D01*
X78284340Y-151092042D02*
X77594911Y-150402613D01*
D22*
X76740000Y-131750000D02*
X76825000Y-131665000D01*
X75000000Y-131750000D02*
X76740000Y-131750000D01*
X76860000Y-132900000D02*
X76825000Y-132935000D01*
D24*
X76050000Y-138400000D02*
X79900000Y-138400000D01*
X80700000Y-137600000D02*
X80700000Y-135250000D01*
X79900000Y-138400000D02*
X80700000Y-137600000D01*
X80700000Y-135250000D02*
X80700000Y-134200000D01*
X80700000Y-134200000D02*
X79400000Y-132900000D01*
X79400000Y-132900000D02*
X78900000Y-132900000D01*
D22*
X78865000Y-132935000D02*
X78900000Y-132900000D01*
X76825000Y-132935000D02*
X78865000Y-132935000D01*
D24*
X33300000Y-143350000D02*
X31150000Y-143350000D01*
X30550000Y-142750000D02*
X30550000Y-142025000D01*
X31150000Y-143350000D02*
X30550000Y-142750000D01*
D22*
X33975000Y-146100000D02*
X33975000Y-145525000D01*
X35200000Y-144300000D02*
X35200000Y-143350000D01*
X33975000Y-145525000D02*
X35200000Y-144300000D01*
D24*
X39550000Y-142025000D02*
X39550000Y-142700000D01*
X40200000Y-143350000D02*
X42250000Y-143350000D01*
X39550000Y-142700000D02*
X40200000Y-143350000D01*
D26*
X44200000Y-142850000D02*
X44200000Y-143250000D01*
X44151500Y-143298500D02*
X44200000Y-143250000D01*
D22*
X42975000Y-146050000D02*
X42975000Y-145775000D01*
X44150000Y-144600000D02*
X44150000Y-143350000D01*
X42975000Y-145775000D02*
X44150000Y-144600000D01*
D24*
X48550000Y-142025000D02*
X48550000Y-142950000D01*
X48950000Y-143350000D02*
X51550000Y-143350000D01*
X48550000Y-142950000D02*
X48950000Y-143350000D01*
D22*
X52475000Y-146050000D02*
X52475000Y-145775000D01*
X53450000Y-144800000D02*
X53450000Y-143900000D01*
X52475000Y-145775000D02*
X53450000Y-144800000D01*
D26*
X60500000Y-142950000D02*
X60500000Y-143350000D01*
D24*
X57500000Y-142025000D02*
X57500000Y-142700000D01*
X58150000Y-143350000D02*
X60500000Y-143350000D01*
X57500000Y-142700000D02*
X58150000Y-143350000D01*
D22*
X61475000Y-146100000D02*
X61475000Y-145775000D01*
X62400000Y-144850000D02*
X62400000Y-143900000D01*
X61475000Y-145775000D02*
X62400000Y-144850000D01*
D26*
X30570000Y-140105000D02*
X30550000Y-140125000D01*
D24*
X30570000Y-139955000D02*
X30550000Y-139975000D01*
X30570000Y-136450000D02*
X30570000Y-139955000D01*
X39570000Y-139955000D02*
X39550000Y-139975000D01*
X39570000Y-136450000D02*
X39570000Y-139955000D01*
D26*
X48425000Y-136595000D02*
X48570000Y-136450000D01*
D24*
X48570000Y-139955000D02*
X48550000Y-139975000D01*
X48570000Y-136450000D02*
X48570000Y-139955000D01*
X57570000Y-139905000D02*
X57500000Y-139975000D01*
X57570000Y-136450000D02*
X57570000Y-139905000D01*
D23*
X70682942Y-146884756D02*
X70634756Y-146884756D01*
X70634756Y-146884756D02*
X69500000Y-145750000D01*
D22*
X63875000Y-145750000D02*
X63525000Y-146100000D01*
X69500000Y-145750000D02*
X63875000Y-145750000D01*
D23*
X70117256Y-147450442D02*
X69950442Y-147450442D01*
X69950442Y-147450442D02*
X69000000Y-146500000D01*
D22*
X65750000Y-146500000D02*
X69000000Y-146500000D01*
X64650020Y-147599980D02*
X65750000Y-146500000D01*
X54525000Y-146050000D02*
X54525000Y-147124980D01*
X55000000Y-147599980D02*
X64650020Y-147599980D01*
X54525000Y-147124980D02*
X55000000Y-147599980D01*
D23*
X69551571Y-148016127D02*
X69516127Y-148016127D01*
X69516127Y-148016127D02*
X68750000Y-147250000D01*
D22*
X45025000Y-146050000D02*
X45025000Y-147824990D01*
X45025000Y-147824990D02*
X45500000Y-148299990D01*
X64950010Y-148299990D02*
X66000000Y-147250000D01*
X45500000Y-148299990D02*
X64950010Y-148299990D01*
X66000000Y-147250000D02*
X68750000Y-147250000D01*
D23*
X68985886Y-148581813D02*
X68831813Y-148581813D01*
D22*
X36025000Y-146100000D02*
X36025000Y-148025000D01*
X36025000Y-148025000D02*
X37000000Y-149000000D01*
X65250000Y-149000000D02*
X65450010Y-149000000D01*
X37000000Y-149000000D02*
X65250000Y-149000000D01*
X65450010Y-149000000D02*
X66500000Y-147950010D01*
X66500000Y-147950010D02*
X68000000Y-147950010D01*
D23*
X68354083Y-147950010D02*
X68985886Y-148581813D01*
X68000000Y-147950010D02*
X68354083Y-147950010D01*
D22*
X71875000Y-132935000D02*
X71875000Y-134205000D01*
D23*
X71855000Y-134225000D02*
X71875000Y-134205000D01*
D22*
X71875000Y-134205000D02*
X76825000Y-134205000D01*
X68000000Y-133975000D02*
X70075000Y-133975000D01*
X70305000Y-134205000D02*
X71875000Y-134205000D01*
X70075000Y-133975000D02*
X70305000Y-134205000D01*
X71900000Y-130370000D02*
X71875000Y-130395000D01*
X71875000Y-130395000D02*
X71875000Y-129875000D01*
D26*
X71875000Y-129150000D02*
X73375000Y-127650000D01*
X71875000Y-129875000D02*
X71875000Y-129150000D01*
D23*
X71860000Y-131650000D02*
X71875000Y-131665000D01*
D25*
X52400000Y-119200000D02*
X52400000Y-121600000D01*
X53624990Y-117975010D02*
X52400000Y-119200000D01*
X53624990Y-117975010D02*
X62600000Y-117975010D01*
X62600000Y-117975010D02*
X62600000Y-118000000D01*
X63800000Y-119200000D02*
X63800000Y-121600000D01*
X62600000Y-118000000D02*
X63800000Y-119200000D01*
X63800000Y-121600000D02*
X64400000Y-121600000D01*
D26*
X70200000Y-122000000D02*
X69800000Y-122000000D01*
X68125000Y-123675000D02*
X68125000Y-127650000D01*
X69800000Y-122000000D02*
X68125000Y-123675000D01*
D24*
X68050000Y-122000000D02*
X70200000Y-122000000D01*
X67650000Y-121600000D02*
X68050000Y-122000000D01*
D26*
X68125000Y-131800000D02*
X68000000Y-131925000D01*
X68125000Y-127650000D02*
X68125000Y-131800000D01*
X68000000Y-131925000D02*
X69925000Y-131925000D01*
D22*
X70185000Y-131665000D02*
X69925000Y-131925000D01*
X71875000Y-131665000D02*
X70185000Y-131665000D01*
D25*
X63800000Y-121600000D02*
X67650000Y-121600000D01*
D23*
X76587284Y-152789098D02*
X76587284Y-152837284D01*
X76587284Y-152837284D02*
X77250000Y-153500000D01*
X77250000Y-153500000D02*
X77250000Y-154250000D01*
D22*
X68225000Y-157250000D02*
X66975000Y-156000000D01*
X76750000Y-157250000D02*
X68225000Y-157250000D01*
X77250000Y-154250000D02*
X77250000Y-156750000D01*
X77250000Y-156750000D02*
X76750000Y-157250000D01*
X66975000Y-156000000D02*
X66975000Y-155975000D01*
X65750000Y-154750000D02*
X61250000Y-154750000D01*
X66975000Y-155975000D02*
X65750000Y-154750000D01*
D23*
X77152969Y-152223413D02*
X77223413Y-152223413D01*
X77223413Y-152223413D02*
X78000000Y-153000000D01*
X78000000Y-153000000D02*
X78000000Y-153750000D01*
X78000000Y-153750000D02*
X78250000Y-154000000D01*
X78250000Y-154000000D02*
X78250000Y-154250000D01*
D22*
X68225000Y-158000000D02*
X66975000Y-159250000D01*
X77250000Y-158000000D02*
X68225000Y-158000000D01*
X78250000Y-154250000D02*
X78250000Y-157000000D01*
X78250000Y-157000000D02*
X77250000Y-158000000D01*
X66975000Y-159250000D02*
X66975000Y-158725000D01*
X66975000Y-158725000D02*
X65250000Y-157000000D01*
X65250000Y-157000000D02*
X60500000Y-157000000D01*
X59750000Y-156250000D02*
X59750000Y-154750000D01*
X60500000Y-157000000D02*
X59750000Y-156250000D01*
D23*
X73000000Y-155671842D02*
X72379998Y-155051840D01*
X73000000Y-155750000D02*
X73000000Y-155671842D01*
X71814313Y-154486154D02*
X71763846Y-154486154D01*
X70800467Y-155500000D02*
X71814313Y-154486154D01*
X70750000Y-155500000D02*
X70800467Y-155500000D01*
X69551571Y-152223413D02*
X69526587Y-152223413D01*
X69526587Y-152223413D02*
X69000000Y-152750000D01*
X69000000Y-152750000D02*
X67250000Y-152750000D01*
X67250000Y-152750000D02*
X66750000Y-152250000D01*
X66750000Y-152250000D02*
X66500000Y-152000000D01*
X66500000Y-152000000D02*
X66000000Y-152000000D01*
D22*
X47250000Y-152000000D02*
X46750000Y-152500000D01*
X66000000Y-152000000D02*
X47250000Y-152000000D01*
X66436814Y-152000000D02*
X66468407Y-152031593D01*
X66000000Y-152000000D02*
X66436814Y-152000000D01*
X46750000Y-152500000D02*
X46750000Y-153000000D01*
D23*
X46750000Y-153000000D02*
X46750000Y-154750000D01*
X68985886Y-151657727D02*
X68842273Y-151657727D01*
X68842273Y-151657727D02*
X68250000Y-152250000D01*
X68250000Y-152250000D02*
X67500000Y-152250000D01*
X67500000Y-152250000D02*
X67000000Y-151750000D01*
X67000000Y-151750000D02*
X66500000Y-151250000D01*
D22*
X45250000Y-151500000D02*
X45250000Y-152250000D01*
X66500000Y-151250000D02*
X45500000Y-151250000D01*
X45500000Y-151250000D02*
X45250000Y-151500000D01*
X45250000Y-152250000D02*
X45250000Y-153000000D01*
D23*
X45250000Y-153000000D02*
X45250000Y-154750000D01*
X70682942Y-153354784D02*
X70645216Y-153354784D01*
X70645216Y-153354784D02*
X70000000Y-154000000D01*
X48250000Y-153000000D02*
X48250000Y-154750000D01*
D22*
X67500000Y-154000000D02*
X69500000Y-154000000D01*
D23*
X69500000Y-154000000D02*
X69000000Y-154000000D01*
D22*
X48250000Y-153000000D02*
X48549990Y-152700010D01*
D23*
X70000000Y-154000000D02*
X69500000Y-154000000D01*
D22*
X48549990Y-152700010D02*
X66200010Y-152700010D01*
X66200010Y-152700010D02*
X67500000Y-154000000D01*
D25*
X32850000Y-130150000D02*
X32850000Y-128650000D01*
X32850000Y-130150000D02*
X32850000Y-125850000D01*
X32080000Y-125080000D02*
X32080000Y-121600000D01*
X32850000Y-125850000D02*
X32080000Y-125080000D01*
X41850000Y-126290000D02*
X37160000Y-121600000D01*
X41850000Y-130150000D02*
X41850000Y-126290000D01*
X50790000Y-130150000D02*
X42240000Y-121600000D01*
X50850000Y-130150000D02*
X50790000Y-130150000D01*
D27*
X59850000Y-130150000D02*
X59850000Y-129350000D01*
D25*
X58400000Y-125000000D02*
X59850000Y-126450000D01*
X59850000Y-126450000D02*
X59850000Y-130150000D01*
X49400000Y-125000000D02*
X58400000Y-125000000D01*
X47320000Y-121600000D02*
X47320000Y-122920000D01*
X47320000Y-122920000D02*
X49400000Y-125000000D01*
D23*
X78750000Y-152689073D02*
X77718654Y-151657727D01*
X78750000Y-152750000D02*
X78750000Y-152689073D01*
X72379998Y-145187700D02*
X72379998Y-144120002D01*
X72379998Y-144120002D02*
X73250000Y-143250000D01*
X73250000Y-143250000D02*
X76500000Y-143250000D01*
X83750000Y-150500000D02*
X83750000Y-153250000D01*
X76500000Y-143250000D02*
X83750000Y-150500000D01*
X74324542Y-145187700D02*
X74324542Y-145175458D01*
X74324542Y-145175458D02*
X75799990Y-143700010D01*
X75799990Y-143700010D02*
X76313600Y-143700010D01*
X76313600Y-143700010D02*
X83299990Y-150686400D01*
X83299990Y-150686400D02*
X83299990Y-151450010D01*
X83299990Y-151450010D02*
X82000000Y-152750000D01*
X82000000Y-152750000D02*
X82000000Y-154500000D01*
X82250000Y-154750000D02*
X83750000Y-154750000D01*
X82000000Y-154500000D02*
X82250000Y-154750000D01*
M02*
