G04 #@! TF.GenerationSoftware,KiCad,Pcbnew,(5.1.5)-3*
G04 #@! TF.CreationDate,2020-11-24T12:16:53+03:00*
G04 #@! TF.ProjectId,fast-pwm,66617374-2d70-4776-9d2e-6b696361645f,rev?*
G04 #@! TF.SameCoordinates,Original*
G04 #@! TF.FileFunction,Copper,L2,Bot*
G04 #@! TF.FilePolarity,Positive*
%FSLAX46Y46*%
G04 Gerber Fmt 4.6, Leading zero omitted, Abs format (unit mm)*
G04 Created by KiCad (PCBNEW (5.1.5)-3) date 2020-11-24 12:16:53*
%MOMM*%
%LPD*%
G04 APERTURE LIST*
%ADD10C,0.800000*%
%ADD11C,6.400000*%
%ADD12O,1.700000X1.700000*%
%ADD13R,1.700000X1.700000*%
%ADD14R,1.500000X1.000000*%
%ADD15C,3.000000*%
%ADD16R,3.000000X3.000000*%
%ADD17C,0.100000*%
%ADD18R,1.900000X0.800000*%
%ADD19C,0.500000*%
%ADD20C,0.500000*%
%ADD21C,0.700000*%
%ADD22C,1.000000*%
%ADD23C,0.250000*%
%ADD24C,0.254000*%
G04 APERTURE END LIST*
D10*
X34697056Y-154302944D03*
X33000000Y-153600000D03*
X31302944Y-154302944D03*
X30600000Y-156000000D03*
X31302944Y-157697056D03*
X33000000Y-158400000D03*
X34697056Y-157697056D03*
X35400000Y-156000000D03*
D11*
X33000000Y-156000000D03*
D10*
X86697056Y-121302944D03*
X85000000Y-120600000D03*
X83302944Y-121302944D03*
X82600000Y-123000000D03*
X83302944Y-124697056D03*
X85000000Y-125400000D03*
X86697056Y-124697056D03*
X87400000Y-123000000D03*
D11*
X85000000Y-123000000D03*
D12*
X75040000Y-159500000D03*
D13*
X72500000Y-159500000D03*
D14*
X80500000Y-157950000D03*
X80500000Y-159250000D03*
X80500000Y-160550000D03*
D15*
X32080000Y-121600000D03*
X37160000Y-121600000D03*
D16*
X52400000Y-121600000D03*
D15*
X42240000Y-121600000D03*
X47320000Y-121600000D03*
X58720000Y-121600000D03*
D16*
X63800000Y-121600000D03*
G04 #@! TA.AperFunction,SMDPad,CuDef*
D17*
G36*
X73826775Y-148520974D02*
G01*
X73851043Y-148524574D01*
X73874842Y-148530535D01*
X73897941Y-148538800D01*
X73920120Y-148549290D01*
X73941163Y-148561902D01*
X73960869Y-148576517D01*
X73979047Y-148592993D01*
X73995523Y-148611171D01*
X74010138Y-148630877D01*
X74022750Y-148651920D01*
X74033240Y-148674099D01*
X74041505Y-148697198D01*
X74047466Y-148720997D01*
X74051066Y-148745265D01*
X74052270Y-148769769D01*
X74052270Y-149419771D01*
X74051066Y-149444275D01*
X74047466Y-149468543D01*
X74041505Y-149492342D01*
X74033240Y-149515441D01*
X74022750Y-149537620D01*
X74010138Y-149558663D01*
X73995523Y-149578369D01*
X73979047Y-149596547D01*
X73960869Y-149613023D01*
X73941163Y-149627638D01*
X73920120Y-149640250D01*
X73897941Y-149650740D01*
X73874842Y-149659005D01*
X73851043Y-149664966D01*
X73826775Y-149668566D01*
X73802271Y-149669770D01*
X72902269Y-149669770D01*
X72877765Y-149668566D01*
X72853497Y-149664966D01*
X72829698Y-149659005D01*
X72806599Y-149650740D01*
X72784420Y-149640250D01*
X72763377Y-149627638D01*
X72743671Y-149613023D01*
X72725493Y-149596547D01*
X72709017Y-149578369D01*
X72694402Y-149558663D01*
X72681790Y-149537620D01*
X72671300Y-149515441D01*
X72663035Y-149492342D01*
X72657074Y-149468543D01*
X72653474Y-149444275D01*
X72652270Y-149419771D01*
X72652270Y-148769769D01*
X72653474Y-148745265D01*
X72657074Y-148720997D01*
X72663035Y-148697198D01*
X72671300Y-148674099D01*
X72681790Y-148651920D01*
X72694402Y-148630877D01*
X72709017Y-148611171D01*
X72725493Y-148592993D01*
X72743671Y-148576517D01*
X72763377Y-148561902D01*
X72784420Y-148549290D01*
X72806599Y-148538800D01*
X72829698Y-148530535D01*
X72853497Y-148524574D01*
X72877765Y-148520974D01*
X72902269Y-148519770D01*
X73802271Y-148519770D01*
X73826775Y-148520974D01*
G37*
G04 #@! TD.AperFunction*
G04 #@! TA.AperFunction,SMDPad,CuDef*
G36*
X73826775Y-150570974D02*
G01*
X73851043Y-150574574D01*
X73874842Y-150580535D01*
X73897941Y-150588800D01*
X73920120Y-150599290D01*
X73941163Y-150611902D01*
X73960869Y-150626517D01*
X73979047Y-150642993D01*
X73995523Y-150661171D01*
X74010138Y-150680877D01*
X74022750Y-150701920D01*
X74033240Y-150724099D01*
X74041505Y-150747198D01*
X74047466Y-150770997D01*
X74051066Y-150795265D01*
X74052270Y-150819769D01*
X74052270Y-151469771D01*
X74051066Y-151494275D01*
X74047466Y-151518543D01*
X74041505Y-151542342D01*
X74033240Y-151565441D01*
X74022750Y-151587620D01*
X74010138Y-151608663D01*
X73995523Y-151628369D01*
X73979047Y-151646547D01*
X73960869Y-151663023D01*
X73941163Y-151677638D01*
X73920120Y-151690250D01*
X73897941Y-151700740D01*
X73874842Y-151709005D01*
X73851043Y-151714966D01*
X73826775Y-151718566D01*
X73802271Y-151719770D01*
X72902269Y-151719770D01*
X72877765Y-151718566D01*
X72853497Y-151714966D01*
X72829698Y-151709005D01*
X72806599Y-151700740D01*
X72784420Y-151690250D01*
X72763377Y-151677638D01*
X72743671Y-151663023D01*
X72725493Y-151646547D01*
X72709017Y-151628369D01*
X72694402Y-151608663D01*
X72681790Y-151587620D01*
X72671300Y-151565441D01*
X72663035Y-151542342D01*
X72657074Y-151518543D01*
X72653474Y-151494275D01*
X72652270Y-151469771D01*
X72652270Y-150819769D01*
X72653474Y-150795265D01*
X72657074Y-150770997D01*
X72663035Y-150747198D01*
X72671300Y-150724099D01*
X72681790Y-150701920D01*
X72694402Y-150680877D01*
X72709017Y-150661171D01*
X72725493Y-150642993D01*
X72743671Y-150626517D01*
X72763377Y-150611902D01*
X72784420Y-150599290D01*
X72806599Y-150588800D01*
X72829698Y-150580535D01*
X72853497Y-150574574D01*
X72877765Y-150570974D01*
X72902269Y-150569770D01*
X73802271Y-150569770D01*
X73826775Y-150570974D01*
G37*
G04 #@! TD.AperFunction*
G04 #@! TA.AperFunction,SMDPad,CuDef*
G36*
X79974505Y-152651204D02*
G01*
X79998773Y-152654804D01*
X80022572Y-152660765D01*
X80045671Y-152669030D01*
X80067850Y-152679520D01*
X80088893Y-152692132D01*
X80108599Y-152706747D01*
X80126777Y-152723223D01*
X80143253Y-152741401D01*
X80157868Y-152761107D01*
X80170480Y-152782150D01*
X80180970Y-152804329D01*
X80189235Y-152827428D01*
X80195196Y-152851227D01*
X80198796Y-152875495D01*
X80200000Y-152899999D01*
X80200000Y-153550001D01*
X80198796Y-153574505D01*
X80195196Y-153598773D01*
X80189235Y-153622572D01*
X80180970Y-153645671D01*
X80170480Y-153667850D01*
X80157868Y-153688893D01*
X80143253Y-153708599D01*
X80126777Y-153726777D01*
X80108599Y-153743253D01*
X80088893Y-153757868D01*
X80067850Y-153770480D01*
X80045671Y-153780970D01*
X80022572Y-153789235D01*
X79998773Y-153795196D01*
X79974505Y-153798796D01*
X79950001Y-153800000D01*
X79049999Y-153800000D01*
X79025495Y-153798796D01*
X79001227Y-153795196D01*
X78977428Y-153789235D01*
X78954329Y-153780970D01*
X78932150Y-153770480D01*
X78911107Y-153757868D01*
X78891401Y-153743253D01*
X78873223Y-153726777D01*
X78856747Y-153708599D01*
X78842132Y-153688893D01*
X78829520Y-153667850D01*
X78819030Y-153645671D01*
X78810765Y-153622572D01*
X78804804Y-153598773D01*
X78801204Y-153574505D01*
X78800000Y-153550001D01*
X78800000Y-152899999D01*
X78801204Y-152875495D01*
X78804804Y-152851227D01*
X78810765Y-152827428D01*
X78819030Y-152804329D01*
X78829520Y-152782150D01*
X78842132Y-152761107D01*
X78856747Y-152741401D01*
X78873223Y-152723223D01*
X78891401Y-152706747D01*
X78911107Y-152692132D01*
X78932150Y-152679520D01*
X78954329Y-152669030D01*
X78977428Y-152660765D01*
X79001227Y-152654804D01*
X79025495Y-152651204D01*
X79049999Y-152650000D01*
X79950001Y-152650000D01*
X79974505Y-152651204D01*
G37*
G04 #@! TD.AperFunction*
G04 #@! TA.AperFunction,SMDPad,CuDef*
G36*
X79974505Y-154701204D02*
G01*
X79998773Y-154704804D01*
X80022572Y-154710765D01*
X80045671Y-154719030D01*
X80067850Y-154729520D01*
X80088893Y-154742132D01*
X80108599Y-154756747D01*
X80126777Y-154773223D01*
X80143253Y-154791401D01*
X80157868Y-154811107D01*
X80170480Y-154832150D01*
X80180970Y-154854329D01*
X80189235Y-154877428D01*
X80195196Y-154901227D01*
X80198796Y-154925495D01*
X80200000Y-154949999D01*
X80200000Y-155600001D01*
X80198796Y-155624505D01*
X80195196Y-155648773D01*
X80189235Y-155672572D01*
X80180970Y-155695671D01*
X80170480Y-155717850D01*
X80157868Y-155738893D01*
X80143253Y-155758599D01*
X80126777Y-155776777D01*
X80108599Y-155793253D01*
X80088893Y-155807868D01*
X80067850Y-155820480D01*
X80045671Y-155830970D01*
X80022572Y-155839235D01*
X79998773Y-155845196D01*
X79974505Y-155848796D01*
X79950001Y-155850000D01*
X79049999Y-155850000D01*
X79025495Y-155848796D01*
X79001227Y-155845196D01*
X78977428Y-155839235D01*
X78954329Y-155830970D01*
X78932150Y-155820480D01*
X78911107Y-155807868D01*
X78891401Y-155793253D01*
X78873223Y-155776777D01*
X78856747Y-155758599D01*
X78842132Y-155738893D01*
X78829520Y-155717850D01*
X78819030Y-155695671D01*
X78810765Y-155672572D01*
X78804804Y-155648773D01*
X78801204Y-155624505D01*
X78800000Y-155600001D01*
X78800000Y-154949999D01*
X78801204Y-154925495D01*
X78804804Y-154901227D01*
X78810765Y-154877428D01*
X78819030Y-154854329D01*
X78829520Y-154832150D01*
X78842132Y-154811107D01*
X78856747Y-154791401D01*
X78873223Y-154773223D01*
X78891401Y-154756747D01*
X78911107Y-154742132D01*
X78932150Y-154729520D01*
X78954329Y-154719030D01*
X78977428Y-154710765D01*
X79001227Y-154704804D01*
X79025495Y-154701204D01*
X79049999Y-154700000D01*
X79950001Y-154700000D01*
X79974505Y-154701204D01*
G37*
G04 #@! TD.AperFunction*
G04 #@! TA.AperFunction,SMDPad,CuDef*
G36*
X76089517Y-150570974D02*
G01*
X76113785Y-150574574D01*
X76137584Y-150580535D01*
X76160683Y-150588800D01*
X76182862Y-150599290D01*
X76203905Y-150611902D01*
X76223611Y-150626517D01*
X76241789Y-150642993D01*
X76258265Y-150661171D01*
X76272880Y-150680877D01*
X76285492Y-150701920D01*
X76295982Y-150724099D01*
X76304247Y-150747198D01*
X76310208Y-150770997D01*
X76313808Y-150795265D01*
X76315012Y-150819769D01*
X76315012Y-151469771D01*
X76313808Y-151494275D01*
X76310208Y-151518543D01*
X76304247Y-151542342D01*
X76295982Y-151565441D01*
X76285492Y-151587620D01*
X76272880Y-151608663D01*
X76258265Y-151628369D01*
X76241789Y-151646547D01*
X76223611Y-151663023D01*
X76203905Y-151677638D01*
X76182862Y-151690250D01*
X76160683Y-151700740D01*
X76137584Y-151709005D01*
X76113785Y-151714966D01*
X76089517Y-151718566D01*
X76065013Y-151719770D01*
X75165011Y-151719770D01*
X75140507Y-151718566D01*
X75116239Y-151714966D01*
X75092440Y-151709005D01*
X75069341Y-151700740D01*
X75047162Y-151690250D01*
X75026119Y-151677638D01*
X75006413Y-151663023D01*
X74988235Y-151646547D01*
X74971759Y-151628369D01*
X74957144Y-151608663D01*
X74944532Y-151587620D01*
X74934042Y-151565441D01*
X74925777Y-151542342D01*
X74919816Y-151518543D01*
X74916216Y-151494275D01*
X74915012Y-151469771D01*
X74915012Y-150819769D01*
X74916216Y-150795265D01*
X74919816Y-150770997D01*
X74925777Y-150747198D01*
X74934042Y-150724099D01*
X74944532Y-150701920D01*
X74957144Y-150680877D01*
X74971759Y-150661171D01*
X74988235Y-150642993D01*
X75006413Y-150626517D01*
X75026119Y-150611902D01*
X75047162Y-150599290D01*
X75069341Y-150588800D01*
X75092440Y-150580535D01*
X75116239Y-150574574D01*
X75140507Y-150570974D01*
X75165011Y-150569770D01*
X76065013Y-150569770D01*
X76089517Y-150570974D01*
G37*
G04 #@! TD.AperFunction*
G04 #@! TA.AperFunction,SMDPad,CuDef*
G36*
X76089517Y-148520974D02*
G01*
X76113785Y-148524574D01*
X76137584Y-148530535D01*
X76160683Y-148538800D01*
X76182862Y-148549290D01*
X76203905Y-148561902D01*
X76223611Y-148576517D01*
X76241789Y-148592993D01*
X76258265Y-148611171D01*
X76272880Y-148630877D01*
X76285492Y-148651920D01*
X76295982Y-148674099D01*
X76304247Y-148697198D01*
X76310208Y-148720997D01*
X76313808Y-148745265D01*
X76315012Y-148769769D01*
X76315012Y-149419771D01*
X76313808Y-149444275D01*
X76310208Y-149468543D01*
X76304247Y-149492342D01*
X76295982Y-149515441D01*
X76285492Y-149537620D01*
X76272880Y-149558663D01*
X76258265Y-149578369D01*
X76241789Y-149596547D01*
X76223611Y-149613023D01*
X76203905Y-149627638D01*
X76182862Y-149640250D01*
X76160683Y-149650740D01*
X76137584Y-149659005D01*
X76113785Y-149664966D01*
X76089517Y-149668566D01*
X76065013Y-149669770D01*
X75165011Y-149669770D01*
X75140507Y-149668566D01*
X75116239Y-149664966D01*
X75092440Y-149659005D01*
X75069341Y-149650740D01*
X75047162Y-149640250D01*
X75026119Y-149627638D01*
X75006413Y-149613023D01*
X74988235Y-149596547D01*
X74971759Y-149578369D01*
X74957144Y-149558663D01*
X74944532Y-149537620D01*
X74934042Y-149515441D01*
X74925777Y-149492342D01*
X74919816Y-149468543D01*
X74916216Y-149444275D01*
X74915012Y-149419771D01*
X74915012Y-148769769D01*
X74916216Y-148745265D01*
X74919816Y-148720997D01*
X74925777Y-148697198D01*
X74934042Y-148674099D01*
X74944532Y-148651920D01*
X74957144Y-148630877D01*
X74971759Y-148611171D01*
X74988235Y-148592993D01*
X75006413Y-148576517D01*
X75026119Y-148561902D01*
X75047162Y-148549290D01*
X75069341Y-148538800D01*
X75092440Y-148530535D01*
X75116239Y-148524574D01*
X75140507Y-148520974D01*
X75165011Y-148519770D01*
X76065013Y-148519770D01*
X76089517Y-148520974D01*
G37*
G04 #@! TD.AperFunction*
G04 #@! TA.AperFunction,SMDPad,CuDef*
G36*
X71564034Y-148520974D02*
G01*
X71588302Y-148524574D01*
X71612101Y-148530535D01*
X71635200Y-148538800D01*
X71657379Y-148549290D01*
X71678422Y-148561902D01*
X71698128Y-148576517D01*
X71716306Y-148592993D01*
X71732782Y-148611171D01*
X71747397Y-148630877D01*
X71760009Y-148651920D01*
X71770499Y-148674099D01*
X71778764Y-148697198D01*
X71784725Y-148720997D01*
X71788325Y-148745265D01*
X71789529Y-148769769D01*
X71789529Y-149419771D01*
X71788325Y-149444275D01*
X71784725Y-149468543D01*
X71778764Y-149492342D01*
X71770499Y-149515441D01*
X71760009Y-149537620D01*
X71747397Y-149558663D01*
X71732782Y-149578369D01*
X71716306Y-149596547D01*
X71698128Y-149613023D01*
X71678422Y-149627638D01*
X71657379Y-149640250D01*
X71635200Y-149650740D01*
X71612101Y-149659005D01*
X71588302Y-149664966D01*
X71564034Y-149668566D01*
X71539530Y-149669770D01*
X70639528Y-149669770D01*
X70615024Y-149668566D01*
X70590756Y-149664966D01*
X70566957Y-149659005D01*
X70543858Y-149650740D01*
X70521679Y-149640250D01*
X70500636Y-149627638D01*
X70480930Y-149613023D01*
X70462752Y-149596547D01*
X70446276Y-149578369D01*
X70431661Y-149558663D01*
X70419049Y-149537620D01*
X70408559Y-149515441D01*
X70400294Y-149492342D01*
X70394333Y-149468543D01*
X70390733Y-149444275D01*
X70389529Y-149419771D01*
X70389529Y-148769769D01*
X70390733Y-148745265D01*
X70394333Y-148720997D01*
X70400294Y-148697198D01*
X70408559Y-148674099D01*
X70419049Y-148651920D01*
X70431661Y-148630877D01*
X70446276Y-148611171D01*
X70462752Y-148592993D01*
X70480930Y-148576517D01*
X70500636Y-148561902D01*
X70521679Y-148549290D01*
X70543858Y-148538800D01*
X70566957Y-148530535D01*
X70590756Y-148524574D01*
X70615024Y-148520974D01*
X70639528Y-148519770D01*
X71539530Y-148519770D01*
X71564034Y-148520974D01*
G37*
G04 #@! TD.AperFunction*
G04 #@! TA.AperFunction,SMDPad,CuDef*
G36*
X71564034Y-150570974D02*
G01*
X71588302Y-150574574D01*
X71612101Y-150580535D01*
X71635200Y-150588800D01*
X71657379Y-150599290D01*
X71678422Y-150611902D01*
X71698128Y-150626517D01*
X71716306Y-150642993D01*
X71732782Y-150661171D01*
X71747397Y-150680877D01*
X71760009Y-150701920D01*
X71770499Y-150724099D01*
X71778764Y-150747198D01*
X71784725Y-150770997D01*
X71788325Y-150795265D01*
X71789529Y-150819769D01*
X71789529Y-151469771D01*
X71788325Y-151494275D01*
X71784725Y-151518543D01*
X71778764Y-151542342D01*
X71770499Y-151565441D01*
X71760009Y-151587620D01*
X71747397Y-151608663D01*
X71732782Y-151628369D01*
X71716306Y-151646547D01*
X71698128Y-151663023D01*
X71678422Y-151677638D01*
X71657379Y-151690250D01*
X71635200Y-151700740D01*
X71612101Y-151709005D01*
X71588302Y-151714966D01*
X71564034Y-151718566D01*
X71539530Y-151719770D01*
X70639528Y-151719770D01*
X70615024Y-151718566D01*
X70590756Y-151714966D01*
X70566957Y-151709005D01*
X70543858Y-151700740D01*
X70521679Y-151690250D01*
X70500636Y-151677638D01*
X70480930Y-151663023D01*
X70462752Y-151646547D01*
X70446276Y-151628369D01*
X70431661Y-151608663D01*
X70419049Y-151587620D01*
X70408559Y-151565441D01*
X70400294Y-151542342D01*
X70394333Y-151518543D01*
X70390733Y-151494275D01*
X70389529Y-151469771D01*
X70389529Y-150819769D01*
X70390733Y-150795265D01*
X70394333Y-150770997D01*
X70400294Y-150747198D01*
X70408559Y-150724099D01*
X70419049Y-150701920D01*
X70431661Y-150680877D01*
X70446276Y-150661171D01*
X70462752Y-150642993D01*
X70480930Y-150626517D01*
X70500636Y-150611902D01*
X70521679Y-150599290D01*
X70543858Y-150588800D01*
X70566957Y-150580535D01*
X70590756Y-150574574D01*
X70615024Y-150570974D01*
X70639528Y-150569770D01*
X71539530Y-150569770D01*
X71564034Y-150570974D01*
G37*
G04 #@! TD.AperFunction*
D18*
X59950000Y-142950000D03*
X62950000Y-143900000D03*
X62950000Y-142000000D03*
X51000000Y-142950000D03*
X54000000Y-143900000D03*
X54000000Y-142000000D03*
X41700000Y-142950000D03*
X44700000Y-143900000D03*
X44700000Y-142000000D03*
X32750000Y-142950000D03*
X35750000Y-143900000D03*
X35750000Y-142000000D03*
G04 #@! TA.AperFunction,SMDPad,CuDef*
D17*
G36*
X73724505Y-126951204D02*
G01*
X73748773Y-126954804D01*
X73772572Y-126960765D01*
X73795671Y-126969030D01*
X73817850Y-126979520D01*
X73838893Y-126992132D01*
X73858599Y-127006747D01*
X73876777Y-127023223D01*
X73893253Y-127041401D01*
X73907868Y-127061107D01*
X73920480Y-127082150D01*
X73930970Y-127104329D01*
X73939235Y-127127428D01*
X73945196Y-127151227D01*
X73948796Y-127175495D01*
X73950000Y-127199999D01*
X73950000Y-128100001D01*
X73948796Y-128124505D01*
X73945196Y-128148773D01*
X73939235Y-128172572D01*
X73930970Y-128195671D01*
X73920480Y-128217850D01*
X73907868Y-128238893D01*
X73893253Y-128258599D01*
X73876777Y-128276777D01*
X73858599Y-128293253D01*
X73838893Y-128307868D01*
X73817850Y-128320480D01*
X73795671Y-128330970D01*
X73772572Y-128339235D01*
X73748773Y-128345196D01*
X73724505Y-128348796D01*
X73700001Y-128350000D01*
X73049999Y-128350000D01*
X73025495Y-128348796D01*
X73001227Y-128345196D01*
X72977428Y-128339235D01*
X72954329Y-128330970D01*
X72932150Y-128320480D01*
X72911107Y-128307868D01*
X72891401Y-128293253D01*
X72873223Y-128276777D01*
X72856747Y-128258599D01*
X72842132Y-128238893D01*
X72829520Y-128217850D01*
X72819030Y-128195671D01*
X72810765Y-128172572D01*
X72804804Y-128148773D01*
X72801204Y-128124505D01*
X72800000Y-128100001D01*
X72800000Y-127199999D01*
X72801204Y-127175495D01*
X72804804Y-127151227D01*
X72810765Y-127127428D01*
X72819030Y-127104329D01*
X72829520Y-127082150D01*
X72842132Y-127061107D01*
X72856747Y-127041401D01*
X72873223Y-127023223D01*
X72891401Y-127006747D01*
X72911107Y-126992132D01*
X72932150Y-126979520D01*
X72954329Y-126969030D01*
X72977428Y-126960765D01*
X73001227Y-126954804D01*
X73025495Y-126951204D01*
X73049999Y-126950000D01*
X73700001Y-126950000D01*
X73724505Y-126951204D01*
G37*
G04 #@! TD.AperFunction*
G04 #@! TA.AperFunction,SMDPad,CuDef*
G36*
X75774505Y-126951204D02*
G01*
X75798773Y-126954804D01*
X75822572Y-126960765D01*
X75845671Y-126969030D01*
X75867850Y-126979520D01*
X75888893Y-126992132D01*
X75908599Y-127006747D01*
X75926777Y-127023223D01*
X75943253Y-127041401D01*
X75957868Y-127061107D01*
X75970480Y-127082150D01*
X75980970Y-127104329D01*
X75989235Y-127127428D01*
X75995196Y-127151227D01*
X75998796Y-127175495D01*
X76000000Y-127199999D01*
X76000000Y-128100001D01*
X75998796Y-128124505D01*
X75995196Y-128148773D01*
X75989235Y-128172572D01*
X75980970Y-128195671D01*
X75970480Y-128217850D01*
X75957868Y-128238893D01*
X75943253Y-128258599D01*
X75926777Y-128276777D01*
X75908599Y-128293253D01*
X75888893Y-128307868D01*
X75867850Y-128320480D01*
X75845671Y-128330970D01*
X75822572Y-128339235D01*
X75798773Y-128345196D01*
X75774505Y-128348796D01*
X75750001Y-128350000D01*
X75099999Y-128350000D01*
X75075495Y-128348796D01*
X75051227Y-128345196D01*
X75027428Y-128339235D01*
X75004329Y-128330970D01*
X74982150Y-128320480D01*
X74961107Y-128307868D01*
X74941401Y-128293253D01*
X74923223Y-128276777D01*
X74906747Y-128258599D01*
X74892132Y-128238893D01*
X74879520Y-128217850D01*
X74869030Y-128195671D01*
X74860765Y-128172572D01*
X74854804Y-128148773D01*
X74851204Y-128124505D01*
X74850000Y-128100001D01*
X74850000Y-127199999D01*
X74851204Y-127175495D01*
X74854804Y-127151227D01*
X74860765Y-127127428D01*
X74869030Y-127104329D01*
X74879520Y-127082150D01*
X74892132Y-127061107D01*
X74906747Y-127041401D01*
X74923223Y-127023223D01*
X74941401Y-127006747D01*
X74961107Y-126992132D01*
X74982150Y-126979520D01*
X75004329Y-126969030D01*
X75027428Y-126960765D01*
X75051227Y-126954804D01*
X75075495Y-126951204D01*
X75099999Y-126950000D01*
X75750001Y-126950000D01*
X75774505Y-126951204D01*
G37*
G04 #@! TD.AperFunction*
G04 #@! TA.AperFunction,SMDPad,CuDef*
G36*
X74874505Y-129001204D02*
G01*
X74898773Y-129004804D01*
X74922572Y-129010765D01*
X74945671Y-129019030D01*
X74967850Y-129029520D01*
X74988893Y-129042132D01*
X75008599Y-129056747D01*
X75026777Y-129073223D01*
X75043253Y-129091401D01*
X75057868Y-129111107D01*
X75070480Y-129132150D01*
X75080970Y-129154329D01*
X75089235Y-129177428D01*
X75095196Y-129201227D01*
X75098796Y-129225495D01*
X75100000Y-129249999D01*
X75100000Y-129900001D01*
X75098796Y-129924505D01*
X75095196Y-129948773D01*
X75089235Y-129972572D01*
X75080970Y-129995671D01*
X75070480Y-130017850D01*
X75057868Y-130038893D01*
X75043253Y-130058599D01*
X75026777Y-130076777D01*
X75008599Y-130093253D01*
X74988893Y-130107868D01*
X74967850Y-130120480D01*
X74945671Y-130130970D01*
X74922572Y-130139235D01*
X74898773Y-130145196D01*
X74874505Y-130148796D01*
X74850001Y-130150000D01*
X73949999Y-130150000D01*
X73925495Y-130148796D01*
X73901227Y-130145196D01*
X73877428Y-130139235D01*
X73854329Y-130130970D01*
X73832150Y-130120480D01*
X73811107Y-130107868D01*
X73791401Y-130093253D01*
X73773223Y-130076777D01*
X73756747Y-130058599D01*
X73742132Y-130038893D01*
X73729520Y-130017850D01*
X73719030Y-129995671D01*
X73710765Y-129972572D01*
X73704804Y-129948773D01*
X73701204Y-129924505D01*
X73700000Y-129900001D01*
X73700000Y-129249999D01*
X73701204Y-129225495D01*
X73704804Y-129201227D01*
X73710765Y-129177428D01*
X73719030Y-129154329D01*
X73729520Y-129132150D01*
X73742132Y-129111107D01*
X73756747Y-129091401D01*
X73773223Y-129073223D01*
X73791401Y-129056747D01*
X73811107Y-129042132D01*
X73832150Y-129029520D01*
X73854329Y-129019030D01*
X73877428Y-129010765D01*
X73901227Y-129004804D01*
X73925495Y-129001204D01*
X73949999Y-129000000D01*
X74850001Y-129000000D01*
X74874505Y-129001204D01*
G37*
G04 #@! TD.AperFunction*
G04 #@! TA.AperFunction,SMDPad,CuDef*
G36*
X74874505Y-131051204D02*
G01*
X74898773Y-131054804D01*
X74922572Y-131060765D01*
X74945671Y-131069030D01*
X74967850Y-131079520D01*
X74988893Y-131092132D01*
X75008599Y-131106747D01*
X75026777Y-131123223D01*
X75043253Y-131141401D01*
X75057868Y-131161107D01*
X75070480Y-131182150D01*
X75080970Y-131204329D01*
X75089235Y-131227428D01*
X75095196Y-131251227D01*
X75098796Y-131275495D01*
X75100000Y-131299999D01*
X75100000Y-131950001D01*
X75098796Y-131974505D01*
X75095196Y-131998773D01*
X75089235Y-132022572D01*
X75080970Y-132045671D01*
X75070480Y-132067850D01*
X75057868Y-132088893D01*
X75043253Y-132108599D01*
X75026777Y-132126777D01*
X75008599Y-132143253D01*
X74988893Y-132157868D01*
X74967850Y-132170480D01*
X74945671Y-132180970D01*
X74922572Y-132189235D01*
X74898773Y-132195196D01*
X74874505Y-132198796D01*
X74850001Y-132200000D01*
X73949999Y-132200000D01*
X73925495Y-132198796D01*
X73901227Y-132195196D01*
X73877428Y-132189235D01*
X73854329Y-132180970D01*
X73832150Y-132170480D01*
X73811107Y-132157868D01*
X73791401Y-132143253D01*
X73773223Y-132126777D01*
X73756747Y-132108599D01*
X73742132Y-132088893D01*
X73729520Y-132067850D01*
X73719030Y-132045671D01*
X73710765Y-132022572D01*
X73704804Y-131998773D01*
X73701204Y-131974505D01*
X73700000Y-131950001D01*
X73700000Y-131299999D01*
X73701204Y-131275495D01*
X73704804Y-131251227D01*
X73710765Y-131227428D01*
X73719030Y-131204329D01*
X73729520Y-131182150D01*
X73742132Y-131161107D01*
X73756747Y-131141401D01*
X73773223Y-131123223D01*
X73791401Y-131106747D01*
X73811107Y-131092132D01*
X73832150Y-131079520D01*
X73854329Y-131069030D01*
X73877428Y-131060765D01*
X73901227Y-131054804D01*
X73925495Y-131051204D01*
X73949999Y-131050000D01*
X74850001Y-131050000D01*
X74874505Y-131051204D01*
G37*
G04 #@! TD.AperFunction*
D10*
X80500000Y-158000000D03*
X70241000Y-150685456D03*
X34200000Y-140400000D03*
X43150000Y-140400000D03*
X52500000Y-140400000D03*
X61450000Y-140400000D03*
X78584860Y-149412664D03*
X75049327Y-147857029D03*
X80850000Y-145400000D03*
X81850000Y-145400000D03*
X69000000Y-156000000D03*
X69000000Y-159250000D03*
X56750000Y-153750000D03*
X83000000Y-156250000D03*
X58250000Y-154000000D03*
X43750000Y-154000000D03*
X77029226Y-150402613D03*
X68000000Y-149500000D03*
X76750000Y-122050000D03*
X75750000Y-122050000D03*
X74750000Y-122050000D03*
X86700000Y-145400000D03*
X87700000Y-145400000D03*
X88700000Y-145400000D03*
X69000000Y-138400000D03*
X70000000Y-138400000D03*
X71000000Y-138400000D03*
X76800000Y-130400000D03*
X66100000Y-127650000D03*
X62150000Y-136000000D03*
X62150000Y-137050000D03*
X53100000Y-136000000D03*
X44150000Y-135950000D03*
X35100000Y-135900000D03*
X53138900Y-137113600D03*
X44134600Y-137100900D03*
X35130300Y-137088200D03*
X75000000Y-131750000D03*
X33300000Y-142950000D03*
X35200000Y-143900000D03*
X42250000Y-142950000D03*
X44150000Y-143900000D03*
X51550000Y-142950000D03*
X53450000Y-143900000D03*
X60550000Y-143000000D03*
X62400000Y-143900000D03*
X73375000Y-127650000D03*
X73000000Y-155750000D03*
X70750000Y-155500000D03*
D19*
X30500000Y-131600000D03*
X32900000Y-132800000D03*
X32900000Y-130400000D03*
X31700000Y-132800000D03*
X34100000Y-130400000D03*
X32900000Y-131600000D03*
X32900000Y-128000000D03*
X32900000Y-129200000D03*
X35300000Y-129200000D03*
X30500000Y-130400000D03*
X31700000Y-131600000D03*
X34100000Y-128000000D03*
X30500000Y-132800000D03*
X35300000Y-132800000D03*
X30500000Y-128000000D03*
X34100000Y-129200000D03*
X30500000Y-129200000D03*
X35300000Y-130400000D03*
X31700000Y-130400000D03*
X34100000Y-131600000D03*
X31700000Y-128000000D03*
X35300000Y-131600000D03*
X31700000Y-129200000D03*
X34100000Y-132800000D03*
X35300000Y-128000000D03*
X39500000Y-131600000D03*
X41900000Y-132800000D03*
X41900000Y-130400000D03*
X40700000Y-132800000D03*
X43100000Y-130400000D03*
X41900000Y-131600000D03*
X41900000Y-128000000D03*
X41900000Y-129200000D03*
X44300000Y-129200000D03*
X39500000Y-130400000D03*
X40700000Y-131600000D03*
X43100000Y-128000000D03*
X39500000Y-132800000D03*
X44300000Y-132800000D03*
X39500000Y-128000000D03*
X43100000Y-129200000D03*
X39500000Y-129200000D03*
X44300000Y-130400000D03*
X40700000Y-130400000D03*
X43100000Y-131600000D03*
X40700000Y-128000000D03*
X44300000Y-131600000D03*
X40700000Y-129200000D03*
X43100000Y-132800000D03*
X44300000Y-128000000D03*
X48500000Y-131600000D03*
X50900000Y-132800000D03*
X50900000Y-130400000D03*
X49700000Y-132800000D03*
X52100000Y-130400000D03*
X50900000Y-131600000D03*
X50900000Y-128000000D03*
X50900000Y-129200000D03*
X53300000Y-129200000D03*
X48500000Y-130400000D03*
X49700000Y-131600000D03*
X52100000Y-128000000D03*
X48500000Y-132800000D03*
X53300000Y-132800000D03*
X48500000Y-128000000D03*
X52100000Y-129200000D03*
X48500000Y-129200000D03*
X53300000Y-130400000D03*
X49700000Y-130400000D03*
X52100000Y-131600000D03*
X49700000Y-128000000D03*
X53300000Y-131600000D03*
X49700000Y-129200000D03*
X52100000Y-132800000D03*
X53300000Y-128000000D03*
X57500000Y-131600000D03*
X59900000Y-132800000D03*
X59900000Y-130400000D03*
X58700000Y-132800000D03*
X61100000Y-130400000D03*
X59900000Y-131600000D03*
X59900000Y-128000000D03*
X59900000Y-129200000D03*
X62300000Y-129200000D03*
X57500000Y-130400000D03*
X58700000Y-131600000D03*
X61100000Y-128000000D03*
X57500000Y-132800000D03*
X62300000Y-132800000D03*
X57500000Y-128000000D03*
X61100000Y-129200000D03*
X57500000Y-129200000D03*
X62300000Y-130400000D03*
X58700000Y-130400000D03*
X61100000Y-131600000D03*
X58700000Y-128000000D03*
X62300000Y-131600000D03*
X58700000Y-129200000D03*
X61100000Y-132800000D03*
X62300000Y-128000000D03*
D10*
X78750000Y-152750000D03*
D20*
X75563450Y-149043209D02*
X75473591Y-149043209D01*
X75615012Y-149094771D02*
X75563450Y-149043209D01*
X71258034Y-151144770D02*
X71089529Y-151144770D01*
D21*
X71089529Y-151144770D02*
X70771636Y-150826877D01*
X70771636Y-150826877D02*
X70382422Y-150826877D01*
D22*
X75615012Y-149094771D02*
X75579962Y-149129821D01*
D21*
X78266968Y-149094771D02*
X75615012Y-149094771D01*
X78584860Y-149412664D02*
X78266968Y-149094771D01*
X73565013Y-151144770D02*
X71089529Y-151144770D01*
X75615012Y-149094771D02*
X73565013Y-151144770D01*
X75615012Y-148422714D02*
X75615012Y-149094771D01*
X75049327Y-147857029D02*
X75615012Y-148422714D01*
X52550000Y-140400000D02*
X52500000Y-140350000D01*
X61450000Y-140350000D02*
X52550000Y-140350000D01*
X43250000Y-140350000D02*
X43150000Y-140450000D01*
X52500000Y-140350000D02*
X43250000Y-140350000D01*
X43150000Y-140350000D02*
X34200000Y-140350000D01*
D22*
X81850000Y-146147524D02*
X78584860Y-149412664D01*
X81850000Y-145400000D02*
X81850000Y-146147524D01*
D20*
X70241000Y-150685456D02*
X68564544Y-150685456D01*
X68564544Y-150685456D02*
X66750000Y-152500000D01*
X66750000Y-152500000D02*
X58000000Y-152500000D01*
X58000000Y-152500000D02*
X56750000Y-153750000D01*
X66750000Y-152500000D02*
X67750000Y-152500000D01*
X67750000Y-152500000D02*
X69000000Y-153750000D01*
X69000000Y-153750000D02*
X69000000Y-156000000D01*
X69000000Y-156000000D02*
X69000000Y-159250000D01*
X69000000Y-159250000D02*
X69000000Y-159250000D01*
X56750000Y-153750000D02*
X56750000Y-153750000D01*
D23*
X76004226Y-151144770D02*
X75615012Y-151144770D01*
D20*
X74875000Y-131625000D02*
X75000000Y-131750000D01*
X74400000Y-131625000D02*
X74875000Y-131625000D01*
X75040000Y-158290000D02*
X75040000Y-159500000D01*
X74750000Y-158000000D02*
X75040000Y-158290000D01*
X73500000Y-158000000D02*
X74750000Y-158000000D01*
X73000000Y-155750000D02*
X73000000Y-157500000D01*
X73000000Y-157500000D02*
X73500000Y-158000000D01*
X70750000Y-157750000D02*
X72500000Y-159500000D01*
X70750000Y-155500000D02*
X70750000Y-157750000D01*
X79500000Y-155275000D02*
X79500000Y-156250000D01*
X79500000Y-156250000D02*
X78750000Y-157000000D01*
X78750000Y-157000000D02*
X78750000Y-158750000D01*
X79250000Y-159250000D02*
X80500000Y-159250000D01*
X78750000Y-158750000D02*
X79250000Y-159250000D01*
D23*
X79225000Y-153225000D02*
X78750000Y-152750000D01*
X79500000Y-153225000D02*
X79225000Y-153225000D01*
D24*
G36*
X44673000Y-133273000D02*
G01*
X39027000Y-133273000D01*
X39027000Y-127027000D01*
X44673000Y-127027000D01*
X44673000Y-133273000D01*
G37*
X44673000Y-133273000D02*
X39027000Y-133273000D01*
X39027000Y-127027000D01*
X44673000Y-127027000D01*
X44673000Y-133273000D01*
G36*
X53673000Y-133273000D02*
G01*
X48027000Y-133273000D01*
X48027000Y-127027000D01*
X53673000Y-127027000D01*
X53673000Y-133273000D01*
G37*
X53673000Y-133273000D02*
X48027000Y-133273000D01*
X48027000Y-127027000D01*
X53673000Y-127027000D01*
X53673000Y-133273000D01*
G36*
X62673000Y-133273000D02*
G01*
X57027000Y-133273000D01*
X57027000Y-127027000D01*
X62673000Y-127027000D01*
X62673000Y-133273000D01*
G37*
X62673000Y-133273000D02*
X57027000Y-133273000D01*
X57027000Y-127027000D01*
X62673000Y-127027000D01*
X62673000Y-133273000D01*
G36*
X35673000Y-133273000D02*
G01*
X30027000Y-133273000D01*
X30027000Y-127027000D01*
X35673000Y-127027000D01*
X35673000Y-133273000D01*
G37*
X35673000Y-133273000D02*
X30027000Y-133273000D01*
X30027000Y-127027000D01*
X35673000Y-127027000D01*
X35673000Y-133273000D01*
G36*
X90348001Y-161348000D02*
G01*
X81810734Y-161348000D01*
X81839502Y-161294180D01*
X81875812Y-161174482D01*
X81888072Y-161050000D01*
X81885000Y-160835750D01*
X81726250Y-160677000D01*
X80627000Y-160677000D01*
X80627000Y-160697000D01*
X80373000Y-160697000D01*
X80373000Y-160677000D01*
X79273750Y-160677000D01*
X79115000Y-160835750D01*
X79111928Y-161050000D01*
X79124188Y-161174482D01*
X79160498Y-161294180D01*
X79189266Y-161348000D01*
X27652000Y-161348000D01*
X27652000Y-155623073D01*
X29173000Y-155623073D01*
X29173000Y-156376927D01*
X29320070Y-157116295D01*
X29608557Y-157812764D01*
X30027375Y-158439570D01*
X30560430Y-158972625D01*
X31187236Y-159391443D01*
X31883705Y-159679930D01*
X32623073Y-159827000D01*
X33376927Y-159827000D01*
X34116295Y-159679930D01*
X34812764Y-159391443D01*
X35439570Y-158972625D01*
X35972625Y-158439570D01*
X36391443Y-157812764D01*
X36679930Y-157116295D01*
X36827000Y-156376927D01*
X36827000Y-155623073D01*
X36679930Y-154883705D01*
X36391443Y-154187236D01*
X36031705Y-153648849D01*
X55723000Y-153648849D01*
X55723000Y-153851151D01*
X55762467Y-154049565D01*
X55839885Y-154236467D01*
X55952277Y-154404674D01*
X56095326Y-154547723D01*
X56263533Y-154660115D01*
X56450435Y-154737533D01*
X56648849Y-154777000D01*
X56851151Y-154777000D01*
X57049565Y-154737533D01*
X57236467Y-154660115D01*
X57404674Y-154547723D01*
X57547723Y-154404674D01*
X57660115Y-154236467D01*
X57737533Y-154049565D01*
X57749162Y-153991104D01*
X58363266Y-153377000D01*
X66706921Y-153377000D01*
X66750000Y-153381243D01*
X66793079Y-153377000D01*
X67386735Y-153377000D01*
X68123000Y-154113266D01*
X68123001Y-155463972D01*
X68089885Y-155513533D01*
X68012467Y-155700435D01*
X67973000Y-155898849D01*
X67973000Y-156101151D01*
X68012467Y-156299565D01*
X68089885Y-156486467D01*
X68123000Y-156536028D01*
X68123001Y-158713972D01*
X68089885Y-158763533D01*
X68012467Y-158950435D01*
X67973000Y-159148849D01*
X67973000Y-159351151D01*
X68012467Y-159549565D01*
X68089885Y-159736467D01*
X68202277Y-159904674D01*
X68345326Y-160047723D01*
X68513533Y-160160115D01*
X68700435Y-160237533D01*
X68898849Y-160277000D01*
X69101151Y-160277000D01*
X69299565Y-160237533D01*
X69486467Y-160160115D01*
X69654674Y-160047723D01*
X69797723Y-159904674D01*
X69910115Y-159736467D01*
X69987533Y-159549565D01*
X70027000Y-159351151D01*
X70027000Y-159148849D01*
X69987533Y-158950435D01*
X69910115Y-158763533D01*
X69877000Y-158713973D01*
X69877000Y-157833692D01*
X69885690Y-157921922D01*
X69935838Y-158087236D01*
X70017274Y-158239592D01*
X70099406Y-158339671D01*
X70099409Y-158339674D01*
X70126868Y-158373133D01*
X70160327Y-158400592D01*
X71019967Y-159260233D01*
X71019967Y-160350000D01*
X71032073Y-160472913D01*
X71067925Y-160591103D01*
X71126147Y-160700028D01*
X71204499Y-160795501D01*
X71299972Y-160873853D01*
X71408897Y-160932075D01*
X71527087Y-160967927D01*
X71650000Y-160980033D01*
X73350000Y-160980033D01*
X73472913Y-160967927D01*
X73591103Y-160932075D01*
X73700028Y-160873853D01*
X73795501Y-160795501D01*
X73873853Y-160700028D01*
X73932075Y-160591103D01*
X73957731Y-160506525D01*
X74098467Y-160647261D01*
X74340378Y-160808901D01*
X74609175Y-160920240D01*
X74894528Y-160977000D01*
X75185472Y-160977000D01*
X75470825Y-160920240D01*
X75739622Y-160808901D01*
X75981533Y-160647261D01*
X76187261Y-160441533D01*
X76348901Y-160199622D01*
X76460240Y-159930825D01*
X76517000Y-159645472D01*
X76517000Y-159354528D01*
X76460240Y-159069175D01*
X76348901Y-158800378D01*
X76187261Y-158558467D01*
X75981533Y-158352739D01*
X75919168Y-158311068D01*
X75921243Y-158290000D01*
X75904310Y-158118077D01*
X75854162Y-157952764D01*
X75854162Y-157952763D01*
X75772727Y-157800408D01*
X75663133Y-157666867D01*
X75629669Y-157639404D01*
X75400594Y-157410329D01*
X75373133Y-157376867D01*
X75239592Y-157267273D01*
X75087237Y-157185838D01*
X74921922Y-157135690D01*
X74876771Y-157131243D01*
X74750000Y-157118757D01*
X74706921Y-157123000D01*
X73877000Y-157123000D01*
X73877000Y-156286027D01*
X73910115Y-156236467D01*
X73987533Y-156049565D01*
X74027000Y-155851151D01*
X74027000Y-155648849D01*
X73987533Y-155450435D01*
X73910115Y-155263533D01*
X73797723Y-155095326D01*
X73654674Y-154952277D01*
X73486467Y-154839885D01*
X73299565Y-154762467D01*
X73101151Y-154723000D01*
X72898849Y-154723000D01*
X72700435Y-154762467D01*
X72513533Y-154839885D01*
X72345326Y-154952277D01*
X72202277Y-155095326D01*
X72089885Y-155263533D01*
X72012467Y-155450435D01*
X71973000Y-155648849D01*
X71973000Y-155851151D01*
X72012467Y-156049565D01*
X72089885Y-156236467D01*
X72123000Y-156286028D01*
X72123001Y-157456911D01*
X72118757Y-157500000D01*
X72135690Y-157671922D01*
X72185838Y-157837236D01*
X72267274Y-157989592D01*
X72292202Y-158019967D01*
X72260233Y-158019967D01*
X71627000Y-157386735D01*
X71627000Y-156036027D01*
X71660115Y-155986467D01*
X71737533Y-155799565D01*
X71777000Y-155601151D01*
X71777000Y-155398849D01*
X71737533Y-155200435D01*
X71660115Y-155013533D01*
X71547723Y-154845326D01*
X71404674Y-154702277D01*
X71236467Y-154589885D01*
X71049565Y-154512467D01*
X70851151Y-154473000D01*
X70648849Y-154473000D01*
X70450435Y-154512467D01*
X70263533Y-154589885D01*
X70095326Y-154702277D01*
X69952277Y-154845326D01*
X69877000Y-154957986D01*
X69877000Y-153793079D01*
X69881243Y-153750000D01*
X69864310Y-153578077D01*
X69814162Y-153412763D01*
X69788263Y-153364310D01*
X69732727Y-153260408D01*
X69703668Y-153224999D01*
X69650594Y-153160328D01*
X69650592Y-153160326D01*
X69623133Y-153126867D01*
X69589675Y-153099409D01*
X69139115Y-152648849D01*
X77723000Y-152648849D01*
X77723000Y-152851151D01*
X77762467Y-153049565D01*
X77839885Y-153236467D01*
X77952277Y-153404674D01*
X78095326Y-153547723D01*
X78174985Y-153600949D01*
X78186877Y-153721687D01*
X78236955Y-153886775D01*
X78318279Y-154038921D01*
X78427722Y-154172278D01*
X78522427Y-154250000D01*
X78427722Y-154327722D01*
X78318279Y-154461079D01*
X78236955Y-154613225D01*
X78186877Y-154778313D01*
X78169967Y-154949999D01*
X78169967Y-155600001D01*
X78186877Y-155771687D01*
X78236955Y-155936775D01*
X78318279Y-156088921D01*
X78364497Y-156145238D01*
X78160332Y-156349403D01*
X78126867Y-156376867D01*
X78017273Y-156510409D01*
X77976208Y-156587237D01*
X77935838Y-156662764D01*
X77885690Y-156828078D01*
X77868757Y-157000000D01*
X77873000Y-157043080D01*
X77873001Y-158706911D01*
X77868757Y-158750000D01*
X77885690Y-158921922D01*
X77935838Y-159087236D01*
X78017274Y-159239592D01*
X78099406Y-159339671D01*
X78099409Y-159339674D01*
X78126868Y-159373133D01*
X78160327Y-159400592D01*
X78599403Y-159839668D01*
X78626867Y-159873133D01*
X78760408Y-159982727D01*
X78882008Y-160047723D01*
X78912763Y-160064162D01*
X79078077Y-160114310D01*
X79112899Y-160117740D01*
X79115000Y-160264250D01*
X79273750Y-160423000D01*
X80373000Y-160423000D01*
X80373000Y-160403000D01*
X80627000Y-160403000D01*
X80627000Y-160423000D01*
X81726250Y-160423000D01*
X81885000Y-160264250D01*
X81888072Y-160050000D01*
X81875812Y-159925518D01*
X81863891Y-159886219D01*
X81867927Y-159872913D01*
X81880033Y-159750000D01*
X81880033Y-158750000D01*
X81867927Y-158627087D01*
X81859710Y-158600000D01*
X81867927Y-158572913D01*
X81880033Y-158450000D01*
X81880033Y-157450000D01*
X81867927Y-157327087D01*
X81832075Y-157208897D01*
X81773853Y-157099972D01*
X81695501Y-157004499D01*
X81600028Y-156926147D01*
X81491103Y-156867925D01*
X81372913Y-156832073D01*
X81250000Y-156819967D01*
X80166765Y-156819967D01*
X80232727Y-156739592D01*
X80314162Y-156587237D01*
X80364310Y-156421922D01*
X80369542Y-156368805D01*
X80438921Y-156331721D01*
X80572278Y-156222278D01*
X80681721Y-156088921D01*
X80763045Y-155936775D01*
X80813123Y-155771687D01*
X80830033Y-155600001D01*
X80830033Y-154949999D01*
X80813123Y-154778313D01*
X80763045Y-154613225D01*
X80681721Y-154461079D01*
X80572278Y-154327722D01*
X80477573Y-154250000D01*
X80572278Y-154172278D01*
X80681721Y-154038921D01*
X80763045Y-153886775D01*
X80813123Y-153721687D01*
X80830033Y-153550001D01*
X80830033Y-152899999D01*
X80813123Y-152728313D01*
X80763045Y-152563225D01*
X80681721Y-152411079D01*
X80572278Y-152277722D01*
X80438921Y-152168279D01*
X80286775Y-152086955D01*
X80121687Y-152036877D01*
X79950001Y-152019967D01*
X79472364Y-152019967D01*
X79404674Y-151952277D01*
X79236467Y-151839885D01*
X79049565Y-151762467D01*
X78851151Y-151723000D01*
X78648849Y-151723000D01*
X78450435Y-151762467D01*
X78263533Y-151839885D01*
X78095326Y-151952277D01*
X77952277Y-152095326D01*
X77839885Y-152263533D01*
X77762467Y-152450435D01*
X77723000Y-152648849D01*
X69139115Y-152648849D01*
X68490265Y-152000000D01*
X68927810Y-151562456D01*
X69704973Y-151562456D01*
X69754533Y-151595571D01*
X69772625Y-151603065D01*
X69776406Y-151641457D01*
X69826484Y-151806545D01*
X69907808Y-151958691D01*
X70017251Y-152092048D01*
X70150608Y-152201491D01*
X70302754Y-152282815D01*
X70467842Y-152332893D01*
X70639528Y-152349803D01*
X71539530Y-152349803D01*
X71711216Y-152332893D01*
X71876304Y-152282815D01*
X72028450Y-152201491D01*
X72125591Y-152121770D01*
X72316208Y-152121770D01*
X72413349Y-152201491D01*
X72565495Y-152282815D01*
X72730583Y-152332893D01*
X72902269Y-152349803D01*
X73802271Y-152349803D01*
X73973957Y-152332893D01*
X74139045Y-152282815D01*
X74291191Y-152201491D01*
X74409324Y-152104542D01*
X74463827Y-152170955D01*
X74560518Y-152250307D01*
X74670832Y-152309272D01*
X74790530Y-152345582D01*
X74915012Y-152357842D01*
X75329262Y-152354770D01*
X75488012Y-152196020D01*
X75488012Y-151271770D01*
X75742012Y-151271770D01*
X75742012Y-152196020D01*
X75900762Y-152354770D01*
X76315012Y-152357842D01*
X76439494Y-152345582D01*
X76559192Y-152309272D01*
X76669506Y-152250307D01*
X76766197Y-152170955D01*
X76845549Y-152074264D01*
X76904514Y-151963950D01*
X76940824Y-151844252D01*
X76953084Y-151719770D01*
X76950012Y-151430520D01*
X76791262Y-151271770D01*
X75742012Y-151271770D01*
X75488012Y-151271770D01*
X75468012Y-151271770D01*
X75468012Y-151017770D01*
X75488012Y-151017770D01*
X75488012Y-150997770D01*
X75742012Y-150997770D01*
X75742012Y-151017770D01*
X76791262Y-151017770D01*
X76950012Y-150859020D01*
X76953084Y-150569770D01*
X76940824Y-150445288D01*
X76904514Y-150325590D01*
X76845549Y-150215276D01*
X76766197Y-150118585D01*
X76709154Y-150071771D01*
X77667840Y-150071771D01*
X77784095Y-150213429D01*
X77955704Y-150354264D01*
X78151490Y-150458914D01*
X78363930Y-150523356D01*
X78584860Y-150545116D01*
X78805790Y-150523356D01*
X79018230Y-150458914D01*
X79214016Y-150354264D01*
X79342620Y-150248722D01*
X82607764Y-146983579D01*
X82650765Y-146948289D01*
X82686055Y-146905288D01*
X82686058Y-146905285D01*
X82791600Y-146776681D01*
X82896249Y-146580896D01*
X82896250Y-146580895D01*
X82960693Y-146368454D01*
X82977000Y-146202888D01*
X82977000Y-146202879D01*
X82982452Y-146147525D01*
X82977000Y-146092170D01*
X82977000Y-145344635D01*
X82960693Y-145179069D01*
X82896250Y-144966629D01*
X82791600Y-144770843D01*
X82650765Y-144599235D01*
X82479157Y-144458400D01*
X82283370Y-144353750D01*
X82070930Y-144289307D01*
X81850000Y-144267547D01*
X81629069Y-144289307D01*
X81416629Y-144353750D01*
X81238138Y-144449156D01*
X81149565Y-144412467D01*
X80951151Y-144373000D01*
X80748849Y-144373000D01*
X80550435Y-144412467D01*
X80363533Y-144489885D01*
X80195326Y-144602277D01*
X80052277Y-144745326D01*
X79939885Y-144913533D01*
X79862467Y-145100435D01*
X79823000Y-145298849D01*
X79823000Y-145501151D01*
X79862467Y-145699565D01*
X79939885Y-145886467D01*
X80052277Y-146054674D01*
X80195326Y-146197723D01*
X80201714Y-146201991D01*
X78288537Y-148115168D01*
X78266969Y-148113044D01*
X78218976Y-148117771D01*
X76651075Y-148117771D01*
X76553933Y-148038049D01*
X76502525Y-148010571D01*
X76431288Y-147877296D01*
X76309198Y-147728528D01*
X76271914Y-147697930D01*
X75969975Y-147395991D01*
X75959442Y-147370562D01*
X75847050Y-147202355D01*
X75704001Y-147059306D01*
X75535794Y-146946914D01*
X75348892Y-146869496D01*
X75150478Y-146830029D01*
X74948176Y-146830029D01*
X74749762Y-146869496D01*
X74562860Y-146946914D01*
X74394653Y-147059306D01*
X74251604Y-147202355D01*
X74139212Y-147370562D01*
X74061794Y-147557464D01*
X74022327Y-147755878D01*
X74022327Y-147881920D01*
X73638020Y-147884770D01*
X73479270Y-148043520D01*
X73479270Y-148967770D01*
X73499270Y-148967770D01*
X73499270Y-149221770D01*
X73479270Y-149221770D01*
X73479270Y-149241770D01*
X73225270Y-149241770D01*
X73225270Y-149221770D01*
X71216529Y-149221770D01*
X71216529Y-149241770D01*
X70962529Y-149241770D01*
X70962529Y-149221770D01*
X69913279Y-149221770D01*
X69754529Y-149380520D01*
X69751457Y-149669770D01*
X69761568Y-149772427D01*
X69754533Y-149775341D01*
X69704973Y-149808456D01*
X68607623Y-149808456D01*
X68564544Y-149804213D01*
X68392621Y-149821146D01*
X68251306Y-149864014D01*
X68227307Y-149871294D01*
X68074952Y-149952729D01*
X68074950Y-149952730D01*
X68074951Y-149952730D01*
X68004435Y-150010601D01*
X67941411Y-150062323D01*
X67913952Y-150095782D01*
X66386735Y-151623000D01*
X58043079Y-151623000D01*
X58000000Y-151618757D01*
X57828077Y-151635690D01*
X57705120Y-151672989D01*
X57662763Y-151685838D01*
X57510408Y-151767273D01*
X57483032Y-151789740D01*
X57416609Y-151844252D01*
X57376867Y-151876867D01*
X57349408Y-151910326D01*
X56508896Y-152750838D01*
X56450435Y-152762467D01*
X56263533Y-152839885D01*
X56095326Y-152952277D01*
X55952277Y-153095326D01*
X55839885Y-153263533D01*
X55762467Y-153450435D01*
X55723000Y-153648849D01*
X36031705Y-153648849D01*
X35972625Y-153560430D01*
X35439570Y-153027375D01*
X34812764Y-152608557D01*
X34116295Y-152320070D01*
X33376927Y-152173000D01*
X32623073Y-152173000D01*
X31883705Y-152320070D01*
X31187236Y-152608557D01*
X30560430Y-153027375D01*
X30027375Y-153560430D01*
X29608557Y-154187236D01*
X29320070Y-154883705D01*
X29173000Y-155623073D01*
X27652000Y-155623073D01*
X27652000Y-148519770D01*
X69751457Y-148519770D01*
X69754529Y-148809020D01*
X69913279Y-148967770D01*
X70962529Y-148967770D01*
X70962529Y-148043520D01*
X71216529Y-148043520D01*
X71216529Y-148967770D01*
X73225270Y-148967770D01*
X73225270Y-148043520D01*
X73066520Y-147884770D01*
X72652270Y-147881698D01*
X72527788Y-147893958D01*
X72408090Y-147930268D01*
X72297776Y-147989233D01*
X72220900Y-148052324D01*
X72144023Y-147989233D01*
X72033709Y-147930268D01*
X71914011Y-147893958D01*
X71789529Y-147881698D01*
X71375279Y-147884770D01*
X71216529Y-148043520D01*
X70962529Y-148043520D01*
X70803779Y-147884770D01*
X70389529Y-147881698D01*
X70265047Y-147893958D01*
X70145349Y-147930268D01*
X70035035Y-147989233D01*
X69938344Y-148068585D01*
X69858992Y-148165276D01*
X69800027Y-148275590D01*
X69763717Y-148395288D01*
X69751457Y-148519770D01*
X27652000Y-148519770D01*
X27652000Y-142550000D01*
X31169967Y-142550000D01*
X31169967Y-143350000D01*
X31182073Y-143472913D01*
X31217925Y-143591103D01*
X31276147Y-143700028D01*
X31354499Y-143795501D01*
X31449972Y-143873853D01*
X31558897Y-143932075D01*
X31677087Y-143967927D01*
X31800000Y-143980033D01*
X33700000Y-143980033D01*
X33822913Y-143967927D01*
X33941103Y-143932075D01*
X34050028Y-143873853D01*
X34145501Y-143795501D01*
X34169967Y-143765689D01*
X34169967Y-144300000D01*
X34182073Y-144422913D01*
X34217925Y-144541103D01*
X34276147Y-144650028D01*
X34354499Y-144745501D01*
X34449972Y-144823853D01*
X34558897Y-144882075D01*
X34677087Y-144917927D01*
X34800000Y-144930033D01*
X36700000Y-144930033D01*
X36822913Y-144917927D01*
X36941103Y-144882075D01*
X37050028Y-144823853D01*
X37145501Y-144745501D01*
X37223853Y-144650028D01*
X37282075Y-144541103D01*
X37317927Y-144422913D01*
X37330033Y-144300000D01*
X37330033Y-143500000D01*
X37317927Y-143377087D01*
X37282075Y-143258897D01*
X37223853Y-143149972D01*
X37145501Y-143054499D01*
X37050028Y-142976147D01*
X37009596Y-142954536D01*
X37054494Y-142930537D01*
X37151185Y-142851185D01*
X37230537Y-142754494D01*
X37289502Y-142644180D01*
X37318071Y-142550000D01*
X40119967Y-142550000D01*
X40119967Y-143350000D01*
X40132073Y-143472913D01*
X40167925Y-143591103D01*
X40226147Y-143700028D01*
X40304499Y-143795501D01*
X40399972Y-143873853D01*
X40508897Y-143932075D01*
X40627087Y-143967927D01*
X40750000Y-143980033D01*
X42650000Y-143980033D01*
X42772913Y-143967927D01*
X42891103Y-143932075D01*
X43000028Y-143873853D01*
X43095501Y-143795501D01*
X43119967Y-143765689D01*
X43119967Y-144300000D01*
X43132073Y-144422913D01*
X43167925Y-144541103D01*
X43226147Y-144650028D01*
X43304499Y-144745501D01*
X43399972Y-144823853D01*
X43508897Y-144882075D01*
X43627087Y-144917927D01*
X43750000Y-144930033D01*
X45650000Y-144930033D01*
X45772913Y-144917927D01*
X45891103Y-144882075D01*
X46000028Y-144823853D01*
X46095501Y-144745501D01*
X46173853Y-144650028D01*
X46232075Y-144541103D01*
X46267927Y-144422913D01*
X46280033Y-144300000D01*
X46280033Y-143500000D01*
X46267927Y-143377087D01*
X46232075Y-143258897D01*
X46173853Y-143149972D01*
X46095501Y-143054499D01*
X46000028Y-142976147D01*
X45959596Y-142954536D01*
X46004494Y-142930537D01*
X46101185Y-142851185D01*
X46180537Y-142754494D01*
X46239502Y-142644180D01*
X46268071Y-142550000D01*
X49419967Y-142550000D01*
X49419967Y-143350000D01*
X49432073Y-143472913D01*
X49467925Y-143591103D01*
X49526147Y-143700028D01*
X49604499Y-143795501D01*
X49699972Y-143873853D01*
X49808897Y-143932075D01*
X49927087Y-143967927D01*
X50050000Y-143980033D01*
X51950000Y-143980033D01*
X52072913Y-143967927D01*
X52191103Y-143932075D01*
X52300028Y-143873853D01*
X52395501Y-143795501D01*
X52419967Y-143765689D01*
X52419967Y-144300000D01*
X52432073Y-144422913D01*
X52467925Y-144541103D01*
X52526147Y-144650028D01*
X52604499Y-144745501D01*
X52699972Y-144823853D01*
X52808897Y-144882075D01*
X52927087Y-144917927D01*
X53050000Y-144930033D01*
X54950000Y-144930033D01*
X55072913Y-144917927D01*
X55191103Y-144882075D01*
X55300028Y-144823853D01*
X55395501Y-144745501D01*
X55473853Y-144650028D01*
X55532075Y-144541103D01*
X55567927Y-144422913D01*
X55580033Y-144300000D01*
X55580033Y-143500000D01*
X55567927Y-143377087D01*
X55532075Y-143258897D01*
X55473853Y-143149972D01*
X55395501Y-143054499D01*
X55300028Y-142976147D01*
X55259596Y-142954536D01*
X55304494Y-142930537D01*
X55401185Y-142851185D01*
X55480537Y-142754494D01*
X55539502Y-142644180D01*
X55568071Y-142550000D01*
X58369967Y-142550000D01*
X58369967Y-143350000D01*
X58382073Y-143472913D01*
X58417925Y-143591103D01*
X58476147Y-143700028D01*
X58554499Y-143795501D01*
X58649972Y-143873853D01*
X58758897Y-143932075D01*
X58877087Y-143967927D01*
X59000000Y-143980033D01*
X60232329Y-143980033D01*
X60250435Y-143987533D01*
X60448849Y-144027000D01*
X60651151Y-144027000D01*
X60849565Y-143987533D01*
X60867671Y-143980033D01*
X60900000Y-143980033D01*
X61022913Y-143967927D01*
X61141103Y-143932075D01*
X61250028Y-143873853D01*
X61345501Y-143795501D01*
X61369967Y-143765689D01*
X61369967Y-144300000D01*
X61382073Y-144422913D01*
X61417925Y-144541103D01*
X61476147Y-144650028D01*
X61554499Y-144745501D01*
X61649972Y-144823853D01*
X61758897Y-144882075D01*
X61877087Y-144917927D01*
X62000000Y-144930033D01*
X63900000Y-144930033D01*
X64022913Y-144917927D01*
X64141103Y-144882075D01*
X64250028Y-144823853D01*
X64345501Y-144745501D01*
X64423853Y-144650028D01*
X64482075Y-144541103D01*
X64517927Y-144422913D01*
X64530033Y-144300000D01*
X64530033Y-143500000D01*
X64517927Y-143377087D01*
X64482075Y-143258897D01*
X64423853Y-143149972D01*
X64345501Y-143054499D01*
X64250028Y-142976147D01*
X64209596Y-142954536D01*
X64254494Y-142930537D01*
X64351185Y-142851185D01*
X64430537Y-142754494D01*
X64489502Y-142644180D01*
X64525812Y-142524482D01*
X64538072Y-142400000D01*
X64535000Y-142285750D01*
X64376250Y-142127000D01*
X63077000Y-142127000D01*
X63077000Y-142147000D01*
X62823000Y-142147000D01*
X62823000Y-142127000D01*
X61523750Y-142127000D01*
X61433232Y-142217518D01*
X61423853Y-142199972D01*
X61345501Y-142104499D01*
X61250028Y-142026147D01*
X61141103Y-141967925D01*
X61022913Y-141932073D01*
X60900000Y-141919967D01*
X59000000Y-141919967D01*
X58877087Y-141932073D01*
X58758897Y-141967925D01*
X58649972Y-142026147D01*
X58554499Y-142104499D01*
X58476147Y-142199972D01*
X58417925Y-142308897D01*
X58382073Y-142427087D01*
X58369967Y-142550000D01*
X55568071Y-142550000D01*
X55575812Y-142524482D01*
X55588072Y-142400000D01*
X55585000Y-142285750D01*
X55426250Y-142127000D01*
X54127000Y-142127000D01*
X54127000Y-142147000D01*
X53873000Y-142147000D01*
X53873000Y-142127000D01*
X52573750Y-142127000D01*
X52483232Y-142217518D01*
X52473853Y-142199972D01*
X52395501Y-142104499D01*
X52300028Y-142026147D01*
X52191103Y-141967925D01*
X52072913Y-141932073D01*
X51950000Y-141919967D01*
X50050000Y-141919967D01*
X49927087Y-141932073D01*
X49808897Y-141967925D01*
X49699972Y-142026147D01*
X49604499Y-142104499D01*
X49526147Y-142199972D01*
X49467925Y-142308897D01*
X49432073Y-142427087D01*
X49419967Y-142550000D01*
X46268071Y-142550000D01*
X46275812Y-142524482D01*
X46288072Y-142400000D01*
X46285000Y-142285750D01*
X46126250Y-142127000D01*
X44827000Y-142127000D01*
X44827000Y-142147000D01*
X44573000Y-142147000D01*
X44573000Y-142127000D01*
X43273750Y-142127000D01*
X43183232Y-142217518D01*
X43173853Y-142199972D01*
X43095501Y-142104499D01*
X43000028Y-142026147D01*
X42891103Y-141967925D01*
X42772913Y-141932073D01*
X42650000Y-141919967D01*
X40750000Y-141919967D01*
X40627087Y-141932073D01*
X40508897Y-141967925D01*
X40399972Y-142026147D01*
X40304499Y-142104499D01*
X40226147Y-142199972D01*
X40167925Y-142308897D01*
X40132073Y-142427087D01*
X40119967Y-142550000D01*
X37318071Y-142550000D01*
X37325812Y-142524482D01*
X37338072Y-142400000D01*
X37335000Y-142285750D01*
X37176250Y-142127000D01*
X35877000Y-142127000D01*
X35877000Y-142147000D01*
X35623000Y-142147000D01*
X35623000Y-142127000D01*
X34323750Y-142127000D01*
X34233232Y-142217518D01*
X34223853Y-142199972D01*
X34145501Y-142104499D01*
X34050028Y-142026147D01*
X33941103Y-141967925D01*
X33822913Y-141932073D01*
X33700000Y-141919967D01*
X31800000Y-141919967D01*
X31677087Y-141932073D01*
X31558897Y-141967925D01*
X31449972Y-142026147D01*
X31354499Y-142104499D01*
X31276147Y-142199972D01*
X31217925Y-142308897D01*
X31182073Y-142427087D01*
X31169967Y-142550000D01*
X27652000Y-142550000D01*
X27652000Y-140298849D01*
X33173000Y-140298849D01*
X33173000Y-140501151D01*
X33212467Y-140699565D01*
X33289885Y-140886467D01*
X33402277Y-141054674D01*
X33545326Y-141197723D01*
X33713533Y-141310115D01*
X33900435Y-141387533D01*
X34098849Y-141427000D01*
X34188906Y-141427000D01*
X34174188Y-141475518D01*
X34161928Y-141600000D01*
X34165000Y-141714250D01*
X34323750Y-141873000D01*
X35623000Y-141873000D01*
X35623000Y-141853000D01*
X35877000Y-141853000D01*
X35877000Y-141873000D01*
X37176250Y-141873000D01*
X37335000Y-141714250D01*
X37338072Y-141600000D01*
X37325812Y-141475518D01*
X37289502Y-141355820D01*
X37274097Y-141327000D01*
X42704297Y-141327000D01*
X42766028Y-141352570D01*
X42774310Y-141356997D01*
X42783296Y-141359723D01*
X42850435Y-141387533D01*
X42921710Y-141401711D01*
X42958475Y-141412863D01*
X42996710Y-141416629D01*
X43048849Y-141427000D01*
X43102007Y-141427000D01*
X43137835Y-141430529D01*
X43124188Y-141475518D01*
X43111928Y-141600000D01*
X43115000Y-141714250D01*
X43273750Y-141873000D01*
X44573000Y-141873000D01*
X44573000Y-141853000D01*
X44827000Y-141853000D01*
X44827000Y-141873000D01*
X46126250Y-141873000D01*
X46285000Y-141714250D01*
X46288072Y-141600000D01*
X46275812Y-141475518D01*
X46239502Y-141355820D01*
X46224097Y-141327000D01*
X52054297Y-141327000D01*
X52200435Y-141387533D01*
X52398849Y-141427000D01*
X52438906Y-141427000D01*
X52424188Y-141475518D01*
X52411928Y-141600000D01*
X52415000Y-141714250D01*
X52573750Y-141873000D01*
X53873000Y-141873000D01*
X53873000Y-141853000D01*
X54127000Y-141853000D01*
X54127000Y-141873000D01*
X55426250Y-141873000D01*
X55585000Y-141714250D01*
X55588072Y-141600000D01*
X55575812Y-141475518D01*
X55539502Y-141355820D01*
X55524097Y-141327000D01*
X61004297Y-141327000D01*
X61150435Y-141387533D01*
X61348849Y-141427000D01*
X61388906Y-141427000D01*
X61374188Y-141475518D01*
X61361928Y-141600000D01*
X61365000Y-141714250D01*
X61523750Y-141873000D01*
X62823000Y-141873000D01*
X62823000Y-141123750D01*
X63077000Y-141123750D01*
X63077000Y-141873000D01*
X64376250Y-141873000D01*
X64535000Y-141714250D01*
X64538072Y-141600000D01*
X64525812Y-141475518D01*
X64489502Y-141355820D01*
X64430537Y-141245506D01*
X64351185Y-141148815D01*
X64254494Y-141069463D01*
X64144180Y-141010498D01*
X64024482Y-140974188D01*
X63900000Y-140961928D01*
X63235750Y-140965000D01*
X63077000Y-141123750D01*
X62823000Y-141123750D01*
X62664250Y-140965000D01*
X62308740Y-140963356D01*
X62360115Y-140886467D01*
X62437533Y-140699565D01*
X62477000Y-140501151D01*
X62477000Y-140298849D01*
X62437533Y-140100435D01*
X62360115Y-139913533D01*
X62247723Y-139745326D01*
X62104674Y-139602277D01*
X61936467Y-139489885D01*
X61833976Y-139447432D01*
X61825691Y-139443003D01*
X61816701Y-139440276D01*
X61749565Y-139412467D01*
X61678290Y-139398290D01*
X61641525Y-139387137D01*
X61603290Y-139383371D01*
X61551151Y-139373000D01*
X52547993Y-139373000D01*
X52500000Y-139368273D01*
X52452007Y-139373000D01*
X43297990Y-139373000D01*
X43249999Y-139368273D01*
X43202009Y-139373000D01*
X34098849Y-139373000D01*
X34046710Y-139383371D01*
X34008475Y-139387137D01*
X33971710Y-139398290D01*
X33900435Y-139412467D01*
X33833299Y-139440276D01*
X33824309Y-139443003D01*
X33816024Y-139447432D01*
X33713533Y-139489885D01*
X33545326Y-139602277D01*
X33402277Y-139745326D01*
X33289885Y-139913533D01*
X33212467Y-140100435D01*
X33173000Y-140298849D01*
X27652000Y-140298849D01*
X27652000Y-126500000D01*
X28873000Y-126500000D01*
X28873000Y-134000000D01*
X28875440Y-134024776D01*
X28882667Y-134048601D01*
X28894403Y-134070557D01*
X28910197Y-134089803D01*
X28929443Y-134105597D01*
X28951399Y-134117333D01*
X28975224Y-134124560D01*
X29000000Y-134127000D01*
X36500000Y-134127000D01*
X36524776Y-134124560D01*
X36548601Y-134117333D01*
X36570557Y-134105597D01*
X36589803Y-134089803D01*
X36605597Y-134070557D01*
X36617333Y-134048601D01*
X36624560Y-134024776D01*
X36627000Y-134000000D01*
X36627000Y-126500000D01*
X37873000Y-126500000D01*
X37873000Y-134000000D01*
X37875440Y-134024776D01*
X37882667Y-134048601D01*
X37894403Y-134070557D01*
X37910197Y-134089803D01*
X37929443Y-134105597D01*
X37951399Y-134117333D01*
X37975224Y-134124560D01*
X38000000Y-134127000D01*
X45500000Y-134127000D01*
X45524776Y-134124560D01*
X45548601Y-134117333D01*
X45570557Y-134105597D01*
X45589803Y-134089803D01*
X45605597Y-134070557D01*
X45617333Y-134048601D01*
X45624560Y-134024776D01*
X45627000Y-134000000D01*
X45627000Y-126500000D01*
X46873000Y-126500000D01*
X46873000Y-134000000D01*
X46875440Y-134024776D01*
X46882667Y-134048601D01*
X46894403Y-134070557D01*
X46910197Y-134089803D01*
X46929443Y-134105597D01*
X46951399Y-134117333D01*
X46975224Y-134124560D01*
X47000000Y-134127000D01*
X54500000Y-134127000D01*
X54524776Y-134124560D01*
X54548601Y-134117333D01*
X54570557Y-134105597D01*
X54589803Y-134089803D01*
X54605597Y-134070557D01*
X54617333Y-134048601D01*
X54624560Y-134024776D01*
X54627000Y-134000000D01*
X54627000Y-126500000D01*
X55873000Y-126500000D01*
X55873000Y-134000000D01*
X55875440Y-134024776D01*
X55882667Y-134048601D01*
X55894403Y-134070557D01*
X55910197Y-134089803D01*
X55929443Y-134105597D01*
X55951399Y-134117333D01*
X55975224Y-134124560D01*
X56000000Y-134127000D01*
X63500000Y-134127000D01*
X63524776Y-134124560D01*
X63548601Y-134117333D01*
X63570557Y-134105597D01*
X63589803Y-134089803D01*
X63605597Y-134070557D01*
X63617333Y-134048601D01*
X63624560Y-134024776D01*
X63627000Y-134000000D01*
X63627000Y-130150000D01*
X73061928Y-130150000D01*
X73074188Y-130274482D01*
X73110498Y-130394180D01*
X73169463Y-130504494D01*
X73248815Y-130601185D01*
X73334899Y-130671832D01*
X73327722Y-130677722D01*
X73218279Y-130811079D01*
X73136955Y-130963225D01*
X73086877Y-131128313D01*
X73069967Y-131299999D01*
X73069967Y-131950001D01*
X73086877Y-132121687D01*
X73136955Y-132286775D01*
X73218279Y-132438921D01*
X73327722Y-132572278D01*
X73461079Y-132681721D01*
X73613225Y-132763045D01*
X73778313Y-132813123D01*
X73949999Y-132830033D01*
X74850001Y-132830033D01*
X75021687Y-132813123D01*
X75186775Y-132763045D01*
X75195943Y-132758145D01*
X75299565Y-132737533D01*
X75486467Y-132660115D01*
X75654674Y-132547723D01*
X75797723Y-132404674D01*
X75910115Y-132236467D01*
X75987533Y-132049565D01*
X76027000Y-131851151D01*
X76027000Y-131648849D01*
X75987533Y-131450435D01*
X75910115Y-131263533D01*
X75797723Y-131095326D01*
X75660086Y-130957689D01*
X75581721Y-130811079D01*
X75472278Y-130677722D01*
X75465101Y-130671832D01*
X75551185Y-130601185D01*
X75630537Y-130504494D01*
X75689502Y-130394180D01*
X75725812Y-130274482D01*
X75738072Y-130150000D01*
X75735000Y-129860750D01*
X75576250Y-129702000D01*
X74527000Y-129702000D01*
X74527000Y-129722000D01*
X74273000Y-129722000D01*
X74273000Y-129702000D01*
X73223750Y-129702000D01*
X73065000Y-129860750D01*
X73061928Y-130150000D01*
X63627000Y-130150000D01*
X63627000Y-127199999D01*
X72169967Y-127199999D01*
X72169967Y-128100001D01*
X72186877Y-128271687D01*
X72236955Y-128436775D01*
X72318279Y-128588921D01*
X72427722Y-128722278D01*
X72561079Y-128831721D01*
X72713225Y-128913045D01*
X72878313Y-128963123D01*
X73049999Y-128980033D01*
X73063895Y-128980033D01*
X73061928Y-129000000D01*
X73065000Y-129289250D01*
X73223750Y-129448000D01*
X74273000Y-129448000D01*
X74273000Y-129428000D01*
X74527000Y-129428000D01*
X74527000Y-129448000D01*
X75576250Y-129448000D01*
X75735000Y-129289250D01*
X75738072Y-129000000D01*
X75736622Y-128985275D01*
X76000000Y-128988072D01*
X76124482Y-128975812D01*
X76244180Y-128939502D01*
X76354494Y-128880537D01*
X76451185Y-128801185D01*
X76530537Y-128704494D01*
X76589502Y-128594180D01*
X76625812Y-128474482D01*
X76638072Y-128350000D01*
X76635000Y-127935750D01*
X76476250Y-127777000D01*
X75552000Y-127777000D01*
X75552000Y-127797000D01*
X75298000Y-127797000D01*
X75298000Y-127777000D01*
X75278000Y-127777000D01*
X75278000Y-127523000D01*
X75298000Y-127523000D01*
X75298000Y-126473750D01*
X75552000Y-126473750D01*
X75552000Y-127523000D01*
X76476250Y-127523000D01*
X76635000Y-127364250D01*
X76638072Y-126950000D01*
X76625812Y-126825518D01*
X76589502Y-126705820D01*
X76530537Y-126595506D01*
X76451185Y-126498815D01*
X76354494Y-126419463D01*
X76244180Y-126360498D01*
X76124482Y-126324188D01*
X76000000Y-126311928D01*
X75710750Y-126315000D01*
X75552000Y-126473750D01*
X75298000Y-126473750D01*
X75139250Y-126315000D01*
X74850000Y-126311928D01*
X74725518Y-126324188D01*
X74605820Y-126360498D01*
X74495506Y-126419463D01*
X74398815Y-126498815D01*
X74328168Y-126584899D01*
X74322278Y-126577722D01*
X74188921Y-126468279D01*
X74036775Y-126386955D01*
X73871687Y-126336877D01*
X73700001Y-126319967D01*
X73049999Y-126319967D01*
X72878313Y-126336877D01*
X72713225Y-126386955D01*
X72561079Y-126468279D01*
X72427722Y-126577722D01*
X72318279Y-126711079D01*
X72236955Y-126863225D01*
X72186877Y-127028313D01*
X72169967Y-127199999D01*
X63627000Y-127199999D01*
X63627000Y-126500000D01*
X63624560Y-126475224D01*
X63617333Y-126451399D01*
X63605597Y-126429443D01*
X63589803Y-126410197D01*
X63570557Y-126394403D01*
X63548601Y-126382667D01*
X63524776Y-126375440D01*
X63500000Y-126373000D01*
X56000000Y-126373000D01*
X55975224Y-126375440D01*
X55951399Y-126382667D01*
X55929443Y-126394403D01*
X55910197Y-126410197D01*
X55894403Y-126429443D01*
X55882667Y-126451399D01*
X55875440Y-126475224D01*
X55873000Y-126500000D01*
X54627000Y-126500000D01*
X54624560Y-126475224D01*
X54617333Y-126451399D01*
X54605597Y-126429443D01*
X54589803Y-126410197D01*
X54570557Y-126394403D01*
X54548601Y-126382667D01*
X54524776Y-126375440D01*
X54500000Y-126373000D01*
X47000000Y-126373000D01*
X46975224Y-126375440D01*
X46951399Y-126382667D01*
X46929443Y-126394403D01*
X46910197Y-126410197D01*
X46894403Y-126429443D01*
X46882667Y-126451399D01*
X46875440Y-126475224D01*
X46873000Y-126500000D01*
X45627000Y-126500000D01*
X45624560Y-126475224D01*
X45617333Y-126451399D01*
X45605597Y-126429443D01*
X45589803Y-126410197D01*
X45570557Y-126394403D01*
X45548601Y-126382667D01*
X45524776Y-126375440D01*
X45500000Y-126373000D01*
X38000000Y-126373000D01*
X37975224Y-126375440D01*
X37951399Y-126382667D01*
X37929443Y-126394403D01*
X37910197Y-126410197D01*
X37894403Y-126429443D01*
X37882667Y-126451399D01*
X37875440Y-126475224D01*
X37873000Y-126500000D01*
X36627000Y-126500000D01*
X36624560Y-126475224D01*
X36617333Y-126451399D01*
X36605597Y-126429443D01*
X36589803Y-126410197D01*
X36570557Y-126394403D01*
X36548601Y-126382667D01*
X36524776Y-126375440D01*
X36500000Y-126373000D01*
X29000000Y-126373000D01*
X28975224Y-126375440D01*
X28951399Y-126382667D01*
X28929443Y-126394403D01*
X28910197Y-126410197D01*
X28894403Y-126429443D01*
X28882667Y-126451399D01*
X28875440Y-126475224D01*
X28873000Y-126500000D01*
X27652000Y-126500000D01*
X27652000Y-121390509D01*
X29953000Y-121390509D01*
X29953000Y-121809491D01*
X30034739Y-122220423D01*
X30195077Y-122607512D01*
X30427851Y-122955884D01*
X30724116Y-123252149D01*
X31072488Y-123484923D01*
X31459577Y-123645261D01*
X31870509Y-123727000D01*
X32289491Y-123727000D01*
X32700423Y-123645261D01*
X33087512Y-123484923D01*
X33435884Y-123252149D01*
X33732149Y-122955884D01*
X33964923Y-122607512D01*
X34125261Y-122220423D01*
X34207000Y-121809491D01*
X34207000Y-121390509D01*
X35033000Y-121390509D01*
X35033000Y-121809491D01*
X35114739Y-122220423D01*
X35275077Y-122607512D01*
X35507851Y-122955884D01*
X35804116Y-123252149D01*
X36152488Y-123484923D01*
X36539577Y-123645261D01*
X36950509Y-123727000D01*
X37369491Y-123727000D01*
X37780423Y-123645261D01*
X38167512Y-123484923D01*
X38515884Y-123252149D01*
X38812149Y-122955884D01*
X39044923Y-122607512D01*
X39205261Y-122220423D01*
X39287000Y-121809491D01*
X39287000Y-121390509D01*
X40113000Y-121390509D01*
X40113000Y-121809491D01*
X40194739Y-122220423D01*
X40355077Y-122607512D01*
X40587851Y-122955884D01*
X40884116Y-123252149D01*
X41232488Y-123484923D01*
X41619577Y-123645261D01*
X42030509Y-123727000D01*
X42449491Y-123727000D01*
X42860423Y-123645261D01*
X43247512Y-123484923D01*
X43595884Y-123252149D01*
X43892149Y-122955884D01*
X44124923Y-122607512D01*
X44285261Y-122220423D01*
X44367000Y-121809491D01*
X44367000Y-121390509D01*
X45193000Y-121390509D01*
X45193000Y-121809491D01*
X45274739Y-122220423D01*
X45435077Y-122607512D01*
X45667851Y-122955884D01*
X45964116Y-123252149D01*
X46312488Y-123484923D01*
X46699577Y-123645261D01*
X47110509Y-123727000D01*
X47529491Y-123727000D01*
X47940423Y-123645261D01*
X48327512Y-123484923D01*
X48675884Y-123252149D01*
X48972149Y-122955884D01*
X49204923Y-122607512D01*
X49365261Y-122220423D01*
X49447000Y-121809491D01*
X49447000Y-121390509D01*
X49365261Y-120979577D01*
X49204923Y-120592488D01*
X48972149Y-120244116D01*
X48828033Y-120100000D01*
X50269967Y-120100000D01*
X50269967Y-123100000D01*
X50282073Y-123222913D01*
X50317925Y-123341103D01*
X50376147Y-123450028D01*
X50454499Y-123545501D01*
X50549972Y-123623853D01*
X50658897Y-123682075D01*
X50777087Y-123717927D01*
X50900000Y-123730033D01*
X53900000Y-123730033D01*
X54022913Y-123717927D01*
X54141103Y-123682075D01*
X54250028Y-123623853D01*
X54345501Y-123545501D01*
X54423853Y-123450028D01*
X54482075Y-123341103D01*
X54517927Y-123222913D01*
X54530033Y-123100000D01*
X54530033Y-123091653D01*
X57407952Y-123091653D01*
X57563962Y-123407214D01*
X57938745Y-123598020D01*
X58343551Y-123712044D01*
X58762824Y-123744902D01*
X59180451Y-123695334D01*
X59580383Y-123565243D01*
X59876038Y-123407214D01*
X60032048Y-123091653D01*
X58720000Y-121779605D01*
X57407952Y-123091653D01*
X54530033Y-123091653D01*
X54530033Y-121642824D01*
X56575098Y-121642824D01*
X56624666Y-122060451D01*
X56754757Y-122460383D01*
X56912786Y-122756038D01*
X57228347Y-122912048D01*
X58540395Y-121600000D01*
X58899605Y-121600000D01*
X60211653Y-122912048D01*
X60527214Y-122756038D01*
X60718020Y-122381255D01*
X60832044Y-121976449D01*
X60864902Y-121557176D01*
X60815334Y-121139549D01*
X60685243Y-120739617D01*
X60527214Y-120443962D01*
X60211653Y-120287952D01*
X58899605Y-121600000D01*
X58540395Y-121600000D01*
X57228347Y-120287952D01*
X56912786Y-120443962D01*
X56721980Y-120818745D01*
X56607956Y-121223551D01*
X56575098Y-121642824D01*
X54530033Y-121642824D01*
X54530033Y-120108347D01*
X57407952Y-120108347D01*
X58720000Y-121420395D01*
X60032048Y-120108347D01*
X60027922Y-120100000D01*
X61669967Y-120100000D01*
X61669967Y-123100000D01*
X61682073Y-123222913D01*
X61717925Y-123341103D01*
X61776147Y-123450028D01*
X61854499Y-123545501D01*
X61949972Y-123623853D01*
X62058897Y-123682075D01*
X62177087Y-123717927D01*
X62300000Y-123730033D01*
X65300000Y-123730033D01*
X65422913Y-123717927D01*
X65541103Y-123682075D01*
X65650028Y-123623853D01*
X65745501Y-123545501D01*
X65823853Y-123450028D01*
X65882075Y-123341103D01*
X65917927Y-123222913D01*
X65930033Y-123100000D01*
X65930033Y-122623073D01*
X81173000Y-122623073D01*
X81173000Y-123376927D01*
X81320070Y-124116295D01*
X81608557Y-124812764D01*
X82027375Y-125439570D01*
X82560430Y-125972625D01*
X83187236Y-126391443D01*
X83883705Y-126679930D01*
X84623073Y-126827000D01*
X85376927Y-126827000D01*
X86116295Y-126679930D01*
X86812764Y-126391443D01*
X87439570Y-125972625D01*
X87972625Y-125439570D01*
X88391443Y-124812764D01*
X88679930Y-124116295D01*
X88827000Y-123376927D01*
X88827000Y-122623073D01*
X88679930Y-121883705D01*
X88391443Y-121187236D01*
X87972625Y-120560430D01*
X87439570Y-120027375D01*
X86812764Y-119608557D01*
X86116295Y-119320070D01*
X85376927Y-119173000D01*
X84623073Y-119173000D01*
X83883705Y-119320070D01*
X83187236Y-119608557D01*
X82560430Y-120027375D01*
X82027375Y-120560430D01*
X81608557Y-121187236D01*
X81320070Y-121883705D01*
X81173000Y-122623073D01*
X65930033Y-122623073D01*
X65930033Y-120100000D01*
X65917927Y-119977087D01*
X65882075Y-119858897D01*
X65823853Y-119749972D01*
X65745501Y-119654499D01*
X65650028Y-119576147D01*
X65541103Y-119517925D01*
X65422913Y-119482073D01*
X65300000Y-119469967D01*
X62300000Y-119469967D01*
X62177087Y-119482073D01*
X62058897Y-119517925D01*
X61949972Y-119576147D01*
X61854499Y-119654499D01*
X61776147Y-119749972D01*
X61717925Y-119858897D01*
X61682073Y-119977087D01*
X61669967Y-120100000D01*
X60027922Y-120100000D01*
X59876038Y-119792786D01*
X59501255Y-119601980D01*
X59096449Y-119487956D01*
X58677176Y-119455098D01*
X58259549Y-119504666D01*
X57859617Y-119634757D01*
X57563962Y-119792786D01*
X57407952Y-120108347D01*
X54530033Y-120108347D01*
X54530033Y-120100000D01*
X54517927Y-119977087D01*
X54482075Y-119858897D01*
X54423853Y-119749972D01*
X54345501Y-119654499D01*
X54250028Y-119576147D01*
X54141103Y-119517925D01*
X54022913Y-119482073D01*
X53900000Y-119469967D01*
X50900000Y-119469967D01*
X50777087Y-119482073D01*
X50658897Y-119517925D01*
X50549972Y-119576147D01*
X50454499Y-119654499D01*
X50376147Y-119749972D01*
X50317925Y-119858897D01*
X50282073Y-119977087D01*
X50269967Y-120100000D01*
X48828033Y-120100000D01*
X48675884Y-119947851D01*
X48327512Y-119715077D01*
X47940423Y-119554739D01*
X47529491Y-119473000D01*
X47110509Y-119473000D01*
X46699577Y-119554739D01*
X46312488Y-119715077D01*
X45964116Y-119947851D01*
X45667851Y-120244116D01*
X45435077Y-120592488D01*
X45274739Y-120979577D01*
X45193000Y-121390509D01*
X44367000Y-121390509D01*
X44285261Y-120979577D01*
X44124923Y-120592488D01*
X43892149Y-120244116D01*
X43595884Y-119947851D01*
X43247512Y-119715077D01*
X42860423Y-119554739D01*
X42449491Y-119473000D01*
X42030509Y-119473000D01*
X41619577Y-119554739D01*
X41232488Y-119715077D01*
X40884116Y-119947851D01*
X40587851Y-120244116D01*
X40355077Y-120592488D01*
X40194739Y-120979577D01*
X40113000Y-121390509D01*
X39287000Y-121390509D01*
X39205261Y-120979577D01*
X39044923Y-120592488D01*
X38812149Y-120244116D01*
X38515884Y-119947851D01*
X38167512Y-119715077D01*
X37780423Y-119554739D01*
X37369491Y-119473000D01*
X36950509Y-119473000D01*
X36539577Y-119554739D01*
X36152488Y-119715077D01*
X35804116Y-119947851D01*
X35507851Y-120244116D01*
X35275077Y-120592488D01*
X35114739Y-120979577D01*
X35033000Y-121390509D01*
X34207000Y-121390509D01*
X34125261Y-120979577D01*
X33964923Y-120592488D01*
X33732149Y-120244116D01*
X33435884Y-119947851D01*
X33087512Y-119715077D01*
X32700423Y-119554739D01*
X32289491Y-119473000D01*
X31870509Y-119473000D01*
X31459577Y-119554739D01*
X31072488Y-119715077D01*
X30724116Y-119947851D01*
X30427851Y-120244116D01*
X30195077Y-120592488D01*
X30034739Y-120979577D01*
X29953000Y-121390509D01*
X27652000Y-121390509D01*
X27652000Y-117652000D01*
X90348000Y-117652000D01*
X90348001Y-161348000D01*
G37*
X90348001Y-161348000D02*
X81810734Y-161348000D01*
X81839502Y-161294180D01*
X81875812Y-161174482D01*
X81888072Y-161050000D01*
X81885000Y-160835750D01*
X81726250Y-160677000D01*
X80627000Y-160677000D01*
X80627000Y-160697000D01*
X80373000Y-160697000D01*
X80373000Y-160677000D01*
X79273750Y-160677000D01*
X79115000Y-160835750D01*
X79111928Y-161050000D01*
X79124188Y-161174482D01*
X79160498Y-161294180D01*
X79189266Y-161348000D01*
X27652000Y-161348000D01*
X27652000Y-155623073D01*
X29173000Y-155623073D01*
X29173000Y-156376927D01*
X29320070Y-157116295D01*
X29608557Y-157812764D01*
X30027375Y-158439570D01*
X30560430Y-158972625D01*
X31187236Y-159391443D01*
X31883705Y-159679930D01*
X32623073Y-159827000D01*
X33376927Y-159827000D01*
X34116295Y-159679930D01*
X34812764Y-159391443D01*
X35439570Y-158972625D01*
X35972625Y-158439570D01*
X36391443Y-157812764D01*
X36679930Y-157116295D01*
X36827000Y-156376927D01*
X36827000Y-155623073D01*
X36679930Y-154883705D01*
X36391443Y-154187236D01*
X36031705Y-153648849D01*
X55723000Y-153648849D01*
X55723000Y-153851151D01*
X55762467Y-154049565D01*
X55839885Y-154236467D01*
X55952277Y-154404674D01*
X56095326Y-154547723D01*
X56263533Y-154660115D01*
X56450435Y-154737533D01*
X56648849Y-154777000D01*
X56851151Y-154777000D01*
X57049565Y-154737533D01*
X57236467Y-154660115D01*
X57404674Y-154547723D01*
X57547723Y-154404674D01*
X57660115Y-154236467D01*
X57737533Y-154049565D01*
X57749162Y-153991104D01*
X58363266Y-153377000D01*
X66706921Y-153377000D01*
X66750000Y-153381243D01*
X66793079Y-153377000D01*
X67386735Y-153377000D01*
X68123000Y-154113266D01*
X68123001Y-155463972D01*
X68089885Y-155513533D01*
X68012467Y-155700435D01*
X67973000Y-155898849D01*
X67973000Y-156101151D01*
X68012467Y-156299565D01*
X68089885Y-156486467D01*
X68123000Y-156536028D01*
X68123001Y-158713972D01*
X68089885Y-158763533D01*
X68012467Y-158950435D01*
X67973000Y-159148849D01*
X67973000Y-159351151D01*
X68012467Y-159549565D01*
X68089885Y-159736467D01*
X68202277Y-159904674D01*
X68345326Y-160047723D01*
X68513533Y-160160115D01*
X68700435Y-160237533D01*
X68898849Y-160277000D01*
X69101151Y-160277000D01*
X69299565Y-160237533D01*
X69486467Y-160160115D01*
X69654674Y-160047723D01*
X69797723Y-159904674D01*
X69910115Y-159736467D01*
X69987533Y-159549565D01*
X70027000Y-159351151D01*
X70027000Y-159148849D01*
X69987533Y-158950435D01*
X69910115Y-158763533D01*
X69877000Y-158713973D01*
X69877000Y-157833692D01*
X69885690Y-157921922D01*
X69935838Y-158087236D01*
X70017274Y-158239592D01*
X70099406Y-158339671D01*
X70099409Y-158339674D01*
X70126868Y-158373133D01*
X70160327Y-158400592D01*
X71019967Y-159260233D01*
X71019967Y-160350000D01*
X71032073Y-160472913D01*
X71067925Y-160591103D01*
X71126147Y-160700028D01*
X71204499Y-160795501D01*
X71299972Y-160873853D01*
X71408897Y-160932075D01*
X71527087Y-160967927D01*
X71650000Y-160980033D01*
X73350000Y-160980033D01*
X73472913Y-160967927D01*
X73591103Y-160932075D01*
X73700028Y-160873853D01*
X73795501Y-160795501D01*
X73873853Y-160700028D01*
X73932075Y-160591103D01*
X73957731Y-160506525D01*
X74098467Y-160647261D01*
X74340378Y-160808901D01*
X74609175Y-160920240D01*
X74894528Y-160977000D01*
X75185472Y-160977000D01*
X75470825Y-160920240D01*
X75739622Y-160808901D01*
X75981533Y-160647261D01*
X76187261Y-160441533D01*
X76348901Y-160199622D01*
X76460240Y-159930825D01*
X76517000Y-159645472D01*
X76517000Y-159354528D01*
X76460240Y-159069175D01*
X76348901Y-158800378D01*
X76187261Y-158558467D01*
X75981533Y-158352739D01*
X75919168Y-158311068D01*
X75921243Y-158290000D01*
X75904310Y-158118077D01*
X75854162Y-157952764D01*
X75854162Y-157952763D01*
X75772727Y-157800408D01*
X75663133Y-157666867D01*
X75629669Y-157639404D01*
X75400594Y-157410329D01*
X75373133Y-157376867D01*
X75239592Y-157267273D01*
X75087237Y-157185838D01*
X74921922Y-157135690D01*
X74876771Y-157131243D01*
X74750000Y-157118757D01*
X74706921Y-157123000D01*
X73877000Y-157123000D01*
X73877000Y-156286027D01*
X73910115Y-156236467D01*
X73987533Y-156049565D01*
X74027000Y-155851151D01*
X74027000Y-155648849D01*
X73987533Y-155450435D01*
X73910115Y-155263533D01*
X73797723Y-155095326D01*
X73654674Y-154952277D01*
X73486467Y-154839885D01*
X73299565Y-154762467D01*
X73101151Y-154723000D01*
X72898849Y-154723000D01*
X72700435Y-154762467D01*
X72513533Y-154839885D01*
X72345326Y-154952277D01*
X72202277Y-155095326D01*
X72089885Y-155263533D01*
X72012467Y-155450435D01*
X71973000Y-155648849D01*
X71973000Y-155851151D01*
X72012467Y-156049565D01*
X72089885Y-156236467D01*
X72123000Y-156286028D01*
X72123001Y-157456911D01*
X72118757Y-157500000D01*
X72135690Y-157671922D01*
X72185838Y-157837236D01*
X72267274Y-157989592D01*
X72292202Y-158019967D01*
X72260233Y-158019967D01*
X71627000Y-157386735D01*
X71627000Y-156036027D01*
X71660115Y-155986467D01*
X71737533Y-155799565D01*
X71777000Y-155601151D01*
X71777000Y-155398849D01*
X71737533Y-155200435D01*
X71660115Y-155013533D01*
X71547723Y-154845326D01*
X71404674Y-154702277D01*
X71236467Y-154589885D01*
X71049565Y-154512467D01*
X70851151Y-154473000D01*
X70648849Y-154473000D01*
X70450435Y-154512467D01*
X70263533Y-154589885D01*
X70095326Y-154702277D01*
X69952277Y-154845326D01*
X69877000Y-154957986D01*
X69877000Y-153793079D01*
X69881243Y-153750000D01*
X69864310Y-153578077D01*
X69814162Y-153412763D01*
X69788263Y-153364310D01*
X69732727Y-153260408D01*
X69703668Y-153224999D01*
X69650594Y-153160328D01*
X69650592Y-153160326D01*
X69623133Y-153126867D01*
X69589675Y-153099409D01*
X69139115Y-152648849D01*
X77723000Y-152648849D01*
X77723000Y-152851151D01*
X77762467Y-153049565D01*
X77839885Y-153236467D01*
X77952277Y-153404674D01*
X78095326Y-153547723D01*
X78174985Y-153600949D01*
X78186877Y-153721687D01*
X78236955Y-153886775D01*
X78318279Y-154038921D01*
X78427722Y-154172278D01*
X78522427Y-154250000D01*
X78427722Y-154327722D01*
X78318279Y-154461079D01*
X78236955Y-154613225D01*
X78186877Y-154778313D01*
X78169967Y-154949999D01*
X78169967Y-155600001D01*
X78186877Y-155771687D01*
X78236955Y-155936775D01*
X78318279Y-156088921D01*
X78364497Y-156145238D01*
X78160332Y-156349403D01*
X78126867Y-156376867D01*
X78017273Y-156510409D01*
X77976208Y-156587237D01*
X77935838Y-156662764D01*
X77885690Y-156828078D01*
X77868757Y-157000000D01*
X77873000Y-157043080D01*
X77873001Y-158706911D01*
X77868757Y-158750000D01*
X77885690Y-158921922D01*
X77935838Y-159087236D01*
X78017274Y-159239592D01*
X78099406Y-159339671D01*
X78099409Y-159339674D01*
X78126868Y-159373133D01*
X78160327Y-159400592D01*
X78599403Y-159839668D01*
X78626867Y-159873133D01*
X78760408Y-159982727D01*
X78882008Y-160047723D01*
X78912763Y-160064162D01*
X79078077Y-160114310D01*
X79112899Y-160117740D01*
X79115000Y-160264250D01*
X79273750Y-160423000D01*
X80373000Y-160423000D01*
X80373000Y-160403000D01*
X80627000Y-160403000D01*
X80627000Y-160423000D01*
X81726250Y-160423000D01*
X81885000Y-160264250D01*
X81888072Y-160050000D01*
X81875812Y-159925518D01*
X81863891Y-159886219D01*
X81867927Y-159872913D01*
X81880033Y-159750000D01*
X81880033Y-158750000D01*
X81867927Y-158627087D01*
X81859710Y-158600000D01*
X81867927Y-158572913D01*
X81880033Y-158450000D01*
X81880033Y-157450000D01*
X81867927Y-157327087D01*
X81832075Y-157208897D01*
X81773853Y-157099972D01*
X81695501Y-157004499D01*
X81600028Y-156926147D01*
X81491103Y-156867925D01*
X81372913Y-156832073D01*
X81250000Y-156819967D01*
X80166765Y-156819967D01*
X80232727Y-156739592D01*
X80314162Y-156587237D01*
X80364310Y-156421922D01*
X80369542Y-156368805D01*
X80438921Y-156331721D01*
X80572278Y-156222278D01*
X80681721Y-156088921D01*
X80763045Y-155936775D01*
X80813123Y-155771687D01*
X80830033Y-155600001D01*
X80830033Y-154949999D01*
X80813123Y-154778313D01*
X80763045Y-154613225D01*
X80681721Y-154461079D01*
X80572278Y-154327722D01*
X80477573Y-154250000D01*
X80572278Y-154172278D01*
X80681721Y-154038921D01*
X80763045Y-153886775D01*
X80813123Y-153721687D01*
X80830033Y-153550001D01*
X80830033Y-152899999D01*
X80813123Y-152728313D01*
X80763045Y-152563225D01*
X80681721Y-152411079D01*
X80572278Y-152277722D01*
X80438921Y-152168279D01*
X80286775Y-152086955D01*
X80121687Y-152036877D01*
X79950001Y-152019967D01*
X79472364Y-152019967D01*
X79404674Y-151952277D01*
X79236467Y-151839885D01*
X79049565Y-151762467D01*
X78851151Y-151723000D01*
X78648849Y-151723000D01*
X78450435Y-151762467D01*
X78263533Y-151839885D01*
X78095326Y-151952277D01*
X77952277Y-152095326D01*
X77839885Y-152263533D01*
X77762467Y-152450435D01*
X77723000Y-152648849D01*
X69139115Y-152648849D01*
X68490265Y-152000000D01*
X68927810Y-151562456D01*
X69704973Y-151562456D01*
X69754533Y-151595571D01*
X69772625Y-151603065D01*
X69776406Y-151641457D01*
X69826484Y-151806545D01*
X69907808Y-151958691D01*
X70017251Y-152092048D01*
X70150608Y-152201491D01*
X70302754Y-152282815D01*
X70467842Y-152332893D01*
X70639528Y-152349803D01*
X71539530Y-152349803D01*
X71711216Y-152332893D01*
X71876304Y-152282815D01*
X72028450Y-152201491D01*
X72125591Y-152121770D01*
X72316208Y-152121770D01*
X72413349Y-152201491D01*
X72565495Y-152282815D01*
X72730583Y-152332893D01*
X72902269Y-152349803D01*
X73802271Y-152349803D01*
X73973957Y-152332893D01*
X74139045Y-152282815D01*
X74291191Y-152201491D01*
X74409324Y-152104542D01*
X74463827Y-152170955D01*
X74560518Y-152250307D01*
X74670832Y-152309272D01*
X74790530Y-152345582D01*
X74915012Y-152357842D01*
X75329262Y-152354770D01*
X75488012Y-152196020D01*
X75488012Y-151271770D01*
X75742012Y-151271770D01*
X75742012Y-152196020D01*
X75900762Y-152354770D01*
X76315012Y-152357842D01*
X76439494Y-152345582D01*
X76559192Y-152309272D01*
X76669506Y-152250307D01*
X76766197Y-152170955D01*
X76845549Y-152074264D01*
X76904514Y-151963950D01*
X76940824Y-151844252D01*
X76953084Y-151719770D01*
X76950012Y-151430520D01*
X76791262Y-151271770D01*
X75742012Y-151271770D01*
X75488012Y-151271770D01*
X75468012Y-151271770D01*
X75468012Y-151017770D01*
X75488012Y-151017770D01*
X75488012Y-150997770D01*
X75742012Y-150997770D01*
X75742012Y-151017770D01*
X76791262Y-151017770D01*
X76950012Y-150859020D01*
X76953084Y-150569770D01*
X76940824Y-150445288D01*
X76904514Y-150325590D01*
X76845549Y-150215276D01*
X76766197Y-150118585D01*
X76709154Y-150071771D01*
X77667840Y-150071771D01*
X77784095Y-150213429D01*
X77955704Y-150354264D01*
X78151490Y-150458914D01*
X78363930Y-150523356D01*
X78584860Y-150545116D01*
X78805790Y-150523356D01*
X79018230Y-150458914D01*
X79214016Y-150354264D01*
X79342620Y-150248722D01*
X82607764Y-146983579D01*
X82650765Y-146948289D01*
X82686055Y-146905288D01*
X82686058Y-146905285D01*
X82791600Y-146776681D01*
X82896249Y-146580896D01*
X82896250Y-146580895D01*
X82960693Y-146368454D01*
X82977000Y-146202888D01*
X82977000Y-146202879D01*
X82982452Y-146147525D01*
X82977000Y-146092170D01*
X82977000Y-145344635D01*
X82960693Y-145179069D01*
X82896250Y-144966629D01*
X82791600Y-144770843D01*
X82650765Y-144599235D01*
X82479157Y-144458400D01*
X82283370Y-144353750D01*
X82070930Y-144289307D01*
X81850000Y-144267547D01*
X81629069Y-144289307D01*
X81416629Y-144353750D01*
X81238138Y-144449156D01*
X81149565Y-144412467D01*
X80951151Y-144373000D01*
X80748849Y-144373000D01*
X80550435Y-144412467D01*
X80363533Y-144489885D01*
X80195326Y-144602277D01*
X80052277Y-144745326D01*
X79939885Y-144913533D01*
X79862467Y-145100435D01*
X79823000Y-145298849D01*
X79823000Y-145501151D01*
X79862467Y-145699565D01*
X79939885Y-145886467D01*
X80052277Y-146054674D01*
X80195326Y-146197723D01*
X80201714Y-146201991D01*
X78288537Y-148115168D01*
X78266969Y-148113044D01*
X78218976Y-148117771D01*
X76651075Y-148117771D01*
X76553933Y-148038049D01*
X76502525Y-148010571D01*
X76431288Y-147877296D01*
X76309198Y-147728528D01*
X76271914Y-147697930D01*
X75969975Y-147395991D01*
X75959442Y-147370562D01*
X75847050Y-147202355D01*
X75704001Y-147059306D01*
X75535794Y-146946914D01*
X75348892Y-146869496D01*
X75150478Y-146830029D01*
X74948176Y-146830029D01*
X74749762Y-146869496D01*
X74562860Y-146946914D01*
X74394653Y-147059306D01*
X74251604Y-147202355D01*
X74139212Y-147370562D01*
X74061794Y-147557464D01*
X74022327Y-147755878D01*
X74022327Y-147881920D01*
X73638020Y-147884770D01*
X73479270Y-148043520D01*
X73479270Y-148967770D01*
X73499270Y-148967770D01*
X73499270Y-149221770D01*
X73479270Y-149221770D01*
X73479270Y-149241770D01*
X73225270Y-149241770D01*
X73225270Y-149221770D01*
X71216529Y-149221770D01*
X71216529Y-149241770D01*
X70962529Y-149241770D01*
X70962529Y-149221770D01*
X69913279Y-149221770D01*
X69754529Y-149380520D01*
X69751457Y-149669770D01*
X69761568Y-149772427D01*
X69754533Y-149775341D01*
X69704973Y-149808456D01*
X68607623Y-149808456D01*
X68564544Y-149804213D01*
X68392621Y-149821146D01*
X68251306Y-149864014D01*
X68227307Y-149871294D01*
X68074952Y-149952729D01*
X68074950Y-149952730D01*
X68074951Y-149952730D01*
X68004435Y-150010601D01*
X67941411Y-150062323D01*
X67913952Y-150095782D01*
X66386735Y-151623000D01*
X58043079Y-151623000D01*
X58000000Y-151618757D01*
X57828077Y-151635690D01*
X57705120Y-151672989D01*
X57662763Y-151685838D01*
X57510408Y-151767273D01*
X57483032Y-151789740D01*
X57416609Y-151844252D01*
X57376867Y-151876867D01*
X57349408Y-151910326D01*
X56508896Y-152750838D01*
X56450435Y-152762467D01*
X56263533Y-152839885D01*
X56095326Y-152952277D01*
X55952277Y-153095326D01*
X55839885Y-153263533D01*
X55762467Y-153450435D01*
X55723000Y-153648849D01*
X36031705Y-153648849D01*
X35972625Y-153560430D01*
X35439570Y-153027375D01*
X34812764Y-152608557D01*
X34116295Y-152320070D01*
X33376927Y-152173000D01*
X32623073Y-152173000D01*
X31883705Y-152320070D01*
X31187236Y-152608557D01*
X30560430Y-153027375D01*
X30027375Y-153560430D01*
X29608557Y-154187236D01*
X29320070Y-154883705D01*
X29173000Y-155623073D01*
X27652000Y-155623073D01*
X27652000Y-148519770D01*
X69751457Y-148519770D01*
X69754529Y-148809020D01*
X69913279Y-148967770D01*
X70962529Y-148967770D01*
X70962529Y-148043520D01*
X71216529Y-148043520D01*
X71216529Y-148967770D01*
X73225270Y-148967770D01*
X73225270Y-148043520D01*
X73066520Y-147884770D01*
X72652270Y-147881698D01*
X72527788Y-147893958D01*
X72408090Y-147930268D01*
X72297776Y-147989233D01*
X72220900Y-148052324D01*
X72144023Y-147989233D01*
X72033709Y-147930268D01*
X71914011Y-147893958D01*
X71789529Y-147881698D01*
X71375279Y-147884770D01*
X71216529Y-148043520D01*
X70962529Y-148043520D01*
X70803779Y-147884770D01*
X70389529Y-147881698D01*
X70265047Y-147893958D01*
X70145349Y-147930268D01*
X70035035Y-147989233D01*
X69938344Y-148068585D01*
X69858992Y-148165276D01*
X69800027Y-148275590D01*
X69763717Y-148395288D01*
X69751457Y-148519770D01*
X27652000Y-148519770D01*
X27652000Y-142550000D01*
X31169967Y-142550000D01*
X31169967Y-143350000D01*
X31182073Y-143472913D01*
X31217925Y-143591103D01*
X31276147Y-143700028D01*
X31354499Y-143795501D01*
X31449972Y-143873853D01*
X31558897Y-143932075D01*
X31677087Y-143967927D01*
X31800000Y-143980033D01*
X33700000Y-143980033D01*
X33822913Y-143967927D01*
X33941103Y-143932075D01*
X34050028Y-143873853D01*
X34145501Y-143795501D01*
X34169967Y-143765689D01*
X34169967Y-144300000D01*
X34182073Y-144422913D01*
X34217925Y-144541103D01*
X34276147Y-144650028D01*
X34354499Y-144745501D01*
X34449972Y-144823853D01*
X34558897Y-144882075D01*
X34677087Y-144917927D01*
X34800000Y-144930033D01*
X36700000Y-144930033D01*
X36822913Y-144917927D01*
X36941103Y-144882075D01*
X37050028Y-144823853D01*
X37145501Y-144745501D01*
X37223853Y-144650028D01*
X37282075Y-144541103D01*
X37317927Y-144422913D01*
X37330033Y-144300000D01*
X37330033Y-143500000D01*
X37317927Y-143377087D01*
X37282075Y-143258897D01*
X37223853Y-143149972D01*
X37145501Y-143054499D01*
X37050028Y-142976147D01*
X37009596Y-142954536D01*
X37054494Y-142930537D01*
X37151185Y-142851185D01*
X37230537Y-142754494D01*
X37289502Y-142644180D01*
X37318071Y-142550000D01*
X40119967Y-142550000D01*
X40119967Y-143350000D01*
X40132073Y-143472913D01*
X40167925Y-143591103D01*
X40226147Y-143700028D01*
X40304499Y-143795501D01*
X40399972Y-143873853D01*
X40508897Y-143932075D01*
X40627087Y-143967927D01*
X40750000Y-143980033D01*
X42650000Y-143980033D01*
X42772913Y-143967927D01*
X42891103Y-143932075D01*
X43000028Y-143873853D01*
X43095501Y-143795501D01*
X43119967Y-143765689D01*
X43119967Y-144300000D01*
X43132073Y-144422913D01*
X43167925Y-144541103D01*
X43226147Y-144650028D01*
X43304499Y-144745501D01*
X43399972Y-144823853D01*
X43508897Y-144882075D01*
X43627087Y-144917927D01*
X43750000Y-144930033D01*
X45650000Y-144930033D01*
X45772913Y-144917927D01*
X45891103Y-144882075D01*
X46000028Y-144823853D01*
X46095501Y-144745501D01*
X46173853Y-144650028D01*
X46232075Y-144541103D01*
X46267927Y-144422913D01*
X46280033Y-144300000D01*
X46280033Y-143500000D01*
X46267927Y-143377087D01*
X46232075Y-143258897D01*
X46173853Y-143149972D01*
X46095501Y-143054499D01*
X46000028Y-142976147D01*
X45959596Y-142954536D01*
X46004494Y-142930537D01*
X46101185Y-142851185D01*
X46180537Y-142754494D01*
X46239502Y-142644180D01*
X46268071Y-142550000D01*
X49419967Y-142550000D01*
X49419967Y-143350000D01*
X49432073Y-143472913D01*
X49467925Y-143591103D01*
X49526147Y-143700028D01*
X49604499Y-143795501D01*
X49699972Y-143873853D01*
X49808897Y-143932075D01*
X49927087Y-143967927D01*
X50050000Y-143980033D01*
X51950000Y-143980033D01*
X52072913Y-143967927D01*
X52191103Y-143932075D01*
X52300028Y-143873853D01*
X52395501Y-143795501D01*
X52419967Y-143765689D01*
X52419967Y-144300000D01*
X52432073Y-144422913D01*
X52467925Y-144541103D01*
X52526147Y-144650028D01*
X52604499Y-144745501D01*
X52699972Y-144823853D01*
X52808897Y-144882075D01*
X52927087Y-144917927D01*
X53050000Y-144930033D01*
X54950000Y-144930033D01*
X55072913Y-144917927D01*
X55191103Y-144882075D01*
X55300028Y-144823853D01*
X55395501Y-144745501D01*
X55473853Y-144650028D01*
X55532075Y-144541103D01*
X55567927Y-144422913D01*
X55580033Y-144300000D01*
X55580033Y-143500000D01*
X55567927Y-143377087D01*
X55532075Y-143258897D01*
X55473853Y-143149972D01*
X55395501Y-143054499D01*
X55300028Y-142976147D01*
X55259596Y-142954536D01*
X55304494Y-142930537D01*
X55401185Y-142851185D01*
X55480537Y-142754494D01*
X55539502Y-142644180D01*
X55568071Y-142550000D01*
X58369967Y-142550000D01*
X58369967Y-143350000D01*
X58382073Y-143472913D01*
X58417925Y-143591103D01*
X58476147Y-143700028D01*
X58554499Y-143795501D01*
X58649972Y-143873853D01*
X58758897Y-143932075D01*
X58877087Y-143967927D01*
X59000000Y-143980033D01*
X60232329Y-143980033D01*
X60250435Y-143987533D01*
X60448849Y-144027000D01*
X60651151Y-144027000D01*
X60849565Y-143987533D01*
X60867671Y-143980033D01*
X60900000Y-143980033D01*
X61022913Y-143967927D01*
X61141103Y-143932075D01*
X61250028Y-143873853D01*
X61345501Y-143795501D01*
X61369967Y-143765689D01*
X61369967Y-144300000D01*
X61382073Y-144422913D01*
X61417925Y-144541103D01*
X61476147Y-144650028D01*
X61554499Y-144745501D01*
X61649972Y-144823853D01*
X61758897Y-144882075D01*
X61877087Y-144917927D01*
X62000000Y-144930033D01*
X63900000Y-144930033D01*
X64022913Y-144917927D01*
X64141103Y-144882075D01*
X64250028Y-144823853D01*
X64345501Y-144745501D01*
X64423853Y-144650028D01*
X64482075Y-144541103D01*
X64517927Y-144422913D01*
X64530033Y-144300000D01*
X64530033Y-143500000D01*
X64517927Y-143377087D01*
X64482075Y-143258897D01*
X64423853Y-143149972D01*
X64345501Y-143054499D01*
X64250028Y-142976147D01*
X64209596Y-142954536D01*
X64254494Y-142930537D01*
X64351185Y-142851185D01*
X64430537Y-142754494D01*
X64489502Y-142644180D01*
X64525812Y-142524482D01*
X64538072Y-142400000D01*
X64535000Y-142285750D01*
X64376250Y-142127000D01*
X63077000Y-142127000D01*
X63077000Y-142147000D01*
X62823000Y-142147000D01*
X62823000Y-142127000D01*
X61523750Y-142127000D01*
X61433232Y-142217518D01*
X61423853Y-142199972D01*
X61345501Y-142104499D01*
X61250028Y-142026147D01*
X61141103Y-141967925D01*
X61022913Y-141932073D01*
X60900000Y-141919967D01*
X59000000Y-141919967D01*
X58877087Y-141932073D01*
X58758897Y-141967925D01*
X58649972Y-142026147D01*
X58554499Y-142104499D01*
X58476147Y-142199972D01*
X58417925Y-142308897D01*
X58382073Y-142427087D01*
X58369967Y-142550000D01*
X55568071Y-142550000D01*
X55575812Y-142524482D01*
X55588072Y-142400000D01*
X55585000Y-142285750D01*
X55426250Y-142127000D01*
X54127000Y-142127000D01*
X54127000Y-142147000D01*
X53873000Y-142147000D01*
X53873000Y-142127000D01*
X52573750Y-142127000D01*
X52483232Y-142217518D01*
X52473853Y-142199972D01*
X52395501Y-142104499D01*
X52300028Y-142026147D01*
X52191103Y-141967925D01*
X52072913Y-141932073D01*
X51950000Y-141919967D01*
X50050000Y-141919967D01*
X49927087Y-141932073D01*
X49808897Y-141967925D01*
X49699972Y-142026147D01*
X49604499Y-142104499D01*
X49526147Y-142199972D01*
X49467925Y-142308897D01*
X49432073Y-142427087D01*
X49419967Y-142550000D01*
X46268071Y-142550000D01*
X46275812Y-142524482D01*
X46288072Y-142400000D01*
X46285000Y-142285750D01*
X46126250Y-142127000D01*
X44827000Y-142127000D01*
X44827000Y-142147000D01*
X44573000Y-142147000D01*
X44573000Y-142127000D01*
X43273750Y-142127000D01*
X43183232Y-142217518D01*
X43173853Y-142199972D01*
X43095501Y-142104499D01*
X43000028Y-142026147D01*
X42891103Y-141967925D01*
X42772913Y-141932073D01*
X42650000Y-141919967D01*
X40750000Y-141919967D01*
X40627087Y-141932073D01*
X40508897Y-141967925D01*
X40399972Y-142026147D01*
X40304499Y-142104499D01*
X40226147Y-142199972D01*
X40167925Y-142308897D01*
X40132073Y-142427087D01*
X40119967Y-142550000D01*
X37318071Y-142550000D01*
X37325812Y-142524482D01*
X37338072Y-142400000D01*
X37335000Y-142285750D01*
X37176250Y-142127000D01*
X35877000Y-142127000D01*
X35877000Y-142147000D01*
X35623000Y-142147000D01*
X35623000Y-142127000D01*
X34323750Y-142127000D01*
X34233232Y-142217518D01*
X34223853Y-142199972D01*
X34145501Y-142104499D01*
X34050028Y-142026147D01*
X33941103Y-141967925D01*
X33822913Y-141932073D01*
X33700000Y-141919967D01*
X31800000Y-141919967D01*
X31677087Y-141932073D01*
X31558897Y-141967925D01*
X31449972Y-142026147D01*
X31354499Y-142104499D01*
X31276147Y-142199972D01*
X31217925Y-142308897D01*
X31182073Y-142427087D01*
X31169967Y-142550000D01*
X27652000Y-142550000D01*
X27652000Y-140298849D01*
X33173000Y-140298849D01*
X33173000Y-140501151D01*
X33212467Y-140699565D01*
X33289885Y-140886467D01*
X33402277Y-141054674D01*
X33545326Y-141197723D01*
X33713533Y-141310115D01*
X33900435Y-141387533D01*
X34098849Y-141427000D01*
X34188906Y-141427000D01*
X34174188Y-141475518D01*
X34161928Y-141600000D01*
X34165000Y-141714250D01*
X34323750Y-141873000D01*
X35623000Y-141873000D01*
X35623000Y-141853000D01*
X35877000Y-141853000D01*
X35877000Y-141873000D01*
X37176250Y-141873000D01*
X37335000Y-141714250D01*
X37338072Y-141600000D01*
X37325812Y-141475518D01*
X37289502Y-141355820D01*
X37274097Y-141327000D01*
X42704297Y-141327000D01*
X42766028Y-141352570D01*
X42774310Y-141356997D01*
X42783296Y-141359723D01*
X42850435Y-141387533D01*
X42921710Y-141401711D01*
X42958475Y-141412863D01*
X42996710Y-141416629D01*
X43048849Y-141427000D01*
X43102007Y-141427000D01*
X43137835Y-141430529D01*
X43124188Y-141475518D01*
X43111928Y-141600000D01*
X43115000Y-141714250D01*
X43273750Y-141873000D01*
X44573000Y-141873000D01*
X44573000Y-141853000D01*
X44827000Y-141853000D01*
X44827000Y-141873000D01*
X46126250Y-141873000D01*
X46285000Y-141714250D01*
X46288072Y-141600000D01*
X46275812Y-141475518D01*
X46239502Y-141355820D01*
X46224097Y-141327000D01*
X52054297Y-141327000D01*
X52200435Y-141387533D01*
X52398849Y-141427000D01*
X52438906Y-141427000D01*
X52424188Y-141475518D01*
X52411928Y-141600000D01*
X52415000Y-141714250D01*
X52573750Y-141873000D01*
X53873000Y-141873000D01*
X53873000Y-141853000D01*
X54127000Y-141853000D01*
X54127000Y-141873000D01*
X55426250Y-141873000D01*
X55585000Y-141714250D01*
X55588072Y-141600000D01*
X55575812Y-141475518D01*
X55539502Y-141355820D01*
X55524097Y-141327000D01*
X61004297Y-141327000D01*
X61150435Y-141387533D01*
X61348849Y-141427000D01*
X61388906Y-141427000D01*
X61374188Y-141475518D01*
X61361928Y-141600000D01*
X61365000Y-141714250D01*
X61523750Y-141873000D01*
X62823000Y-141873000D01*
X62823000Y-141123750D01*
X63077000Y-141123750D01*
X63077000Y-141873000D01*
X64376250Y-141873000D01*
X64535000Y-141714250D01*
X64538072Y-141600000D01*
X64525812Y-141475518D01*
X64489502Y-141355820D01*
X64430537Y-141245506D01*
X64351185Y-141148815D01*
X64254494Y-141069463D01*
X64144180Y-141010498D01*
X64024482Y-140974188D01*
X63900000Y-140961928D01*
X63235750Y-140965000D01*
X63077000Y-141123750D01*
X62823000Y-141123750D01*
X62664250Y-140965000D01*
X62308740Y-140963356D01*
X62360115Y-140886467D01*
X62437533Y-140699565D01*
X62477000Y-140501151D01*
X62477000Y-140298849D01*
X62437533Y-140100435D01*
X62360115Y-139913533D01*
X62247723Y-139745326D01*
X62104674Y-139602277D01*
X61936467Y-139489885D01*
X61833976Y-139447432D01*
X61825691Y-139443003D01*
X61816701Y-139440276D01*
X61749565Y-139412467D01*
X61678290Y-139398290D01*
X61641525Y-139387137D01*
X61603290Y-139383371D01*
X61551151Y-139373000D01*
X52547993Y-139373000D01*
X52500000Y-139368273D01*
X52452007Y-139373000D01*
X43297990Y-139373000D01*
X43249999Y-139368273D01*
X43202009Y-139373000D01*
X34098849Y-139373000D01*
X34046710Y-139383371D01*
X34008475Y-139387137D01*
X33971710Y-139398290D01*
X33900435Y-139412467D01*
X33833299Y-139440276D01*
X33824309Y-139443003D01*
X33816024Y-139447432D01*
X33713533Y-139489885D01*
X33545326Y-139602277D01*
X33402277Y-139745326D01*
X33289885Y-139913533D01*
X33212467Y-140100435D01*
X33173000Y-140298849D01*
X27652000Y-140298849D01*
X27652000Y-126500000D01*
X28873000Y-126500000D01*
X28873000Y-134000000D01*
X28875440Y-134024776D01*
X28882667Y-134048601D01*
X28894403Y-134070557D01*
X28910197Y-134089803D01*
X28929443Y-134105597D01*
X28951399Y-134117333D01*
X28975224Y-134124560D01*
X29000000Y-134127000D01*
X36500000Y-134127000D01*
X36524776Y-134124560D01*
X36548601Y-134117333D01*
X36570557Y-134105597D01*
X36589803Y-134089803D01*
X36605597Y-134070557D01*
X36617333Y-134048601D01*
X36624560Y-134024776D01*
X36627000Y-134000000D01*
X36627000Y-126500000D01*
X37873000Y-126500000D01*
X37873000Y-134000000D01*
X37875440Y-134024776D01*
X37882667Y-134048601D01*
X37894403Y-134070557D01*
X37910197Y-134089803D01*
X37929443Y-134105597D01*
X37951399Y-134117333D01*
X37975224Y-134124560D01*
X38000000Y-134127000D01*
X45500000Y-134127000D01*
X45524776Y-134124560D01*
X45548601Y-134117333D01*
X45570557Y-134105597D01*
X45589803Y-134089803D01*
X45605597Y-134070557D01*
X45617333Y-134048601D01*
X45624560Y-134024776D01*
X45627000Y-134000000D01*
X45627000Y-126500000D01*
X46873000Y-126500000D01*
X46873000Y-134000000D01*
X46875440Y-134024776D01*
X46882667Y-134048601D01*
X46894403Y-134070557D01*
X46910197Y-134089803D01*
X46929443Y-134105597D01*
X46951399Y-134117333D01*
X46975224Y-134124560D01*
X47000000Y-134127000D01*
X54500000Y-134127000D01*
X54524776Y-134124560D01*
X54548601Y-134117333D01*
X54570557Y-134105597D01*
X54589803Y-134089803D01*
X54605597Y-134070557D01*
X54617333Y-134048601D01*
X54624560Y-134024776D01*
X54627000Y-134000000D01*
X54627000Y-126500000D01*
X55873000Y-126500000D01*
X55873000Y-134000000D01*
X55875440Y-134024776D01*
X55882667Y-134048601D01*
X55894403Y-134070557D01*
X55910197Y-134089803D01*
X55929443Y-134105597D01*
X55951399Y-134117333D01*
X55975224Y-134124560D01*
X56000000Y-134127000D01*
X63500000Y-134127000D01*
X63524776Y-134124560D01*
X63548601Y-134117333D01*
X63570557Y-134105597D01*
X63589803Y-134089803D01*
X63605597Y-134070557D01*
X63617333Y-134048601D01*
X63624560Y-134024776D01*
X63627000Y-134000000D01*
X63627000Y-130150000D01*
X73061928Y-130150000D01*
X73074188Y-130274482D01*
X73110498Y-130394180D01*
X73169463Y-130504494D01*
X73248815Y-130601185D01*
X73334899Y-130671832D01*
X73327722Y-130677722D01*
X73218279Y-130811079D01*
X73136955Y-130963225D01*
X73086877Y-131128313D01*
X73069967Y-131299999D01*
X73069967Y-131950001D01*
X73086877Y-132121687D01*
X73136955Y-132286775D01*
X73218279Y-132438921D01*
X73327722Y-132572278D01*
X73461079Y-132681721D01*
X73613225Y-132763045D01*
X73778313Y-132813123D01*
X73949999Y-132830033D01*
X74850001Y-132830033D01*
X75021687Y-132813123D01*
X75186775Y-132763045D01*
X75195943Y-132758145D01*
X75299565Y-132737533D01*
X75486467Y-132660115D01*
X75654674Y-132547723D01*
X75797723Y-132404674D01*
X75910115Y-132236467D01*
X75987533Y-132049565D01*
X76027000Y-131851151D01*
X76027000Y-131648849D01*
X75987533Y-131450435D01*
X75910115Y-131263533D01*
X75797723Y-131095326D01*
X75660086Y-130957689D01*
X75581721Y-130811079D01*
X75472278Y-130677722D01*
X75465101Y-130671832D01*
X75551185Y-130601185D01*
X75630537Y-130504494D01*
X75689502Y-130394180D01*
X75725812Y-130274482D01*
X75738072Y-130150000D01*
X75735000Y-129860750D01*
X75576250Y-129702000D01*
X74527000Y-129702000D01*
X74527000Y-129722000D01*
X74273000Y-129722000D01*
X74273000Y-129702000D01*
X73223750Y-129702000D01*
X73065000Y-129860750D01*
X73061928Y-130150000D01*
X63627000Y-130150000D01*
X63627000Y-127199999D01*
X72169967Y-127199999D01*
X72169967Y-128100001D01*
X72186877Y-128271687D01*
X72236955Y-128436775D01*
X72318279Y-128588921D01*
X72427722Y-128722278D01*
X72561079Y-128831721D01*
X72713225Y-128913045D01*
X72878313Y-128963123D01*
X73049999Y-128980033D01*
X73063895Y-128980033D01*
X73061928Y-129000000D01*
X73065000Y-129289250D01*
X73223750Y-129448000D01*
X74273000Y-129448000D01*
X74273000Y-129428000D01*
X74527000Y-129428000D01*
X74527000Y-129448000D01*
X75576250Y-129448000D01*
X75735000Y-129289250D01*
X75738072Y-129000000D01*
X75736622Y-128985275D01*
X76000000Y-128988072D01*
X76124482Y-128975812D01*
X76244180Y-128939502D01*
X76354494Y-128880537D01*
X76451185Y-128801185D01*
X76530537Y-128704494D01*
X76589502Y-128594180D01*
X76625812Y-128474482D01*
X76638072Y-128350000D01*
X76635000Y-127935750D01*
X76476250Y-127777000D01*
X75552000Y-127777000D01*
X75552000Y-127797000D01*
X75298000Y-127797000D01*
X75298000Y-127777000D01*
X75278000Y-127777000D01*
X75278000Y-127523000D01*
X75298000Y-127523000D01*
X75298000Y-126473750D01*
X75552000Y-126473750D01*
X75552000Y-127523000D01*
X76476250Y-127523000D01*
X76635000Y-127364250D01*
X76638072Y-126950000D01*
X76625812Y-126825518D01*
X76589502Y-126705820D01*
X76530537Y-126595506D01*
X76451185Y-126498815D01*
X76354494Y-126419463D01*
X76244180Y-126360498D01*
X76124482Y-126324188D01*
X76000000Y-126311928D01*
X75710750Y-126315000D01*
X75552000Y-126473750D01*
X75298000Y-126473750D01*
X75139250Y-126315000D01*
X74850000Y-126311928D01*
X74725518Y-126324188D01*
X74605820Y-126360498D01*
X74495506Y-126419463D01*
X74398815Y-126498815D01*
X74328168Y-126584899D01*
X74322278Y-126577722D01*
X74188921Y-126468279D01*
X74036775Y-126386955D01*
X73871687Y-126336877D01*
X73700001Y-126319967D01*
X73049999Y-126319967D01*
X72878313Y-126336877D01*
X72713225Y-126386955D01*
X72561079Y-126468279D01*
X72427722Y-126577722D01*
X72318279Y-126711079D01*
X72236955Y-126863225D01*
X72186877Y-127028313D01*
X72169967Y-127199999D01*
X63627000Y-127199999D01*
X63627000Y-126500000D01*
X63624560Y-126475224D01*
X63617333Y-126451399D01*
X63605597Y-126429443D01*
X63589803Y-126410197D01*
X63570557Y-126394403D01*
X63548601Y-126382667D01*
X63524776Y-126375440D01*
X63500000Y-126373000D01*
X56000000Y-126373000D01*
X55975224Y-126375440D01*
X55951399Y-126382667D01*
X55929443Y-126394403D01*
X55910197Y-126410197D01*
X55894403Y-126429443D01*
X55882667Y-126451399D01*
X55875440Y-126475224D01*
X55873000Y-126500000D01*
X54627000Y-126500000D01*
X54624560Y-126475224D01*
X54617333Y-126451399D01*
X54605597Y-126429443D01*
X54589803Y-126410197D01*
X54570557Y-126394403D01*
X54548601Y-126382667D01*
X54524776Y-126375440D01*
X54500000Y-126373000D01*
X47000000Y-126373000D01*
X46975224Y-126375440D01*
X46951399Y-126382667D01*
X46929443Y-126394403D01*
X46910197Y-126410197D01*
X46894403Y-126429443D01*
X46882667Y-126451399D01*
X46875440Y-126475224D01*
X46873000Y-126500000D01*
X45627000Y-126500000D01*
X45624560Y-126475224D01*
X45617333Y-126451399D01*
X45605597Y-126429443D01*
X45589803Y-126410197D01*
X45570557Y-126394403D01*
X45548601Y-126382667D01*
X45524776Y-126375440D01*
X45500000Y-126373000D01*
X38000000Y-126373000D01*
X37975224Y-126375440D01*
X37951399Y-126382667D01*
X37929443Y-126394403D01*
X37910197Y-126410197D01*
X37894403Y-126429443D01*
X37882667Y-126451399D01*
X37875440Y-126475224D01*
X37873000Y-126500000D01*
X36627000Y-126500000D01*
X36624560Y-126475224D01*
X36617333Y-126451399D01*
X36605597Y-126429443D01*
X36589803Y-126410197D01*
X36570557Y-126394403D01*
X36548601Y-126382667D01*
X36524776Y-126375440D01*
X36500000Y-126373000D01*
X29000000Y-126373000D01*
X28975224Y-126375440D01*
X28951399Y-126382667D01*
X28929443Y-126394403D01*
X28910197Y-126410197D01*
X28894403Y-126429443D01*
X28882667Y-126451399D01*
X28875440Y-126475224D01*
X28873000Y-126500000D01*
X27652000Y-126500000D01*
X27652000Y-121390509D01*
X29953000Y-121390509D01*
X29953000Y-121809491D01*
X30034739Y-122220423D01*
X30195077Y-122607512D01*
X30427851Y-122955884D01*
X30724116Y-123252149D01*
X31072488Y-123484923D01*
X31459577Y-123645261D01*
X31870509Y-123727000D01*
X32289491Y-123727000D01*
X32700423Y-123645261D01*
X33087512Y-123484923D01*
X33435884Y-123252149D01*
X33732149Y-122955884D01*
X33964923Y-122607512D01*
X34125261Y-122220423D01*
X34207000Y-121809491D01*
X34207000Y-121390509D01*
X35033000Y-121390509D01*
X35033000Y-121809491D01*
X35114739Y-122220423D01*
X35275077Y-122607512D01*
X35507851Y-122955884D01*
X35804116Y-123252149D01*
X36152488Y-123484923D01*
X36539577Y-123645261D01*
X36950509Y-123727000D01*
X37369491Y-123727000D01*
X37780423Y-123645261D01*
X38167512Y-123484923D01*
X38515884Y-123252149D01*
X38812149Y-122955884D01*
X39044923Y-122607512D01*
X39205261Y-122220423D01*
X39287000Y-121809491D01*
X39287000Y-121390509D01*
X40113000Y-121390509D01*
X40113000Y-121809491D01*
X40194739Y-122220423D01*
X40355077Y-122607512D01*
X40587851Y-122955884D01*
X40884116Y-123252149D01*
X41232488Y-123484923D01*
X41619577Y-123645261D01*
X42030509Y-123727000D01*
X42449491Y-123727000D01*
X42860423Y-123645261D01*
X43247512Y-123484923D01*
X43595884Y-123252149D01*
X43892149Y-122955884D01*
X44124923Y-122607512D01*
X44285261Y-122220423D01*
X44367000Y-121809491D01*
X44367000Y-121390509D01*
X45193000Y-121390509D01*
X45193000Y-121809491D01*
X45274739Y-122220423D01*
X45435077Y-122607512D01*
X45667851Y-122955884D01*
X45964116Y-123252149D01*
X46312488Y-123484923D01*
X46699577Y-123645261D01*
X47110509Y-123727000D01*
X47529491Y-123727000D01*
X47940423Y-123645261D01*
X48327512Y-123484923D01*
X48675884Y-123252149D01*
X48972149Y-122955884D01*
X49204923Y-122607512D01*
X49365261Y-122220423D01*
X49447000Y-121809491D01*
X49447000Y-121390509D01*
X49365261Y-120979577D01*
X49204923Y-120592488D01*
X48972149Y-120244116D01*
X48828033Y-120100000D01*
X50269967Y-120100000D01*
X50269967Y-123100000D01*
X50282073Y-123222913D01*
X50317925Y-123341103D01*
X50376147Y-123450028D01*
X50454499Y-123545501D01*
X50549972Y-123623853D01*
X50658897Y-123682075D01*
X50777087Y-123717927D01*
X50900000Y-123730033D01*
X53900000Y-123730033D01*
X54022913Y-123717927D01*
X54141103Y-123682075D01*
X54250028Y-123623853D01*
X54345501Y-123545501D01*
X54423853Y-123450028D01*
X54482075Y-123341103D01*
X54517927Y-123222913D01*
X54530033Y-123100000D01*
X54530033Y-123091653D01*
X57407952Y-123091653D01*
X57563962Y-123407214D01*
X57938745Y-123598020D01*
X58343551Y-123712044D01*
X58762824Y-123744902D01*
X59180451Y-123695334D01*
X59580383Y-123565243D01*
X59876038Y-123407214D01*
X60032048Y-123091653D01*
X58720000Y-121779605D01*
X57407952Y-123091653D01*
X54530033Y-123091653D01*
X54530033Y-121642824D01*
X56575098Y-121642824D01*
X56624666Y-122060451D01*
X56754757Y-122460383D01*
X56912786Y-122756038D01*
X57228347Y-122912048D01*
X58540395Y-121600000D01*
X58899605Y-121600000D01*
X60211653Y-122912048D01*
X60527214Y-122756038D01*
X60718020Y-122381255D01*
X60832044Y-121976449D01*
X60864902Y-121557176D01*
X60815334Y-121139549D01*
X60685243Y-120739617D01*
X60527214Y-120443962D01*
X60211653Y-120287952D01*
X58899605Y-121600000D01*
X58540395Y-121600000D01*
X57228347Y-120287952D01*
X56912786Y-120443962D01*
X56721980Y-120818745D01*
X56607956Y-121223551D01*
X56575098Y-121642824D01*
X54530033Y-121642824D01*
X54530033Y-120108347D01*
X57407952Y-120108347D01*
X58720000Y-121420395D01*
X60032048Y-120108347D01*
X60027922Y-120100000D01*
X61669967Y-120100000D01*
X61669967Y-123100000D01*
X61682073Y-123222913D01*
X61717925Y-123341103D01*
X61776147Y-123450028D01*
X61854499Y-123545501D01*
X61949972Y-123623853D01*
X62058897Y-123682075D01*
X62177087Y-123717927D01*
X62300000Y-123730033D01*
X65300000Y-123730033D01*
X65422913Y-123717927D01*
X65541103Y-123682075D01*
X65650028Y-123623853D01*
X65745501Y-123545501D01*
X65823853Y-123450028D01*
X65882075Y-123341103D01*
X65917927Y-123222913D01*
X65930033Y-123100000D01*
X65930033Y-122623073D01*
X81173000Y-122623073D01*
X81173000Y-123376927D01*
X81320070Y-124116295D01*
X81608557Y-124812764D01*
X82027375Y-125439570D01*
X82560430Y-125972625D01*
X83187236Y-126391443D01*
X83883705Y-126679930D01*
X84623073Y-126827000D01*
X85376927Y-126827000D01*
X86116295Y-126679930D01*
X86812764Y-126391443D01*
X87439570Y-125972625D01*
X87972625Y-125439570D01*
X88391443Y-124812764D01*
X88679930Y-124116295D01*
X88827000Y-123376927D01*
X88827000Y-122623073D01*
X88679930Y-121883705D01*
X88391443Y-121187236D01*
X87972625Y-120560430D01*
X87439570Y-120027375D01*
X86812764Y-119608557D01*
X86116295Y-119320070D01*
X85376927Y-119173000D01*
X84623073Y-119173000D01*
X83883705Y-119320070D01*
X83187236Y-119608557D01*
X82560430Y-120027375D01*
X82027375Y-120560430D01*
X81608557Y-121187236D01*
X81320070Y-121883705D01*
X81173000Y-122623073D01*
X65930033Y-122623073D01*
X65930033Y-120100000D01*
X65917927Y-119977087D01*
X65882075Y-119858897D01*
X65823853Y-119749972D01*
X65745501Y-119654499D01*
X65650028Y-119576147D01*
X65541103Y-119517925D01*
X65422913Y-119482073D01*
X65300000Y-119469967D01*
X62300000Y-119469967D01*
X62177087Y-119482073D01*
X62058897Y-119517925D01*
X61949972Y-119576147D01*
X61854499Y-119654499D01*
X61776147Y-119749972D01*
X61717925Y-119858897D01*
X61682073Y-119977087D01*
X61669967Y-120100000D01*
X60027922Y-120100000D01*
X59876038Y-119792786D01*
X59501255Y-119601980D01*
X59096449Y-119487956D01*
X58677176Y-119455098D01*
X58259549Y-119504666D01*
X57859617Y-119634757D01*
X57563962Y-119792786D01*
X57407952Y-120108347D01*
X54530033Y-120108347D01*
X54530033Y-120100000D01*
X54517927Y-119977087D01*
X54482075Y-119858897D01*
X54423853Y-119749972D01*
X54345501Y-119654499D01*
X54250028Y-119576147D01*
X54141103Y-119517925D01*
X54022913Y-119482073D01*
X53900000Y-119469967D01*
X50900000Y-119469967D01*
X50777087Y-119482073D01*
X50658897Y-119517925D01*
X50549972Y-119576147D01*
X50454499Y-119654499D01*
X50376147Y-119749972D01*
X50317925Y-119858897D01*
X50282073Y-119977087D01*
X50269967Y-120100000D01*
X48828033Y-120100000D01*
X48675884Y-119947851D01*
X48327512Y-119715077D01*
X47940423Y-119554739D01*
X47529491Y-119473000D01*
X47110509Y-119473000D01*
X46699577Y-119554739D01*
X46312488Y-119715077D01*
X45964116Y-119947851D01*
X45667851Y-120244116D01*
X45435077Y-120592488D01*
X45274739Y-120979577D01*
X45193000Y-121390509D01*
X44367000Y-121390509D01*
X44285261Y-120979577D01*
X44124923Y-120592488D01*
X43892149Y-120244116D01*
X43595884Y-119947851D01*
X43247512Y-119715077D01*
X42860423Y-119554739D01*
X42449491Y-119473000D01*
X42030509Y-119473000D01*
X41619577Y-119554739D01*
X41232488Y-119715077D01*
X40884116Y-119947851D01*
X40587851Y-120244116D01*
X40355077Y-120592488D01*
X40194739Y-120979577D01*
X40113000Y-121390509D01*
X39287000Y-121390509D01*
X39205261Y-120979577D01*
X39044923Y-120592488D01*
X38812149Y-120244116D01*
X38515884Y-119947851D01*
X38167512Y-119715077D01*
X37780423Y-119554739D01*
X37369491Y-119473000D01*
X36950509Y-119473000D01*
X36539577Y-119554739D01*
X36152488Y-119715077D01*
X35804116Y-119947851D01*
X35507851Y-120244116D01*
X35275077Y-120592488D01*
X35114739Y-120979577D01*
X35033000Y-121390509D01*
X34207000Y-121390509D01*
X34125261Y-120979577D01*
X33964923Y-120592488D01*
X33732149Y-120244116D01*
X33435884Y-119947851D01*
X33087512Y-119715077D01*
X32700423Y-119554739D01*
X32289491Y-119473000D01*
X31870509Y-119473000D01*
X31459577Y-119554739D01*
X31072488Y-119715077D01*
X30724116Y-119947851D01*
X30427851Y-120244116D01*
X30195077Y-120592488D01*
X30034739Y-120979577D01*
X29953000Y-121390509D01*
X27652000Y-121390509D01*
X27652000Y-117652000D01*
X90348000Y-117652000D01*
X90348001Y-161348000D01*
M02*
