M48
; DRILL file {KiCad (5.1.5)-3} date 24.11.2020 12:16:49
; FORMAT={-:-/ absolute / inch / decimal}
; #@! TF.CreationDate,2020-11-24T12:16:49+03:00
; #@! TF.GenerationSoftware,Kicad,Pcbnew,(5.1.5)-3
; #@! TF.FileFunction,Plated,1,2,PTH
FMAT,2
INCH
T1C0.0118
T2C0.0157
T3C0.0197
T4C0.0394
T5C0.0598
T6C0.1260
%
G90
G05
T1
X1.2008Y-5.0394
X1.2008Y-5.0866
X1.2008Y-5.1339
X1.2008Y-5.1811
X1.2008Y-5.2283
X1.248Y-5.0394
X1.248Y-5.0866
X1.248Y-5.1339
X1.248Y-5.1811
X1.248Y-5.2283
X1.2953Y-5.0394
X1.2953Y-5.0866
X1.2953Y-5.1339
X1.2953Y-5.1811
X1.2953Y-5.2283
X1.3425Y-5.0394
X1.3425Y-5.0866
X1.3425Y-5.1339
X1.3425Y-5.1811
X1.3425Y-5.2283
X1.3898Y-5.0394
X1.3898Y-5.0866
X1.3898Y-5.1339
X1.3898Y-5.1811
X1.3898Y-5.2283
X1.5551Y-5.0394
X1.5551Y-5.0866
X1.5551Y-5.1339
X1.5551Y-5.1811
X1.5551Y-5.2283
X1.6024Y-5.0394
X1.6024Y-5.0866
X1.6024Y-5.1339
X1.6024Y-5.1811
X1.6024Y-5.2283
X1.6496Y-5.0394
X1.6496Y-5.0866
X1.6496Y-5.1339
X1.6496Y-5.1811
X1.6496Y-5.2283
X1.6969Y-5.0394
X1.6969Y-5.0866
X1.6969Y-5.1339
X1.6969Y-5.1811
X1.6969Y-5.2283
X1.7441Y-5.0394
X1.7441Y-5.0866
X1.7441Y-5.1339
X1.7441Y-5.1811
X1.7441Y-5.2283
X1.9094Y-5.0394
X1.9094Y-5.0866
X1.9094Y-5.1339
X1.9094Y-5.1811
X1.9094Y-5.2283
X1.9567Y-5.0394
X1.9567Y-5.0866
X1.9567Y-5.1339
X1.9567Y-5.1811
X1.9567Y-5.2283
X2.0039Y-5.0394
X2.0039Y-5.0866
X2.0039Y-5.1339
X2.0039Y-5.1811
X2.0039Y-5.2283
X2.0512Y-5.0394
X2.0512Y-5.0866
X2.0512Y-5.1339
X2.0512Y-5.1811
X2.0512Y-5.2283
X2.0984Y-5.0394
X2.0984Y-5.0866
X2.0984Y-5.1339
X2.0984Y-5.1811
X2.0984Y-5.2283
X2.2638Y-5.0394
X2.2638Y-5.0866
X2.2638Y-5.1339
X2.2638Y-5.1811
X2.2638Y-5.2283
X2.311Y-5.0394
X2.311Y-5.0866
X2.311Y-5.1339
X2.311Y-5.1811
X2.311Y-5.2283
X2.3583Y-5.0394
X2.3583Y-5.0866
X2.3583Y-5.1339
X2.3583Y-5.1811
X2.3583Y-5.2283
X2.4055Y-5.0394
X2.4055Y-5.0866
X2.4055Y-5.1339
X2.4055Y-5.1811
X2.4055Y-5.2283
X2.4528Y-5.0394
X2.4528Y-5.0866
X2.4528Y-5.1339
X2.4528Y-5.1811
X2.4528Y-5.2283
T2
X1.311Y-5.628
X1.3465Y-5.5276
X1.3819Y-5.3504
X1.3831Y-5.3972
X1.3858Y-5.6654
X1.6634Y-5.628
X1.6988Y-5.5276
X1.7224Y-6.063
X1.7376Y-5.3977
X1.7382Y-5.3524
X1.7382Y-5.6654
X2.0295Y-5.628
X2.0669Y-5.5276
X2.0906Y-5.3543
X2.0921Y-5.3982
X2.1043Y-5.6654
X2.2343Y-6.0531
X2.2933Y-6.063
X2.3839Y-5.6299
X2.4193Y-5.5276
X2.4469Y-5.3543
X2.4469Y-5.3957
X2.4567Y-5.6654
X2.6024Y-5.0256
X2.6772Y-5.8858
X2.7165Y-5.4488
X2.7165Y-6.1417
X2.7165Y-6.2697
X2.7559Y-5.4488
X2.7654Y-5.9325
X2.7854Y-6.122
X2.7953Y-5.4488
X2.874Y-6.1319
X2.8888Y-5.0256
X2.9429Y-4.8051
X2.9528Y-5.187
X2.9547Y-5.8211
X2.9823Y-4.8051
X3.0217Y-4.8051
X3.0236Y-5.1339
X3.0326Y-5.9214
X3.0939Y-5.8824
X3.1004Y-6.0138
X3.1693Y-6.2205
X3.1831Y-5.7244
X3.2224Y-5.7244
X3.2677Y-6.1516
X3.4134Y-5.7244
X3.4528Y-5.7244
X3.4921Y-5.7244
T3
X3.252Y-4.8425
X3.2796Y-4.7757
X3.2796Y-4.9093
X3.3465Y-4.748
X3.3465Y-4.937
X3.4133Y-4.7757
X3.4133Y-4.9093
X3.4409Y-4.8425
X1.2047Y-6.1417
X1.2324Y-6.0749
X1.2324Y-6.2085
X1.2992Y-6.0472
X1.2992Y-6.2362
X1.366Y-6.0749
X1.366Y-6.2085
X1.3937Y-6.1417
T4
X2.8543Y-6.2795
X2.9543Y-6.2795
T5
X2.3118Y-4.7874
X2.5118Y-4.7874
X1.263Y-4.7874
X1.463Y-4.7874
X1.663Y-4.7874
X1.863Y-4.7874
X2.063Y-4.7874
T6
X3.3465Y-4.8425
X1.2992Y-6.1417
T0
M30
