G04 #@! TF.GenerationSoftware,KiCad,Pcbnew,(5.1.5)-3*
G04 #@! TF.CreationDate,2020-11-24T12:16:53+03:00*
G04 #@! TF.ProjectId,fast-pwm,66617374-2d70-4776-9d2e-6b696361645f,rev?*
G04 #@! TF.SameCoordinates,Original*
G04 #@! TF.FileFunction,Paste,Bot*
G04 #@! TF.FilePolarity,Positive*
%FSLAX46Y46*%
G04 Gerber Fmt 4.6, Leading zero omitted, Abs format (unit mm)*
G04 Created by KiCad (PCBNEW (5.1.5)-3) date 2020-11-24 12:16:53*
%MOMM*%
%LPD*%
G04 APERTURE LIST*
%ADD10C,0.100000*%
%ADD11R,1.900000X0.800000*%
G04 APERTURE END LIST*
D10*
G36*
X73826775Y-148520974D02*
G01*
X73851043Y-148524574D01*
X73874842Y-148530535D01*
X73897941Y-148538800D01*
X73920120Y-148549290D01*
X73941163Y-148561902D01*
X73960869Y-148576517D01*
X73979047Y-148592993D01*
X73995523Y-148611171D01*
X74010138Y-148630877D01*
X74022750Y-148651920D01*
X74033240Y-148674099D01*
X74041505Y-148697198D01*
X74047466Y-148720997D01*
X74051066Y-148745265D01*
X74052270Y-148769769D01*
X74052270Y-149419771D01*
X74051066Y-149444275D01*
X74047466Y-149468543D01*
X74041505Y-149492342D01*
X74033240Y-149515441D01*
X74022750Y-149537620D01*
X74010138Y-149558663D01*
X73995523Y-149578369D01*
X73979047Y-149596547D01*
X73960869Y-149613023D01*
X73941163Y-149627638D01*
X73920120Y-149640250D01*
X73897941Y-149650740D01*
X73874842Y-149659005D01*
X73851043Y-149664966D01*
X73826775Y-149668566D01*
X73802271Y-149669770D01*
X72902269Y-149669770D01*
X72877765Y-149668566D01*
X72853497Y-149664966D01*
X72829698Y-149659005D01*
X72806599Y-149650740D01*
X72784420Y-149640250D01*
X72763377Y-149627638D01*
X72743671Y-149613023D01*
X72725493Y-149596547D01*
X72709017Y-149578369D01*
X72694402Y-149558663D01*
X72681790Y-149537620D01*
X72671300Y-149515441D01*
X72663035Y-149492342D01*
X72657074Y-149468543D01*
X72653474Y-149444275D01*
X72652270Y-149419771D01*
X72652270Y-148769769D01*
X72653474Y-148745265D01*
X72657074Y-148720997D01*
X72663035Y-148697198D01*
X72671300Y-148674099D01*
X72681790Y-148651920D01*
X72694402Y-148630877D01*
X72709017Y-148611171D01*
X72725493Y-148592993D01*
X72743671Y-148576517D01*
X72763377Y-148561902D01*
X72784420Y-148549290D01*
X72806599Y-148538800D01*
X72829698Y-148530535D01*
X72853497Y-148524574D01*
X72877765Y-148520974D01*
X72902269Y-148519770D01*
X73802271Y-148519770D01*
X73826775Y-148520974D01*
G37*
G36*
X73826775Y-150570974D02*
G01*
X73851043Y-150574574D01*
X73874842Y-150580535D01*
X73897941Y-150588800D01*
X73920120Y-150599290D01*
X73941163Y-150611902D01*
X73960869Y-150626517D01*
X73979047Y-150642993D01*
X73995523Y-150661171D01*
X74010138Y-150680877D01*
X74022750Y-150701920D01*
X74033240Y-150724099D01*
X74041505Y-150747198D01*
X74047466Y-150770997D01*
X74051066Y-150795265D01*
X74052270Y-150819769D01*
X74052270Y-151469771D01*
X74051066Y-151494275D01*
X74047466Y-151518543D01*
X74041505Y-151542342D01*
X74033240Y-151565441D01*
X74022750Y-151587620D01*
X74010138Y-151608663D01*
X73995523Y-151628369D01*
X73979047Y-151646547D01*
X73960869Y-151663023D01*
X73941163Y-151677638D01*
X73920120Y-151690250D01*
X73897941Y-151700740D01*
X73874842Y-151709005D01*
X73851043Y-151714966D01*
X73826775Y-151718566D01*
X73802271Y-151719770D01*
X72902269Y-151719770D01*
X72877765Y-151718566D01*
X72853497Y-151714966D01*
X72829698Y-151709005D01*
X72806599Y-151700740D01*
X72784420Y-151690250D01*
X72763377Y-151677638D01*
X72743671Y-151663023D01*
X72725493Y-151646547D01*
X72709017Y-151628369D01*
X72694402Y-151608663D01*
X72681790Y-151587620D01*
X72671300Y-151565441D01*
X72663035Y-151542342D01*
X72657074Y-151518543D01*
X72653474Y-151494275D01*
X72652270Y-151469771D01*
X72652270Y-150819769D01*
X72653474Y-150795265D01*
X72657074Y-150770997D01*
X72663035Y-150747198D01*
X72671300Y-150724099D01*
X72681790Y-150701920D01*
X72694402Y-150680877D01*
X72709017Y-150661171D01*
X72725493Y-150642993D01*
X72743671Y-150626517D01*
X72763377Y-150611902D01*
X72784420Y-150599290D01*
X72806599Y-150588800D01*
X72829698Y-150580535D01*
X72853497Y-150574574D01*
X72877765Y-150570974D01*
X72902269Y-150569770D01*
X73802271Y-150569770D01*
X73826775Y-150570974D01*
G37*
G36*
X79974505Y-152651204D02*
G01*
X79998773Y-152654804D01*
X80022572Y-152660765D01*
X80045671Y-152669030D01*
X80067850Y-152679520D01*
X80088893Y-152692132D01*
X80108599Y-152706747D01*
X80126777Y-152723223D01*
X80143253Y-152741401D01*
X80157868Y-152761107D01*
X80170480Y-152782150D01*
X80180970Y-152804329D01*
X80189235Y-152827428D01*
X80195196Y-152851227D01*
X80198796Y-152875495D01*
X80200000Y-152899999D01*
X80200000Y-153550001D01*
X80198796Y-153574505D01*
X80195196Y-153598773D01*
X80189235Y-153622572D01*
X80180970Y-153645671D01*
X80170480Y-153667850D01*
X80157868Y-153688893D01*
X80143253Y-153708599D01*
X80126777Y-153726777D01*
X80108599Y-153743253D01*
X80088893Y-153757868D01*
X80067850Y-153770480D01*
X80045671Y-153780970D01*
X80022572Y-153789235D01*
X79998773Y-153795196D01*
X79974505Y-153798796D01*
X79950001Y-153800000D01*
X79049999Y-153800000D01*
X79025495Y-153798796D01*
X79001227Y-153795196D01*
X78977428Y-153789235D01*
X78954329Y-153780970D01*
X78932150Y-153770480D01*
X78911107Y-153757868D01*
X78891401Y-153743253D01*
X78873223Y-153726777D01*
X78856747Y-153708599D01*
X78842132Y-153688893D01*
X78829520Y-153667850D01*
X78819030Y-153645671D01*
X78810765Y-153622572D01*
X78804804Y-153598773D01*
X78801204Y-153574505D01*
X78800000Y-153550001D01*
X78800000Y-152899999D01*
X78801204Y-152875495D01*
X78804804Y-152851227D01*
X78810765Y-152827428D01*
X78819030Y-152804329D01*
X78829520Y-152782150D01*
X78842132Y-152761107D01*
X78856747Y-152741401D01*
X78873223Y-152723223D01*
X78891401Y-152706747D01*
X78911107Y-152692132D01*
X78932150Y-152679520D01*
X78954329Y-152669030D01*
X78977428Y-152660765D01*
X79001227Y-152654804D01*
X79025495Y-152651204D01*
X79049999Y-152650000D01*
X79950001Y-152650000D01*
X79974505Y-152651204D01*
G37*
G36*
X79974505Y-154701204D02*
G01*
X79998773Y-154704804D01*
X80022572Y-154710765D01*
X80045671Y-154719030D01*
X80067850Y-154729520D01*
X80088893Y-154742132D01*
X80108599Y-154756747D01*
X80126777Y-154773223D01*
X80143253Y-154791401D01*
X80157868Y-154811107D01*
X80170480Y-154832150D01*
X80180970Y-154854329D01*
X80189235Y-154877428D01*
X80195196Y-154901227D01*
X80198796Y-154925495D01*
X80200000Y-154949999D01*
X80200000Y-155600001D01*
X80198796Y-155624505D01*
X80195196Y-155648773D01*
X80189235Y-155672572D01*
X80180970Y-155695671D01*
X80170480Y-155717850D01*
X80157868Y-155738893D01*
X80143253Y-155758599D01*
X80126777Y-155776777D01*
X80108599Y-155793253D01*
X80088893Y-155807868D01*
X80067850Y-155820480D01*
X80045671Y-155830970D01*
X80022572Y-155839235D01*
X79998773Y-155845196D01*
X79974505Y-155848796D01*
X79950001Y-155850000D01*
X79049999Y-155850000D01*
X79025495Y-155848796D01*
X79001227Y-155845196D01*
X78977428Y-155839235D01*
X78954329Y-155830970D01*
X78932150Y-155820480D01*
X78911107Y-155807868D01*
X78891401Y-155793253D01*
X78873223Y-155776777D01*
X78856747Y-155758599D01*
X78842132Y-155738893D01*
X78829520Y-155717850D01*
X78819030Y-155695671D01*
X78810765Y-155672572D01*
X78804804Y-155648773D01*
X78801204Y-155624505D01*
X78800000Y-155600001D01*
X78800000Y-154949999D01*
X78801204Y-154925495D01*
X78804804Y-154901227D01*
X78810765Y-154877428D01*
X78819030Y-154854329D01*
X78829520Y-154832150D01*
X78842132Y-154811107D01*
X78856747Y-154791401D01*
X78873223Y-154773223D01*
X78891401Y-154756747D01*
X78911107Y-154742132D01*
X78932150Y-154729520D01*
X78954329Y-154719030D01*
X78977428Y-154710765D01*
X79001227Y-154704804D01*
X79025495Y-154701204D01*
X79049999Y-154700000D01*
X79950001Y-154700000D01*
X79974505Y-154701204D01*
G37*
G36*
X76089517Y-150570974D02*
G01*
X76113785Y-150574574D01*
X76137584Y-150580535D01*
X76160683Y-150588800D01*
X76182862Y-150599290D01*
X76203905Y-150611902D01*
X76223611Y-150626517D01*
X76241789Y-150642993D01*
X76258265Y-150661171D01*
X76272880Y-150680877D01*
X76285492Y-150701920D01*
X76295982Y-150724099D01*
X76304247Y-150747198D01*
X76310208Y-150770997D01*
X76313808Y-150795265D01*
X76315012Y-150819769D01*
X76315012Y-151469771D01*
X76313808Y-151494275D01*
X76310208Y-151518543D01*
X76304247Y-151542342D01*
X76295982Y-151565441D01*
X76285492Y-151587620D01*
X76272880Y-151608663D01*
X76258265Y-151628369D01*
X76241789Y-151646547D01*
X76223611Y-151663023D01*
X76203905Y-151677638D01*
X76182862Y-151690250D01*
X76160683Y-151700740D01*
X76137584Y-151709005D01*
X76113785Y-151714966D01*
X76089517Y-151718566D01*
X76065013Y-151719770D01*
X75165011Y-151719770D01*
X75140507Y-151718566D01*
X75116239Y-151714966D01*
X75092440Y-151709005D01*
X75069341Y-151700740D01*
X75047162Y-151690250D01*
X75026119Y-151677638D01*
X75006413Y-151663023D01*
X74988235Y-151646547D01*
X74971759Y-151628369D01*
X74957144Y-151608663D01*
X74944532Y-151587620D01*
X74934042Y-151565441D01*
X74925777Y-151542342D01*
X74919816Y-151518543D01*
X74916216Y-151494275D01*
X74915012Y-151469771D01*
X74915012Y-150819769D01*
X74916216Y-150795265D01*
X74919816Y-150770997D01*
X74925777Y-150747198D01*
X74934042Y-150724099D01*
X74944532Y-150701920D01*
X74957144Y-150680877D01*
X74971759Y-150661171D01*
X74988235Y-150642993D01*
X75006413Y-150626517D01*
X75026119Y-150611902D01*
X75047162Y-150599290D01*
X75069341Y-150588800D01*
X75092440Y-150580535D01*
X75116239Y-150574574D01*
X75140507Y-150570974D01*
X75165011Y-150569770D01*
X76065013Y-150569770D01*
X76089517Y-150570974D01*
G37*
G36*
X76089517Y-148520974D02*
G01*
X76113785Y-148524574D01*
X76137584Y-148530535D01*
X76160683Y-148538800D01*
X76182862Y-148549290D01*
X76203905Y-148561902D01*
X76223611Y-148576517D01*
X76241789Y-148592993D01*
X76258265Y-148611171D01*
X76272880Y-148630877D01*
X76285492Y-148651920D01*
X76295982Y-148674099D01*
X76304247Y-148697198D01*
X76310208Y-148720997D01*
X76313808Y-148745265D01*
X76315012Y-148769769D01*
X76315012Y-149419771D01*
X76313808Y-149444275D01*
X76310208Y-149468543D01*
X76304247Y-149492342D01*
X76295982Y-149515441D01*
X76285492Y-149537620D01*
X76272880Y-149558663D01*
X76258265Y-149578369D01*
X76241789Y-149596547D01*
X76223611Y-149613023D01*
X76203905Y-149627638D01*
X76182862Y-149640250D01*
X76160683Y-149650740D01*
X76137584Y-149659005D01*
X76113785Y-149664966D01*
X76089517Y-149668566D01*
X76065013Y-149669770D01*
X75165011Y-149669770D01*
X75140507Y-149668566D01*
X75116239Y-149664966D01*
X75092440Y-149659005D01*
X75069341Y-149650740D01*
X75047162Y-149640250D01*
X75026119Y-149627638D01*
X75006413Y-149613023D01*
X74988235Y-149596547D01*
X74971759Y-149578369D01*
X74957144Y-149558663D01*
X74944532Y-149537620D01*
X74934042Y-149515441D01*
X74925777Y-149492342D01*
X74919816Y-149468543D01*
X74916216Y-149444275D01*
X74915012Y-149419771D01*
X74915012Y-148769769D01*
X74916216Y-148745265D01*
X74919816Y-148720997D01*
X74925777Y-148697198D01*
X74934042Y-148674099D01*
X74944532Y-148651920D01*
X74957144Y-148630877D01*
X74971759Y-148611171D01*
X74988235Y-148592993D01*
X75006413Y-148576517D01*
X75026119Y-148561902D01*
X75047162Y-148549290D01*
X75069341Y-148538800D01*
X75092440Y-148530535D01*
X75116239Y-148524574D01*
X75140507Y-148520974D01*
X75165011Y-148519770D01*
X76065013Y-148519770D01*
X76089517Y-148520974D01*
G37*
G36*
X71564034Y-148520974D02*
G01*
X71588302Y-148524574D01*
X71612101Y-148530535D01*
X71635200Y-148538800D01*
X71657379Y-148549290D01*
X71678422Y-148561902D01*
X71698128Y-148576517D01*
X71716306Y-148592993D01*
X71732782Y-148611171D01*
X71747397Y-148630877D01*
X71760009Y-148651920D01*
X71770499Y-148674099D01*
X71778764Y-148697198D01*
X71784725Y-148720997D01*
X71788325Y-148745265D01*
X71789529Y-148769769D01*
X71789529Y-149419771D01*
X71788325Y-149444275D01*
X71784725Y-149468543D01*
X71778764Y-149492342D01*
X71770499Y-149515441D01*
X71760009Y-149537620D01*
X71747397Y-149558663D01*
X71732782Y-149578369D01*
X71716306Y-149596547D01*
X71698128Y-149613023D01*
X71678422Y-149627638D01*
X71657379Y-149640250D01*
X71635200Y-149650740D01*
X71612101Y-149659005D01*
X71588302Y-149664966D01*
X71564034Y-149668566D01*
X71539530Y-149669770D01*
X70639528Y-149669770D01*
X70615024Y-149668566D01*
X70590756Y-149664966D01*
X70566957Y-149659005D01*
X70543858Y-149650740D01*
X70521679Y-149640250D01*
X70500636Y-149627638D01*
X70480930Y-149613023D01*
X70462752Y-149596547D01*
X70446276Y-149578369D01*
X70431661Y-149558663D01*
X70419049Y-149537620D01*
X70408559Y-149515441D01*
X70400294Y-149492342D01*
X70394333Y-149468543D01*
X70390733Y-149444275D01*
X70389529Y-149419771D01*
X70389529Y-148769769D01*
X70390733Y-148745265D01*
X70394333Y-148720997D01*
X70400294Y-148697198D01*
X70408559Y-148674099D01*
X70419049Y-148651920D01*
X70431661Y-148630877D01*
X70446276Y-148611171D01*
X70462752Y-148592993D01*
X70480930Y-148576517D01*
X70500636Y-148561902D01*
X70521679Y-148549290D01*
X70543858Y-148538800D01*
X70566957Y-148530535D01*
X70590756Y-148524574D01*
X70615024Y-148520974D01*
X70639528Y-148519770D01*
X71539530Y-148519770D01*
X71564034Y-148520974D01*
G37*
G36*
X71564034Y-150570974D02*
G01*
X71588302Y-150574574D01*
X71612101Y-150580535D01*
X71635200Y-150588800D01*
X71657379Y-150599290D01*
X71678422Y-150611902D01*
X71698128Y-150626517D01*
X71716306Y-150642993D01*
X71732782Y-150661171D01*
X71747397Y-150680877D01*
X71760009Y-150701920D01*
X71770499Y-150724099D01*
X71778764Y-150747198D01*
X71784725Y-150770997D01*
X71788325Y-150795265D01*
X71789529Y-150819769D01*
X71789529Y-151469771D01*
X71788325Y-151494275D01*
X71784725Y-151518543D01*
X71778764Y-151542342D01*
X71770499Y-151565441D01*
X71760009Y-151587620D01*
X71747397Y-151608663D01*
X71732782Y-151628369D01*
X71716306Y-151646547D01*
X71698128Y-151663023D01*
X71678422Y-151677638D01*
X71657379Y-151690250D01*
X71635200Y-151700740D01*
X71612101Y-151709005D01*
X71588302Y-151714966D01*
X71564034Y-151718566D01*
X71539530Y-151719770D01*
X70639528Y-151719770D01*
X70615024Y-151718566D01*
X70590756Y-151714966D01*
X70566957Y-151709005D01*
X70543858Y-151700740D01*
X70521679Y-151690250D01*
X70500636Y-151677638D01*
X70480930Y-151663023D01*
X70462752Y-151646547D01*
X70446276Y-151628369D01*
X70431661Y-151608663D01*
X70419049Y-151587620D01*
X70408559Y-151565441D01*
X70400294Y-151542342D01*
X70394333Y-151518543D01*
X70390733Y-151494275D01*
X70389529Y-151469771D01*
X70389529Y-150819769D01*
X70390733Y-150795265D01*
X70394333Y-150770997D01*
X70400294Y-150747198D01*
X70408559Y-150724099D01*
X70419049Y-150701920D01*
X70431661Y-150680877D01*
X70446276Y-150661171D01*
X70462752Y-150642993D01*
X70480930Y-150626517D01*
X70500636Y-150611902D01*
X70521679Y-150599290D01*
X70543858Y-150588800D01*
X70566957Y-150580535D01*
X70590756Y-150574574D01*
X70615024Y-150570974D01*
X70639528Y-150569770D01*
X71539530Y-150569770D01*
X71564034Y-150570974D01*
G37*
D11*
X59950000Y-142950000D03*
X62950000Y-143900000D03*
X62950000Y-142000000D03*
X51000000Y-142950000D03*
X54000000Y-143900000D03*
X54000000Y-142000000D03*
X41700000Y-142950000D03*
X44700000Y-143900000D03*
X44700000Y-142000000D03*
X32750000Y-142950000D03*
X35750000Y-143900000D03*
X35750000Y-142000000D03*
D10*
G36*
X73724505Y-126951204D02*
G01*
X73748773Y-126954804D01*
X73772572Y-126960765D01*
X73795671Y-126969030D01*
X73817850Y-126979520D01*
X73838893Y-126992132D01*
X73858599Y-127006747D01*
X73876777Y-127023223D01*
X73893253Y-127041401D01*
X73907868Y-127061107D01*
X73920480Y-127082150D01*
X73930970Y-127104329D01*
X73939235Y-127127428D01*
X73945196Y-127151227D01*
X73948796Y-127175495D01*
X73950000Y-127199999D01*
X73950000Y-128100001D01*
X73948796Y-128124505D01*
X73945196Y-128148773D01*
X73939235Y-128172572D01*
X73930970Y-128195671D01*
X73920480Y-128217850D01*
X73907868Y-128238893D01*
X73893253Y-128258599D01*
X73876777Y-128276777D01*
X73858599Y-128293253D01*
X73838893Y-128307868D01*
X73817850Y-128320480D01*
X73795671Y-128330970D01*
X73772572Y-128339235D01*
X73748773Y-128345196D01*
X73724505Y-128348796D01*
X73700001Y-128350000D01*
X73049999Y-128350000D01*
X73025495Y-128348796D01*
X73001227Y-128345196D01*
X72977428Y-128339235D01*
X72954329Y-128330970D01*
X72932150Y-128320480D01*
X72911107Y-128307868D01*
X72891401Y-128293253D01*
X72873223Y-128276777D01*
X72856747Y-128258599D01*
X72842132Y-128238893D01*
X72829520Y-128217850D01*
X72819030Y-128195671D01*
X72810765Y-128172572D01*
X72804804Y-128148773D01*
X72801204Y-128124505D01*
X72800000Y-128100001D01*
X72800000Y-127199999D01*
X72801204Y-127175495D01*
X72804804Y-127151227D01*
X72810765Y-127127428D01*
X72819030Y-127104329D01*
X72829520Y-127082150D01*
X72842132Y-127061107D01*
X72856747Y-127041401D01*
X72873223Y-127023223D01*
X72891401Y-127006747D01*
X72911107Y-126992132D01*
X72932150Y-126979520D01*
X72954329Y-126969030D01*
X72977428Y-126960765D01*
X73001227Y-126954804D01*
X73025495Y-126951204D01*
X73049999Y-126950000D01*
X73700001Y-126950000D01*
X73724505Y-126951204D01*
G37*
G36*
X75774505Y-126951204D02*
G01*
X75798773Y-126954804D01*
X75822572Y-126960765D01*
X75845671Y-126969030D01*
X75867850Y-126979520D01*
X75888893Y-126992132D01*
X75908599Y-127006747D01*
X75926777Y-127023223D01*
X75943253Y-127041401D01*
X75957868Y-127061107D01*
X75970480Y-127082150D01*
X75980970Y-127104329D01*
X75989235Y-127127428D01*
X75995196Y-127151227D01*
X75998796Y-127175495D01*
X76000000Y-127199999D01*
X76000000Y-128100001D01*
X75998796Y-128124505D01*
X75995196Y-128148773D01*
X75989235Y-128172572D01*
X75980970Y-128195671D01*
X75970480Y-128217850D01*
X75957868Y-128238893D01*
X75943253Y-128258599D01*
X75926777Y-128276777D01*
X75908599Y-128293253D01*
X75888893Y-128307868D01*
X75867850Y-128320480D01*
X75845671Y-128330970D01*
X75822572Y-128339235D01*
X75798773Y-128345196D01*
X75774505Y-128348796D01*
X75750001Y-128350000D01*
X75099999Y-128350000D01*
X75075495Y-128348796D01*
X75051227Y-128345196D01*
X75027428Y-128339235D01*
X75004329Y-128330970D01*
X74982150Y-128320480D01*
X74961107Y-128307868D01*
X74941401Y-128293253D01*
X74923223Y-128276777D01*
X74906747Y-128258599D01*
X74892132Y-128238893D01*
X74879520Y-128217850D01*
X74869030Y-128195671D01*
X74860765Y-128172572D01*
X74854804Y-128148773D01*
X74851204Y-128124505D01*
X74850000Y-128100001D01*
X74850000Y-127199999D01*
X74851204Y-127175495D01*
X74854804Y-127151227D01*
X74860765Y-127127428D01*
X74869030Y-127104329D01*
X74879520Y-127082150D01*
X74892132Y-127061107D01*
X74906747Y-127041401D01*
X74923223Y-127023223D01*
X74941401Y-127006747D01*
X74961107Y-126992132D01*
X74982150Y-126979520D01*
X75004329Y-126969030D01*
X75027428Y-126960765D01*
X75051227Y-126954804D01*
X75075495Y-126951204D01*
X75099999Y-126950000D01*
X75750001Y-126950000D01*
X75774505Y-126951204D01*
G37*
G36*
X74874505Y-129001204D02*
G01*
X74898773Y-129004804D01*
X74922572Y-129010765D01*
X74945671Y-129019030D01*
X74967850Y-129029520D01*
X74988893Y-129042132D01*
X75008599Y-129056747D01*
X75026777Y-129073223D01*
X75043253Y-129091401D01*
X75057868Y-129111107D01*
X75070480Y-129132150D01*
X75080970Y-129154329D01*
X75089235Y-129177428D01*
X75095196Y-129201227D01*
X75098796Y-129225495D01*
X75100000Y-129249999D01*
X75100000Y-129900001D01*
X75098796Y-129924505D01*
X75095196Y-129948773D01*
X75089235Y-129972572D01*
X75080970Y-129995671D01*
X75070480Y-130017850D01*
X75057868Y-130038893D01*
X75043253Y-130058599D01*
X75026777Y-130076777D01*
X75008599Y-130093253D01*
X74988893Y-130107868D01*
X74967850Y-130120480D01*
X74945671Y-130130970D01*
X74922572Y-130139235D01*
X74898773Y-130145196D01*
X74874505Y-130148796D01*
X74850001Y-130150000D01*
X73949999Y-130150000D01*
X73925495Y-130148796D01*
X73901227Y-130145196D01*
X73877428Y-130139235D01*
X73854329Y-130130970D01*
X73832150Y-130120480D01*
X73811107Y-130107868D01*
X73791401Y-130093253D01*
X73773223Y-130076777D01*
X73756747Y-130058599D01*
X73742132Y-130038893D01*
X73729520Y-130017850D01*
X73719030Y-129995671D01*
X73710765Y-129972572D01*
X73704804Y-129948773D01*
X73701204Y-129924505D01*
X73700000Y-129900001D01*
X73700000Y-129249999D01*
X73701204Y-129225495D01*
X73704804Y-129201227D01*
X73710765Y-129177428D01*
X73719030Y-129154329D01*
X73729520Y-129132150D01*
X73742132Y-129111107D01*
X73756747Y-129091401D01*
X73773223Y-129073223D01*
X73791401Y-129056747D01*
X73811107Y-129042132D01*
X73832150Y-129029520D01*
X73854329Y-129019030D01*
X73877428Y-129010765D01*
X73901227Y-129004804D01*
X73925495Y-129001204D01*
X73949999Y-129000000D01*
X74850001Y-129000000D01*
X74874505Y-129001204D01*
G37*
G36*
X74874505Y-131051204D02*
G01*
X74898773Y-131054804D01*
X74922572Y-131060765D01*
X74945671Y-131069030D01*
X74967850Y-131079520D01*
X74988893Y-131092132D01*
X75008599Y-131106747D01*
X75026777Y-131123223D01*
X75043253Y-131141401D01*
X75057868Y-131161107D01*
X75070480Y-131182150D01*
X75080970Y-131204329D01*
X75089235Y-131227428D01*
X75095196Y-131251227D01*
X75098796Y-131275495D01*
X75100000Y-131299999D01*
X75100000Y-131950001D01*
X75098796Y-131974505D01*
X75095196Y-131998773D01*
X75089235Y-132022572D01*
X75080970Y-132045671D01*
X75070480Y-132067850D01*
X75057868Y-132088893D01*
X75043253Y-132108599D01*
X75026777Y-132126777D01*
X75008599Y-132143253D01*
X74988893Y-132157868D01*
X74967850Y-132170480D01*
X74945671Y-132180970D01*
X74922572Y-132189235D01*
X74898773Y-132195196D01*
X74874505Y-132198796D01*
X74850001Y-132200000D01*
X73949999Y-132200000D01*
X73925495Y-132198796D01*
X73901227Y-132195196D01*
X73877428Y-132189235D01*
X73854329Y-132180970D01*
X73832150Y-132170480D01*
X73811107Y-132157868D01*
X73791401Y-132143253D01*
X73773223Y-132126777D01*
X73756747Y-132108599D01*
X73742132Y-132088893D01*
X73729520Y-132067850D01*
X73719030Y-132045671D01*
X73710765Y-132022572D01*
X73704804Y-131998773D01*
X73701204Y-131974505D01*
X73700000Y-131950001D01*
X73700000Y-131299999D01*
X73701204Y-131275495D01*
X73704804Y-131251227D01*
X73710765Y-131227428D01*
X73719030Y-131204329D01*
X73729520Y-131182150D01*
X73742132Y-131161107D01*
X73756747Y-131141401D01*
X73773223Y-131123223D01*
X73791401Y-131106747D01*
X73811107Y-131092132D01*
X73832150Y-131079520D01*
X73854329Y-131069030D01*
X73877428Y-131060765D01*
X73901227Y-131054804D01*
X73925495Y-131051204D01*
X73949999Y-131050000D01*
X74850001Y-131050000D01*
X74874505Y-131051204D01*
G37*
M02*
